<svg width="112" height="23" viewBox="0 0 112 23" fill="none" xmlns="http://www.w3.org/2000/svg">
<mask id="path-1-outside-1_6123_330" maskUnits="userSpaceOnUse" x="0" y="4" width="84" height="13" fill="black">
<rect fill="white" y="4" width="84" height="13"/>
<path d="M12.36 8.89V12.61C12.36 13.68 12.39 14.41 12.45 14.8C12.52 15.19 12.615 15.435 12.735 15.535C12.965 15.725 13.33 15.82 13.83 15.82L13.86 16H9.84L9.87 15.82C10.36 15.82 10.72 15.73 10.95 15.55C11.14 15.4 11.25 14.91 11.28 14.08C11.3 13.75 11.31 13.26 11.31 12.61V6.265L7.11 15.85L2.775 7.735V12.58C2.775 13.58 2.82 14.305 2.91 14.755C3.01 15.195 3.165 15.485 3.375 15.625C3.585 15.755 3.935 15.82 4.425 15.82L4.455 16H0.765L0.795 15.82C1.165 15.82 1.44 15.795 1.62 15.745C1.81 15.685 1.97 15.535 2.1 15.295C2.23 15.055 2.31 14.735 2.34 14.335C2.38 13.935 2.4 13.35 2.4 12.58V8.905C2.4 8.135 2.38 7.55 2.34 7.15C2.31 6.75 2.23 6.43 2.1 6.19C1.97 5.95 1.81 5.805 1.62 5.755C1.44 5.695 1.165 5.665 0.795 5.665L0.765 5.5H2.775L7.41 14.245L11.235 5.5H13.86L13.83 5.665C13.33 5.665 12.965 5.76 12.735 5.95C12.485 6.16 12.36 7.14 12.36 8.89ZM15.2045 12.46C15.2045 11.41 15.5045 10.53 16.1045 9.82C16.7045 9.11 17.5195 8.755 18.5495 8.755C19.5795 8.755 20.4095 9.11 21.0395 9.82C21.6695 10.53 21.9845 11.41 21.9845 12.46C21.9845 13.51 21.6795 14.39 21.0695 15.1C20.4695 15.8 19.6545 16.15 18.6245 16.15C17.5945 16.15 16.7645 15.795 16.1345 15.085C15.5145 14.375 15.2045 13.5 15.2045 12.46ZM16.9295 14.89C17.3295 15.53 17.8945 15.85 18.6245 15.85C19.3545 15.85 19.9045 15.535 20.2745 14.905C20.6545 14.275 20.8445 13.465 20.8445 12.475C20.8445 11.475 20.6445 10.655 20.2445 10.015C19.8445 9.375 19.2795 9.055 18.5495 9.055C17.8295 9.055 17.2795 9.375 16.8995 10.015C16.5295 10.645 16.3445 11.455 16.3445 12.445C16.3445 13.435 16.5395 14.25 16.9295 14.89ZM27.8079 8.68C28.0579 8.68 28.2779 8.735 28.4679 8.845C28.6579 8.955 28.7529 9.105 28.7529 9.295C28.7529 9.485 28.6929 9.635 28.5729 9.745C28.4529 9.855 28.3179 9.91 28.1679 9.91C28.0179 9.91 27.8279 9.845 27.5979 9.715C27.3779 9.585 27.1429 9.52 26.8929 9.52C26.5029 9.52 26.1829 9.88 25.9329 10.6C25.6929 11.32 25.5729 12.155 25.5729 13.105C25.5729 14.385 25.6379 15.16 25.7679 15.43C25.8079 15.52 25.8829 15.605 25.9929 15.685C26.1029 15.755 26.2179 15.795 26.3379 15.805C26.4579 15.815 26.6279 15.82 26.8479 15.82L26.8779 16H23.2329L23.2629 15.82C23.5829 15.82 23.8129 15.805 23.9529 15.775C24.1029 15.735 24.2279 15.61 24.3279 15.4C24.4279 15.19 24.4829 14.93 24.4929 14.62C24.5129 14.3 24.5229 13.795 24.5229 13.105V12.235C24.5229 10.845 24.4829 10.055 24.4029 9.865C24.3329 9.675 24.2679 9.525 24.2079 9.415C24.1479 9.305 24.0579 9.23 23.9379 9.19C23.7179 9.13 23.4279 9.1 23.0679 9.1L23.0379 8.935C23.8879 8.815 24.7329 8.755 25.5729 8.755V10.96C25.6829 10.25 25.9279 9.695 26.3079 9.295C26.6979 8.885 27.1979 8.68 27.8079 8.68ZM35.2684 12.205H30.3484V12.46C30.3484 13.52 30.5734 14.33 31.0234 14.89C31.4734 15.44 32.0334 15.715 32.7034 15.715C33.7034 15.715 34.4234 15.315 34.8634 14.515L35.0884 14.635C34.5684 15.645 33.6984 16.15 32.4784 16.15C31.5784 16.15 30.8084 15.825 30.1684 15.175C29.5284 14.525 29.2084 13.65 29.2084 12.55C29.2084 11.44 29.4884 10.53 30.0484 9.82C30.6184 9.11 31.3734 8.755 32.3134 8.755C33.2634 8.755 33.9934 9.08 34.5034 9.73C35.0134 10.37 35.2684 11.195 35.2684 12.205ZM32.3584 9.055C31.7784 9.055 31.3184 9.305 30.9784 9.805C30.6484 10.295 30.4484 10.95 30.3784 11.77H34.1134C34.0434 9.96 33.4584 9.055 32.3584 9.055ZM45.4405 14.335C45.2805 14.855 45.0055 15.29 44.6155 15.64C44.2355 15.98 43.7655 16.15 43.2055 16.15C42.6555 16.15 42.1955 16.04 41.8255 15.82C41.4555 15.6 41.1705 15.31 40.9705 14.95C40.5705 14.26 40.3705 13.42 40.3705 12.43C40.3705 11.44 40.7105 10.58 41.3905 9.85C42.0705 9.12 42.9805 8.755 44.1205 8.755C44.6205 8.755 45.0755 8.815 45.4855 8.935V7.51C45.4855 6.76 45.4605 6.255 45.4105 5.995C45.3605 5.725 45.2805 5.56 45.1705 5.5C44.9705 5.38 44.6555 5.32 44.2255 5.32L44.1955 5.155C44.9155 5.035 45.6955 4.975 46.5355 4.975V12.67C46.5355 13.78 46.5705 14.51 46.6405 14.86C46.7105 15.2 46.8805 15.37 47.1505 15.37C47.3205 15.37 47.5455 15.3 47.8255 15.16L47.9005 15.31C47.8205 15.37 47.7155 15.445 47.5855 15.535C47.4555 15.615 47.1905 15.725 46.7905 15.865C46.3905 16.005 46.0055 16.075 45.6355 16.075C45.5055 15.535 45.4405 14.955 45.4405 14.335ZM41.8705 14.59C41.9905 14.92 42.1755 15.185 42.4255 15.385C42.6855 15.585 42.9955 15.685 43.3555 15.685C43.7255 15.685 44.0555 15.56 44.3455 15.31C44.6455 15.06 44.8705 14.74 45.0205 14.35C45.3305 13.6 45.4855 12.825 45.4855 12.025V9.73C45.0555 9.39 44.5855 9.22 44.0755 9.22C43.5655 9.22 43.1405 9.33 42.8005 9.55C42.4605 9.77 42.2005 10.06 42.0205 10.42C41.6805 11.09 41.5105 11.805 41.5105 12.565C41.5105 13.295 41.6305 13.97 41.8705 14.59ZM54.8534 12.205H49.9334V12.46C49.9334 13.52 50.1584 14.33 50.6084 14.89C51.0584 15.44 51.6184 15.715 52.2884 15.715C53.2884 15.715 54.0084 15.315 54.4484 14.515L54.6734 14.635C54.1534 15.645 53.2834 16.15 52.0634 16.15C51.1634 16.15 50.3934 15.825 49.7534 15.175C49.1134 14.525 48.7934 13.65 48.7934 12.55C48.7934 11.44 49.0734 10.53 49.6334 9.82C50.2034 9.11 50.9584 8.755 51.8984 8.755C52.8484 8.755 53.5784 9.08 54.0884 9.73C54.5984 10.37 54.8534 11.195 54.8534 12.205ZM51.9434 9.055C51.3634 9.055 50.9034 9.305 50.5634 9.805C50.2334 10.295 50.0334 10.95 49.9634 11.77H53.6984C53.6284 9.96 53.0434 9.055 51.9434 9.055ZM58.2455 8.905H60.0905V9.235H58.2455V14.95C58.2455 15.16 58.2955 15.33 58.3955 15.46C58.4955 15.58 58.6255 15.64 58.7855 15.64C59.1455 15.64 59.5705 15.535 60.0605 15.325L60.0905 15.49C59.3905 15.93 58.7705 16.15 58.2305 16.15C57.8805 16.15 57.6205 16.065 57.4505 15.895C57.2805 15.725 57.1955 15.43 57.1955 15.01V9.235H56.2955V8.905C56.8355 8.905 57.2105 8.755 57.4205 8.455C57.6405 8.145 57.8055 7.69 57.9155 7.09L58.2455 7.06V8.905ZM66.5755 11.155V12.67C66.5755 13.78 66.6105 14.51 66.6805 14.86C66.7505 15.2 66.9205 15.37 67.1905 15.37C67.3605 15.37 67.5855 15.3 67.8655 15.16L67.9405 15.31C67.8605 15.37 67.7555 15.445 67.6255 15.535C67.4955 15.615 67.2305 15.725 66.8305 15.865C66.4305 16.005 66.0455 16.075 65.6755 16.075C65.5755 15.655 65.5255 14.985 65.5255 14.065C65.3055 14.685 65.0155 15.19 64.6555 15.58C64.3055 15.96 63.8155 16.15 63.1855 16.15C62.5555 16.15 62.0555 15.985 61.6855 15.655C61.3255 15.315 61.1455 14.855 61.1455 14.275C61.1455 12.665 62.6055 11.855 65.5255 11.845V11.305C65.5255 10.585 65.4205 10.035 65.2105 9.655C65.0005 9.275 64.6105 9.085 64.0405 9.085C63.7205 9.085 63.4605 9.165 63.2605 9.325C63.0605 9.485 62.9255 9.66 62.8555 9.85C62.6855 10.37 62.4305 10.63 62.0905 10.63C61.7605 10.63 61.5955 10.445 61.5955 10.075C61.5955 9.695 61.8455 9.38 62.3455 9.13C62.8455 8.88 63.4505 8.755 64.1605 8.755C64.8705 8.755 65.4505 8.96 65.9005 9.37C66.3505 9.77 66.5755 10.365 66.5755 11.155ZM62.2855 14.335C62.2855 14.725 62.3805 15.05 62.5705 15.31C62.7605 15.56 63.0605 15.685 63.4705 15.685C63.8905 15.685 64.2705 15.485 64.6105 15.085C64.9505 14.675 65.1805 14.225 65.3005 13.735C65.4305 13.235 65.5055 12.72 65.5255 12.19C64.4155 12.2 63.5955 12.405 63.0655 12.805C62.5455 13.205 62.2855 13.715 62.2855 14.335ZM70.1653 6.955C69.9953 6.785 69.9103 6.585 69.9103 6.355C69.9103 6.125 69.9953 5.925 70.1653 5.755C70.3353 5.585 70.5353 5.5 70.7653 5.5C70.9953 5.5 71.1953 5.585 71.3653 5.755C71.5353 5.925 71.6203 6.125 71.6203 6.355C71.6203 6.585 71.5353 6.785 71.3653 6.955C71.1953 7.125 70.9953 7.21 70.7653 7.21C70.5353 7.21 70.3353 7.125 70.1653 6.955ZM71.3353 8.755V13.525C71.3353 14.575 71.3953 15.22 71.5153 15.46C71.6453 15.7 72.0053 15.82 72.5953 15.82L72.6253 16H68.9653L68.9953 15.82C69.5953 15.82 69.9603 15.7 70.0903 15.46C70.2203 15.21 70.2853 14.555 70.2853 13.495V12.445C70.2853 11.285 70.2503 10.52 70.1803 10.15C70.1203 9.77 70.0303 9.525 69.9103 9.415C69.6703 9.195 69.3003 9.085 68.8003 9.085L68.7703 8.92C69.6403 8.81 70.4953 8.755 71.3353 8.755ZM75.8261 4.96V13.39C75.8261 14.5 75.8911 15.185 76.0211 15.445C76.1511 15.695 76.5111 15.82 77.1011 15.82L77.1311 16H73.4561L73.4861 15.82C74.0861 15.82 74.4511 15.695 74.5811 15.445C74.7111 15.195 74.7761 14.51 74.7761 13.39V7.66C74.7761 6.55 74.7161 5.88 74.5961 5.65C74.5561 5.58 74.4811 5.51 74.3711 5.44C74.2611 5.37 74.1411 5.33 74.0111 5.32C73.8911 5.31 73.7161 5.305 73.4861 5.305L73.4561 5.14C74.2061 5.02 74.9961 4.96 75.8261 4.96ZM78.6581 13.765C78.6581 14.415 78.8331 14.905 79.1831 15.235C79.5331 15.555 79.9481 15.715 80.4281 15.715C80.9181 15.715 81.3131 15.605 81.6131 15.385C81.9131 15.165 82.0631 14.87 82.0631 14.5C82.0631 14.12 81.9331 13.81 81.6731 13.57C81.4231 13.33 81.1181 13.135 80.7581 12.985C80.3981 12.835 80.0331 12.68 79.6631 12.52C79.3031 12.36 78.9931 12.125 78.7331 11.815C78.4831 11.505 78.3581 11.09 78.3581 10.57C78.3581 10.05 78.5881 9.62 79.0481 9.28C79.5181 8.93 80.0581 8.755 80.6681 8.755C81.5381 8.755 82.2181 8.895 82.7081 9.175C82.7081 9.635 82.6481 10.275 82.5281 11.095L82.3481 11.05C82.3481 10.39 82.1981 9.91 81.8981 9.61C81.5981 9.31 81.2331 9.16 80.8031 9.16C80.3831 9.16 80.0431 9.27 79.7831 9.49C79.5331 9.71 79.4081 10.01 79.4081 10.39C79.4081 10.76 79.5331 11.06 79.7831 11.29C80.0431 11.51 80.3531 11.695 80.7131 11.845C81.0731 11.995 81.4331 12.155 81.7931 12.325C82.1631 12.485 82.4731 12.72 82.7231 13.03C82.9831 13.33 83.1131 13.7 83.1131 14.14C83.1131 14.78 82.8631 15.275 82.3631 15.625C81.8631 15.975 81.2031 16.15 80.3831 16.15C79.5731 16.15 78.8881 15.935 78.3281 15.505C78.3281 15.005 78.3781 14.415 78.4781 13.735L78.6581 13.765Z"/>
</mask>
<path d="M12.36 8.89V12.61C12.36 13.68 12.39 14.41 12.45 14.8C12.52 15.19 12.615 15.435 12.735 15.535C12.965 15.725 13.33 15.82 13.83 15.82L13.86 16H9.84L9.87 15.82C10.36 15.82 10.72 15.73 10.95 15.55C11.14 15.4 11.25 14.91 11.28 14.08C11.3 13.75 11.31 13.26 11.31 12.61V6.265L7.11 15.85L2.775 7.735V12.58C2.775 13.58 2.82 14.305 2.91 14.755C3.01 15.195 3.165 15.485 3.375 15.625C3.585 15.755 3.935 15.82 4.425 15.82L4.455 16H0.765L0.795 15.82C1.165 15.82 1.44 15.795 1.62 15.745C1.81 15.685 1.97 15.535 2.1 15.295C2.23 15.055 2.31 14.735 2.34 14.335C2.38 13.935 2.4 13.35 2.4 12.58V8.905C2.4 8.135 2.38 7.55 2.34 7.15C2.31 6.75 2.23 6.43 2.1 6.19C1.97 5.95 1.81 5.805 1.62 5.755C1.44 5.695 1.165 5.665 0.795 5.665L0.765 5.5H2.775L7.41 14.245L11.235 5.5H13.86L13.83 5.665C13.33 5.665 12.965 5.76 12.735 5.95C12.485 6.16 12.36 7.14 12.36 8.89ZM15.2045 12.46C15.2045 11.41 15.5045 10.53 16.1045 9.82C16.7045 9.11 17.5195 8.755 18.5495 8.755C19.5795 8.755 20.4095 9.11 21.0395 9.82C21.6695 10.53 21.9845 11.41 21.9845 12.46C21.9845 13.51 21.6795 14.39 21.0695 15.1C20.4695 15.8 19.6545 16.15 18.6245 16.15C17.5945 16.15 16.7645 15.795 16.1345 15.085C15.5145 14.375 15.2045 13.5 15.2045 12.46ZM16.9295 14.89C17.3295 15.53 17.8945 15.85 18.6245 15.85C19.3545 15.85 19.9045 15.535 20.2745 14.905C20.6545 14.275 20.8445 13.465 20.8445 12.475C20.8445 11.475 20.6445 10.655 20.2445 10.015C19.8445 9.375 19.2795 9.055 18.5495 9.055C17.8295 9.055 17.2795 9.375 16.8995 10.015C16.5295 10.645 16.3445 11.455 16.3445 12.445C16.3445 13.435 16.5395 14.25 16.9295 14.89ZM27.8079 8.68C28.0579 8.68 28.2779 8.735 28.4679 8.845C28.6579 8.955 28.7529 9.105 28.7529 9.295C28.7529 9.485 28.6929 9.635 28.5729 9.745C28.4529 9.855 28.3179 9.91 28.1679 9.91C28.0179 9.91 27.8279 9.845 27.5979 9.715C27.3779 9.585 27.1429 9.52 26.8929 9.52C26.5029 9.52 26.1829 9.88 25.9329 10.6C25.6929 11.32 25.5729 12.155 25.5729 13.105C25.5729 14.385 25.6379 15.16 25.7679 15.43C25.8079 15.52 25.8829 15.605 25.9929 15.685C26.1029 15.755 26.2179 15.795 26.3379 15.805C26.4579 15.815 26.6279 15.82 26.8479 15.82L26.8779 16H23.2329L23.2629 15.82C23.5829 15.82 23.8129 15.805 23.9529 15.775C24.1029 15.735 24.2279 15.61 24.3279 15.4C24.4279 15.19 24.4829 14.93 24.4929 14.62C24.5129 14.3 24.5229 13.795 24.5229 13.105V12.235C24.5229 10.845 24.4829 10.055 24.4029 9.865C24.3329 9.675 24.2679 9.525 24.2079 9.415C24.1479 9.305 24.0579 9.23 23.9379 9.19C23.7179 9.13 23.4279 9.1 23.0679 9.1L23.0379 8.935C23.8879 8.815 24.7329 8.755 25.5729 8.755V10.96C25.6829 10.25 25.9279 9.695 26.3079 9.295C26.6979 8.885 27.1979 8.68 27.8079 8.68ZM35.2684 12.205H30.3484V12.46C30.3484 13.52 30.5734 14.33 31.0234 14.89C31.4734 15.44 32.0334 15.715 32.7034 15.715C33.7034 15.715 34.4234 15.315 34.8634 14.515L35.0884 14.635C34.5684 15.645 33.6984 16.15 32.4784 16.15C31.5784 16.15 30.8084 15.825 30.1684 15.175C29.5284 14.525 29.2084 13.65 29.2084 12.55C29.2084 11.44 29.4884 10.53 30.0484 9.82C30.6184 9.11 31.3734 8.755 32.3134 8.755C33.2634 8.755 33.9934 9.08 34.5034 9.73C35.0134 10.37 35.2684 11.195 35.2684 12.205ZM32.3584 9.055C31.7784 9.055 31.3184 9.305 30.9784 9.805C30.6484 10.295 30.4484 10.95 30.3784 11.77H34.1134C34.0434 9.96 33.4584 9.055 32.3584 9.055ZM45.4405 14.335C45.2805 14.855 45.0055 15.29 44.6155 15.64C44.2355 15.98 43.7655 16.15 43.2055 16.15C42.6555 16.15 42.1955 16.04 41.8255 15.82C41.4555 15.6 41.1705 15.31 40.9705 14.95C40.5705 14.26 40.3705 13.42 40.3705 12.43C40.3705 11.44 40.7105 10.58 41.3905 9.85C42.0705 9.12 42.9805 8.755 44.1205 8.755C44.6205 8.755 45.0755 8.815 45.4855 8.935V7.51C45.4855 6.76 45.4605 6.255 45.4105 5.995C45.3605 5.725 45.2805 5.56 45.1705 5.5C44.9705 5.38 44.6555 5.32 44.2255 5.32L44.1955 5.155C44.9155 5.035 45.6955 4.975 46.5355 4.975V12.67C46.5355 13.78 46.5705 14.51 46.6405 14.86C46.7105 15.2 46.8805 15.37 47.1505 15.37C47.3205 15.37 47.5455 15.3 47.8255 15.16L47.9005 15.31C47.8205 15.37 47.7155 15.445 47.5855 15.535C47.4555 15.615 47.1905 15.725 46.7905 15.865C46.3905 16.005 46.0055 16.075 45.6355 16.075C45.5055 15.535 45.4405 14.955 45.4405 14.335ZM41.8705 14.59C41.9905 14.92 42.1755 15.185 42.4255 15.385C42.6855 15.585 42.9955 15.685 43.3555 15.685C43.7255 15.685 44.0555 15.56 44.3455 15.31C44.6455 15.06 44.8705 14.74 45.0205 14.35C45.3305 13.6 45.4855 12.825 45.4855 12.025V9.73C45.0555 9.39 44.5855 9.22 44.0755 9.22C43.5655 9.22 43.1405 9.33 42.8005 9.55C42.4605 9.77 42.2005 10.06 42.0205 10.42C41.6805 11.09 41.5105 11.805 41.5105 12.565C41.5105 13.295 41.6305 13.97 41.8705 14.59ZM54.8534 12.205H49.9334V12.46C49.9334 13.52 50.1584 14.33 50.6084 14.89C51.0584 15.44 51.6184 15.715 52.2884 15.715C53.2884 15.715 54.0084 15.315 54.4484 14.515L54.6734 14.635C54.1534 15.645 53.2834 16.15 52.0634 16.15C51.1634 16.15 50.3934 15.825 49.7534 15.175C49.1134 14.525 48.7934 13.65 48.7934 12.55C48.7934 11.44 49.0734 10.53 49.6334 9.82C50.2034 9.11 50.9584 8.755 51.8984 8.755C52.8484 8.755 53.5784 9.08 54.0884 9.73C54.5984 10.37 54.8534 11.195 54.8534 12.205ZM51.9434 9.055C51.3634 9.055 50.9034 9.305 50.5634 9.805C50.2334 10.295 50.0334 10.95 49.9634 11.77H53.6984C53.6284 9.96 53.0434 9.055 51.9434 9.055ZM58.2455 8.905H60.0905V9.235H58.2455V14.95C58.2455 15.16 58.2955 15.33 58.3955 15.46C58.4955 15.58 58.6255 15.64 58.7855 15.64C59.1455 15.64 59.5705 15.535 60.0605 15.325L60.0905 15.49C59.3905 15.93 58.7705 16.15 58.2305 16.15C57.8805 16.15 57.6205 16.065 57.4505 15.895C57.2805 15.725 57.1955 15.43 57.1955 15.01V9.235H56.2955V8.905C56.8355 8.905 57.2105 8.755 57.4205 8.455C57.6405 8.145 57.8055 7.69 57.9155 7.09L58.2455 7.06V8.905ZM66.5755 11.155V12.67C66.5755 13.78 66.6105 14.51 66.6805 14.86C66.7505 15.2 66.9205 15.37 67.1905 15.37C67.3605 15.37 67.5855 15.3 67.8655 15.16L67.9405 15.31C67.8605 15.37 67.7555 15.445 67.6255 15.535C67.4955 15.615 67.2305 15.725 66.8305 15.865C66.4305 16.005 66.0455 16.075 65.6755 16.075C65.5755 15.655 65.5255 14.985 65.5255 14.065C65.3055 14.685 65.0155 15.19 64.6555 15.58C64.3055 15.96 63.8155 16.15 63.1855 16.15C62.5555 16.15 62.0555 15.985 61.6855 15.655C61.3255 15.315 61.1455 14.855 61.1455 14.275C61.1455 12.665 62.6055 11.855 65.5255 11.845V11.305C65.5255 10.585 65.4205 10.035 65.2105 9.655C65.0005 9.275 64.6105 9.085 64.0405 9.085C63.7205 9.085 63.4605 9.165 63.2605 9.325C63.0605 9.485 62.9255 9.66 62.8555 9.85C62.6855 10.37 62.4305 10.63 62.0905 10.63C61.7605 10.63 61.5955 10.445 61.5955 10.075C61.5955 9.695 61.8455 9.38 62.3455 9.13C62.8455 8.88 63.4505 8.755 64.1605 8.755C64.8705 8.755 65.4505 8.96 65.9005 9.37C66.3505 9.77 66.5755 10.365 66.5755 11.155ZM62.2855 14.335C62.2855 14.725 62.3805 15.05 62.5705 15.31C62.7605 15.56 63.0605 15.685 63.4705 15.685C63.8905 15.685 64.2705 15.485 64.6105 15.085C64.9505 14.675 65.1805 14.225 65.3005 13.735C65.4305 13.235 65.5055 12.72 65.5255 12.19C64.4155 12.2 63.5955 12.405 63.0655 12.805C62.5455 13.205 62.2855 13.715 62.2855 14.335ZM70.1653 6.955C69.9953 6.785 69.9103 6.585 69.9103 6.355C69.9103 6.125 69.9953 5.925 70.1653 5.755C70.3353 5.585 70.5353 5.5 70.7653 5.5C70.9953 5.5 71.1953 5.585 71.3653 5.755C71.5353 5.925 71.6203 6.125 71.6203 6.355C71.6203 6.585 71.5353 6.785 71.3653 6.955C71.1953 7.125 70.9953 7.21 70.7653 7.21C70.5353 7.21 70.3353 7.125 70.1653 6.955ZM71.3353 8.755V13.525C71.3353 14.575 71.3953 15.22 71.5153 15.46C71.6453 15.7 72.0053 15.82 72.5953 15.82L72.6253 16H68.9653L68.9953 15.82C69.5953 15.82 69.9603 15.7 70.0903 15.46C70.2203 15.21 70.2853 14.555 70.2853 13.495V12.445C70.2853 11.285 70.2503 10.52 70.1803 10.15C70.1203 9.77 70.0303 9.525 69.9103 9.415C69.6703 9.195 69.3003 9.085 68.8003 9.085L68.7703 8.92C69.6403 8.81 70.4953 8.755 71.3353 8.755ZM75.8261 4.96V13.39C75.8261 14.5 75.8911 15.185 76.0211 15.445C76.1511 15.695 76.5111 15.82 77.1011 15.82L77.1311 16H73.4561L73.4861 15.82C74.0861 15.82 74.4511 15.695 74.5811 15.445C74.7111 15.195 74.7761 14.51 74.7761 13.39V7.66C74.7761 6.55 74.7161 5.88 74.5961 5.65C74.5561 5.58 74.4811 5.51 74.3711 5.44C74.2611 5.37 74.1411 5.33 74.0111 5.32C73.8911 5.31 73.7161 5.305 73.4861 5.305L73.4561 5.14C74.2061 5.02 74.9961 4.96 75.8261 4.96ZM78.6581 13.765C78.6581 14.415 78.8331 14.905 79.1831 15.235C79.5331 15.555 79.9481 15.715 80.4281 15.715C80.9181 15.715 81.3131 15.605 81.6131 15.385C81.9131 15.165 82.0631 14.87 82.0631 14.5C82.0631 14.12 81.9331 13.81 81.6731 13.57C81.4231 13.33 81.1181 13.135 80.7581 12.985C80.3981 12.835 80.0331 12.68 79.6631 12.52C79.3031 12.36 78.9931 12.125 78.7331 11.815C78.4831 11.505 78.3581 11.09 78.3581 10.57C78.3581 10.05 78.5881 9.62 79.0481 9.28C79.5181 8.93 80.0581 8.755 80.6681 8.755C81.5381 8.755 82.2181 8.895 82.7081 9.175C82.7081 9.635 82.6481 10.275 82.5281 11.095L82.3481 11.05C82.3481 10.39 82.1981 9.91 81.8981 9.61C81.5981 9.31 81.2331 9.16 80.8031 9.16C80.3831 9.16 80.0431 9.27 79.7831 9.49C79.5331 9.71 79.4081 10.01 79.4081 10.39C79.4081 10.76 79.5331 11.06 79.7831 11.29C80.0431 11.51 80.3531 11.695 80.7131 11.845C81.0731 11.995 81.4331 12.155 81.7931 12.325C82.1631 12.485 82.4731 12.72 82.7231 13.03C82.9831 13.33 83.1131 13.7 83.1131 14.14C83.1131 14.78 82.8631 15.275 82.3631 15.625C81.8631 15.975 81.2031 16.15 80.3831 16.15C79.5731 16.15 78.8881 15.935 78.3281 15.505C78.3281 15.005 78.3781 14.415 78.4781 13.735L78.6581 13.765Z" fill="#25A59E"/>
<path d="M12.45 14.8L12.2523 14.8304L12.2531 14.8353L12.45 14.8ZM12.735 15.535L12.607 15.6886L12.6076 15.6892L12.735 15.535ZM13.83 15.82L14.0273 15.7871L13.9994 15.62H13.83V15.82ZM13.86 16V16.2H14.0961L14.0573 15.9671L13.86 16ZM9.84 16L9.64272 15.9671L9.60391 16.2H9.84V16ZM9.87 15.82V15.62H9.70058L9.67272 15.7871L9.87 15.82ZM10.95 15.55L11.0733 15.7075L11.0739 15.707L10.95 15.55ZM11.28 14.08L11.0803 14.0679L11.0801 14.0728L11.28 14.08ZM11.31 6.265H11.51L11.1268 6.18473L11.31 6.265ZM7.11 15.85L6.93359 15.9442L7.12778 16.3077L7.29319 15.9303L7.11 15.85ZM2.775 7.735L2.95141 7.64076L2.575 7.735H2.775ZM2.91 14.755L2.71382 14.7942L2.71497 14.7993L2.91 14.755ZM3.375 15.625L3.264 15.7915L3.26973 15.7951L3.375 15.625ZM4.425 15.82L4.62228 15.7871L4.59443 15.62H4.425V15.82ZM4.455 16V16.2H4.69109L4.65228 15.9671L4.455 16ZM0.765 16L0.567721 15.9671L0.528908 16.2H0.765V16ZM0.795 15.82V15.62H0.625575L0.597721 15.7871L0.795 15.82ZM1.62 15.745L1.67356 15.9378L1.68023 15.9357L1.62 15.745ZM2.1 15.295L1.92414 15.1997L2.1 15.295ZM2.34 14.335L2.14093 14.3151L2.14056 14.32L2.34 14.335ZM2.34 7.15L2.1405 7.16496L2.14099 7.1699L2.34 7.15ZM2.1 6.19L1.92414 6.28526L2.1 6.19ZM1.62 5.755L1.55662 5.94513L1.5691 5.94841L1.62 5.755ZM0.795 5.665L0.598226 5.70078L0.628085 5.865H0.795V5.665ZM0.765 5.5V5.3H0.525358L0.568226 5.53578L0.765 5.5ZM2.775 5.5L2.95171 5.40634L2.89535 5.3H2.775V5.5ZM7.41 14.245L7.23329 14.3387L7.42726 14.7046L7.59324 14.3251L7.41 14.245ZM11.235 5.5V5.3H11.1042L11.0518 5.41985L11.235 5.5ZM13.86 5.5L14.0568 5.53578L14.0996 5.3H13.86V5.5ZM13.83 5.665V5.865H13.9969L14.0268 5.70078L13.83 5.665ZM12.735 5.95L12.6076 5.7958L12.6064 5.79686L12.735 5.95ZM12.16 8.89V12.61H12.56V8.89H12.16ZM12.16 12.61C12.16 13.6786 12.1897 14.4232 12.2523 14.8304L12.6477 14.7696C12.5903 14.3968 12.56 13.6814 12.56 12.61H12.16ZM12.2531 14.8353C12.2894 15.0373 12.3334 15.2097 12.3873 15.3486C12.4397 15.4837 12.5088 15.6068 12.607 15.6886L12.863 15.3814C12.8412 15.3632 12.8028 15.3138 12.7602 15.2039C12.7191 15.0978 12.6806 14.9527 12.6469 14.7647L12.2531 14.8353ZM12.6076 15.6892C12.8907 15.9231 13.3124 16.02 13.83 16.02V15.62C13.3476 15.62 13.0393 15.5269 12.8624 15.3808L12.6076 15.6892ZM13.6327 15.8529L13.6627 16.0329L14.0573 15.9671L14.0273 15.7871L13.6327 15.8529ZM13.86 15.8H9.84V16.2H13.86V15.8ZM10.0373 16.0329L10.0673 15.8529L9.67272 15.7871L9.64272 15.9671L10.0373 16.0329ZM9.87 16.02C10.3771 16.02 10.7912 15.9282 11.0733 15.7075L10.8267 15.3925C10.6488 15.5318 10.3429 15.62 9.87 15.62V16.02ZM11.0739 15.707C11.2275 15.5857 11.314 15.3637 11.3701 15.1138C11.429 14.8516 11.4647 14.5077 11.4799 14.0872L11.0801 14.0728C11.0653 14.4823 11.031 14.7984 10.9799 15.0262C10.926 15.2663 10.8625 15.3643 10.8261 15.393L11.0739 15.707ZM11.4796 14.0921C11.5 13.7559 11.51 13.261 11.51 12.61H11.11C11.11 13.259 11.1 13.7441 11.0804 14.0679L11.4796 14.0921ZM11.51 12.61V6.265H11.11V12.61H11.51ZM11.1268 6.18473L6.92682 15.7697L7.29319 15.9303L11.4932 6.34527L11.1268 6.18473ZM7.28641 15.7558L2.95141 7.64076L2.59859 7.82924L6.93359 15.9442L7.28641 15.7558ZM2.575 7.735V12.58H2.975V7.735H2.575ZM2.575 12.58C2.575 13.5815 2.61973 14.3235 2.71388 14.7942L3.10612 14.7158C3.02027 14.2865 2.975 13.5785 2.975 12.58H2.575ZM2.71497 14.7993C2.8182 15.2535 2.98843 15.6077 3.26406 15.7914L3.48594 15.4586C3.34157 15.3623 3.20181 15.1365 3.10503 14.7107L2.71497 14.7993ZM3.26973 15.7951C3.52975 15.956 3.92796 16.02 4.425 16.02V15.62C3.94204 15.62 3.64025 15.554 3.48027 15.4549L3.26973 15.7951ZM4.22772 15.8529L4.25772 16.0329L4.65228 15.9671L4.62228 15.7871L4.22772 15.8529ZM4.455 15.8H0.765V16.2H4.455V15.8ZM0.962279 16.0329L0.992279 15.8529L0.597721 15.7871L0.567721 15.9671L0.962279 16.0329ZM0.795 16.02C1.16905 16.02 1.46639 15.9952 1.67353 15.9377L1.56647 15.5523C1.41361 15.5948 1.16095 15.62 0.795 15.62V16.02ZM1.68023 15.9357C1.93562 15.8551 2.13045 15.6587 2.27586 15.3903L1.92414 15.1997C1.80955 15.4113 1.68438 15.5149 1.55977 15.5543L1.68023 15.9357ZM2.27586 15.3903C2.42407 15.1166 2.50824 14.766 2.53944 14.35L2.14056 14.32C2.11176 14.704 2.03593 14.9934 1.92414 15.1997L2.27586 15.3903ZM2.53901 14.3549C2.58002 13.9448 2.6 13.3518 2.6 12.58H2.2C2.2 13.3482 2.17998 13.9252 2.14099 14.3151L2.53901 14.3549ZM2.6 12.58V8.905H2.2V12.58H2.6ZM2.6 8.905C2.6 8.13319 2.58002 7.54022 2.53901 7.1301L2.14099 7.1699C2.17998 7.55978 2.2 8.13681 2.2 8.905H2.6ZM2.53944 7.13504C2.50824 6.71902 2.42407 6.36837 2.27586 6.09474L1.92414 6.28526C2.03593 6.49163 2.11176 6.78098 2.14056 7.16496L2.53944 7.13504ZM2.27586 6.09474C2.13008 5.82561 1.93248 5.63042 1.6709 5.56158L1.5691 5.94841C1.68752 5.97958 1.80992 6.07439 1.92414 6.28526L2.27586 6.09474ZM1.68325 5.56526C1.47163 5.49472 1.17013 5.465 0.795 5.465V5.865C1.15987 5.865 1.40837 5.89528 1.55675 5.94474L1.68325 5.56526ZM0.991774 5.62922L0.961774 5.46422L0.568226 5.53578L0.598226 5.70078L0.991774 5.62922ZM0.765 5.7H2.775V5.3H0.765V5.7ZM2.59829 5.59366L7.23329 14.3387L7.58671 14.1513L2.95171 5.40634L2.59829 5.59366ZM7.59324 14.3251L11.4182 5.58015L11.0518 5.41985L7.22676 14.1649L7.59324 14.3251ZM11.235 5.7H13.86V5.3H11.235V5.7ZM13.6632 5.46422L13.6332 5.62922L14.0268 5.70078L14.0568 5.53578L13.6632 5.46422ZM13.83 5.465C13.3124 5.465 12.8907 5.56193 12.6076 5.79581L12.8624 6.10419C13.0393 5.95807 13.3476 5.865 13.83 5.865V5.465ZM12.6064 5.79686C12.4984 5.88751 12.4297 6.03452 12.3802 6.19176C12.3283 6.35644 12.2874 6.56636 12.2554 6.81719C12.1913 7.31962 12.16 8.01192 12.16 8.89H12.56C12.56 8.01808 12.5912 7.34538 12.6521 6.8678C12.6826 6.62864 12.7198 6.44481 12.7617 6.31199C12.8059 6.17173 12.8466 6.11749 12.8636 6.10314L12.6064 5.79686ZM16.1045 9.82L15.9517 9.69091L16.1045 9.82ZM21.0395 9.82L21.1891 9.68726L21.0395 9.82ZM21.0695 15.1L20.9178 14.9697L20.9176 14.9698L21.0695 15.1ZM16.1345 15.085L15.9838 15.2166L15.9849 15.2177L16.1345 15.085ZM16.9295 14.89L16.7587 14.9941L16.7599 14.996L16.9295 14.89ZM20.2745 14.905L20.1032 14.8017L20.102 14.8037L20.2745 14.905ZM16.8995 10.015L16.7275 9.91289L16.727 9.91372L16.8995 10.015ZM15.4045 12.46C15.4045 11.4507 15.6917 10.6183 16.2573 9.94909L15.9517 9.69091C15.3173 10.4417 15.0045 11.3693 15.0045 12.46H15.4045ZM16.2573 9.94909C16.8149 9.28926 17.5712 8.955 18.5495 8.955V8.555C17.4678 8.555 16.5941 8.93074 15.9517 9.69091L16.2573 9.94909ZM18.5495 8.955C19.5278 8.955 20.3013 9.28945 20.8899 9.95274L21.1891 9.68726C20.5176 8.93055 19.6312 8.555 18.5495 8.555V8.955ZM20.8899 9.95274C21.4839 10.6222 21.7845 11.4533 21.7845 12.46H22.1845C22.1845 11.3667 21.8551 10.4378 21.1891 9.68726L20.8899 9.95274ZM21.7845 12.46C21.7845 13.4684 21.4928 14.3004 20.9178 14.9697L21.2212 15.2303C21.8662 14.4796 22.1845 13.5516 22.1845 12.46H21.7845ZM20.9176 14.9698C20.3604 15.62 19.6038 15.95 18.6245 15.95V16.35C19.7052 16.35 20.5786 15.98 21.2213 15.2302L20.9176 14.9698ZM18.6245 15.95C17.6462 15.95 16.8726 15.6156 16.2841 14.9523L15.9849 15.2177C16.6563 15.9744 17.5428 16.35 18.6245 16.35V15.95ZM16.2851 14.9534C15.7003 14.2837 15.4045 13.457 15.4045 12.46H15.0045C15.0045 13.543 15.3287 14.4663 15.9838 15.2166L16.2851 14.9534ZM16.7599 14.996C17.1949 15.6921 17.8227 16.05 18.6245 16.05V15.65C17.9662 15.65 17.464 15.3679 17.0991 14.784L16.7599 14.996ZM18.6245 16.05C19.4255 16.05 20.0411 15.6974 20.4469 15.0063L20.102 14.8037C19.7679 15.3726 19.2835 15.65 18.6245 15.65V16.05ZM20.4458 15.0083C20.85 14.3381 21.0445 13.4892 21.0445 12.475H20.6445C20.6445 13.4408 20.459 14.2119 20.1032 14.8017L20.4458 15.0083ZM21.0445 12.475C21.0445 11.4494 20.8394 10.5896 20.4141 9.909L20.0749 10.121C20.4495 10.7204 20.6445 11.5006 20.6445 12.475H21.0445ZM20.4141 9.909C19.979 9.21293 19.3512 8.855 18.5495 8.855V9.255C19.2077 9.255 19.7099 9.53707 20.0749 10.121L20.4141 9.909ZM18.5495 8.855C17.756 8.855 17.1421 9.21472 16.7275 9.91289L17.0715 10.1171C17.4169 9.53528 17.903 9.255 18.5495 9.255V8.855ZM16.727 9.91372C16.3337 10.5834 16.1445 11.4316 16.1445 12.445H16.5445C16.5445 11.4784 16.7253 10.7066 17.0719 10.1163L16.727 9.91372ZM16.1445 12.445C16.1445 13.4602 16.3444 14.3142 16.7587 14.9941L17.1003 14.7859C16.7346 14.1858 16.5445 13.4098 16.5445 12.445H16.1445ZM27.5979 9.715L27.4961 9.88722L27.4995 9.88911L27.5979 9.715ZM25.9329 10.6L25.7439 10.5344L25.7432 10.5368L25.9329 10.6ZM25.7679 15.43L25.9507 15.3487L25.9481 15.3432L25.7679 15.43ZM25.9929 15.685L25.875 15.8471L25.8855 15.8537L25.9929 15.685ZM26.3379 15.805L26.3213 16.0043L26.3379 15.805ZM26.8479 15.82L27.0452 15.7871L27.0173 15.62H26.8479V15.82ZM26.8779 16V16.2H27.114L27.0752 15.9671L26.8779 16ZM23.2329 16L23.0356 15.9671L22.9968 16.2H23.2329V16ZM23.2629 15.82V15.62H23.0935L23.0656 15.7871L23.2629 15.82ZM23.9529 15.775L23.9948 15.9708L24.0044 15.9682L23.9529 15.775ZM24.4929 14.62L24.2932 14.6075L24.293 14.6136L24.4929 14.62ZM24.4029 9.865L24.215 9.93421L24.2186 9.94261L24.4029 9.865ZM24.2079 9.415L24.0323 9.51077V9.51077L24.2079 9.415ZM23.9379 9.19L24.0012 8.99997L23.9905 8.99705L23.9379 9.19ZM23.0679 9.1L22.8711 9.13578L22.901 9.3H23.0679V9.1ZM23.0379 8.935L23.0099 8.73696L22.8039 8.76605L22.8411 8.97078L23.0379 8.935ZM25.5729 8.755H25.7729V8.555H25.5729V8.755ZM25.5729 10.96H25.3729L25.7705 10.9906L25.5729 10.96ZM26.3079 9.295L26.163 9.15716L26.1629 9.15725L26.3079 9.295ZM27.8079 8.88C28.0277 8.88 28.2122 8.92805 28.3677 9.01808L28.5681 8.67191C28.3436 8.54195 28.0881 8.48 27.8079 8.48V8.88ZM28.3677 9.01808C28.5074 9.09897 28.5529 9.1887 28.5529 9.295H28.9529C28.9529 9.0213 28.8084 8.81103 28.5681 8.67191L28.3677 9.01808ZM28.5529 9.295C28.5529 9.4392 28.5094 9.53187 28.4377 9.59757L28.708 9.89243C28.8764 9.73813 28.9529 9.5308 28.9529 9.295H28.5529ZM28.4377 9.59757C28.3512 9.67689 28.2634 9.71 28.1679 9.71V10.11C28.3724 10.11 28.5546 10.0331 28.708 9.89243L28.4377 9.59757ZM28.1679 9.71C28.0696 9.71 27.916 9.66508 27.6963 9.54089L27.4995 9.88911C27.7397 10.0249 27.9662 10.11 28.1679 10.11V9.71ZM27.6996 9.54281C27.4495 9.39503 27.1795 9.32 26.8929 9.32V9.72C27.1063 9.72 27.3062 9.77497 27.4961 9.88719L27.6996 9.54281ZM26.8929 9.32C26.6277 9.32 26.3992 9.44528 26.2109 9.65713C26.0263 9.86482 25.8731 10.1624 25.744 10.5344L26.1218 10.6656C26.2427 10.3176 26.3745 10.0752 26.5099 9.92287C26.6416 9.77472 26.7681 9.72 26.8929 9.72V9.32ZM25.7432 10.5368C25.4949 11.2815 25.3729 12.1387 25.3729 13.105H25.7729C25.7729 12.1713 25.8909 11.3585 26.1226 10.6632L25.7432 10.5368ZM25.3729 13.105C25.3729 13.7475 25.3892 14.2675 25.4223 14.663C25.4546 15.0478 25.5046 15.3442 25.5877 15.5168L25.9481 15.3432C25.9012 15.2458 25.8537 15.0197 25.8209 14.6295C25.7891 14.25 25.7729 13.7425 25.7729 13.105H25.3729ZM25.5851 15.5112C25.6438 15.6433 25.7472 15.7536 25.8753 15.8467L26.1105 15.5233C26.0186 15.4564 25.972 15.3967 25.9507 15.3488L25.5851 15.5112ZM25.8855 15.8537C26.0205 15.9397 26.1664 15.9914 26.3213 16.0043L26.3545 15.6057C26.2694 15.5986 26.1852 15.5703 26.1003 15.5163L25.8855 15.8537ZM26.3213 16.0043C26.4496 16.015 26.6261 16.02 26.8479 16.02V15.62C26.6297 15.62 26.4662 15.615 26.3545 15.6057L26.3213 16.0043ZM26.6506 15.8529L26.6806 16.0329L27.0752 15.9671L27.0452 15.7871L26.6506 15.8529ZM26.8779 15.8H23.2329V16.2H26.8779V15.8ZM23.4302 16.0329L23.4602 15.8529L23.0656 15.7871L23.0356 15.9671L23.4302 16.0329ZM23.2629 16.02C23.5841 16.02 23.8324 16.0054 23.9948 15.9706L23.911 15.5794C23.7933 15.6047 23.5817 15.62 23.2629 15.62V16.02ZM24.0044 15.9682C24.2345 15.9069 24.396 15.7222 24.5085 15.486L24.1473 15.314C24.0598 15.4978 23.9712 15.5631 23.9014 15.5818L24.0044 15.9682ZM24.5085 15.486C24.6236 15.2443 24.6822 14.9553 24.6928 14.6264L24.293 14.6136C24.2836 14.9047 24.2322 15.1357 24.1473 15.314L24.5085 15.486ZM24.6925 14.6325C24.7129 14.3058 24.7229 13.7956 24.7229 13.105H24.3229C24.3229 13.7944 24.3129 14.2942 24.2933 14.6075L24.6925 14.6325ZM24.7229 13.105V12.235H24.3229V13.105H24.7229ZM24.7229 12.235C24.7229 11.5387 24.7129 10.9899 24.6926 10.5899C24.6825 10.3901 24.6697 10.2248 24.6539 10.0957C24.6389 9.97325 24.6191 9.86318 24.5872 9.78739L24.2186 9.94261C24.2267 9.96182 24.2419 10.0218 24.2569 10.1443C24.2711 10.2602 24.2833 10.4149 24.2931 10.6101C24.3129 11.0001 24.3229 11.5413 24.3229 12.235H24.7229ZM24.5906 9.79586C24.519 9.60154 24.4501 9.44137 24.3835 9.31923L24.0323 9.51077C24.0857 9.60863 24.1468 9.74846 24.2152 9.93414L24.5906 9.79586ZM24.3835 9.31923C24.299 9.16436 24.1686 9.05609 24.0011 9.00026L23.8746 9.37974C23.9472 9.40391 23.9968 9.44564 24.0323 9.51077L24.3835 9.31923ZM23.9905 8.99705C23.7464 8.93048 23.4367 8.9 23.0679 8.9V9.3C23.4191 9.3 23.6893 9.32952 23.8853 9.38295L23.9905 8.99705ZM23.2647 9.06422L23.2347 8.89922L22.8411 8.97078L22.8711 9.13578L23.2647 9.06422ZM23.0658 9.13304C23.9068 9.01431 24.7424 8.955 25.5729 8.955V8.555C24.7233 8.555 23.869 8.61568 23.0099 8.73696L23.0658 9.13304ZM25.3729 8.755V10.96H25.7729V8.755H25.3729ZM25.7705 10.9906C25.8762 10.3088 26.1083 9.79547 26.4529 9.43275L26.1629 9.15725C25.7475 9.59453 25.4896 10.1912 25.3752 10.9294L25.7705 10.9906ZM26.4528 9.43284C26.8019 9.06585 27.2479 8.88 27.8079 8.88V8.48C27.1479 8.48 26.5939 8.70415 26.163 9.15716L26.4528 9.43284ZM35.2684 12.205V12.405H35.4684V12.205H35.2684ZM30.3484 12.205V12.005H30.1484V12.205H30.3484ZM31.0234 14.89L30.8675 15.0153L30.8686 15.0166L31.0234 14.89ZM34.8634 14.515L34.9575 14.3385L34.7833 14.2456L34.6882 14.4186L34.8634 14.515ZM35.0884 14.635L35.2662 14.7265L35.3564 14.5513L35.1825 14.4585L35.0884 14.635ZM30.1684 15.175L30.0259 15.3153L30.1684 15.175ZM30.0484 9.82L29.8924 9.69479L29.8914 9.69614L30.0484 9.82ZM34.5034 9.73L34.346 9.85346L34.347 9.85464L34.5034 9.73ZM30.9784 9.805L30.813 9.69254L30.8125 9.69328L30.9784 9.805ZM30.3784 11.77L30.1791 11.753L30.1606 11.97H30.3784V11.77ZM34.1134 11.77V11.97H34.3213L34.3132 11.7623L34.1134 11.77ZM35.2684 12.005H30.3484V12.405H35.2684V12.005ZM30.1484 12.205V12.46H30.5484V12.205H30.1484ZM30.1484 12.46C30.1484 13.5447 30.3782 14.4063 30.8675 15.0153L31.1793 14.7647C30.7686 14.2537 30.5484 13.4953 30.5484 12.46H30.1484ZM30.8686 15.0166C31.3539 15.6098 31.9694 15.915 32.7034 15.915V15.515C32.0974 15.515 31.5928 15.2702 31.1782 14.7634L30.8686 15.0166ZM32.7034 15.915C33.7678 15.915 34.5596 15.4824 35.0386 14.6114L34.6882 14.4186C34.2872 15.1476 33.639 15.515 32.7034 15.515V15.915ZM34.7693 14.6915L34.9943 14.8115L35.1825 14.4585L34.9575 14.3385L34.7693 14.6915ZM34.9106 14.5435C34.6657 15.019 34.3433 15.3674 33.9455 15.5983C33.5469 15.8297 33.0606 15.95 32.4784 15.95V16.35C33.1162 16.35 33.6749 16.2178 34.1463 15.9442C34.6185 15.6701 34.9911 15.261 35.2662 14.7265L34.9106 14.5435ZM32.4784 15.95C31.6328 15.95 30.9139 15.6471 30.3109 15.0347L30.0259 15.3153C30.7029 16.0029 31.524 16.35 32.4784 16.35V15.95ZM30.3109 15.0347C29.7151 14.4296 29.4084 13.609 29.4084 12.55H29.0084C29.0084 13.691 29.3417 14.6204 30.0259 15.3153L30.3109 15.0347ZM29.4084 12.55C29.4084 11.4744 29.6791 10.6111 30.2054 9.94386L29.8914 9.69614C29.2977 10.4489 29.0084 11.4056 29.0084 12.55H29.4084ZM30.2044 9.94521C30.735 9.28424 31.4318 8.955 32.3134 8.955V8.555C31.315 8.555 30.5018 8.93576 29.8924 9.69479L30.2044 9.94521ZM32.3134 8.955C33.2124 8.955 33.88 9.25941 34.3461 9.85346L34.6607 9.60654C34.1068 8.90059 33.3144 8.555 32.3134 8.555V8.955ZM34.347 9.85464C34.8227 10.4516 35.0684 11.2294 35.0684 12.205H35.4684C35.4684 11.1606 35.2041 10.2884 34.6598 9.60536L34.347 9.85464ZM32.3584 8.855C31.7089 8.855 31.1884 9.14055 30.813 9.69254L31.1438 9.91746C31.4484 9.46945 31.8479 9.255 32.3584 9.255V8.855ZM30.8125 9.69328C30.4575 10.2204 30.2509 10.9117 30.1791 11.753L30.5777 11.787C30.6459 10.9883 30.8393 10.3696 31.1443 9.91672L30.8125 9.69328ZM30.3784 11.97H34.1134V11.57H30.3784V11.97ZM34.3132 11.7623C34.2777 10.843 34.1112 10.1219 33.7901 9.62518C33.4598 9.11425 32.9746 8.855 32.3584 8.855V9.255C32.8422 9.255 33.1994 9.44825 33.4542 9.84232C33.7181 10.2506 33.8791 10.887 33.9135 11.7777L34.3132 11.7623ZM45.4405 14.335H45.6405L45.2494 14.2762L45.4405 14.335ZM44.6155 15.64L44.7489 15.789L44.7491 15.7888L44.6155 15.64ZM41.8255 15.82L41.9277 15.6481L41.8255 15.82ZM40.9705 14.95L41.1454 14.8529L41.1435 14.8497L40.9705 14.95ZM41.3905 9.85L41.2442 9.71368L41.3905 9.85ZM45.4855 8.935L45.4293 9.12695L45.6855 9.20193V8.935H45.4855ZM45.4105 5.995L45.2138 6.03142L45.2141 6.03277L45.4105 5.995ZM45.1705 5.5L45.0675 5.67164L45.0747 5.67558L45.1705 5.5ZM44.2255 5.32L44.0287 5.35578L44.0586 5.52H44.2255V5.32ZM44.1955 5.155L44.1626 4.95772L43.9624 4.99109L43.9987 5.19078L44.1955 5.155ZM46.5355 4.975H46.7355V4.775H46.5355V4.975ZM46.6405 14.86L46.4444 14.8992L46.4446 14.9003L46.6405 14.86ZM47.8255 15.16L48.0044 15.0706L47.915 14.8917L47.7361 14.9811L47.8255 15.16ZM47.9005 15.31L48.0205 15.47L48.154 15.3699L48.0794 15.2206L47.9005 15.31ZM47.5855 15.535L47.6905 15.7056L47.6993 15.6994L47.5855 15.535ZM46.7905 15.865L46.8566 16.0538L46.7905 15.865ZM45.6355 16.075L45.4411 16.1218L45.4779 16.275H45.6355V16.075ZM41.8705 14.59L42.0585 14.5216L42.057 14.5178L41.8705 14.59ZM42.4255 15.385L42.3005 15.5412L42.3036 15.5435L42.4255 15.385ZM44.3455 15.31L44.2175 15.1563L44.2149 15.1585L44.3455 15.31ZM45.0205 14.35L44.8356 14.2736L44.8338 14.2782L45.0205 14.35ZM45.4855 9.73H45.6855V9.63317L45.6096 9.57312L45.4855 9.73ZM42.8005 9.55L42.9092 9.71791L42.8005 9.55ZM42.0205 10.42L42.1989 10.5105L42.1994 10.5094L42.0205 10.42ZM45.2494 14.2762C45.0996 14.7629 44.8439 15.1663 44.4819 15.4912L44.7491 15.7888C45.1672 15.4137 45.4614 14.9471 45.6317 14.3938L45.2494 14.2762ZM44.4821 15.491C44.1425 15.7948 43.7215 15.95 43.2055 15.95V16.35C43.8095 16.35 44.3285 16.1652 44.7489 15.789L44.4821 15.491ZM43.2055 15.95C42.6817 15.95 42.2593 15.8453 41.9277 15.6481L41.7233 15.9919C42.1317 16.2347 42.6294 16.35 43.2055 16.35V15.95ZM41.9277 15.6481C41.5867 15.4453 41.3274 15.1805 41.1453 14.8529L40.7957 15.0471C41.0136 15.4395 41.3243 15.7547 41.7233 15.9919L41.9277 15.6481ZM41.1435 14.8497C40.765 14.1967 40.5705 13.3932 40.5705 12.43H40.1705C40.1705 13.4468 40.376 14.3233 40.7975 15.0503L41.1435 14.8497ZM40.5705 12.43C40.5705 11.491 40.891 10.6796 41.5369 9.98632L41.2442 9.71368C40.53 10.4804 40.1705 11.389 40.1705 12.43H40.5705ZM41.5369 9.98632C42.1735 9.30289 43.0273 8.955 44.1205 8.955V8.555C42.9337 8.555 41.9675 8.93711 41.2442 9.71368L41.5369 9.98632ZM44.1205 8.955C44.6046 8.955 45.0404 9.01311 45.4293 9.12695L45.5417 8.74305C45.1106 8.61689 44.6364 8.555 44.1205 8.555V8.955ZM45.6855 8.935V7.51H45.2855V8.935H45.6855ZM45.6855 7.51C45.6855 6.76243 45.6611 6.23879 45.6069 5.95723L45.2141 6.03277C45.26 6.27121 45.2855 6.75757 45.2855 7.51H45.6855ZM45.6072 5.95858C45.5803 5.81378 45.5436 5.68598 45.493 5.58149C45.4428 5.47808 45.3713 5.38168 45.2663 5.32442L45.0747 5.67558C45.0798 5.67832 45.1032 5.69442 45.133 5.756C45.1624 5.81652 45.1907 5.90621 45.2139 6.03142L45.6072 5.95858ZM45.2734 5.3285C45.0258 5.17992 44.6657 5.12 44.2255 5.12V5.52C44.6453 5.52 44.9152 5.58008 45.0676 5.6715L45.2734 5.3285ZM44.4223 5.28422L44.3923 5.11922L43.9987 5.19078L44.0287 5.35578L44.4223 5.28422ZM44.2284 5.35228C44.936 5.23434 45.7049 5.175 46.5355 5.175V4.775C45.6861 4.775 44.895 4.83566 44.1626 4.95772L44.2284 5.35228ZM46.3355 4.975V12.67H46.7355V4.975H46.3355ZM46.3355 12.67C46.3355 13.7761 46.3698 14.5264 46.4444 14.8992L46.8366 14.8208C46.7712 14.4936 46.7355 13.7839 46.7355 12.67H46.3355ZM46.4446 14.9003C46.4842 15.0925 46.5567 15.2615 46.6791 15.3839C46.8064 15.5112 46.9696 15.57 47.1505 15.57V15.17C47.0614 15.17 47.0047 15.1438 46.9619 15.1011C46.9143 15.0535 46.8668 14.9675 46.8364 14.8197L46.4446 14.9003ZM47.1505 15.57C47.3678 15.57 47.6268 15.483 47.915 15.3389L47.7361 14.9811C47.4642 15.117 47.2732 15.17 47.1505 15.17V15.57ZM47.6466 15.2494L47.7216 15.3994L48.0794 15.2206L48.0044 15.0706L47.6466 15.2494ZM47.7805 15.15C47.7033 15.2079 47.6006 15.2813 47.4717 15.3706L47.6993 15.6994C47.8304 15.6087 47.9377 15.5321 48.0205 15.47L47.7805 15.15ZM47.4807 15.3647C47.3718 15.4317 47.1267 15.5354 46.7244 15.6762L46.8566 16.0538C47.2543 15.9146 47.5393 15.7983 47.6903 15.7053L47.4807 15.3647ZM46.7244 15.6762C46.3426 15.8099 45.98 15.875 45.6355 15.875V16.275C46.031 16.275 46.4384 16.2001 46.8566 16.0538L46.7244 15.6762ZM45.83 16.0282C45.704 15.5052 45.6405 14.941 45.6405 14.335H45.2405C45.2405 14.969 45.307 15.5648 45.4411 16.1218L45.83 16.0282ZM41.6825 14.6583C41.8138 15.0194 42.0192 15.316 42.3006 15.5412L42.5504 15.2288C42.3319 15.054 42.1672 14.8206 42.0585 14.5217L41.6825 14.6583ZM42.3036 15.5435C42.602 15.7731 42.956 15.885 43.3555 15.885V15.485C43.0351 15.485 42.769 15.3969 42.5475 15.2265L42.3036 15.5435ZM43.3555 15.885C43.7752 15.885 44.1512 15.7416 44.4761 15.4615L44.2149 15.1585C43.9598 15.3784 43.6758 15.485 43.3555 15.485V15.885ZM44.4735 15.4636C44.8016 15.1903 45.0458 14.8413 45.2072 14.4218L44.8338 14.2782C44.6952 14.6387 44.4894 14.9297 44.2175 15.1564L44.4735 15.4636ZM45.2053 14.4264C45.5252 13.6525 45.6855 12.8516 45.6855 12.025H45.2855C45.2855 12.7984 45.1358 13.5475 44.8357 14.2736L45.2053 14.4264ZM45.6855 12.025V9.73H45.2855V12.025H45.6855ZM45.6096 9.57312C45.1471 9.20743 44.634 9.02 44.0755 9.02V9.42C44.537 9.42 44.964 9.57257 45.3615 9.88688L45.6096 9.57312ZM44.0755 9.02C43.5369 9.02 43.0717 9.13632 42.6919 9.38209L42.9092 9.71791C43.2093 9.52368 43.5941 9.42 44.0755 9.42V9.02ZM42.6919 9.38209C42.3221 9.62137 42.0377 9.93839 41.8416 10.3306L42.1994 10.5094C42.3633 10.1816 42.599 9.91863 42.9092 9.71791L42.6919 9.38209ZM41.8422 10.3295C41.4878 11.0279 41.3105 11.7739 41.3105 12.565H41.7105C41.7105 11.8361 41.8733 11.1521 42.1989 10.5105L41.8422 10.3295ZM41.3105 12.565C41.3105 13.3173 41.4342 14.017 41.684 14.6622L42.057 14.5178C41.8268 13.923 41.7105 13.2727 41.7105 12.565H41.3105ZM54.8534 12.205V12.405H55.0534V12.205H54.8534ZM49.9334 12.205V12.005H49.7334V12.205H49.9334ZM50.6084 14.89L50.4525 15.0153L50.4536 15.0166L50.6084 14.89ZM54.4484 14.515L54.5425 14.3385L54.3683 14.2456L54.2731 14.4186L54.4484 14.515ZM54.6734 14.635L54.8512 14.7265L54.9414 14.5513L54.7675 14.4585L54.6734 14.635ZM49.7534 15.175L49.6108 15.3153L49.7534 15.175ZM49.6334 9.82L49.4774 9.69479L49.4763 9.69614L49.6334 9.82ZM54.0884 9.73L53.931 9.85346L53.9319 9.85464L54.0884 9.73ZM50.5634 9.805L50.398 9.69254L50.3975 9.69328L50.5634 9.805ZM49.9634 11.77L49.7641 11.753L49.7456 11.97H49.9634V11.77ZM53.6984 11.77V11.97H53.9062L53.8982 11.7623L53.6984 11.77ZM54.8534 12.005H49.9334V12.405H54.8534V12.005ZM49.7334 12.205V12.46H50.1334V12.205H49.7334ZM49.7334 12.46C49.7334 13.5447 49.9631 14.4063 50.4525 15.0153L50.7643 14.7647C50.3536 14.2537 50.1334 13.4953 50.1334 12.46H49.7334ZM50.4536 15.0166C50.9389 15.6098 51.5543 15.915 52.2884 15.915V15.515C51.6824 15.515 51.1778 15.2702 50.7631 14.7634L50.4536 15.0166ZM52.2884 15.915C53.3528 15.915 54.1445 15.4824 54.6236 14.6114L54.2731 14.4186C53.8722 15.1476 53.2239 15.515 52.2884 15.515V15.915ZM54.3542 14.6915L54.5792 14.8115L54.7675 14.4585L54.5425 14.3385L54.3542 14.6915ZM54.4955 14.5435C54.2507 15.019 53.9283 15.3674 53.5305 15.5983C53.1318 15.8297 52.6456 15.95 52.0634 15.95V16.35C52.7011 16.35 53.2599 16.2178 53.7313 15.9442C54.2035 15.6701 54.576 15.261 54.8512 14.7265L54.4955 14.5435ZM52.0634 15.95C51.2178 15.95 50.4989 15.6471 49.8959 15.0347L49.6108 15.3153C50.2879 16.0029 51.109 16.35 52.0634 16.35V15.95ZM49.8959 15.0347C49.3001 14.4296 48.9934 13.609 48.9934 12.55H48.5934C48.5934 13.691 48.9266 14.6204 49.6108 15.3153L49.8959 15.0347ZM48.9934 12.55C48.9934 11.4744 49.2641 10.6111 49.7904 9.94386L49.4763 9.69614C48.8826 10.4489 48.5934 11.4056 48.5934 12.55H48.9934ZM49.7893 9.94521C50.32 9.28424 51.0167 8.955 51.8984 8.955V8.555C50.9 8.555 50.0868 8.93576 49.4774 9.69479L49.7893 9.94521ZM51.8984 8.955C52.7973 8.955 53.4649 9.25941 53.931 9.85346L54.2457 9.60654C53.6918 8.90059 52.8994 8.555 51.8984 8.555V8.955ZM53.9319 9.85464C54.4076 10.4516 54.6534 11.2294 54.6534 12.205H55.0534C55.0534 11.1606 54.7891 10.2884 54.2448 9.60536L53.9319 9.85464ZM51.9434 8.855C51.2938 8.855 50.7733 9.14055 50.398 9.69254L50.7287 9.91746C51.0334 9.46945 51.4329 9.255 51.9434 9.255V8.855ZM50.3975 9.69328C50.0425 10.2204 49.8359 10.9117 49.7641 11.753L50.1626 11.787C50.2308 10.9883 50.4243 10.3696 50.7292 9.91672L50.3975 9.69328ZM49.9634 11.97H53.6984V11.57H49.9634V11.97ZM53.8982 11.7623C53.8627 10.843 53.6962 10.1219 53.3751 9.62518C53.0448 9.11425 52.5595 8.855 51.9434 8.855V9.255C52.4272 9.255 52.7844 9.44825 53.0391 9.84232C53.3031 10.2506 53.4641 10.887 53.4985 11.7777L53.8982 11.7623ZM58.2455 8.905H58.0455V9.105H58.2455V8.905ZM60.0905 8.905H60.2905V8.705H60.0905V8.905ZM60.0905 9.235V9.435H60.2905V9.235H60.0905ZM58.2455 9.235V9.035H58.0455V9.235H58.2455ZM58.3955 15.46L58.2368 15.582L58.2418 15.588L58.3955 15.46ZM60.0605 15.325L60.2572 15.2892L60.2123 15.0423L59.9817 15.1412L60.0605 15.325ZM60.0905 15.49L60.1969 15.6593L60.3114 15.5873L60.2872 15.4542L60.0905 15.49ZM57.4505 15.895L57.5919 15.7536L57.4505 15.895ZM57.1955 9.235H57.3955V9.035H57.1955V9.235ZM56.2955 9.235H56.0955V9.435H56.2955V9.235ZM56.2955 8.905V8.705H56.0955V8.905H56.2955ZM57.4205 8.455L57.2574 8.33925L57.2566 8.34031L57.4205 8.455ZM57.9155 7.09L57.8974 6.89082L57.7461 6.90457L57.7187 7.05393L57.9155 7.09ZM58.2455 7.06H58.4455V6.84099L58.2274 6.86082L58.2455 7.06ZM58.2455 9.105H60.0905V8.705H58.2455V9.105ZM59.8905 8.905V9.235H60.2905V8.905H59.8905ZM60.0905 9.035H58.2455V9.435H60.0905V9.035ZM58.0455 9.235V14.95H58.4455V9.235H58.0455ZM58.0455 14.95C58.0455 15.1916 58.1033 15.4082 58.2369 15.5819L58.554 15.3381C58.4876 15.2518 58.4455 15.1284 58.4455 14.95H58.0455ZM58.2418 15.588C58.3809 15.7549 58.5678 15.84 58.7855 15.84V15.44C58.6832 15.44 58.6101 15.4051 58.5491 15.332L58.2418 15.588ZM58.7855 15.84C59.1823 15.84 59.6353 15.7248 60.1393 15.5088L59.9817 15.1412C59.5057 15.3452 59.1086 15.44 58.7855 15.44V15.84ZM59.8637 15.3608L59.8937 15.5258L60.2872 15.4542L60.2572 15.2892L59.8637 15.3608ZM59.984 15.3207C59.3002 15.7505 58.7178 15.95 58.2305 15.95V16.35C58.8231 16.35 59.4807 16.1095 60.1969 15.6593L59.984 15.3207ZM58.2305 15.95C57.9093 15.95 57.7102 15.8719 57.5919 15.7536L57.309 16.0364C57.5308 16.2581 57.8516 16.35 58.2305 16.35V15.95ZM57.5919 15.7536C57.4791 15.6408 57.3955 15.4136 57.3955 15.01H56.9955C56.9955 15.4464 57.0818 15.8092 57.309 16.0364L57.5919 15.7536ZM57.3955 15.01V9.235H56.9955V15.01H57.3955ZM57.1955 9.035H56.2955V9.435H57.1955V9.035ZM56.4955 9.235V8.905H56.0955V9.235H56.4955ZM56.2955 9.105C56.868 9.105 57.3214 8.94529 57.5843 8.56969L57.2566 8.34031C57.0995 8.56471 56.8029 8.705 56.2955 8.705V9.105ZM57.5836 8.57075C57.8276 8.22685 57.9998 7.73937 58.1122 7.12606L57.7187 7.05393C57.6112 7.64063 57.4533 8.06315 57.2574 8.33925L57.5836 8.57075ZM57.9336 7.28918L58.2636 7.25918L58.2274 6.86082L57.8974 6.89082L57.9336 7.28918ZM58.0455 7.06V8.905H58.4455V7.06H58.0455ZM66.6805 14.86L66.4844 14.8992L66.4846 14.9003L66.6805 14.86ZM67.8655 15.16L68.0444 15.0706L67.9549 14.8917L67.7761 14.9811L67.8655 15.16ZM67.9405 15.31L68.0605 15.47L68.194 15.3699L68.1194 15.2206L67.9405 15.31ZM67.6255 15.535L67.7305 15.7056L67.7393 15.6994L67.6255 15.535ZM66.8305 15.865L66.8966 16.0538L66.8305 15.865ZM65.6755 16.075L65.4809 16.1213L65.5175 16.275H65.6755V16.075ZM65.5255 14.065H65.7255L65.337 13.9981L65.5255 14.065ZM64.6555 15.58L64.5085 15.4443L64.5084 15.4445L64.6555 15.58ZM61.6855 15.655L61.5481 15.8005L61.5524 15.8043L61.6855 15.655ZM65.5255 11.845L65.5262 12.045L65.7255 12.0443V11.845H65.5255ZM65.2105 9.655L65.0355 9.75174V9.75174L65.2105 9.655ZM63.2605 9.325L63.3854 9.48117L63.2605 9.325ZM62.8555 9.85L62.6677 9.78081L62.6654 9.78785L62.8555 9.85ZM62.3455 9.13L62.2561 8.95111L62.3455 9.13ZM65.9005 9.37L65.7658 9.51785L65.7676 9.51948L65.9005 9.37ZM62.5705 15.31L62.409 15.428L62.4113 15.431L62.5705 15.31ZM64.6105 15.085L64.7629 15.2145L64.7645 15.2127L64.6105 15.085ZM65.3005 13.735L65.1069 13.6847L65.1062 13.6874L65.3005 13.735ZM65.5255 12.19L65.7254 12.1975L65.7333 11.9881L65.5237 11.99L65.5255 12.19ZM63.0655 12.805L62.945 12.6454L62.9436 12.6465L63.0655 12.805ZM66.3755 11.155V12.67H66.7755V11.155H66.3755ZM66.3755 12.67C66.3755 13.7761 66.4098 14.5264 66.4844 14.8992L66.8766 14.8208C66.8112 14.4936 66.7755 13.7839 66.7755 12.67H66.3755ZM66.4846 14.9003C66.5242 15.0925 66.5967 15.2615 66.7191 15.3839C66.8464 15.5112 67.0096 15.57 67.1905 15.57V15.17C67.1014 15.17 67.0447 15.1438 67.0019 15.1011C66.9543 15.0535 66.9068 14.9675 66.8764 14.8197L66.4846 14.9003ZM67.1905 15.57C67.4078 15.57 67.6668 15.483 67.9549 15.3389L67.7761 14.9811C67.5042 15.117 67.3132 15.17 67.1905 15.17V15.57ZM67.6866 15.2494L67.7616 15.3994L68.1194 15.2206L68.0444 15.0706L67.6866 15.2494ZM67.8205 15.15C67.7433 15.2079 67.6406 15.2813 67.5117 15.3706L67.7393 15.6994C67.8704 15.6087 67.9777 15.5321 68.0605 15.47L67.8205 15.15ZM67.5207 15.3647C67.4118 15.4317 67.1667 15.5354 66.7644 15.6762L66.8966 16.0538C67.2943 15.9146 67.5793 15.7983 67.7303 15.7053L67.5207 15.3647ZM66.7644 15.6762C66.3826 15.8099 66.02 15.875 65.6755 15.875V16.275C66.071 16.275 66.4784 16.2001 66.8966 16.0538L66.7644 15.6762ZM65.8701 16.0287C65.7758 15.6329 65.7255 14.9828 65.7255 14.065H65.3255C65.3255 14.9872 65.3752 15.6771 65.4809 16.1213L65.8701 16.0287ZM65.337 13.9981C65.124 14.5985 64.8464 15.0784 64.5085 15.4443L64.8025 15.7157C65.1847 15.3016 65.487 14.7715 65.714 14.1319L65.337 13.9981ZM64.5084 15.4445C64.2044 15.7746 63.7728 15.95 63.1855 15.95V16.35C63.8582 16.35 64.4066 16.1454 64.8026 15.7155L64.5084 15.4445ZM63.1855 15.95C62.5909 15.95 62.1429 15.795 61.8186 15.5057L61.5524 15.8043C61.9681 16.175 62.5201 16.35 63.1855 16.35V15.95ZM61.8228 15.5096C61.5097 15.2139 61.3455 14.8102 61.3455 14.275H60.9455C60.9455 14.8998 61.1413 15.4161 61.5482 15.8004L61.8228 15.5096ZM61.3455 14.275C61.3455 13.9037 61.4293 13.588 61.5905 13.3208C61.7519 13.0533 61.9975 12.8235 62.3375 12.6349C63.0235 12.2543 64.0781 12.05 65.5262 12.045L65.5248 11.645C64.0529 11.65 62.9175 11.8557 62.1435 12.2851C61.7535 12.5015 61.4516 12.7767 61.248 13.1142C61.0442 13.452 60.9455 13.8413 60.9455 14.275H61.3455ZM65.7255 11.845V11.305H65.3255V11.845H65.7255ZM65.7255 11.305C65.7255 10.5709 65.6194 9.98134 65.3856 9.55826L65.0355 9.75174C65.2216 10.0887 65.3255 10.5991 65.3255 11.305H65.7255ZM65.3856 9.55826C65.1292 9.09445 64.657 8.885 64.0405 8.885V9.285C64.564 9.285 64.8718 9.45555 65.0355 9.75174L65.3856 9.55826ZM64.0405 8.885C63.6867 8.885 63.3791 8.97398 63.1356 9.16883L63.3854 9.48117C63.5419 9.35602 63.7543 9.285 64.0405 9.285V8.885ZM63.1356 9.16883C62.9146 9.34563 62.7534 9.54872 62.6678 9.78086L63.0432 9.91914C63.0977 9.77128 63.2064 9.62437 63.3854 9.48117L63.1356 9.16883ZM62.6654 9.78785C62.5032 10.2839 62.2954 10.43 62.0905 10.43V10.83C62.5656 10.83 62.8678 10.4561 63.0456 9.91215L62.6654 9.78785ZM62.0905 10.43C61.9626 10.43 61.9016 10.3952 61.8685 10.3581C61.8316 10.3167 61.7955 10.2345 61.7955 10.075H61.3955C61.3955 10.2855 61.442 10.4808 61.57 10.6244C61.7019 10.7723 61.8884 10.83 62.0905 10.83V10.43ZM61.7955 10.075C61.7955 9.80395 61.9668 9.54297 62.435 9.30888L62.2561 8.95111C61.7242 9.21703 61.3955 9.58605 61.3955 10.075H61.7955ZM62.435 9.30888C62.9007 9.07601 63.4734 8.955 64.1605 8.955V8.555C63.4276 8.555 62.7903 8.68399 62.2561 8.95111L62.435 9.30888ZM64.1605 8.955C64.8295 8.955 65.3587 9.1469 65.7658 9.51784L66.0352 9.22216C65.5423 8.7731 64.9115 8.555 64.1605 8.555V8.955ZM65.7676 9.51948C66.1626 9.87057 66.3755 10.4032 66.3755 11.155H66.7755C66.7755 10.3268 66.5384 9.66943 66.0334 9.22052L65.7676 9.51948ZM62.0855 14.335C62.0855 14.7583 62.1891 15.127 62.409 15.428L62.732 15.192C62.5719 14.973 62.4855 14.6917 62.4855 14.335H62.0855ZM62.4113 15.431C62.6501 15.7453 63.0188 15.885 63.4705 15.885V15.485C63.1022 15.485 62.8709 15.3747 62.7297 15.189L62.4113 15.431ZM63.4705 15.885C63.9634 15.885 64.3952 15.6471 64.7629 15.2145L64.4581 14.9555C64.1458 15.3229 63.8176 15.485 63.4705 15.485V15.885ZM64.7645 15.2127C65.1227 14.7807 65.3672 14.3036 65.4948 13.7826L65.1062 13.6874C64.9939 14.1464 64.7783 14.5693 64.4566 14.9573L64.7645 15.2127ZM65.4941 13.7853C65.6278 13.271 65.7048 12.7416 65.7254 12.1975L65.3257 12.1825C65.3062 12.6984 65.2332 13.199 65.1069 13.6847L65.4941 13.7853ZM65.5237 11.99C64.397 12.0002 63.5254 12.2073 62.945 12.6454L63.186 12.9646C63.6656 12.6027 64.434 12.3998 65.5273 12.39L65.5237 11.99ZM62.9436 12.6465C62.3777 13.0818 62.0855 13.6488 62.0855 14.335H62.4855C62.4855 13.7812 62.7133 13.3282 63.1875 12.9635L62.9436 12.6465ZM70.1653 6.955L70.3067 6.81358V6.81358L70.1653 6.955ZM71.3653 6.955L71.2239 6.81358V6.81358L71.3653 6.955ZM71.3353 8.755H71.5353V8.555H71.3353V8.755ZM71.5153 15.46L71.3363 15.5495L71.3395 15.5553L71.5153 15.46ZM72.5953 15.82L72.7926 15.7871L72.7647 15.62H72.5953V15.82ZM72.6253 16V16.2H72.8614L72.8226 15.9671L72.6253 16ZM68.9653 16L68.768 15.9671L68.7292 16.2H68.9653V16ZM68.9953 15.82V15.62H68.8259L68.798 15.7871L68.9953 15.82ZM70.0903 15.46L70.2662 15.5553L70.2678 15.5523L70.0903 15.46ZM70.1803 10.15L69.9827 10.1812L69.9838 10.1872L70.1803 10.15ZM69.9103 9.415L69.7752 9.56243L69.9103 9.415ZM68.8003 9.085L68.6035 9.12078L68.6334 9.285H68.8003V9.085ZM68.7703 8.92L68.7452 8.72158L68.5358 8.74806L68.5735 8.95578L68.7703 8.92ZM70.3067 6.81358C70.1723 6.67919 70.1103 6.52934 70.1103 6.355H69.7103C69.7103 6.64066 69.8183 6.89081 70.0239 7.09642L70.3067 6.81358ZM70.1103 6.355C70.1103 6.18066 70.1723 6.03081 70.3067 5.89642L70.0239 5.61358C69.8183 5.81919 69.7103 6.06934 69.7103 6.355H70.1103ZM70.3067 5.89642C70.4411 5.76204 70.591 5.7 70.7653 5.7V5.3C70.4797 5.3 70.2295 5.40796 70.0239 5.61358L70.3067 5.89642ZM70.7653 5.7C70.9397 5.7 71.0895 5.76204 71.2239 5.89642L71.5067 5.61358C71.3011 5.40796 71.051 5.3 70.7653 5.3V5.7ZM71.2239 5.89642C71.3583 6.03081 71.4203 6.18066 71.4203 6.355H71.8203C71.8203 6.06934 71.7123 5.81919 71.5067 5.61358L71.2239 5.89642ZM71.4203 6.355C71.4203 6.52934 71.3583 6.67919 71.2239 6.81358L71.5067 7.09642C71.7123 6.89081 71.8203 6.64066 71.8203 6.355H71.4203ZM71.2239 6.81358C71.0895 6.94796 70.9397 7.01 70.7653 7.01V7.41C71.051 7.41 71.3011 7.30204 71.5067 7.09642L71.2239 6.81358ZM70.7653 7.01C70.591 7.01 70.4411 6.94796 70.3067 6.81358L70.0239 7.09642C70.2295 7.30204 70.4797 7.41 70.7653 7.41V7.01ZM71.1353 8.755V13.525H71.5353V8.755H71.1353ZM71.1353 13.525C71.1353 14.0529 71.1504 14.4835 71.1812 14.8148C71.2111 15.1367 71.2579 15.3924 71.3364 15.5494L71.6942 15.3706C71.6527 15.2876 71.6095 15.1008 71.5795 14.7777C71.5503 14.464 71.5353 14.0471 71.5353 13.525H71.1353ZM71.3395 15.5553C71.4367 15.7348 71.6103 15.85 71.8196 15.9197C72.028 15.9892 72.2894 16.02 72.5953 16.02V15.62C72.3113 15.62 72.0976 15.5908 71.9461 15.5403C71.7953 15.49 71.7239 15.4252 71.6912 15.3647L71.3395 15.5553ZM72.398 15.8529L72.428 16.0329L72.8226 15.9671L72.7926 15.7871L72.398 15.8529ZM72.6253 15.8H68.9653V16.2H72.6253V15.8ZM69.1626 16.0329L69.1926 15.8529L68.798 15.7871L68.768 15.9671L69.1626 16.0329ZM68.9953 16.02C69.306 16.02 69.5709 15.9893 69.7815 15.92C69.9927 15.8506 70.1684 15.7357 70.2662 15.5553L69.9145 15.3647C69.8822 15.4243 69.8104 15.4894 69.6566 15.54C69.5023 15.5907 69.2846 15.62 68.9953 15.62V16.02ZM70.2678 15.5523C70.3522 15.3899 70.403 15.1289 70.4356 14.801C70.469 14.4642 70.4853 14.0281 70.4853 13.495H70.0853C70.0853 14.0219 70.0691 14.4433 70.0375 14.7615C70.0051 15.0886 69.9584 15.2801 69.9129 15.3677L70.2678 15.5523ZM70.4853 13.495V12.445H70.0853V13.495H70.4853ZM70.4853 12.445C70.4853 11.2886 70.4509 10.5044 70.3768 10.1128L69.9838 10.1872C70.0497 10.5356 70.0853 11.2814 70.0853 12.445H70.4853ZM70.3779 10.1188C70.3467 9.92137 70.3066 9.7513 70.2555 9.61229C70.2055 9.47597 70.1391 9.35337 70.0455 9.26757L69.7752 9.56243C69.8016 9.58663 69.8402 9.64153 69.8801 9.75021C69.919 9.8562 69.9539 9.99863 69.9828 10.1812L70.3779 10.1188ZM70.0455 9.26757C69.7531 8.99959 69.3244 8.885 68.8003 8.885V9.285C69.2762 9.285 69.5875 9.39041 69.7752 9.56243L70.0455 9.26757ZM68.9971 9.04922L68.9671 8.88422L68.5735 8.95578L68.6035 9.12078L68.9971 9.04922ZM68.7954 9.11842C69.6574 9.00943 70.5041 8.955 71.3353 8.955V8.555C70.4866 8.555 69.6232 8.61057 68.7452 8.72158L68.7954 9.11842ZM75.8261 4.96H76.0261V4.76H75.8261V4.96ZM76.0211 15.445L75.8421 15.5345L75.8436 15.5373L76.0211 15.445ZM77.1011 15.82L77.2983 15.7871L77.2705 15.62H77.1011V15.82ZM77.1311 16V16.2H77.3671L77.3283 15.9671L77.1311 16ZM73.4561 16L73.2588 15.9671L73.22 16.2H73.4561V16ZM73.4861 15.82V15.62H73.3166L73.2888 15.7871L73.4861 15.82ZM74.5811 15.445L74.4036 15.3527L74.5811 15.445ZM74.5961 5.65L74.7735 5.55742L74.7697 5.55077L74.5961 5.65ZM74.3711 5.44L74.4784 5.27127V5.27127L74.3711 5.44ZM74.0111 5.32L73.9944 5.51931L73.9957 5.51941L74.0111 5.32ZM73.4861 5.305L73.2893 5.34078L73.3191 5.505H73.4861V5.305ZM73.4561 5.14L73.4245 4.94251L73.2227 4.97479L73.2593 5.17578L73.4561 5.14ZM75.6261 4.96V13.39H76.0261V4.96H75.6261ZM75.6261 13.39C75.6261 13.948 75.6424 14.4038 75.6757 14.7551C75.7082 15.0977 75.7588 15.3678 75.8422 15.5344L76.1999 15.3556C76.1533 15.2622 76.1064 15.0598 76.0739 14.7174C76.0423 14.3837 76.0261 13.942 76.0261 13.39H75.6261ZM75.8436 15.5373C75.9395 15.7216 76.112 15.8419 76.323 15.9152C76.5323 15.9879 76.7946 16.02 77.1011 16.02V15.62C76.8175 15.62 76.6048 15.5896 76.4542 15.5373C76.3051 15.4856 76.2326 15.4184 76.1985 15.3527L75.8436 15.5373ZM76.9038 15.8529L76.9338 16.0329L77.3283 15.9671L77.2983 15.7871L76.9038 15.8529ZM77.1311 15.8H73.4561V16.2H77.1311V15.8ZM73.6533 16.0329L73.6833 15.8529L73.2888 15.7871L73.2588 15.9671L73.6533 16.0329ZM73.4861 16.02C73.7973 16.02 74.063 15.9879 74.2746 15.9155C74.4875 15.8426 74.6622 15.7225 74.7585 15.5373L74.4036 15.3527C74.3699 15.4175 74.2971 15.4849 74.145 15.537C73.9916 15.5896 73.7748 15.62 73.4861 15.62V16.02ZM74.7585 15.5373C74.8434 15.3739 74.894 15.1042 74.9264 14.7626C74.9598 14.4112 74.9761 13.9529 74.9761 13.39H74.5761C74.5761 13.9471 74.5599 14.3913 74.5282 14.7249C74.4956 15.0683 74.4487 15.2661 74.4036 15.3527L74.7585 15.5373ZM74.9761 13.39V7.66H74.5761V13.39H74.9761ZM74.9761 7.66C74.9761 7.10233 74.961 6.65065 74.9303 6.30716C74.9149 6.13546 74.8953 5.98777 74.8709 5.86578C74.8471 5.74662 74.8164 5.63991 74.7734 5.55749L74.4187 5.74251C74.4357 5.77508 74.4575 5.83837 74.4787 5.94422C74.4993 6.04723 74.5172 6.17954 74.5319 6.34284C74.5611 6.66935 74.5761 7.10767 74.5761 7.66H74.9761ZM74.7697 5.55077C74.7066 5.44031 74.6008 5.34911 74.4784 5.27127L74.2637 5.60873C74.3614 5.67089 74.4055 5.71969 74.4224 5.74923L74.7697 5.55077ZM74.4784 5.27127C74.3407 5.18364 74.1891 5.13311 74.0264 5.12059L73.9957 5.51941C74.093 5.52689 74.1814 5.55636 74.2637 5.60873L74.4784 5.27127ZM74.0277 5.12069C73.8992 5.10999 73.7176 5.105 73.4861 5.105V5.505C73.7145 5.505 73.8829 5.51001 73.9944 5.51931L74.0277 5.12069ZM73.6828 5.26922L73.6528 5.10422L73.2593 5.17578L73.2893 5.34078L73.6828 5.26922ZM73.4877 5.33749C74.2263 5.21931 75.0057 5.16 75.8261 5.16V4.76C74.9864 4.76 74.1858 4.82069 73.4245 4.94251L73.4877 5.33749ZM78.6581 13.765H78.8581V13.5956L78.691 13.5677L78.6581 13.765ZM79.1831 15.235L79.0459 15.3805L79.0482 15.3826L79.1831 15.235ZM81.6131 15.385L81.7314 15.5463L81.6131 15.385ZM81.6731 13.57L81.5346 13.7143L81.5375 13.717L81.6731 13.57ZM79.6631 12.52L79.5819 12.7028L79.5837 12.7036L79.6631 12.52ZM78.7331 11.815L78.5774 11.9406L78.5799 11.9435L78.7331 11.815ZM79.0481 9.28L79.167 9.44084L79.1676 9.44041L79.0481 9.28ZM82.7081 9.175H82.9081V9.05894L82.8074 9.00135L82.7081 9.175ZM82.5281 11.095L82.4796 11.289L82.694 11.3426L82.726 11.124L82.5281 11.095ZM82.3481 11.05H82.1481V11.2062L82.2996 11.244L82.3481 11.05ZM79.7831 9.49L79.6539 9.33729L79.651 9.33986L79.7831 9.49ZM79.7831 11.29L79.6476 11.4373L79.6539 11.4427L79.7831 11.29ZM80.7131 11.845L80.6362 12.0296L80.7131 11.845ZM81.7931 12.325L81.7077 12.5059L81.7137 12.5086L81.7931 12.325ZM82.7231 13.03L82.5673 13.1556L82.572 13.161L82.7231 13.03ZM82.3631 15.625L82.2484 15.4612L82.3631 15.625ZM78.3281 15.505H78.1281V15.6036L78.2063 15.6636L78.3281 15.505ZM78.4781 13.735L78.511 13.5377L78.3099 13.5042L78.2803 13.7059L78.4781 13.735ZM78.4581 13.765C78.4581 14.45 78.6433 15.0009 79.0459 15.3805L79.3203 15.0895C79.023 14.8091 78.8581 14.38 78.8581 13.765H78.4581ZM79.0482 15.3826C79.4355 15.7368 79.8988 15.915 80.4281 15.915V15.515C79.9974 15.515 79.6307 15.3732 79.3181 15.0874L79.0482 15.3826ZM80.4281 15.915C80.9472 15.915 81.3877 15.7984 81.7314 15.5463L81.4949 15.2237C81.2386 15.4116 80.889 15.515 80.4281 15.515V15.915ZM81.7314 15.5463C82.0824 15.2889 82.2631 14.9341 82.2631 14.5H81.8631C81.8631 14.8059 81.7438 15.0411 81.4949 15.2237L81.7314 15.5463ZM82.2631 14.5C82.2631 14.0688 82.1131 13.7039 81.8088 13.423L81.5375 13.717C81.7532 13.9161 81.8631 14.1712 81.8631 14.5H82.2631ZM81.8116 13.4257C81.5417 13.1666 81.215 12.9587 80.835 12.8004L80.6812 13.1696C81.0212 13.3113 81.3046 13.4934 81.5346 13.7143L81.8116 13.4257ZM80.835 12.8004C80.4759 12.6507 80.1117 12.4961 79.7425 12.3364L79.5837 12.7036C79.9545 12.8639 80.3204 13.0193 80.6812 13.1696L80.835 12.8004ZM79.7444 12.3372C79.4129 12.1899 79.1273 11.9738 78.8864 11.6865L78.5799 11.9435C78.8589 12.2762 79.1933 12.5301 79.5819 12.7028L79.7444 12.3372ZM78.8888 11.6894C78.6752 11.4246 78.5581 11.0584 78.5581 10.57H78.1581C78.1581 11.1216 78.291 11.5854 78.5774 11.9406L78.8888 11.6894ZM78.5581 10.57C78.5581 10.1204 78.7521 9.74749 79.167 9.44083L78.9292 9.11916C78.4241 9.49251 78.1581 9.97955 78.1581 10.57H78.5581ZM79.1676 9.44041C79.6016 9.11722 80.0993 8.955 80.6681 8.955V8.555C80.017 8.555 79.4347 8.74278 78.9287 9.11959L79.1676 9.44041ZM80.6681 8.955C81.5206 8.955 82.1612 9.09283 82.6089 9.34865L82.8074 9.00135C82.275 8.69717 81.5557 8.555 80.6681 8.555V8.955ZM82.5081 9.175C82.5081 9.62054 82.4498 10.2493 82.3302 11.066L82.726 11.124C82.8465 10.3007 82.9081 9.64946 82.9081 9.175H82.5081ZM82.5766 10.901L82.3966 10.856L82.2996 11.244L82.4796 11.289L82.5766 10.901ZM82.5481 11.05C82.5481 10.3657 82.3934 9.82241 82.0395 9.46858L81.7567 9.75142C82.0029 9.99759 82.1481 10.4143 82.1481 11.05H82.5481ZM82.0395 9.46858C81.7015 9.13051 81.2854 8.96 80.8031 8.96V9.36C81.1809 9.36 81.4948 9.48949 81.7567 9.75142L82.0395 9.46858ZM80.8031 8.96C80.3472 8.96 79.9579 9.08012 79.6539 9.33732L79.9123 9.64268C80.1283 9.45988 80.419 9.36 80.8031 9.36V8.96ZM79.651 9.33986C79.3515 9.60339 79.2081 9.96152 79.2081 10.39H79.6081C79.6081 10.0585 79.7147 9.81661 79.9153 9.64014L79.651 9.33986ZM79.2081 10.39C79.2081 10.8104 79.3526 11.1657 79.6477 11.4372L79.9185 11.1428C79.7136 10.9543 79.6081 10.7096 79.6081 10.39H79.2081ZM79.6539 11.4427C79.9317 11.6777 80.2599 11.8728 80.6362 12.0296L80.79 11.6604C80.4463 11.5172 80.1545 11.3423 79.9123 11.1373L79.6539 11.4427ZM80.6362 12.0296C80.9933 12.1784 81.3505 12.3371 81.7077 12.5058L81.8785 12.1441C81.5158 11.9729 81.153 11.8116 80.79 11.6604L80.6362 12.0296ZM81.7137 12.5086C82.0544 12.6559 82.3381 12.8711 82.5674 13.1556L82.8788 12.9044C82.6082 12.5689 82.2719 12.3141 81.8725 12.1414L81.7137 12.5086ZM82.572 13.161C82.797 13.4206 82.9131 13.7425 82.9131 14.14H83.3131C83.3131 13.6575 83.1693 13.2394 82.8743 12.899L82.572 13.161ZM82.9131 14.14C82.9131 14.7185 82.692 15.1507 82.2484 15.4612L82.4778 15.7888C83.0343 15.3993 83.3131 14.8415 83.3131 14.14H82.9131ZM82.2484 15.4612C81.7918 15.7808 81.1759 15.95 80.3831 15.95V16.35C81.2303 16.35 81.9344 16.1692 82.4778 15.7888L82.2484 15.4612ZM80.3831 15.95C79.6104 15.95 78.97 15.7457 78.4499 15.3464L78.2063 15.6636C78.8063 16.1243 79.5359 16.35 80.3831 16.35V15.95ZM78.5281 15.505C78.5281 15.0176 78.5769 14.4378 78.676 13.7641L78.2803 13.7059C78.1793 14.3922 78.1281 14.9924 78.1281 15.505H78.5281ZM78.4452 13.9323L78.6252 13.9623L78.691 13.5677L78.511 13.5377L78.4452 13.9323Z" fill="#25A59E" mask="url(#path-1-outside-1_6123_330)"/>
<path fill-rule="evenodd" clip-rule="evenodd" d="M99.3332 8.66683H107.243L104.821 11.5735C104.585 11.8562 104.624 12.2768 104.907 12.5122C105.19 12.7482 105.61 12.7095 105.846 12.4268L109.179 8.42683C109.205 8.3955 109.218 8.35883 109.237 8.32416C109.253 8.29616 109.273 8.27216 109.285 8.2415C109.315 8.16483 109.333 8.08416 109.333 8.00283C109.333 8.00216 109.333 8.00083 109.333 8.00016C109.333 7.9995 109.333 7.99816 109.333 7.9975C109.333 7.91616 109.315 7.8355 109.285 7.75883C109.273 7.72816 109.253 7.70416 109.237 7.67616C109.218 7.6415 109.205 7.60483 109.179 7.5735L105.846 3.5735C105.713 3.4155 105.524 3.3335 105.333 3.3335C105.183 3.3335 105.031 3.38416 104.907 3.48816C104.624 3.7235 104.585 4.14416 104.821 4.42683L107.243 7.3335H99.3332C98.9652 7.3335 98.6665 7.63216 98.6665 8.00016C98.6665 8.36816 98.9652 8.66683 99.3332 8.66683Z" fill="#25A59E"/>
<mask id="mask0_6123_330" style="mask-type:luminance" maskUnits="userSpaceOnUse" x="98" y="3" width="12" height="10">
<path fill-rule="evenodd" clip-rule="evenodd" d="M99.3332 8.66683H107.243L104.821 11.5735C104.585 11.8562 104.624 12.2768 104.907 12.5122C105.19 12.7482 105.61 12.7095 105.846 12.4268L109.179 8.42683C109.205 8.3955 109.218 8.35883 109.237 8.32416C109.253 8.29616 109.273 8.27216 109.285 8.2415C109.315 8.16483 109.333 8.08416 109.333 8.00283C109.333 8.00216 109.333 8.00083 109.333 8.00016C109.333 7.9995 109.333 7.99816 109.333 7.9975C109.333 7.91616 109.315 7.8355 109.285 7.75883C109.273 7.72816 109.253 7.70416 109.237 7.67616C109.218 7.6415 109.205 7.60483 109.179 7.5735L105.846 3.5735C105.713 3.4155 105.524 3.3335 105.333 3.3335C105.183 3.3335 105.031 3.38416 104.907 3.48816C104.624 3.7235 104.585 4.14416 104.821 4.42683L107.243 7.3335H99.3332C98.9652 7.3335 98.6665 7.63216 98.6665 8.00016C98.6665 8.36816 98.9652 8.66683 99.3332 8.66683Z" fill="white"/>
</mask>
<g mask="url(#mask0_6123_330)">
<rect x="96" width="16" height="16" fill="#25A59E"/>
</g>
</svg>
