<svg width="148" height="24" viewBox="0 0 148 24" fill="none" xmlns="http://www.w3.org/2000/svg">
<mask id="path-1-outside-1_6266_139" maskUnits="userSpaceOnUse" x="0" y="2" width="112" height="17" fill="black">
<rect fill="white" y="2" width="112" height="17"/>
<path d="M16.48 8.52V13.48C16.48 14.9067 16.52 15.88 16.6 16.4C16.6933 16.92 16.82 17.2467 16.98 17.38C17.2867 17.6333 17.7733 17.76 18.44 17.76L18.48 18H13.12L13.16 17.76C13.8133 17.76 14.2933 17.64 14.6 17.4C14.8533 17.2 15 16.5467 15.04 15.44C15.0667 15 15.08 14.3467 15.08 13.48V5.02L9.48 17.8L3.7 6.98V13.44C3.7 14.7733 3.76 15.74 3.88 16.34C4.01333 16.9267 4.22 17.3133 4.5 17.5C4.78 17.6733 5.24667 17.76 5.9 17.76L5.94 18H1.02L1.06 17.76C1.55333 17.76 1.92 17.7267 2.16 17.66C2.41333 17.58 2.62667 17.38 2.8 17.06C2.97333 16.74 3.08 16.3133 3.12 15.78C3.17333 15.2467 3.2 14.4667 3.2 13.44V8.54C3.2 7.51333 3.17333 6.73333 3.12 6.2C3.08 5.66667 2.97333 5.24 2.8 4.92C2.62667 4.6 2.41333 4.40667 2.16 4.34C1.92 4.26 1.55333 4.22 1.06 4.22L1.02 4H3.7L9.88 15.66L14.98 4H18.48L18.44 4.22C17.7733 4.22 17.2867 4.34667 16.98 4.6C16.6467 4.88 16.48 6.18667 16.48 8.52ZM20.2727 13.28C20.2727 11.88 20.6727 10.7067 21.4727 9.76C22.2727 8.81333 23.3593 8.34 24.7327 8.34C26.106 8.34 27.2127 8.81333 28.0527 9.76C28.8927 10.7067 29.3127 11.88 29.3127 13.28C29.3127 14.68 28.906 15.8533 28.0927 16.8C27.2927 17.7333 26.206 18.2 24.8327 18.2C23.4593 18.2 22.3527 17.7267 21.5127 16.78C20.686 15.8333 20.2727 14.6667 20.2727 13.28ZM22.5727 16.52C23.106 17.3733 23.8593 17.8 24.8327 17.8C25.806 17.8 26.5393 17.38 27.0327 16.54C27.5393 15.7 27.7927 14.62 27.7927 13.3C27.7927 11.9667 27.526 10.8733 26.9927 10.02C26.4593 9.16667 25.706 8.74 24.7327 8.74C23.7727 8.74 23.0393 9.16667 22.5327 10.02C22.0393 10.86 21.7927 11.94 21.7927 13.26C21.7927 14.58 22.0527 15.6667 22.5727 16.52ZM37.0772 8.24C37.4105 8.24 37.7039 8.31333 37.9572 8.46C38.2105 8.60667 38.3372 8.80667 38.3372 9.06C38.3372 9.31333 38.2572 9.51333 38.0972 9.66C37.9372 9.80667 37.7572 9.88 37.5572 9.88C37.3572 9.88 37.1039 9.79333 36.7972 9.62C36.5039 9.44667 36.1905 9.36 35.8572 9.36C35.3372 9.36 34.9105 9.84 34.5772 10.8C34.2572 11.76 34.0972 12.8733 34.0972 14.14C34.0972 15.8467 34.1839 16.88 34.3572 17.24C34.4105 17.36 34.5105 17.4733 34.6572 17.58C34.8039 17.6733 34.9572 17.7267 35.1172 17.74C35.2772 17.7533 35.5039 17.76 35.7972 17.76L35.8372 18H30.9772L31.0172 17.76C31.4439 17.76 31.7505 17.74 31.9372 17.7C32.1372 17.6467 32.3039 17.48 32.4372 17.2C32.5705 16.92 32.6439 16.5733 32.6572 16.16C32.6839 15.7333 32.6972 15.06 32.6972 14.14V12.98C32.6972 11.1267 32.6439 10.0733 32.5372 9.82C32.4439 9.56667 32.3572 9.36667 32.2772 9.22C32.1972 9.07333 32.0772 8.97333 31.9172 8.92C31.6239 8.84 31.2372 8.8 30.7572 8.8L30.7172 8.58C31.8505 8.42 32.9772 8.34 34.0972 8.34V11.28C34.2439 10.3333 34.5705 9.59333 35.0772 9.06C35.5972 8.51333 36.2639 8.24 37.0772 8.24ZM47.0245 12.94H40.4645V13.28C40.4645 14.6933 40.7645 15.7733 41.3645 16.52C41.9645 17.2533 42.7112 17.62 43.6045 17.62C44.9379 17.62 45.8979 17.0867 46.4845 16.02L46.7845 16.18C46.0912 17.5267 44.9312 18.2 43.3045 18.2C42.1045 18.2 41.0779 17.7667 40.2245 16.9C39.3712 16.0333 38.9445 14.8667 38.9445 13.4C38.9445 11.92 39.3179 10.7067 40.0645 9.76C40.8245 8.81333 41.8312 8.34 43.0845 8.34C44.3512 8.34 45.3245 8.77333 46.0045 9.64C46.6845 10.4933 47.0245 11.5933 47.0245 12.94ZM43.1445 8.74C42.3712 8.74 41.7579 9.07333 41.3045 9.74C40.8645 10.3933 40.5979 11.2667 40.5045 12.36H45.4845C45.3912 9.94667 44.6112 8.74 43.1445 8.74ZM60.5873 15.78C60.374 16.4733 60.0073 17.0533 59.4873 17.52C58.9807 17.9733 58.354 18.2 57.6073 18.2C56.874 18.2 56.2607 18.0533 55.7673 17.76C55.274 17.4667 54.894 17.08 54.6273 16.6C54.094 15.68 53.8273 14.56 53.8273 13.24C53.8273 11.92 54.2807 10.7733 55.1873 9.8C56.094 8.82667 57.3073 8.34 58.8273 8.34C59.494 8.34 60.1007 8.42 60.6473 8.58V6.68C60.6473 5.68 60.614 5.00667 60.5473 4.66C60.4807 4.3 60.374 4.08 60.2273 4C59.9607 3.84 59.5407 3.76 58.9673 3.76L58.9273 3.54C59.8873 3.38 60.9273 3.3 62.0473 3.3V13.56C62.0473 15.04 62.094 16.0133 62.1873 16.48C62.2807 16.9333 62.5073 17.16 62.8673 17.16C63.094 17.16 63.394 17.0667 63.7673 16.88L63.8673 17.08C63.7607 17.16 63.6207 17.26 63.4473 17.38C63.274 17.4867 62.9207 17.6333 62.3873 17.82C61.854 18.0067 61.3407 18.1 60.8473 18.1C60.674 17.38 60.5873 16.6067 60.5873 15.78ZM55.8273 16.12C55.9873 16.56 56.234 16.9133 56.5673 17.18C56.914 17.4467 57.3273 17.58 57.8073 17.58C58.3007 17.58 58.7407 17.4133 59.1273 17.08C59.5273 16.7467 59.8273 16.32 60.0273 15.8C60.4407 14.8 60.6473 13.7667 60.6473 12.7V9.64C60.074 9.18667 59.4473 8.96 58.7673 8.96C58.0873 8.96 57.5207 9.10667 57.0673 9.4C56.614 9.69333 56.2673 10.08 56.0273 10.56C55.574 11.4533 55.3473 12.4067 55.3473 13.42C55.3473 14.3933 55.5073 15.2933 55.8273 16.12ZM73.1378 12.94H66.5778V13.28C66.5778 14.6933 66.8778 15.7733 67.4778 16.52C68.0778 17.2533 68.8245 17.62 69.7178 17.62C71.0511 17.62 72.0111 17.0867 72.5978 16.02L72.8978 16.18C72.2045 17.5267 71.0445 18.2 69.4178 18.2C68.2178 18.2 67.1911 17.7667 66.3378 16.9C65.4845 16.0333 65.0578 14.8667 65.0578 13.4C65.0578 11.92 65.4311 10.7067 66.1778 9.76C66.9378 8.81333 67.9445 8.34 69.1978 8.34C70.4645 8.34 71.4378 8.77333 72.1178 9.64C72.7978 10.4933 73.1378 11.5933 73.1378 12.94ZM69.2578 8.74C68.4845 8.74 67.8711 9.07333 67.4178 9.74C66.9778 10.3933 66.7111 11.2667 66.6178 12.36H71.5978C71.5045 9.94667 70.7245 8.74 69.2578 8.74ZM77.6606 8.54H80.1206V8.98H77.6606V16.6C77.6606 16.88 77.7273 17.1067 77.8606 17.28C77.994 17.44 78.1673 17.52 78.3806 17.52C78.8606 17.52 79.4273 17.38 80.0806 17.1L80.1206 17.32C79.1873 17.9067 78.3606 18.2 77.6406 18.2C77.174 18.2 76.8273 18.0867 76.6006 17.86C76.374 17.6333 76.2606 17.24 76.2606 16.68V8.98H75.0606V8.54C75.7806 8.54 76.2806 8.34 76.5606 7.94C76.854 7.52667 77.074 6.92 77.2206 6.12L77.6606 6.08V8.54ZM88.7673 11.54V13.56C88.7673 15.04 88.814 16.0133 88.9073 16.48C89.0007 16.9333 89.2273 17.16 89.5873 17.16C89.814 17.16 90.114 17.0667 90.4873 16.88L90.5873 17.08C90.4807 17.16 90.3407 17.26 90.1673 17.38C89.994 17.4867 89.6407 17.6333 89.1073 17.82C88.574 18.0067 88.0607 18.1 87.5673 18.1C87.434 17.54 87.3673 16.6467 87.3673 15.42C87.074 16.2467 86.6873 16.92 86.2073 17.44C85.7407 17.9467 85.0873 18.2 84.2473 18.2C83.4073 18.2 82.7407 17.98 82.2473 17.54C81.7673 17.0867 81.5273 16.4733 81.5273 15.7C81.5273 13.5533 83.474 12.4733 87.3673 12.46V11.74C87.3673 10.78 87.2273 10.0467 86.9473 9.54C86.6673 9.03333 86.1473 8.78 85.3873 8.78C84.9607 8.78 84.614 8.88667 84.3473 9.1C84.0807 9.31333 83.9007 9.54667 83.8073 9.8C83.5807 10.4933 83.2407 10.84 82.7873 10.84C82.3473 10.84 82.1273 10.5933 82.1273 10.1C82.1273 9.59333 82.4607 9.17333 83.1273 8.84C83.794 8.50667 84.6007 8.34 85.5473 8.34C86.494 8.34 87.2673 8.61333 87.8673 9.16C88.4673 9.69333 88.7673 10.4867 88.7673 11.54ZM83.0473 15.78C83.0473 16.3 83.174 16.7333 83.4273 17.08C83.6807 17.4133 84.0807 17.58 84.6273 17.58C85.1873 17.58 85.694 17.3133 86.1473 16.78C86.6007 16.2333 86.9073 15.6333 87.0673 14.98C87.2407 14.3133 87.3407 13.6267 87.3673 12.92C85.8873 12.9333 84.794 13.2067 84.0873 13.74C83.394 14.2733 83.0473 14.9533 83.0473 15.78ZM93.5538 5.94C93.3271 5.71333 93.2138 5.44667 93.2138 5.14C93.2138 4.83333 93.3271 4.56667 93.5538 4.34C93.7804 4.11333 94.0471 4 94.3538 4C94.6604 4 94.9271 4.11333 95.1538 4.34C95.3804 4.56667 95.4938 4.83333 95.4938 5.14C95.4938 5.44667 95.3804 5.71333 95.1538 5.94C94.9271 6.16667 94.6604 6.28 94.3538 6.28C94.0471 6.28 93.7804 6.16667 93.5538 5.94ZM95.1138 8.34V14.7C95.1138 16.1 95.1938 16.96 95.3538 17.28C95.5271 17.6 96.0071 17.76 96.7938 17.76L96.8338 18H91.9538L91.9938 17.76C92.7938 17.76 93.2804 17.6 93.4538 17.28C93.6271 16.9467 93.7138 16.0733 93.7138 14.66V13.26C93.7138 11.7133 93.6671 10.6933 93.5738 10.2C93.4938 9.69333 93.3738 9.36667 93.2138 9.22C92.8938 8.92667 92.4004 8.78 91.7338 8.78L91.6938 8.56C92.8538 8.41333 93.9938 8.34 95.1138 8.34ZM101.101 3.28V14.52C101.101 16 101.188 16.9133 101.361 17.26C101.535 17.5933 102.015 17.76 102.801 17.76L102.841 18H97.9414L97.9814 17.76C98.7814 17.76 99.2681 17.5933 99.4414 17.26C99.6147 16.9267 99.7014 16.0133 99.7014 14.52V6.88C99.7014 5.4 99.6214 4.50667 99.4614 4.2C99.4081 4.10667 99.3081 4.01333 99.1614 3.92C99.0147 3.82667 98.8547 3.77333 98.6814 3.76C98.5214 3.74667 98.2881 3.74 97.9814 3.74L97.9414 3.52C98.9414 3.36 99.9947 3.28 101.101 3.28ZM104.878 15.02C104.878 15.8867 105.111 16.54 105.578 16.98C106.044 17.4067 106.598 17.62 107.238 17.62C107.891 17.62 108.418 17.4733 108.818 17.18C109.218 16.8867 109.418 16.4933 109.418 16C109.418 15.4933 109.244 15.08 108.898 14.76C108.564 14.44 108.158 14.18 107.678 13.98C107.198 13.78 106.711 13.5733 106.218 13.36C105.738 13.1467 105.324 12.8333 104.978 12.42C104.644 12.0067 104.478 11.4533 104.478 10.76C104.478 10.0667 104.784 9.49333 105.398 9.04C106.024 8.57333 106.744 8.34 107.558 8.34C108.718 8.34 109.624 8.52667 110.278 8.9C110.278 9.51333 110.198 10.3667 110.038 11.46L109.798 11.4C109.798 10.52 109.598 9.88 109.198 9.48C108.798 9.08 108.311 8.88 107.738 8.88C107.178 8.88 106.724 9.02667 106.377 9.32C106.044 9.61333 105.878 10.0133 105.878 10.52C105.878 11.0133 106.044 11.4133 106.377 11.72C106.724 12.0133 107.138 12.26 107.618 12.46C108.098 12.66 108.578 12.8733 109.058 13.1C109.551 13.3133 109.964 13.6267 110.298 14.04C110.644 14.44 110.818 14.9333 110.818 15.52C110.818 16.3733 110.484 17.0333 109.818 17.5C109.151 17.9667 108.271 18.2 107.178 18.2C106.098 18.2 105.184 17.9133 104.438 17.34C104.438 16.6733 104.504 15.8867 104.638 14.98L104.878 15.02Z"/>
</mask>
<path d="M16.48 8.52V13.48C16.48 14.9067 16.52 15.88 16.6 16.4C16.6933 16.92 16.82 17.2467 16.98 17.38C17.2867 17.6333 17.7733 17.76 18.44 17.76L18.48 18H13.12L13.16 17.76C13.8133 17.76 14.2933 17.64 14.6 17.4C14.8533 17.2 15 16.5467 15.04 15.44C15.0667 15 15.08 14.3467 15.08 13.48V5.02L9.48 17.8L3.7 6.98V13.44C3.7 14.7733 3.76 15.74 3.88 16.34C4.01333 16.9267 4.22 17.3133 4.5 17.5C4.78 17.6733 5.24667 17.76 5.9 17.76L5.94 18H1.02L1.06 17.76C1.55333 17.76 1.92 17.7267 2.16 17.66C2.41333 17.58 2.62667 17.38 2.8 17.06C2.97333 16.74 3.08 16.3133 3.12 15.78C3.17333 15.2467 3.2 14.4667 3.2 13.44V8.54C3.2 7.51333 3.17333 6.73333 3.12 6.2C3.08 5.66667 2.97333 5.24 2.8 4.92C2.62667 4.6 2.41333 4.40667 2.16 4.34C1.92 4.26 1.55333 4.22 1.06 4.22L1.02 4H3.7L9.88 15.66L14.98 4H18.48L18.44 4.22C17.7733 4.22 17.2867 4.34667 16.98 4.6C16.6467 4.88 16.48 6.18667 16.48 8.52ZM20.2727 13.28C20.2727 11.88 20.6727 10.7067 21.4727 9.76C22.2727 8.81333 23.3593 8.34 24.7327 8.34C26.106 8.34 27.2127 8.81333 28.0527 9.76C28.8927 10.7067 29.3127 11.88 29.3127 13.28C29.3127 14.68 28.906 15.8533 28.0927 16.8C27.2927 17.7333 26.206 18.2 24.8327 18.2C23.4593 18.2 22.3527 17.7267 21.5127 16.78C20.686 15.8333 20.2727 14.6667 20.2727 13.28ZM22.5727 16.52C23.106 17.3733 23.8593 17.8 24.8327 17.8C25.806 17.8 26.5393 17.38 27.0327 16.54C27.5393 15.7 27.7927 14.62 27.7927 13.3C27.7927 11.9667 27.526 10.8733 26.9927 10.02C26.4593 9.16667 25.706 8.74 24.7327 8.74C23.7727 8.74 23.0393 9.16667 22.5327 10.02C22.0393 10.86 21.7927 11.94 21.7927 13.26C21.7927 14.58 22.0527 15.6667 22.5727 16.52ZM37.0772 8.24C37.4105 8.24 37.7039 8.31333 37.9572 8.46C38.2105 8.60667 38.3372 8.80667 38.3372 9.06C38.3372 9.31333 38.2572 9.51333 38.0972 9.66C37.9372 9.80667 37.7572 9.88 37.5572 9.88C37.3572 9.88 37.1039 9.79333 36.7972 9.62C36.5039 9.44667 36.1905 9.36 35.8572 9.36C35.3372 9.36 34.9105 9.84 34.5772 10.8C34.2572 11.76 34.0972 12.8733 34.0972 14.14C34.0972 15.8467 34.1839 16.88 34.3572 17.24C34.4105 17.36 34.5105 17.4733 34.6572 17.58C34.8039 17.6733 34.9572 17.7267 35.1172 17.74C35.2772 17.7533 35.5039 17.76 35.7972 17.76L35.8372 18H30.9772L31.0172 17.76C31.4439 17.76 31.7505 17.74 31.9372 17.7C32.1372 17.6467 32.3039 17.48 32.4372 17.2C32.5705 16.92 32.6439 16.5733 32.6572 16.16C32.6839 15.7333 32.6972 15.06 32.6972 14.14V12.98C32.6972 11.1267 32.6439 10.0733 32.5372 9.82C32.4439 9.56667 32.3572 9.36667 32.2772 9.22C32.1972 9.07333 32.0772 8.97333 31.9172 8.92C31.6239 8.84 31.2372 8.8 30.7572 8.8L30.7172 8.58C31.8505 8.42 32.9772 8.34 34.0972 8.34V11.28C34.2439 10.3333 34.5705 9.59333 35.0772 9.06C35.5972 8.51333 36.2639 8.24 37.0772 8.24ZM47.0245 12.94H40.4645V13.28C40.4645 14.6933 40.7645 15.7733 41.3645 16.52C41.9645 17.2533 42.7112 17.62 43.6045 17.62C44.9379 17.62 45.8979 17.0867 46.4845 16.02L46.7845 16.18C46.0912 17.5267 44.9312 18.2 43.3045 18.2C42.1045 18.2 41.0779 17.7667 40.2245 16.9C39.3712 16.0333 38.9445 14.8667 38.9445 13.4C38.9445 11.92 39.3179 10.7067 40.0645 9.76C40.8245 8.81333 41.8312 8.34 43.0845 8.34C44.3512 8.34 45.3245 8.77333 46.0045 9.64C46.6845 10.4933 47.0245 11.5933 47.0245 12.94ZM43.1445 8.74C42.3712 8.74 41.7579 9.07333 41.3045 9.74C40.8645 10.3933 40.5979 11.2667 40.5045 12.36H45.4845C45.3912 9.94667 44.6112 8.74 43.1445 8.74ZM60.5873 15.78C60.374 16.4733 60.0073 17.0533 59.4873 17.52C58.9807 17.9733 58.354 18.2 57.6073 18.2C56.874 18.2 56.2607 18.0533 55.7673 17.76C55.274 17.4667 54.894 17.08 54.6273 16.6C54.094 15.68 53.8273 14.56 53.8273 13.24C53.8273 11.92 54.2807 10.7733 55.1873 9.8C56.094 8.82667 57.3073 8.34 58.8273 8.34C59.494 8.34 60.1007 8.42 60.6473 8.58V6.68C60.6473 5.68 60.614 5.00667 60.5473 4.66C60.4807 4.3 60.374 4.08 60.2273 4C59.9607 3.84 59.5407 3.76 58.9673 3.76L58.9273 3.54C59.8873 3.38 60.9273 3.3 62.0473 3.3V13.56C62.0473 15.04 62.094 16.0133 62.1873 16.48C62.2807 16.9333 62.5073 17.16 62.8673 17.16C63.094 17.16 63.394 17.0667 63.7673 16.88L63.8673 17.08C63.7607 17.16 63.6207 17.26 63.4473 17.38C63.274 17.4867 62.9207 17.6333 62.3873 17.82C61.854 18.0067 61.3407 18.1 60.8473 18.1C60.674 17.38 60.5873 16.6067 60.5873 15.78ZM55.8273 16.12C55.9873 16.56 56.234 16.9133 56.5673 17.18C56.914 17.4467 57.3273 17.58 57.8073 17.58C58.3007 17.58 58.7407 17.4133 59.1273 17.08C59.5273 16.7467 59.8273 16.32 60.0273 15.8C60.4407 14.8 60.6473 13.7667 60.6473 12.7V9.64C60.074 9.18667 59.4473 8.96 58.7673 8.96C58.0873 8.96 57.5207 9.10667 57.0673 9.4C56.614 9.69333 56.2673 10.08 56.0273 10.56C55.574 11.4533 55.3473 12.4067 55.3473 13.42C55.3473 14.3933 55.5073 15.2933 55.8273 16.12ZM73.1378 12.94H66.5778V13.28C66.5778 14.6933 66.8778 15.7733 67.4778 16.52C68.0778 17.2533 68.8245 17.62 69.7178 17.62C71.0511 17.62 72.0111 17.0867 72.5978 16.02L72.8978 16.18C72.2045 17.5267 71.0445 18.2 69.4178 18.2C68.2178 18.2 67.1911 17.7667 66.3378 16.9C65.4845 16.0333 65.0578 14.8667 65.0578 13.4C65.0578 11.92 65.4311 10.7067 66.1778 9.76C66.9378 8.81333 67.9445 8.34 69.1978 8.34C70.4645 8.34 71.4378 8.77333 72.1178 9.64C72.7978 10.4933 73.1378 11.5933 73.1378 12.94ZM69.2578 8.74C68.4845 8.74 67.8711 9.07333 67.4178 9.74C66.9778 10.3933 66.7111 11.2667 66.6178 12.36H71.5978C71.5045 9.94667 70.7245 8.74 69.2578 8.74ZM77.6606 8.54H80.1206V8.98H77.6606V16.6C77.6606 16.88 77.7273 17.1067 77.8606 17.28C77.994 17.44 78.1673 17.52 78.3806 17.52C78.8606 17.52 79.4273 17.38 80.0806 17.1L80.1206 17.32C79.1873 17.9067 78.3606 18.2 77.6406 18.2C77.174 18.2 76.8273 18.0867 76.6006 17.86C76.374 17.6333 76.2606 17.24 76.2606 16.68V8.98H75.0606V8.54C75.7806 8.54 76.2806 8.34 76.5606 7.94C76.854 7.52667 77.074 6.92 77.2206 6.12L77.6606 6.08V8.54ZM88.7673 11.54V13.56C88.7673 15.04 88.814 16.0133 88.9073 16.48C89.0007 16.9333 89.2273 17.16 89.5873 17.16C89.814 17.16 90.114 17.0667 90.4873 16.88L90.5873 17.08C90.4807 17.16 90.3407 17.26 90.1673 17.38C89.994 17.4867 89.6407 17.6333 89.1073 17.82C88.574 18.0067 88.0607 18.1 87.5673 18.1C87.434 17.54 87.3673 16.6467 87.3673 15.42C87.074 16.2467 86.6873 16.92 86.2073 17.44C85.7407 17.9467 85.0873 18.2 84.2473 18.2C83.4073 18.2 82.7407 17.98 82.2473 17.54C81.7673 17.0867 81.5273 16.4733 81.5273 15.7C81.5273 13.5533 83.474 12.4733 87.3673 12.46V11.74C87.3673 10.78 87.2273 10.0467 86.9473 9.54C86.6673 9.03333 86.1473 8.78 85.3873 8.78C84.9607 8.78 84.614 8.88667 84.3473 9.1C84.0807 9.31333 83.9007 9.54667 83.8073 9.8C83.5807 10.4933 83.2407 10.84 82.7873 10.84C82.3473 10.84 82.1273 10.5933 82.1273 10.1C82.1273 9.59333 82.4607 9.17333 83.1273 8.84C83.794 8.50667 84.6007 8.34 85.5473 8.34C86.494 8.34 87.2673 8.61333 87.8673 9.16C88.4673 9.69333 88.7673 10.4867 88.7673 11.54ZM83.0473 15.78C83.0473 16.3 83.174 16.7333 83.4273 17.08C83.6807 17.4133 84.0807 17.58 84.6273 17.58C85.1873 17.58 85.694 17.3133 86.1473 16.78C86.6007 16.2333 86.9073 15.6333 87.0673 14.98C87.2407 14.3133 87.3407 13.6267 87.3673 12.92C85.8873 12.9333 84.794 13.2067 84.0873 13.74C83.394 14.2733 83.0473 14.9533 83.0473 15.78ZM93.5538 5.94C93.3271 5.71333 93.2138 5.44667 93.2138 5.14C93.2138 4.83333 93.3271 4.56667 93.5538 4.34C93.7804 4.11333 94.0471 4 94.3538 4C94.6604 4 94.9271 4.11333 95.1538 4.34C95.3804 4.56667 95.4938 4.83333 95.4938 5.14C95.4938 5.44667 95.3804 5.71333 95.1538 5.94C94.9271 6.16667 94.6604 6.28 94.3538 6.28C94.0471 6.28 93.7804 6.16667 93.5538 5.94ZM95.1138 8.34V14.7C95.1138 16.1 95.1938 16.96 95.3538 17.28C95.5271 17.6 96.0071 17.76 96.7938 17.76L96.8338 18H91.9538L91.9938 17.76C92.7938 17.76 93.2804 17.6 93.4538 17.28C93.6271 16.9467 93.7138 16.0733 93.7138 14.66V13.26C93.7138 11.7133 93.6671 10.6933 93.5738 10.2C93.4938 9.69333 93.3738 9.36667 93.2138 9.22C92.8938 8.92667 92.4004 8.78 91.7338 8.78L91.6938 8.56C92.8538 8.41333 93.9938 8.34 95.1138 8.34ZM101.101 3.28V14.52C101.101 16 101.188 16.9133 101.361 17.26C101.535 17.5933 102.015 17.76 102.801 17.76L102.841 18H97.9414L97.9814 17.76C98.7814 17.76 99.2681 17.5933 99.4414 17.26C99.6147 16.9267 99.7014 16.0133 99.7014 14.52V6.88C99.7014 5.4 99.6214 4.50667 99.4614 4.2C99.4081 4.10667 99.3081 4.01333 99.1614 3.92C99.0147 3.82667 98.8547 3.77333 98.6814 3.76C98.5214 3.74667 98.2881 3.74 97.9814 3.74L97.9414 3.52C98.9414 3.36 99.9947 3.28 101.101 3.28ZM104.878 15.02C104.878 15.8867 105.111 16.54 105.578 16.98C106.044 17.4067 106.598 17.62 107.238 17.62C107.891 17.62 108.418 17.4733 108.818 17.18C109.218 16.8867 109.418 16.4933 109.418 16C109.418 15.4933 109.244 15.08 108.898 14.76C108.564 14.44 108.158 14.18 107.678 13.98C107.198 13.78 106.711 13.5733 106.218 13.36C105.738 13.1467 105.324 12.8333 104.978 12.42C104.644 12.0067 104.478 11.4533 104.478 10.76C104.478 10.0667 104.784 9.49333 105.398 9.04C106.024 8.57333 106.744 8.34 107.558 8.34C108.718 8.34 109.624 8.52667 110.278 8.9C110.278 9.51333 110.198 10.3667 110.038 11.46L109.798 11.4C109.798 10.52 109.598 9.88 109.198 9.48C108.798 9.08 108.311 8.88 107.738 8.88C107.178 8.88 106.724 9.02667 106.377 9.32C106.044 9.61333 105.878 10.0133 105.878 10.52C105.878 11.0133 106.044 11.4133 106.377 11.72C106.724 12.0133 107.138 12.26 107.618 12.46C108.098 12.66 108.578 12.8733 109.058 13.1C109.551 13.3133 109.964 13.6267 110.298 14.04C110.644 14.44 110.818 14.9333 110.818 15.52C110.818 16.3733 110.484 17.0333 109.818 17.5C109.151 17.9667 108.271 18.2 107.178 18.2C106.098 18.2 105.184 17.9133 104.438 17.34C104.438 16.6733 104.504 15.8867 104.638 14.98L104.878 15.02Z" fill="#25A59E"/>
<path d="M16.6 16.4L16.2045 16.4608L16.2063 16.4707L16.6 16.4ZM16.98 17.38L16.7239 17.6873L16.7252 17.6884L16.98 17.38ZM18.44 17.76L18.8346 17.6942L18.7789 17.36H18.44V17.76ZM18.48 18V18.4H18.9522L18.8746 17.9342L18.48 18ZM13.12 18L12.7254 17.9342L12.6478 18.4H13.12V18ZM13.16 17.76V17.36H12.8212L12.7654 17.6942L13.16 17.76ZM14.6 17.4L14.8465 17.715L14.8479 17.714L14.6 17.4ZM15.04 15.44L14.6406 15.4158L14.6403 15.4256L15.04 15.44ZM15.08 5.02H15.48L14.7136 4.85946L15.08 5.02ZM9.48 17.8L9.12719 17.9885L9.51556 18.7155L9.84637 17.9605L9.48 17.8ZM3.7 6.98L4.05281 6.79153L3.3 6.98H3.7ZM3.88 16.34L3.48763 16.4185L3.48995 16.4286L3.88 16.34ZM4.5 17.5L4.27799 17.833L4.28946 17.8401L4.5 17.5ZM5.9 17.76L6.29456 17.6942L6.23885 17.36H5.9V17.76ZM5.94 18V18.4H6.41218L6.33456 17.9342L5.94 18ZM1.02 18L0.625443 17.9342L0.547816 18.4H1.02V18ZM1.06 17.76V17.36H0.721149L0.665442 17.6942L1.06 17.76ZM2.16 17.66L2.26712 18.0456L2.28045 18.0414L2.16 17.66ZM2.8 17.06L2.44828 16.8695L2.8 17.06ZM3.12 15.78L2.72186 15.7402L2.72112 15.7501L3.12 15.78ZM3.12 6.2L2.721 6.22992L2.72199 6.2398L3.12 6.2ZM2.8 4.92L2.44828 5.11051L2.44828 5.11051L2.8 4.92ZM2.16 4.34L2.03351 4.71947L2.04574 4.72355L2.0582 4.72683L2.16 4.34ZM1.06 4.22L0.666452 4.29155L0.726169 4.62H1.06V4.22ZM1.02 4V3.6H0.540715L0.626452 4.07155L1.02 4ZM3.7 4L4.05343 3.81268L3.9407 3.6H3.7V4ZM9.88 15.66L9.52657 15.8473L9.91451 16.5793L10.2465 15.8203L9.88 15.66ZM14.98 4V3.6H14.7184L14.6135 3.8397L14.98 4ZM18.48 4L18.8735 4.07155L18.9593 3.6H18.48V4ZM18.44 4.22V4.62H18.7738L18.8335 4.29155L18.44 4.22ZM16.98 4.6L16.7252 4.2916L16.7227 4.29372L16.98 4.6ZM16.08 8.52V13.48H16.88V8.52H16.08ZM16.08 13.48C16.08 14.9038 16.1194 15.9064 16.2047 16.4608L16.9953 16.3392C16.9207 15.8536 16.88 14.9095 16.88 13.48H16.08ZM16.2063 16.4707C16.2555 16.7446 16.316 16.9836 16.3921 17.1796C16.4652 17.3682 16.5676 17.557 16.7239 17.6873L17.2361 17.0727C17.237 17.0734 17.2254 17.0638 17.2057 17.0322C17.1863 17.001 17.163 16.9551 17.1379 16.8904C17.0873 16.7598 17.0379 16.5754 16.9937 16.3293L16.2063 16.4707ZM16.7252 17.6884C17.1382 18.0295 17.7381 18.16 18.44 18.16V17.36C17.8086 17.36 17.4352 17.2372 17.2348 17.0716L16.7252 17.6884ZM18.0454 17.8258L18.0854 18.0658L18.8746 17.9342L18.8346 17.6942L18.0454 17.8258ZM18.48 17.6H13.12V18.4H18.48V17.6ZM13.5146 18.0658L13.5546 17.8258L12.7654 17.6942L12.7254 17.9342L13.5146 18.0658ZM13.16 18.16C13.8475 18.16 14.4357 18.0365 14.8465 17.715L14.3535 17.085C14.1509 17.2435 13.7792 17.36 13.16 17.36V18.16ZM14.8479 17.714C15.0917 17.5215 15.2148 17.1841 15.2903 16.8476C15.3714 16.4865 15.4193 16.0187 15.4397 15.4544L14.6403 15.4256C14.6207 15.968 14.5753 16.3802 14.5097 16.6724C14.477 16.8182 14.4415 16.9233 14.4078 16.9952C14.373 17.0696 14.3495 17.0882 14.3521 17.086L14.8479 17.714ZM15.4393 15.4642C15.4667 15.0117 15.48 14.3486 15.48 13.48H14.68C14.68 14.3447 14.6666 14.9883 14.6407 15.4158L15.4393 15.4642ZM15.48 13.48V5.02H14.68V13.48H15.48ZM14.7136 4.85946L9.11363 17.6395L9.84637 17.9605L15.4464 5.18054L14.7136 4.85946ZM9.83282 17.6115L4.05281 6.79153L3.34719 7.16847L9.12719 17.9885L9.83282 17.6115ZM3.3 6.98V13.44H4.1V6.98H3.3ZM3.3 13.44C3.3 14.7764 3.35946 15.7769 3.48777 16.4184L4.27223 16.2616C4.16054 15.7031 4.1 14.7703 4.1 13.44H3.3ZM3.48995 16.4286C3.62972 17.0437 3.86686 17.5586 4.27812 17.8328L4.72188 17.1672C4.57314 17.068 4.39694 16.8097 4.27005 16.2514L3.48995 16.4286ZM4.28946 17.8401C4.66949 18.0754 5.23259 18.16 5.9 18.16V17.36C5.26074 17.36 4.89051 17.2713 4.71054 17.1599L4.28946 17.8401ZM5.50544 17.8258L5.54544 18.0658L6.33456 17.9342L6.29456 17.6942L5.50544 17.8258ZM5.94 17.6H1.02V18.4H5.94V17.6ZM1.41456 18.0658L1.45456 17.8258L0.665442 17.6942L0.625443 17.9342L1.41456 18.0658ZM1.06 18.16C1.56144 18.16 1.97278 18.1271 2.26706 18.0454L2.05294 17.2746C1.86722 17.3262 1.54523 17.36 1.06 17.36V18.16ZM2.28045 18.0414C2.66457 17.9201 2.94757 17.6274 3.15172 17.2505L2.44828 16.8695C2.30576 17.1326 2.16209 17.2399 2.03955 17.2786L2.28045 18.0414ZM3.15172 17.2505C3.36148 16.8633 3.47648 16.3753 3.51888 15.8099L2.72112 15.7501C2.68352 16.2514 2.58519 16.6167 2.44828 16.8695L3.15172 17.2505ZM3.51801 15.8198C3.57337 15.2662 3.6 14.4703 3.6 13.44H2.8C2.8 14.463 2.77329 15.2271 2.72199 15.7402L3.51801 15.8198ZM3.6 13.44V8.54H2.8V13.44H3.6ZM3.6 8.54C3.6 7.50972 3.57337 6.71377 3.51801 6.1602L2.72199 6.2398C2.77329 6.75289 2.8 7.51695 2.8 8.54H3.6ZM3.51888 6.17008C3.47648 5.6047 3.36148 5.11674 3.15172 4.72949L2.44828 5.11051C2.58519 5.36326 2.68352 5.72863 2.72112 6.22992L3.51888 6.17008ZM3.15172 4.72949C2.94682 4.35122 2.6583 4.05751 2.2618 3.95317L2.0582 4.72683C2.16837 4.75582 2.30651 4.84878 2.44828 5.11051L3.15172 4.72949ZM2.28649 3.96053C1.98326 3.85945 1.56359 3.82 1.06 3.82V4.62C1.54308 4.62 1.85674 4.66055 2.03351 4.71947L2.28649 3.96053ZM1.45355 4.14845L1.41355 3.92845L0.626452 4.07155L0.666452 4.29155L1.45355 4.14845ZM1.02 4.4H3.7V3.6H1.02V4.4ZM3.34657 4.18732L9.52657 15.8473L10.2334 15.4727L4.05343 3.81268L3.34657 4.18732ZM10.2465 15.8203L15.3465 4.16029L14.6135 3.8397L9.51352 15.4997L10.2465 15.8203ZM14.98 4.4H18.48V3.6H14.98V4.4ZM18.0865 3.92845L18.0465 4.14845L18.8335 4.29155L18.8735 4.07155L18.0865 3.92845ZM18.44 3.82C17.7381 3.82 17.1382 3.95052 16.7252 4.29162L17.2348 4.90838C17.4352 4.74281 17.8086 4.62 18.44 4.62V3.82ZM16.7227 4.29372C16.5485 4.44002 16.4476 4.66696 16.3797 4.88228C16.3072 5.11246 16.2514 5.40105 16.2082 5.73939C16.1217 6.41757 16.08 7.34717 16.08 8.52H16.88C16.88 7.35949 16.9216 6.46909 17.0018 5.84061C17.042 5.52561 17.0903 5.2892 17.1428 5.12272C17.1999 4.94137 17.2448 4.89998 17.2373 4.90628L16.7227 4.29372ZM21.4727 9.76L21.1671 9.50182L21.4727 9.76ZM28.0527 9.76L28.3519 9.49452L28.0527 9.76ZM28.0927 16.8L27.7893 16.5393L27.789 16.5397L28.0927 16.8ZM21.5127 16.78L21.2114 17.0431L21.2135 17.0455L21.5127 16.78ZM22.5727 16.52L22.2311 16.7282L22.2335 16.732L22.5727 16.52ZM27.0327 16.54L26.6901 16.3334L26.6877 16.3374L27.0327 16.54ZM22.5327 10.02L22.1887 9.81578L22.1877 9.81743L22.5327 10.02ZM20.6727 13.28C20.6727 11.9615 21.0471 10.8833 21.7782 10.0182L21.1671 9.50182C20.2982 10.53 19.8727 11.7985 19.8727 13.28H20.6727ZM21.7782 10.0182C22.4934 9.17186 23.4627 8.74 24.7327 8.74V7.94C23.2559 7.94 22.0519 8.45481 21.1671 9.50182L21.7782 10.0182ZM24.7327 8.74C26.0026 8.74 26.9963 9.17223 27.7535 10.0255L28.3519 9.49452C27.429 8.45443 26.2094 7.94 24.7327 7.94V8.74ZM27.7535 10.0255C28.5215 10.891 28.9127 11.9667 28.9127 13.28H29.7127C29.7127 11.7933 29.2639 10.5223 28.3519 9.49452L27.7535 10.0255ZM28.9127 13.28C28.9127 14.5968 28.5326 15.6741 27.7893 16.5393L28.3961 17.0607C29.2794 16.0325 29.7127 14.7632 29.7127 13.28H28.9127ZM27.789 16.5397C27.0744 17.3733 26.1046 17.8 24.8327 17.8V18.6C26.3074 18.6 27.5109 18.0933 28.3964 17.0603L27.789 16.5397ZM24.8327 17.8C23.5628 17.8 22.569 17.3678 21.8119 16.5145L21.2135 17.0455C22.1363 18.0856 23.3559 18.6 24.8327 18.6V17.8ZM21.8139 16.5169C21.0577 15.6508 20.6727 14.5807 20.6727 13.28H19.8727C19.8727 14.7527 20.3143 16.0158 21.2114 17.0431L21.8139 16.5169ZM22.2335 16.732C22.8369 17.6975 23.7158 18.2 24.8327 18.2V17.4C24.0028 17.4 23.3751 17.0492 22.9119 16.308L22.2335 16.732ZM24.8327 18.2C25.948 18.2 26.8125 17.7048 27.3776 16.7426L26.6877 16.3374C26.2662 17.0552 25.664 17.4 24.8327 17.4V18.2ZM27.3752 16.7466C27.9303 15.8263 28.1927 14.6685 28.1927 13.3H27.3927C27.3927 14.5715 27.1483 15.5737 26.6901 16.3334L27.3752 16.7466ZM28.1927 13.3C28.1927 11.9155 27.9159 10.7424 27.3319 9.808L26.6535 10.232C27.1361 11.0042 27.3927 12.0179 27.3927 13.3H28.1927ZM27.3319 9.808C26.7284 8.84252 25.8495 8.34 24.7327 8.34V9.14C25.5625 9.14 26.1902 9.49081 26.6535 10.232L27.3319 9.808ZM24.7327 8.34C23.6257 8.34 22.7645 8.8461 22.1887 9.81578L22.8766 10.2242C23.3142 9.48723 23.9196 9.14 24.7327 9.14V8.34ZM22.1877 9.81743C21.6477 10.7369 21.3927 11.8931 21.3927 13.26H22.1927C22.1927 11.9869 22.4309 10.9831 22.8776 10.2226L22.1877 9.81743ZM21.3927 13.26C21.3927 14.6305 21.6625 15.795 22.2311 16.7281L22.9142 16.3119C22.4429 15.5383 22.1927 14.5295 22.1927 13.26H21.3927ZM36.7972 9.62L36.5937 9.96443L36.6004 9.96822L36.7972 9.62ZM34.5772 10.8L34.1993 10.6688L34.1977 10.6735L34.5772 10.8ZM34.3572 17.24L34.7229 17.0775L34.7176 17.0665L34.3572 17.24ZM34.6572 17.58L34.4219 17.9035L34.432 17.9108L34.4424 17.9175L34.6572 17.58ZM35.1172 17.74L35.084 18.1386L35.1172 17.74ZM35.7972 17.76L36.1917 17.6942L36.136 17.36H35.7972V17.76ZM35.8372 18V18.4H36.3094L36.2317 17.9342L35.8372 18ZM30.9772 18L30.5826 17.9342L30.505 18.4H30.9772V18ZM31.0172 17.76V17.36H30.6783L30.6226 17.6942L31.0172 17.76ZM31.9372 17.7L32.021 18.0911L32.0307 18.089L32.0403 18.0865L31.9372 17.7ZM32.6572 16.16L32.2578 16.135L32.2574 16.1471L32.6572 16.16ZM32.5372 9.82L32.1618 9.95828L32.165 9.96683L32.1685 9.97522L32.5372 9.82ZM32.2772 9.22L31.926 9.41154V9.41154L32.2772 9.22ZM31.9172 8.92L32.0437 8.54053L32.0331 8.53701L32.0224 8.53409L31.9172 8.92ZM30.7572 8.8L30.3636 8.87155L30.4234 9.2H30.7572V8.8ZM30.7172 8.58L30.6613 8.18393L30.2492 8.2421L30.3236 8.65155L30.7172 8.58ZM34.0972 8.34H34.4972V7.94H34.0972V8.34ZM34.0972 11.28H33.6972L34.4925 11.3412L34.0972 11.28ZM35.0772 9.06L34.7874 8.78431L34.7872 8.7845L35.0772 9.06ZM37.0772 8.64C37.3501 8.64 37.5724 8.69943 37.7568 8.80617L38.1576 8.11383C37.8353 7.92724 37.471 7.84 37.0772 7.84V8.64ZM37.7568 8.80617C37.9095 8.8946 37.9372 8.97406 37.9372 9.06H38.7372C38.7372 8.63927 38.5115 8.31873 38.1576 8.11383L37.7568 8.80617ZM37.9372 9.06C37.9372 9.22173 37.8902 9.30707 37.8269 9.36514L38.3675 9.95486C38.6241 9.71959 38.7372 9.40493 38.7372 9.06H37.9372ZM37.8269 9.36514C37.7338 9.45045 37.6482 9.48 37.5572 9.48V10.28C37.8662 10.28 38.1406 10.1629 38.3675 9.95486L37.8269 9.36514ZM37.5572 9.48C37.4606 9.48 37.2801 9.4335 36.994 9.27177L36.6004 9.96822C36.9276 10.1532 37.2538 10.28 37.5572 10.28V9.48ZM37.0007 9.27563C36.6471 9.06672 36.2638 8.96 35.8572 8.96V9.76C36.1173 9.76 36.3606 9.82661 36.5937 9.96437L37.0007 9.27563ZM35.8572 8.96C35.4568 8.96 35.1182 9.15055 34.8482 9.45425C34.5857 9.74964 34.3743 10.1648 34.1993 10.6688L34.9551 10.9312C35.1134 10.4752 35.282 10.1704 35.4462 9.98575C35.6029 9.80945 35.7376 9.76 35.8572 9.76V8.96ZM34.1977 10.6735C33.8612 11.6831 33.6972 12.8407 33.6972 14.14H34.4972C34.4972 12.906 34.6532 11.8369 34.9567 10.9265L34.1977 10.6735ZM33.6972 14.14C33.6972 14.9984 33.7189 15.6959 33.7636 16.2284C33.8065 16.7398 33.874 17.1585 33.9968 17.4135L34.7176 17.0665C34.667 16.9615 34.6046 16.6835 34.5608 16.1616C34.5188 15.6608 34.4972 14.9883 34.4972 14.14H33.6972ZM33.9917 17.4025C34.0824 17.6065 34.2391 17.7705 34.4219 17.9035L34.8925 17.2565C34.7819 17.1761 34.7387 17.1135 34.7227 17.0775L33.9917 17.4025ZM34.4424 17.9175C34.6391 18.0426 34.8541 18.1195 35.084 18.1386L35.1504 17.3414C35.0602 17.3339 34.9686 17.304 34.8719 17.2425L34.4424 17.9175ZM35.084 18.1386C35.2605 18.1533 35.5002 18.16 35.7972 18.16V17.36C35.5075 17.36 35.2938 17.3533 35.1504 17.3414L35.084 18.1386ZM35.4026 17.8258L35.4426 18.0658L36.2317 17.9342L36.1917 17.6942L35.4026 17.8258ZM35.8372 17.6H30.9772V18.4H35.8372V17.6ZM31.3717 18.0658L31.4117 17.8258L30.6226 17.6942L30.5826 17.9342L31.3717 18.0658ZM31.0172 18.16C31.4462 18.16 31.7896 18.1407 32.021 18.0911L31.8534 17.3089C31.7114 17.3393 31.4415 17.36 31.0172 17.36V18.16ZM32.0403 18.0865C32.4005 17.9904 32.6401 17.7043 32.7983 17.372L32.076 17.028C31.9676 17.2557 31.8739 17.3029 31.8341 17.3135L32.0403 18.0865ZM32.7983 17.372C32.9619 17.0285 33.0424 16.6239 33.057 16.1729L32.2574 16.1471C32.2453 16.5227 32.1792 16.8115 32.076 17.028L32.7983 17.372ZM33.0564 16.185C33.0839 15.745 33.0972 15.0611 33.0972 14.14H32.2972C32.2972 15.0589 32.2838 15.7217 32.258 16.135L33.0564 16.185ZM33.0972 14.14V12.98H32.2972V14.14H33.0972ZM33.0972 12.98C33.0972 12.0508 33.0838 11.3164 33.0567 10.7798C33.0431 10.5119 33.0258 10.288 33.0042 10.1114C32.9842 9.94816 32.9563 9.78469 32.9058 9.66478L32.1685 9.97522C32.1672 9.97208 32.1735 9.98726 32.1829 10.0332C32.1917 10.0758 32.201 10.1336 32.2102 10.2086C32.2285 10.3587 32.2446 10.5615 32.2577 10.8202C32.2839 11.337 32.2972 12.0559 32.2972 12.98H33.0972ZM32.9125 9.68172C32.816 9.41975 32.7216 9.19941 32.6283 9.02846L31.926 9.41154C31.9928 9.53392 32.0717 9.71359 32.1618 9.95828L32.9125 9.68172ZM32.6283 9.02846C32.4994 8.79206 32.2986 8.62551 32.0437 8.54053L31.7907 9.29947C31.8558 9.32116 31.895 9.3546 31.926 9.41154L32.6283 9.02846ZM32.0224 8.53409C31.681 8.44096 31.2548 8.4 30.7572 8.4V9.2C31.2196 9.2 31.5668 9.23904 31.8119 9.30591L32.0224 8.53409ZM31.1507 8.72845L31.1107 8.50845L30.3236 8.65155L30.3636 8.87155L31.1507 8.72845ZM30.7731 8.97607C31.8883 8.81863 32.9963 8.74 34.0972 8.74V7.94C32.9581 7.94 31.8127 8.02137 30.6613 8.18393L30.7731 8.97607ZM33.6972 8.34V11.28H34.4972V8.34H33.6972ZM34.4925 11.3412C34.6304 10.4509 34.9314 9.79427 35.3672 9.3355L34.7872 8.7845C34.2097 9.3924 33.8573 10.2158 33.7019 11.2188L34.4925 11.3412ZM35.367 9.33568C35.8052 8.87504 36.3639 8.64 37.0772 8.64V7.84C36.1638 7.84 35.3892 8.15163 34.7874 8.78431L35.367 9.33568ZM47.0245 12.94V13.34H47.4245V12.94H47.0245ZM40.4645 12.94V12.54H40.0645V12.94H40.4645ZM41.3645 16.52L41.0527 16.7706L41.0549 16.7733L41.3645 16.52ZM46.4845 16.02L46.6728 15.6671L46.3243 15.4812L46.134 15.8272L46.4845 16.02ZM46.7845 16.18L47.1402 16.3631L47.3206 16.0126L46.9728 15.8271L46.7845 16.18ZM40.2245 16.9L39.9395 17.1806L40.2245 16.9ZM40.0645 9.76L39.7526 9.50958L39.7505 9.51229L40.0645 9.76ZM46.0045 9.64L45.6898 9.88692L45.6917 9.88928L46.0045 9.64ZM41.3045 9.74L40.9738 9.51507L40.9728 9.51656L41.3045 9.74ZM40.5045 12.36L40.106 12.326L40.0689 12.76H40.5045V12.36ZM45.4845 12.36V12.76H45.9003L45.8842 12.3445L45.4845 12.36ZM47.0245 12.54H40.4645V13.34H47.0245V12.54ZM40.0645 12.94V13.28H40.8645V12.94H40.0645ZM40.0645 13.28C40.0645 14.7427 40.374 15.926 41.0527 16.7706L41.6763 16.2694C41.155 15.6207 40.8645 14.644 40.8645 13.28H40.0645ZM41.0549 16.7733C41.7256 17.593 42.5831 18.02 43.6045 18.02V17.22C42.8393 17.22 42.2034 16.9136 41.6741 16.2667L41.0549 16.7733ZM43.6045 18.02C45.0667 18.02 46.1702 17.4215 46.835 16.2128L46.134 15.8272C45.6255 16.7518 44.809 17.22 43.6045 17.22V18.02ZM46.2963 16.3729L46.5963 16.5329L46.9728 15.8271L46.6728 15.6671L46.2963 16.3729ZM46.4289 15.9969C46.1126 16.6113 45.6993 17.0556 45.1937 17.3491C44.6865 17.6435 44.0623 17.8 43.3045 17.8V18.6C44.1734 18.6 44.9426 18.4198 45.5953 18.0409C46.2497 17.6611 46.7632 17.0953 47.1402 16.3631L46.4289 15.9969ZM43.3045 17.8C42.2133 17.8 41.2889 17.4108 40.5096 16.6194L39.9395 17.1806C40.8669 18.1225 41.9957 18.6 43.3045 18.6V17.8ZM40.5096 16.6194C39.7446 15.8425 39.3445 14.7847 39.3445 13.4H38.5445C38.5445 14.9486 38.9978 16.2242 39.9395 17.1806L40.5096 16.6194ZM39.3445 13.4C39.3445 11.9889 39.6993 10.8689 40.3786 10.0077L39.7505 9.51229C38.9364 10.5444 38.5445 11.8511 38.5445 13.4H39.3445ZM40.3764 10.0104C41.0577 9.16181 41.9479 8.74 43.0845 8.74V7.94C41.7145 7.94 40.5913 8.46485 39.7526 9.50959L40.3764 10.0104ZM43.0845 8.74C44.2492 8.74 45.0976 9.13215 45.6898 9.88691L46.3192 9.39308C45.5514 8.41451 44.4532 7.94 43.0845 7.94V8.74ZM45.6917 9.88928C46.303 10.6564 46.6245 11.6621 46.6245 12.94H47.4245C47.4245 11.5245 47.066 10.3302 46.3174 9.39072L45.6917 9.88928ZM43.1445 8.34C42.2322 8.34 41.4978 8.74444 40.9738 9.51508L41.6353 9.96492C42.0179 9.40222 42.5102 9.14 43.1445 9.14V8.34ZM40.9728 9.51656C40.4827 10.2442 40.2029 11.1901 40.106 12.326L40.9031 12.394C40.9928 11.3432 41.2463 10.5425 41.6363 9.96344L40.9728 9.51656ZM40.5045 12.76H45.4845V11.96H40.5045V12.76ZM45.8842 12.3445C45.8365 11.1094 45.6126 10.1196 45.1655 9.42785C44.6999 8.70768 44.0102 8.34 43.1445 8.34V9.14C43.7455 9.14 44.1791 9.37566 44.4936 9.86215C44.8264 10.377 45.0393 11.1973 45.0848 12.3755L45.8842 12.3445ZM60.5873 15.78H60.9873L60.205 15.6624L60.5873 15.78ZM59.4873 17.52L59.7541 17.8181L59.7545 17.8177L59.4873 17.52ZM55.7673 17.76L55.9718 17.4162L55.7673 17.76ZM54.6273 16.6L54.9771 16.4057L54.9734 16.3994L54.6273 16.6ZM55.1873 9.8L54.8947 9.52736L55.1873 9.8ZM60.6473 8.58L60.535 8.96389L61.0473 9.11385V8.58H60.6473ZM60.5473 4.66L60.154 4.73284L60.1545 4.73554L60.5473 4.66ZM60.2273 4L60.0215 4.343L60.0286 4.34722L60.0358 4.35116L60.2273 4ZM58.9673 3.76L58.5738 3.83155L58.6335 4.16H58.9673V3.76ZM58.9273 3.54L58.8616 3.14544L58.4612 3.21217L58.5338 3.61155L58.9273 3.54ZM62.0473 3.3H62.4473V2.9H62.0473V3.3ZM62.1873 16.48L61.7951 16.5584L61.7956 16.5607L62.1873 16.48ZM63.7673 16.88L64.1251 16.7011L63.9462 16.3433L63.5885 16.5222L63.7673 16.88ZM63.8673 17.08L64.1073 17.4L64.3744 17.1997L64.2251 16.9011L63.8673 17.08ZM63.4473 17.38L63.657 17.7207L63.6662 17.715L63.675 17.7089L63.4473 17.38ZM62.3873 17.82L62.5195 18.1975L62.3873 17.82ZM60.8473 18.1L60.4585 18.1936L60.5322 18.5H60.8473V18.1ZM55.8273 16.12L56.2033 15.9833L56.2004 15.9756L55.8273 16.12ZM56.5673 17.18L56.3174 17.4924L56.3235 17.497L56.5673 17.18ZM59.1273 17.08L58.8712 16.7727L58.8662 16.777L59.1273 17.08ZM60.0273 15.8L59.6576 15.6472L59.654 15.6564L60.0273 15.8ZM60.6473 9.64H61.0473V9.44635L60.8954 9.32623L60.6473 9.64ZM57.0673 9.4L57.2846 9.73583V9.73583L57.0673 9.4ZM56.0273 10.56L56.384 10.741L56.3851 10.7389L56.0273 10.56ZM60.205 15.6624C60.0122 16.2891 59.6841 16.806 59.2202 17.2223L59.7545 17.8177C60.3306 17.3007 60.7358 16.6575 60.9697 15.8976L60.205 15.6624ZM59.2206 17.2219C58.7947 17.603 58.266 17.8 57.6073 17.8V18.6C58.442 18.6 59.1666 18.3437 59.7541 17.8181L59.2206 17.2219ZM57.6073 17.8C56.9263 17.8 56.3883 17.6639 55.9718 17.4162L55.5629 18.1038C56.133 18.4428 56.8217 18.6 57.6073 18.6V17.8ZM55.9718 17.4162C55.5364 17.1573 55.2077 16.8211 54.977 16.4057L54.2777 16.7943C54.5803 17.3389 55.0117 17.776 55.5629 18.1038L55.9718 17.4162ZM54.9734 16.3994C54.483 15.5534 54.2273 14.5064 54.2273 13.24H53.4273C53.4273 14.6136 53.705 15.8066 54.2813 16.8006L54.9734 16.3994ZM54.2273 13.24C54.2273 12.022 54.6417 10.9726 55.48 10.0726L54.8947 9.52736C53.9196 10.5741 53.4273 11.818 53.4273 13.24H54.2273ZM55.48 10.0726C56.2999 9.19245 57.4009 8.74 58.8273 8.74V7.94C57.2137 7.94 55.8881 8.46088 54.8947 9.52736L55.48 10.0726ZM58.8273 8.74C59.4623 8.74 60.0304 8.81621 60.535 8.96389L60.7597 8.19611C60.1709 8.02379 59.5257 7.94 58.8273 7.94V8.74ZM61.0473 8.58V6.68H60.2473V8.58H61.0473ZM61.0473 6.68C61.0473 5.68486 61.0151 4.97424 60.9401 4.58446L60.1545 4.73554C60.2129 5.03909 60.2473 5.67514 60.2473 6.68H61.0473ZM60.9407 4.58716C60.9037 4.38757 60.8519 4.20445 60.7773 4.05049C60.7037 3.89867 60.5922 3.74336 60.4189 3.64884L60.0358 4.35116C60.0092 4.33664 60.0244 4.33133 60.0574 4.39951C60.0894 4.46555 60.1243 4.57243 60.154 4.73283L60.9407 4.58716ZM60.4331 3.657C60.0712 3.43984 59.5611 3.36 58.9673 3.36V4.16C59.5202 4.16 59.8502 4.24016 60.0215 4.343L60.4331 3.657ZM59.3609 3.68845L59.3209 3.46844L58.5338 3.61155L58.5738 3.83155L59.3609 3.68845ZM58.9931 3.93456C59.9284 3.77867 60.9462 3.7 62.0473 3.7V2.9C60.9085 2.9 59.8463 2.98133 58.8616 3.14544L58.9931 3.93456ZM61.6473 3.3V13.56H62.4473V3.3H61.6473ZM61.6473 13.56C61.6473 15.0322 61.6926 16.0461 61.7951 16.5584L62.5796 16.4016C62.4954 15.9806 62.4473 15.0478 62.4473 13.56H61.6473ZM61.7956 16.5607C61.8513 16.8316 61.9564 17.0848 62.1445 17.2728C62.3424 17.4707 62.5955 17.56 62.8673 17.56V16.76C62.7792 16.76 62.739 16.736 62.7102 16.7072C62.6716 16.6686 62.6167 16.5817 62.5791 16.3993L61.7956 16.5607ZM62.8673 17.56C63.1887 17.56 63.5566 17.4326 63.9462 17.2378L63.5885 16.5222C63.2314 16.7007 62.9993 16.76 62.8673 16.76V17.56ZM63.4096 17.0589L63.5096 17.2589L64.2251 16.9011L64.1251 16.7011L63.4096 17.0589ZM63.6273 16.76C63.5263 16.8357 63.3909 16.9326 63.2197 17.0511L63.675 17.7089C63.8504 17.5874 63.995 17.4843 64.1073 17.4L63.6273 16.76ZM63.2377 17.0393C63.1065 17.1201 62.7932 17.2542 62.2552 17.4425L62.5195 18.1975C63.0482 18.0125 63.4415 17.8533 63.657 17.7207L63.2377 17.0393ZM62.2552 17.4425C61.7583 17.6164 61.2897 17.7 60.8473 17.7V18.5C61.3917 18.5 61.9498 18.3969 62.5195 18.1975L62.2552 17.4425ZM61.2362 18.0064C61.0711 17.3203 60.9873 16.5787 60.9873 15.78H60.1873C60.1873 16.6346 60.2769 17.4397 60.4585 18.1936L61.2362 18.0064ZM55.4514 16.2567C55.634 16.7588 55.9213 17.1754 56.3175 17.4923L56.8172 16.8677C56.5467 16.6512 56.3407 16.3612 56.2033 15.9833L55.4514 16.2567ZM56.3235 17.497C56.7469 17.8228 57.2482 17.98 57.8073 17.98V17.18C57.4065 17.18 57.0811 17.0705 56.8112 16.863L56.3235 17.497ZM57.8073 17.98C58.4001 17.98 58.932 17.7765 59.3885 17.383L58.8662 16.777C58.5494 17.0502 58.2012 17.18 57.8073 17.18V17.98ZM59.3834 17.3873C59.8395 17.0072 60.178 16.5227 60.4007 15.9436L59.654 15.6564C59.4767 16.1173 59.2152 16.4861 58.8713 16.7727L59.3834 17.3873ZM60.397 15.9528C60.8301 14.9051 61.0473 13.8199 61.0473 12.7H60.2473C60.2473 13.7135 60.0513 14.6949 59.6577 15.6472L60.397 15.9528ZM61.0473 12.7V9.64H60.2473V12.7H61.0473ZM60.8954 9.32623C60.2571 8.82152 59.5443 8.56 58.7673 8.56V9.36C59.3503 9.36 59.8909 9.55181 60.3993 9.95377L60.8954 9.32623ZM58.7673 8.56C58.0302 8.56 57.383 8.7193 56.85 9.06417L57.2846 9.73583C57.6583 9.49403 58.1445 9.36 58.7673 9.36V8.56ZM56.85 9.06417C56.3371 9.39608 55.9417 9.83678 55.6696 10.3811L56.3851 10.7389C56.5929 10.3232 56.8909 9.99059 57.2846 9.73583L56.85 9.06417ZM55.6706 10.379C55.1885 11.3291 54.9473 12.3445 54.9473 13.42H55.7473C55.7473 12.4688 55.9595 11.5776 56.384 10.741L55.6706 10.379ZM54.9473 13.42C54.9473 14.4379 55.1148 15.3874 55.4543 16.2644L56.2004 15.9756C55.8999 15.1993 55.7473 14.3488 55.7473 13.42H54.9473ZM73.1378 12.94V13.34H73.5378V12.94H73.1378ZM66.5778 12.94V12.54H66.1778V12.94H66.5778ZM67.4778 16.52L67.166 16.7706L67.1682 16.7733L67.4778 16.52ZM72.5978 16.02L72.786 15.6671L72.4376 15.4812L72.2473 15.8272L72.5978 16.02ZM72.8978 16.18L73.2534 16.3631L73.4339 16.0126L73.0861 15.8271L72.8978 16.18ZM66.3378 16.9L66.0528 17.1806L66.3378 16.9ZM66.1778 9.76L65.8659 9.50958L65.8637 9.51229L66.1778 9.76ZM72.1178 9.64L71.8031 9.88692L71.805 9.88928L72.1178 9.64ZM67.4178 9.74L67.087 9.51507L67.086 9.51656L67.4178 9.74ZM66.6178 12.36L66.2193 12.326L66.1822 12.76H66.6178V12.36ZM71.5978 12.36V12.76H72.0136L71.9975 12.3445L71.5978 12.36ZM73.1378 12.54H66.5778V13.34H73.1378V12.54ZM66.1778 12.94V13.28H66.9778V12.94H66.1778ZM66.1778 13.28C66.1778 14.7427 66.4873 15.926 67.166 16.7706L67.7896 16.2694C67.2683 15.6207 66.9778 14.644 66.9778 13.28H66.1778ZM67.1682 16.7733C67.8389 17.593 68.6964 18.02 69.7178 18.02V17.22C68.9526 17.22 68.3167 16.9136 67.7874 16.2667L67.1682 16.7733ZM69.7178 18.02C71.18 18.02 72.2835 17.4215 72.9483 16.2128L72.2473 15.8272C71.7388 16.7518 70.9223 17.22 69.7178 17.22V18.02ZM72.4096 16.3729L72.7096 16.5329L73.0861 15.8271L72.786 15.6671L72.4096 16.3729ZM72.5422 15.9969C72.2258 16.6113 71.8126 17.0556 71.307 17.3491C70.7998 17.6435 70.1756 17.8 69.4178 17.8V18.6C70.2867 18.6 71.0559 18.4198 71.7086 18.0409C72.363 17.6611 72.8764 17.0953 73.2534 16.3631L72.5422 15.9969ZM69.4178 17.8C68.3266 17.8 67.4021 17.4108 66.6228 16.6194L66.0528 17.1806C66.9802 18.1225 68.109 18.6 69.4178 18.6V17.8ZM66.6228 16.6194C65.8579 15.8425 65.4578 14.7847 65.4578 13.4H64.6578C64.6578 14.9486 65.111 16.2242 66.0528 17.1806L66.6228 16.6194ZM65.4578 13.4C65.4578 11.9889 65.8126 10.8689 66.4919 10.0077L65.8637 9.51229C65.0497 10.5444 64.6578 11.8511 64.6578 13.4H65.4578ZM66.4897 10.0104C67.171 9.16181 68.0612 8.74 69.1978 8.74V7.94C67.8278 7.94 66.7046 8.46485 65.8659 9.50959L66.4897 10.0104ZM69.1978 8.74C70.3624 8.74 71.2109 9.13215 71.8031 9.88691L72.4325 9.39308C71.6647 8.41451 70.5665 7.94 69.1978 7.94V8.74ZM71.805 9.88928C72.4163 10.6564 72.7378 11.6621 72.7378 12.94H73.5378C73.5378 11.5245 73.1793 10.3302 72.4306 9.39072L71.805 9.88928ZM69.2578 8.34C68.3455 8.34 67.6111 8.74444 67.087 9.51508L67.7486 9.96492C68.1312 9.40222 68.6235 9.14 69.2578 9.14V8.34ZM67.086 9.51656C66.596 10.2442 66.3162 11.1901 66.2193 12.326L67.0164 12.394C67.1061 11.3432 67.3596 10.5425 67.7496 9.96344L67.086 9.51656ZM66.6178 12.76H71.5978V11.96H66.6178V12.76ZM71.9975 12.3445C71.9497 11.1094 71.7259 10.1196 71.2787 9.42785C70.8132 8.70768 70.1235 8.34 69.2578 8.34V9.14C69.8588 9.14 70.2924 9.37566 70.6069 9.86215C70.9397 10.377 71.1525 11.1973 71.1981 12.3755L71.9975 12.3445ZM77.6606 8.54H77.2606V8.94H77.6606V8.54ZM80.1206 8.54H80.5206V8.14H80.1206V8.54ZM80.1206 8.98V9.38H80.5206V8.98H80.1206ZM77.6606 8.98V8.58H77.2606V8.98H77.6606ZM77.8606 17.28L77.5436 17.5239L77.5483 17.5301L77.5533 17.5361L77.8606 17.28ZM80.0806 17.1L80.4742 17.0284L80.3844 16.5346L79.9231 16.7323L80.0806 17.1ZM80.1206 17.32L80.3335 17.6587L80.5626 17.5147L80.5142 17.2484L80.1206 17.32ZM76.6006 17.86L76.8835 17.5772L76.6006 17.86ZM76.2606 8.98H76.6606V8.58H76.2606V8.98ZM75.0606 8.98H74.6606V9.38H75.0606V8.98ZM75.0606 8.54V8.14H74.6606V8.54H75.0606ZM76.5606 7.94L76.2344 7.7085L76.2329 7.71061L76.5606 7.94ZM77.2206 6.12L77.1844 5.72164L76.882 5.74914L76.8272 6.04787L77.2206 6.12ZM77.6606 6.08H78.0606V5.64199L77.6244 5.68164L77.6606 6.08ZM77.6606 8.94H80.1206V8.14H77.6606V8.94ZM79.7206 8.54V8.98H80.5206V8.54H79.7206ZM80.1206 8.58H77.6606V9.38H80.1206V8.58ZM77.2606 8.98V16.6H78.0606V8.98H77.2606ZM77.2606 16.6C77.2606 16.9432 77.343 17.2631 77.5436 17.5239L78.1777 17.0361C78.1116 16.9502 78.0606 16.8168 78.0606 16.6H77.2606ZM77.5533 17.5361C77.7648 17.7898 78.0519 17.92 78.3806 17.92V17.12C78.2827 17.12 78.2231 17.0902 78.1679 17.0239L77.5533 17.5361ZM78.3806 17.92C78.9343 17.92 79.5569 17.7596 80.2382 17.4677L79.9231 16.7323C79.2977 17.0004 78.7869 17.12 78.3806 17.12V17.92ZM79.6871 17.1716L79.7271 17.3916L80.5142 17.2484L80.4742 17.0284L79.6871 17.1716ZM79.9078 16.9813C79.0069 17.5476 78.2553 17.8 77.6406 17.8V18.6C78.4659 18.6 79.3677 18.2657 80.3335 17.6587L79.9078 16.9813ZM77.6406 17.8C77.2317 17.8 77.0067 17.7004 76.8835 17.5772L76.3178 18.1428C76.6479 18.4729 77.1162 18.6 77.6406 18.6V17.8ZM76.8835 17.5772C76.7713 17.465 76.6606 17.2073 76.6606 16.68H75.8606C75.8606 17.2727 75.9766 17.8017 76.3178 18.1428L76.8835 17.5772ZM76.6606 16.68V8.98H75.8606V16.68H76.6606ZM76.2606 8.58H75.0606V9.38H76.2606V8.58ZM75.4606 8.98V8.54H74.6606V8.98H75.4606ZM75.0606 8.94C75.8457 8.94 76.5025 8.72058 76.8883 8.16938L76.2329 7.71061C76.0588 7.95942 75.7156 8.14 75.0606 8.14V8.94ZM76.8868 8.1715C77.2283 7.69036 77.4625 7.01873 77.6141 6.19213L76.8272 6.04787C76.6854 6.82126 76.4796 7.36297 76.2344 7.7085L76.8868 8.1715ZM77.2568 6.51836L77.6968 6.47836L77.6244 5.68164L77.1844 5.72164L77.2568 6.51836ZM77.2606 6.08V8.54H78.0606V6.08H77.2606ZM88.9073 16.48L88.5151 16.5584L88.5156 16.5607L88.9073 16.48ZM90.4873 16.88L90.8451 16.7011L90.6662 16.3433L90.3085 16.5222L90.4873 16.88ZM90.5873 17.08L90.8273 17.4L91.0944 17.1997L90.9451 16.9011L90.5873 17.08ZM90.1673 17.38L90.377 17.7207L90.3862 17.715L90.395 17.7089L90.1673 17.38ZM89.1073 17.82L89.2395 18.1975L89.1073 17.82ZM87.5673 18.1L87.1782 18.1926L87.2514 18.5H87.5673V18.1ZM87.3673 15.42H87.7673L86.9904 15.2862L87.3673 15.42ZM86.2073 17.44L85.9134 17.1687L85.9131 17.169L86.2073 17.44ZM82.2473 17.54L81.9726 17.8309L81.9811 17.8385L82.2473 17.54ZM87.3673 12.46L87.3687 12.86L87.7673 12.8586V12.46H87.3673ZM86.9473 9.54L86.5972 9.73347V9.73347L86.9473 9.54ZM84.3473 9.1L84.5972 9.41235L84.3473 9.1ZM83.8073 9.8L83.432 9.66172L83.4294 9.66867L83.4271 9.6757L83.8073 9.8ZM83.1273 8.84L82.9485 8.48223L83.1273 8.84ZM87.8673 9.16L87.5979 9.4557L87.6016 9.45896L87.8673 9.16ZM83.4273 17.08L83.1043 17.316L83.1089 17.322L83.4273 17.08ZM86.1473 16.78L86.4521 17.0391L86.4552 17.0353L86.1473 16.78ZM87.0673 14.98L86.6802 14.8793L86.6788 14.8849L87.0673 14.98ZM87.3673 12.92L87.7671 12.9351L87.7829 12.5162L87.3637 12.52L87.3673 12.92ZM84.0873 13.74L83.8464 13.4207L83.8435 13.4229L84.0873 13.74ZM88.3673 11.54V13.56H89.1673V11.54H88.3673ZM88.3673 13.56C88.3673 15.0322 88.4126 16.0461 88.5151 16.5584L89.2996 16.4016C89.2154 15.9806 89.1673 15.0478 89.1673 13.56H88.3673ZM88.5156 16.5607C88.5713 16.8316 88.6764 17.0848 88.8645 17.2728C89.0624 17.4707 89.3155 17.56 89.5873 17.56V16.76C89.4992 16.76 89.459 16.736 89.4302 16.7072C89.3916 16.6686 89.3367 16.5817 89.2991 16.3993L88.5156 16.5607ZM89.5873 17.56C89.9087 17.56 90.2766 17.4326 90.6662 17.2378L90.3085 16.5222C89.9514 16.7007 89.7193 16.76 89.5873 16.76V17.56ZM90.1296 17.0589L90.2296 17.2589L90.9451 16.9011L90.8451 16.7011L90.1296 17.0589ZM90.3473 16.76C90.2463 16.8358 90.1109 16.9326 89.9397 17.0511L90.395 17.7089C90.5704 17.5874 90.715 17.4843 90.8273 17.4L90.3473 16.76ZM89.9577 17.0393C89.8265 17.1201 89.5132 17.2542 88.9752 17.4425L89.2395 18.1975C89.7682 18.0125 90.1615 17.8533 90.377 17.7207L89.9577 17.0393ZM88.9752 17.4425C88.4783 17.6164 88.0097 17.7 87.5673 17.7V18.5C88.1117 18.5 88.6698 18.3969 89.2395 18.1975L88.9752 17.4425ZM87.9565 18.0074C87.8347 17.4958 87.7673 16.6423 87.7673 15.42H86.9673C86.9673 16.651 87.0333 17.5842 87.1782 18.1926L87.9565 18.0074ZM86.9904 15.2862C86.7109 16.0738 86.3491 16.6967 85.9134 17.1687L86.5013 17.7113C87.0256 17.1433 87.4371 16.4196 87.7443 15.5538L86.9904 15.2862ZM85.9131 17.169C85.5384 17.5758 85.002 17.8 84.2473 17.8V18.6C85.1727 18.6 85.9429 18.3175 86.5016 17.711L85.9131 17.169ZM84.2473 17.8C83.4781 17.8 82.9155 17.5999 82.5136 17.2415L81.9811 17.8385C82.5659 18.3601 83.3366 18.6 84.2473 18.6V17.8ZM82.522 17.2492C82.1358 16.8844 81.9273 16.3838 81.9273 15.7H81.1273C81.1273 16.5629 81.3989 17.2889 81.9727 17.8308L82.522 17.2492ZM81.9273 15.7C81.9273 15.2258 82.0341 14.8293 82.2348 14.4966C82.436 14.1632 82.7447 13.872 83.1814 13.6298C84.0667 13.1386 85.4458 12.8666 87.3687 12.86L87.366 12.06C85.3956 12.0667 83.8546 12.3414 82.7933 12.9302C82.2566 13.228 81.8354 13.6101 81.5499 14.0834C81.2639 14.5574 81.1273 15.1009 81.1273 15.7H81.9273ZM87.7673 12.46V11.74H86.9673V12.46H87.7673ZM87.7673 11.74C87.7673 10.7518 87.6251 9.93935 87.2974 9.34653L86.5972 9.73347C86.8296 10.154 86.9673 10.8082 86.9673 11.74H87.7673ZM87.2974 9.34653C86.9248 8.67224 86.2403 8.38 85.3873 8.38V9.18C86.0543 9.18 86.4099 9.39443 86.5972 9.73347L87.2974 9.34653ZM85.3873 8.38C84.893 8.38 84.4513 8.50462 84.0975 8.78765L84.5972 9.41235C84.7768 9.26871 85.0283 9.18 85.3873 9.18V8.38ZM84.0975 8.78765C83.7888 9.03458 83.5564 9.3241 83.432 9.66172L84.1827 9.93828C84.245 9.76923 84.3726 9.59208 84.5972 9.41235L84.0975 8.78765ZM83.4271 9.6757C83.2161 10.3212 82.9704 10.44 82.7873 10.44V11.24C83.5109 11.24 83.9452 10.6655 84.1875 9.9243L83.4271 9.6757ZM82.7873 10.44C82.6416 10.44 82.602 10.4012 82.5909 10.3888C82.5719 10.3675 82.5273 10.2956 82.5273 10.1H81.7273C81.7273 10.3978 81.7927 10.6958 81.9938 10.9212C82.2027 11.1554 82.4931 11.24 82.7873 11.24V10.44ZM82.5273 10.1C82.5273 9.81124 82.7032 9.49927 83.3062 9.19777L82.9485 8.48223C82.2181 8.84739 81.7273 9.37543 81.7273 10.1H82.5273ZM83.3062 9.19777C83.9044 8.89868 84.6465 8.74 85.5473 8.74V7.94C84.5549 7.94 83.6836 8.11465 82.9485 8.48223L83.3062 9.19777ZM85.5473 8.74C86.412 8.74 87.0837 8.98714 87.5979 9.45568L88.1367 8.86432C87.451 8.23953 86.576 7.94 85.5473 7.94V8.74ZM87.6016 9.45896C88.0915 9.89447 88.3673 10.5632 88.3673 11.54H89.1673C89.1673 10.4102 88.8431 9.49219 88.1331 8.86104L87.6016 9.45896ZM82.6473 15.78C82.6473 16.3665 82.7912 16.8874 83.1044 17.316L83.7503 16.844C83.5568 16.5793 83.4473 16.2335 83.4473 15.78H82.6473ZM83.1089 17.322C83.4599 17.7839 83.9973 17.98 84.6273 17.98V17.18C84.164 17.18 83.9014 17.0427 83.7458 16.838L83.1089 17.322ZM84.6273 17.98C85.3332 17.98 85.9434 17.6376 86.4521 17.0391L85.8426 16.5209C85.4446 16.9891 85.0415 17.18 84.6273 17.18V17.98ZM86.4552 17.0353C86.945 16.4447 87.2807 15.7906 87.4559 15.0751L86.6788 14.8849C86.534 15.4761 86.2563 16.0219 85.8394 16.5247L86.4552 17.0353ZM87.4545 15.0807C87.6353 14.3853 87.7393 13.6699 87.7671 12.9351L86.9676 12.9049C86.942 13.5835 86.8461 14.2414 86.6802 14.8793L87.4545 15.0807ZM87.3637 12.52C85.8503 12.5337 84.6539 12.8113 83.8464 13.4207L84.3283 14.0593C84.9341 13.602 85.9244 13.333 87.3709 13.32L87.3637 12.52ZM83.8435 13.4229C83.0583 14.0269 82.6473 14.821 82.6473 15.78H83.4473C83.4473 15.0857 83.7297 14.5198 84.3312 14.057L83.8435 13.4229ZM93.5537 5.94L93.8366 5.65716V5.65716L93.5537 5.94ZM95.1537 5.94L94.8709 5.65716V5.65716L95.1537 5.94ZM95.1137 8.34H95.5137V7.94H95.1137V8.34ZM95.3538 17.28L94.9958 17.459L95.002 17.4705L95.3538 17.28ZM96.7937 17.76L97.1883 17.6942L97.1326 17.36H96.7937V17.76ZM96.8337 18V18.4H97.3059L97.2283 17.9342L96.8337 18ZM91.9538 18L91.5592 17.9342L91.4816 18.4H91.9538V18ZM91.9938 17.76V17.36H91.6549L91.5992 17.6942L91.9938 17.76ZM93.4538 17.28L93.8055 17.4705L93.8086 17.4645L93.4538 17.28ZM93.5738 10.2L93.1785 10.2624L93.1807 10.2744L93.5738 10.2ZM93.2138 9.22L92.9435 9.51486V9.51486L93.2138 9.22ZM91.7337 8.78L91.3402 8.85155L91.3999 9.18H91.7337V8.78ZM91.6937 8.56L91.6436 8.16316L91.2247 8.21612L91.3002 8.63155L91.6937 8.56ZM93.8366 5.65716C93.6812 5.50172 93.6137 5.33534 93.6137 5.14H92.8138C92.8138 5.55799 92.973 5.92495 93.2709 6.22284L93.8366 5.65716ZM93.6137 5.14C93.6137 4.94466 93.6812 4.77828 93.8366 4.62284L93.2709 4.05716C92.973 4.35505 92.8138 4.72201 92.8138 5.14H93.6137ZM93.8366 4.62284C93.992 4.4674 94.1584 4.4 94.3538 4.4V3.6C93.9358 3.6 93.5688 3.75926 93.2709 4.05716L93.8366 4.62284ZM94.3538 4.4C94.5491 4.4 94.7155 4.4674 94.8709 4.62284L95.4366 4.05716C95.1387 3.75926 94.7717 3.6 94.3538 3.6V4.4ZM94.8709 4.62284C95.0263 4.77828 95.0938 4.94466 95.0938 5.14H95.8938C95.8938 4.72201 95.7345 4.35505 95.4366 4.05716L94.8709 4.62284ZM95.0938 5.14C95.0938 5.33534 95.0263 5.50172 94.8709 5.65716L95.4366 6.22284C95.7345 5.92495 95.8938 5.55799 95.8938 5.14H95.0938ZM94.8709 5.65716C94.7155 5.81259 94.5491 5.88 94.3538 5.88V6.68C94.7717 6.68 95.1387 6.52074 95.4366 6.22284L94.8709 5.65716ZM94.3538 5.88C94.1584 5.88 93.992 5.81259 93.8366 5.65716L93.2709 6.22284C93.5688 6.52074 93.9358 6.68 94.3538 6.68V5.88ZM94.7138 8.34V14.7H95.5137V8.34H94.7138ZM94.7138 14.7C94.7138 15.4058 94.7338 15.9846 94.7755 16.432C94.8154 16.8609 94.8789 17.2247 94.996 17.4589L95.7115 17.1011C95.6686 17.0153 95.6121 16.7891 95.572 16.358C95.5337 15.9454 95.5137 15.3942 95.5137 14.7H94.7138ZM95.002 17.4705C95.1532 17.7496 95.4188 17.92 95.7173 18.0195C96.0141 18.1184 96.3785 18.16 96.7937 18.16V17.36C96.4223 17.36 96.1534 17.3216 95.9702 17.2605C95.7887 17.2 95.7276 17.1304 95.7055 17.0895L95.002 17.4705ZM96.3992 17.8258L96.4392 18.0658L97.2283 17.9342L97.1883 17.6942L96.3992 17.8258ZM96.8337 17.6H91.9538V18.4H96.8337V17.6ZM92.3483 18.0658L92.3883 17.8258L91.5992 17.6942L91.5592 17.9342L92.3483 18.0658ZM91.9938 18.16C92.4152 18.16 92.784 18.1185 93.0837 18.02C93.3843 17.9212 93.6534 17.7513 93.8055 17.4705L93.102 17.0895C93.0808 17.1287 93.0199 17.1988 92.8338 17.26C92.6468 17.3215 92.3723 17.36 91.9938 17.36V18.16ZM93.8086 17.4645C93.9342 17.2231 94.0034 16.8519 94.0468 16.4145C94.092 15.9593 94.1137 15.373 94.1137 14.66H93.3138C93.3138 15.3604 93.2922 15.9174 93.2507 16.3355C93.2075 16.7714 93.1466 17.0036 93.0989 17.0955L93.8086 17.4645ZM94.1137 14.66V13.26H93.3138V14.66H94.1137ZM94.1137 13.26C94.1137 11.7205 94.0683 10.6622 93.9668 10.1256L93.1807 10.2744C93.2659 10.7244 93.3138 11.7062 93.3138 13.26H94.1137ZM93.9689 10.1376C93.9265 9.86941 93.8713 9.63343 93.7992 9.43707C93.7291 9.24611 93.6312 9.06008 93.484 8.92514L92.9435 9.51486C92.9563 9.52659 92.9984 9.57723 93.0483 9.71293C93.0962 9.84324 93.141 10.0239 93.1786 10.2624L93.9689 10.1376ZM93.484 8.92514C93.0594 8.53585 92.4487 8.38 91.7337 8.38V9.18C92.3522 9.18 92.7281 9.31748 92.9435 9.51486L93.484 8.92514ZM92.1273 8.70845L92.0873 8.48845L91.3002 8.63155L91.3402 8.85155L92.1273 8.70845ZM91.7439 8.95684C92.888 8.81219 94.0112 8.74 95.1137 8.74V7.94C93.9763 7.94 92.8195 8.01448 91.6436 8.16316L91.7439 8.95684ZM101.101 3.28H101.501V2.88H101.101V3.28ZM101.361 17.26L101.004 17.4389L101.007 17.4445L101.361 17.26ZM102.801 17.76L103.196 17.6942L103.14 17.36H102.801V17.76ZM102.841 18V18.4H103.314L103.236 17.9342L102.841 18ZM97.9414 18L97.5469 17.9342L97.4692 18.4H97.9414V18ZM97.9814 17.76V17.36H97.6426L97.5868 17.6942L97.9814 17.76ZM99.4414 17.26L99.0865 17.0755L99.4414 17.26ZM99.4614 4.2L99.816 4.01497L99.8125 4.00819L99.8087 4.00154L99.4614 4.2ZM99.1614 3.92L99.3762 3.58253L99.3762 3.58253L99.1614 3.92ZM98.6814 3.76L98.6482 4.15863L98.6507 4.15882L98.6814 3.76ZM97.9814 3.74L97.5879 3.81155L97.6476 4.14H97.9814V3.74ZM97.9414 3.52L97.8782 3.12502L97.4748 3.18957L97.5479 3.59155L97.9414 3.52ZM100.701 3.28V14.52H101.501V3.28H100.701ZM100.701 14.52C100.701 15.266 100.723 15.8783 100.768 16.3528C100.812 16.8095 100.88 17.1922 101.004 17.4389L101.719 17.0811C101.669 16.9812 101.608 16.7338 101.565 16.2772C101.523 15.8383 101.501 15.254 101.501 14.52H100.701ZM101.007 17.4445C101.155 17.7299 101.418 17.9081 101.72 18.0129C102.019 18.1166 102.385 18.16 102.801 18.16V17.36C102.431 17.36 102.164 17.3201 101.983 17.2571C101.804 17.1953 101.741 17.1235 101.716 17.0755L101.007 17.4445ZM102.407 17.8258L102.447 18.0658L103.236 17.9342L103.196 17.6942L102.407 17.8258ZM102.841 17.6H97.9414V18.4H102.841V17.6ZM98.336 18.0658L98.376 17.8258L97.5868 17.6942L97.5469 17.9342L98.336 18.0658ZM97.9814 18.16C98.4038 18.16 98.7745 18.1167 99.076 18.0134C99.3801 17.9093 99.647 17.7316 99.7963 17.4445L99.0865 17.0755C99.0625 17.1217 98.9994 17.194 98.8168 17.2566C98.6317 17.32 98.359 17.36 97.9814 17.36V18.16ZM99.7963 17.4445C99.9228 17.2012 99.9915 16.8175 100.035 16.3628C100.08 15.8883 100.101 15.2725 100.101 14.52H99.3014C99.3014 15.2608 99.2798 15.8484 99.2382 16.2872C99.1947 16.7458 99.1333 16.9855 99.0865 17.0755L99.7963 17.4445ZM100.101 14.52V6.88H99.3014V14.52H100.101ZM100.101 6.88C100.101 6.13466 100.081 5.52796 100.04 5.06432C100.019 4.83258 99.9924 4.63053 99.9586 4.46155C99.926 4.29825 99.882 4.1415 99.816 4.01497L99.1068 4.38503C99.1208 4.41184 99.1468 4.48175 99.1742 4.61845C99.2004 4.74946 99.2238 4.92075 99.243 5.13568C99.2815 5.56537 99.3014 6.14534 99.3014 6.88H100.101ZM99.8087 4.00154C99.7091 3.82729 99.5475 3.69155 99.3762 3.58253L98.9467 4.25746C99.0687 4.33511 99.107 4.38604 99.1141 4.39846L99.8087 4.00154ZM99.3762 3.58253C99.1741 3.45395 98.9509 3.37955 98.7121 3.36118L98.6507 4.15882C98.7586 4.16712 98.8554 4.19938 98.9467 4.25746L99.3762 3.58253ZM98.7146 3.36138C98.5377 3.34664 98.2911 3.34 97.9814 3.34V4.14C98.285 4.14 98.5051 4.14669 98.6482 4.15862L98.7146 3.36138ZM98.375 3.66844L98.335 3.44844L97.5479 3.59155L97.5879 3.81155L98.375 3.66844ZM98.0046 3.91498C98.9819 3.75861 100.014 3.68 101.101 3.68V2.88C99.9755 2.88 98.9009 2.96139 97.8782 3.12502L98.0046 3.91498ZM104.878 15.02H105.277V14.6811L104.943 14.6254L104.878 15.02ZM105.577 16.98L105.303 17.2711L105.308 17.2752L105.577 16.98ZM108.817 17.18L109.054 17.5026L108.817 17.18ZM108.897 14.76L108.62 15.0486L108.626 15.0539L108.897 14.76ZM106.217 13.36L106.055 13.7255L106.059 13.7271L106.217 13.36ZM104.978 12.42L104.666 12.6711L104.671 12.677L104.978 12.42ZM105.397 9.04L105.635 9.36167L105.636 9.36082L105.397 9.04ZM110.277 8.9H110.677V8.66787L110.476 8.5527L110.277 8.9ZM110.037 11.46L109.94 11.8481L110.369 11.9553L110.433 11.5179L110.037 11.46ZM109.798 11.4H109.397V11.7123L109.7 11.7881L109.798 11.4ZM106.378 9.32L106.119 9.01459L106.113 9.01971L106.378 9.32ZM106.378 11.72L106.107 12.0144L106.113 12.02L106.119 12.0254L106.378 11.72ZM107.618 12.46L107.464 12.8292L107.618 12.46ZM109.058 13.1L108.887 13.4619L108.899 13.4671L109.058 13.1ZM110.298 14.04L109.986 14.2911L109.991 14.2966L109.995 14.302L110.298 14.04ZM109.817 17.5L109.588 17.1723L109.817 17.5ZM104.438 17.34H104.037V17.5372L104.194 17.6573L104.438 17.34ZM104.637 14.98L104.703 14.5854L104.301 14.5184L104.242 14.9218L104.637 14.98ZM104.478 15.02C104.478 15.9567 104.731 16.7317 105.303 17.271L105.852 16.689C105.491 16.3483 105.277 15.8167 105.277 15.02H104.478ZM105.308 17.2752C105.849 17.7702 106.499 18.02 107.238 18.02V17.22C106.696 17.22 106.239 17.0431 105.847 16.6848L105.308 17.2752ZM107.238 18.02C107.949 18.02 108.567 17.86 109.054 17.5026L108.581 16.8574C108.268 17.0866 107.833 17.22 107.238 17.22V18.02ZM109.054 17.5026C109.556 17.1344 109.817 16.6216 109.817 16H109.018C109.018 16.3651 108.879 16.639 108.581 16.8574L109.054 17.5026ZM109.817 16C109.817 15.3909 109.604 14.8679 109.169 14.4661L108.626 15.0539C108.884 15.2921 109.018 15.5957 109.018 16H109.817ZM109.175 14.4714C108.801 14.1131 108.351 13.8274 107.831 13.6108L107.524 14.3492C107.964 14.5326 108.327 14.7669 108.62 15.0486L109.175 14.4714ZM107.831 13.6108C107.353 13.4115 106.868 13.2055 106.376 12.9929L106.059 13.7271C106.554 13.9412 107.042 14.1485 107.524 14.3492L107.831 13.6108ZM106.38 12.9945C105.957 12.8066 105.593 12.5309 105.284 12.163L104.671 12.677C105.056 13.1357 105.518 13.4868 106.055 13.7255L106.38 12.9945ZM105.289 12.1689C105.028 11.8459 104.878 11.3902 104.878 10.76H104.077C104.077 11.5165 104.26 12.1674 104.666 12.6711L105.289 12.1689ZM104.878 10.76C104.878 10.2076 105.112 9.74831 105.635 9.36167L105.16 8.71833C104.456 9.23835 104.077 9.92577 104.077 10.76H104.878ZM105.636 9.36082C106.191 8.94777 106.826 8.74 107.558 8.74V7.94C106.662 7.94 105.857 8.19889 105.159 8.71918L105.636 9.36082ZM107.558 8.74C108.682 8.74 109.51 8.92232 110.079 9.2473L110.476 8.5527C109.738 8.13101 108.753 7.94 107.558 7.94V8.74ZM109.878 8.9C109.878 9.48441 109.801 10.3153 109.642 11.4021L110.433 11.5179C110.594 10.418 110.677 9.54226 110.677 8.9H109.878ZM110.135 11.0719L109.895 11.0119L109.7 11.7881L109.94 11.8481L110.135 11.0719ZM110.198 11.4C110.198 10.4713 109.988 9.70481 109.48 9.19716L108.915 9.76284C109.207 10.0552 109.397 10.5687 109.397 11.4H110.198ZM109.48 9.19716C109.004 8.72101 108.415 8.48 107.738 8.48V9.28C108.206 9.28 108.591 9.43899 108.915 9.76284L109.48 9.19716ZM107.738 8.48C107.106 8.48 106.554 8.64691 106.119 9.01465L106.636 9.62535C106.895 9.40642 107.249 9.28 107.738 9.28V8.48ZM106.113 9.01971C105.681 9.40012 105.478 9.91638 105.478 10.52H106.278C106.278 10.1103 106.407 9.82654 106.642 9.62029L106.113 9.01971ZM105.478 10.52C105.478 11.1141 105.683 11.6247 106.107 12.0144L106.648 11.4256C106.405 11.2019 106.278 10.9126 106.278 10.52H105.478ZM106.119 12.0254C106.501 12.3488 106.951 12.6157 107.464 12.8292L107.771 12.0908C107.324 11.9043 106.947 11.6779 106.636 11.4146L106.119 12.0254ZM107.464 12.8292C107.938 13.0268 108.412 13.2376 108.887 13.4617L109.228 12.7383C108.743 12.509 108.257 12.2932 107.771 12.0908L107.464 12.8292ZM108.899 13.4671C109.333 13.6551 109.694 13.9289 109.986 14.2911L110.609 13.7889C110.234 13.3244 109.768 12.9716 109.216 12.7329L108.899 13.4671ZM109.995 14.302C110.272 14.6212 110.418 15.0184 110.418 15.52H111.217C111.217 14.8483 111.016 14.2588 110.6 13.778L109.995 14.302ZM110.418 15.52C110.418 16.2503 110.142 16.7847 109.588 17.1723L110.047 17.8277C110.826 17.282 111.217 16.4963 111.217 15.52H110.418ZM109.588 17.1723C109.008 17.5782 108.216 17.8 107.177 17.8V18.6C108.325 18.6 109.293 18.3551 110.047 17.8277L109.588 17.1723ZM107.177 17.8C106.172 17.8 105.348 17.5347 104.681 17.0227L104.194 17.6573C105.02 18.292 106.023 18.6 107.177 18.6V17.8ZM104.838 17.34C104.838 16.6985 104.902 15.9322 105.033 15.0382L104.242 14.9218C104.107 15.8412 104.037 16.6482 104.037 17.34H104.838ZM104.572 15.3746L104.812 15.4146L104.943 14.6254L104.703 14.5854L104.572 15.3746Z" fill="#25A59E" mask="url(#path-1-outside-1_6266_139)"/>
<path fill-rule="evenodd" clip-rule="evenodd" d="M129 13H140.865L137.232 17.36C136.878 17.784 136.936 18.415 137.36 18.768C137.785 19.122 138.415 19.064 138.769 18.64L143.769 12.64C143.808 12.593 143.827 12.538 143.856 12.486C143.88 12.444 143.909 12.408 143.927 12.362C143.972 12.247 143.999 12.126 143.999 12.004C143.999 12.003 144 12.001 144 12C144 11.999 143.999 11.997 143.999 11.996C143.999 11.874 143.972 11.753 143.927 11.638C143.909 11.592 143.88 11.556 143.856 11.514C143.827 11.462 143.808 11.407 143.769 11.36L138.769 5.36C138.57 5.123 138.286 5 138 5C137.774 5 137.547 5.076 137.36 5.232C136.936 5.585 136.878 6.216 137.232 6.64L140.865 11H129C128.448 11 128 11.448 128 12C128 12.552 128.448 13 129 13Z" fill="#25A59E"/>
<mask id="mask0_6266_139" style="mask-type:luminance" maskUnits="userSpaceOnUse" x="128" y="5" width="16" height="14">
<path fill-rule="evenodd" clip-rule="evenodd" d="M129 13H140.865L137.232 17.36C136.878 17.784 136.936 18.415 137.36 18.768C137.785 19.122 138.415 19.064 138.769 18.64L143.769 12.64C143.808 12.593 143.827 12.538 143.856 12.486C143.88 12.444 143.909 12.408 143.927 12.362C143.972 12.247 143.999 12.126 143.999 12.004C143.999 12.003 144 12.001 144 12C144 11.999 143.999 11.997 143.999 11.996C143.999 11.874 143.972 11.753 143.927 11.638C143.909 11.592 143.88 11.556 143.856 11.514C143.827 11.462 143.808 11.407 143.769 11.36L138.769 5.36C138.57 5.123 138.286 5 138 5C137.774 5 137.547 5.076 137.36 5.232C136.936 5.585 136.878 6.216 137.232 6.64L140.865 11H129C128.448 11 128 11.448 128 12C128 12.552 128.448 13 129 13Z" fill="white"/>
</mask>
<g mask="url(#mask0_6266_139)">
<rect x="124" width="24" height="24" fill="#25A59E"/>
</g>
</svg>
