<svg width="149" height="24" viewBox="0 0 149 24" fill="none" xmlns="http://www.w3.org/2000/svg">
<mask id="path-1-outside-1_6266_40" maskUnits="userSpaceOnUse" x="0.333252" y="2" width="112" height="17" fill="black">
<rect fill="white" x="0.333252" y="2" width="112" height="17"/>
<path d="M16.8133 8.52V13.48C16.8133 14.9067 16.8533 15.88 16.9333 16.4C17.0266 16.92 17.1533 17.2467 17.3133 17.38C17.6199 17.6333 18.1066 17.76 18.7733 17.76L18.8133 18H13.4533L13.4933 17.76C14.1466 17.76 14.6266 17.64 14.9333 17.4C15.1866 17.2 15.3333 16.5467 15.3733 15.44C15.3999 15 15.4133 14.3467 15.4133 13.48V5.02L9.81325 17.8L4.03325 6.98V13.44C4.03325 14.7733 4.09325 15.74 4.21325 16.34C4.34659 16.9267 4.55325 17.3133 4.83325 17.5C5.11325 17.6733 5.57992 17.76 6.23325 17.76L6.27325 18H1.35325L1.39325 17.76C1.88659 17.76 2.25325 17.7267 2.49325 17.66C2.74659 17.58 2.95992 17.38 3.13325 17.06C3.30659 16.74 3.41325 16.3133 3.45325 15.78C3.50659 15.2467 3.53325 14.4667 3.53325 13.44V8.54C3.53325 7.51333 3.50659 6.73333 3.45325 6.2C3.41325 5.66667 3.30659 5.24 3.13325 4.92C2.95992 4.6 2.74659 4.40667 2.49325 4.34C2.25325 4.26 1.88659 4.22 1.39325 4.22L1.35325 4H4.03325L10.2133 15.66L15.3133 4H18.8133L18.7733 4.22C18.1066 4.22 17.6199 4.34667 17.3133 4.6C16.9799 4.88 16.8133 6.18667 16.8133 8.52ZM20.6059 13.28C20.6059 11.88 21.0059 10.7067 21.8059 9.76C22.6059 8.81333 23.6926 8.34 25.0659 8.34C26.4392 8.34 27.5459 8.81333 28.3859 9.76C29.2259 10.7067 29.6459 11.88 29.6459 13.28C29.6459 14.68 29.2392 15.8533 28.4259 16.8C27.6259 17.7333 26.5392 18.2 25.1659 18.2C23.7926 18.2 22.6859 17.7267 21.8459 16.78C21.0192 15.8333 20.6059 14.6667 20.6059 13.28ZM22.9059 16.52C23.4392 17.3733 24.1926 17.8 25.1659 17.8C26.1392 17.8 26.8726 17.38 27.3659 16.54C27.8726 15.7 28.1259 14.62 28.1259 13.3C28.1259 11.9667 27.8592 10.8733 27.3259 10.02C26.7926 9.16667 26.0392 8.74 25.0659 8.74C24.1059 8.74 23.3726 9.16667 22.8659 10.02C22.3726 10.86 22.1259 11.94 22.1259 13.26C22.1259 14.58 22.3859 15.6667 22.9059 16.52ZM37.4104 8.24C37.7438 8.24 38.0371 8.31333 38.2904 8.46C38.5438 8.60667 38.6704 8.80667 38.6704 9.06C38.6704 9.31333 38.5904 9.51333 38.4304 9.66C38.2704 9.80667 38.0904 9.88 37.8904 9.88C37.6904 9.88 37.4371 9.79333 37.1304 9.62C36.8371 9.44667 36.5238 9.36 36.1904 9.36C35.6704 9.36 35.2438 9.84 34.9104 10.8C34.5904 11.76 34.4304 12.8733 34.4304 14.14C34.4304 15.8467 34.5171 16.88 34.6904 17.24C34.7438 17.36 34.8438 17.4733 34.9904 17.58C35.1371 17.6733 35.2904 17.7267 35.4504 17.74C35.6104 17.7533 35.8371 17.76 36.1304 17.76L36.1704 18H31.3104L31.3504 17.76C31.7771 17.76 32.0838 17.74 32.2704 17.7C32.4704 17.6467 32.6371 17.48 32.7704 17.2C32.9038 16.92 32.9771 16.5733 32.9904 16.16C33.0171 15.7333 33.0304 15.06 33.0304 14.14V12.98C33.0304 11.1267 32.9771 10.0733 32.8704 9.82C32.7771 9.56667 32.6904 9.36667 32.6104 9.22C32.5304 9.07333 32.4104 8.97333 32.2504 8.92C31.9571 8.84 31.5704 8.8 31.0904 8.8L31.0504 8.58C32.1838 8.42 33.3104 8.34 34.4304 8.34V11.28C34.5771 10.3333 34.9038 9.59333 35.4104 9.06C35.9304 8.51333 36.5971 8.24 37.4104 8.24ZM47.3578 12.94H40.7978V13.28C40.7978 14.6933 41.0978 15.7733 41.6978 16.52C42.2978 17.2533 43.0445 17.62 43.9378 17.62C45.2711 17.62 46.2311 17.0867 46.8178 16.02L47.1178 16.18C46.4245 17.5267 45.2645 18.2 43.6378 18.2C42.4378 18.2 41.4111 17.7667 40.5578 16.9C39.7044 16.0333 39.2778 14.8667 39.2778 13.4C39.2778 11.92 39.6511 10.7067 40.3978 9.76C41.1578 8.81333 42.1645 8.34 43.4178 8.34C44.6845 8.34 45.6578 8.77333 46.3378 9.64C47.0178 10.4933 47.3578 11.5933 47.3578 12.94ZM43.4778 8.74C42.7044 8.74 42.0911 9.07333 41.6378 9.74C41.1978 10.3933 40.9311 11.2667 40.8378 12.36H45.8178C45.7245 9.94667 44.9445 8.74 43.4778 8.74ZM60.9206 15.78C60.7073 16.4733 60.3406 17.0533 59.8206 17.52C59.3139 17.9733 58.6873 18.2 57.9406 18.2C57.2073 18.2 56.5939 18.0533 56.1006 17.76C55.6073 17.4667 55.2273 17.08 54.9606 16.6C54.4273 15.68 54.1606 14.56 54.1606 13.24C54.1606 11.92 54.6139 10.7733 55.5206 9.8C56.4273 8.82667 57.6406 8.34 59.1606 8.34C59.8273 8.34 60.4339 8.42 60.9806 8.58V6.68C60.9806 5.68 60.9473 5.00667 60.8806 4.66C60.8139 4.3 60.7073 4.08 60.5606 4C60.2939 3.84 59.8739 3.76 59.3006 3.76L59.2606 3.54C60.2206 3.38 61.2606 3.3 62.3806 3.3V13.56C62.3806 15.04 62.4273 16.0133 62.5206 16.48C62.6139 16.9333 62.8406 17.16 63.2006 17.16C63.4273 17.16 63.7273 17.0667 64.1006 16.88L64.2006 17.08C64.0939 17.16 63.9539 17.26 63.7806 17.38C63.6073 17.4867 63.2539 17.6333 62.7206 17.82C62.1873 18.0067 61.6739 18.1 61.1806 18.1C61.0073 17.38 60.9206 16.6067 60.9206 15.78ZM56.1606 16.12C56.3206 16.56 56.5673 16.9133 56.9006 17.18C57.2473 17.4467 57.6606 17.58 58.1406 17.58C58.6339 17.58 59.0739 17.4133 59.4606 17.08C59.8606 16.7467 60.1606 16.32 60.3606 15.8C60.7739 14.8 60.9806 13.7667 60.9806 12.7V9.64C60.4073 9.18667 59.7806 8.96 59.1006 8.96C58.4206 8.96 57.8539 9.10667 57.4006 9.4C56.9473 9.69333 56.6006 10.08 56.3606 10.56C55.9073 11.4533 55.6806 12.4067 55.6806 13.42C55.6806 14.3933 55.8406 15.2933 56.1606 16.12ZM73.4711 12.94H66.9111V13.28C66.9111 14.6933 67.2111 15.7733 67.8111 16.52C68.4111 17.2533 69.1577 17.62 70.0511 17.62C71.3844 17.62 72.3444 17.0867 72.9311 16.02L73.2311 16.18C72.5377 17.5267 71.3777 18.2 69.7511 18.2C68.5511 18.2 67.5244 17.7667 66.6711 16.9C65.8177 16.0333 65.3911 14.8667 65.3911 13.4C65.3911 11.92 65.7644 10.7067 66.5111 9.76C67.2711 8.81333 68.2777 8.34 69.5311 8.34C70.7977 8.34 71.7711 8.77333 72.4511 9.64C73.1311 10.4933 73.4711 11.5933 73.4711 12.94ZM69.5911 8.74C68.8177 8.74 68.2044 9.07333 67.7511 9.74C67.3111 10.3933 67.0444 11.2667 66.9511 12.36H71.9311C71.8377 9.94667 71.0577 8.74 69.5911 8.74ZM77.9939 8.54H80.4539V8.98H77.9939V16.6C77.9939 16.88 78.0605 17.1067 78.1939 17.28C78.3272 17.44 78.5005 17.52 78.7139 17.52C79.1939 17.52 79.7605 17.38 80.4139 17.1L80.4539 17.32C79.5205 17.9067 78.6939 18.2 77.9739 18.2C77.5072 18.2 77.1605 18.0867 76.9339 17.86C76.7072 17.6333 76.5939 17.24 76.5939 16.68V8.98H75.3939V8.54C76.1139 8.54 76.6139 8.34 76.8939 7.94C77.1872 7.52667 77.4072 6.92 77.5539 6.12L77.9939 6.08V8.54ZM89.1006 11.54V13.56C89.1006 15.04 89.1473 16.0133 89.2406 16.48C89.3339 16.9333 89.5606 17.16 89.9206 17.16C90.1473 17.16 90.4473 17.0667 90.8206 16.88L90.9206 17.08C90.8139 17.16 90.6739 17.26 90.5006 17.38C90.3273 17.4867 89.9739 17.6333 89.4406 17.82C88.9073 18.0067 88.3939 18.1 87.9006 18.1C87.7673 17.54 87.7006 16.6467 87.7006 15.42C87.4073 16.2467 87.0206 16.92 86.5406 17.44C86.0739 17.9467 85.4206 18.2 84.5806 18.2C83.7406 18.2 83.0739 17.98 82.5806 17.54C82.1006 17.0867 81.8606 16.4733 81.8606 15.7C81.8606 13.5533 83.8073 12.4733 87.7006 12.46V11.74C87.7006 10.78 87.5606 10.0467 87.2806 9.54C87.0006 9.03333 86.4806 8.78 85.7206 8.78C85.2939 8.78 84.9473 8.88667 84.6806 9.1C84.4139 9.31333 84.2339 9.54667 84.1406 9.8C83.9139 10.4933 83.5739 10.84 83.1206 10.84C82.6806 10.84 82.4606 10.5933 82.4606 10.1C82.4606 9.59333 82.7939 9.17333 83.4606 8.84C84.1273 8.50667 84.9339 8.34 85.8806 8.34C86.8273 8.34 87.6006 8.61333 88.2006 9.16C88.8006 9.69333 89.1006 10.4867 89.1006 11.54ZM83.3806 15.78C83.3806 16.3 83.5073 16.7333 83.7606 17.08C84.0139 17.4133 84.4139 17.58 84.9606 17.58C85.5206 17.58 86.0273 17.3133 86.4806 16.78C86.9339 16.2333 87.2406 15.6333 87.4006 14.98C87.5739 14.3133 87.6739 13.6267 87.7006 12.92C86.2206 12.9333 85.1273 13.2067 84.4206 13.74C83.7273 14.2733 83.3806 14.9533 83.3806 15.78ZM93.887 5.94C93.6603 5.71333 93.547 5.44667 93.547 5.14C93.547 4.83333 93.6603 4.56667 93.887 4.34C94.1137 4.11333 94.3803 4 94.687 4C94.9937 4 95.2603 4.11333 95.487 4.34C95.7137 4.56667 95.827 4.83333 95.827 5.14C95.827 5.44667 95.7137 5.71333 95.487 5.94C95.2603 6.16667 94.9937 6.28 94.687 6.28C94.3803 6.28 94.1137 6.16667 93.887 5.94ZM95.447 8.34V14.7C95.447 16.1 95.527 16.96 95.687 17.28C95.8603 17.6 96.3403 17.76 97.127 17.76L97.167 18H92.287L92.327 17.76C93.127 17.76 93.6137 17.6 93.787 17.28C93.9603 16.9467 94.047 16.0733 94.047 14.66V13.26C94.047 11.7133 94.0003 10.6933 93.907 10.2C93.827 9.69333 93.707 9.36667 93.547 9.22C93.227 8.92667 92.7337 8.78 92.067 8.78L92.027 8.56C93.187 8.41333 94.327 8.34 95.447 8.34ZM101.435 3.28V14.52C101.435 16 101.521 16.9133 101.695 17.26C101.868 17.5933 102.348 17.76 103.135 17.76L103.175 18H98.2747L98.3147 17.76C99.1147 17.76 99.6013 17.5933 99.7747 17.26C99.948 16.9267 100.035 16.0133 100.035 14.52V6.88C100.035 5.4 99.9547 4.50667 99.7947 4.2C99.7413 4.10667 99.6413 4.01333 99.4947 3.92C99.348 3.82667 99.188 3.77333 99.0147 3.76C98.8547 3.74667 98.6213 3.74 98.3147 3.74L98.2747 3.52C99.2747 3.36 100.328 3.28 101.435 3.28ZM105.211 15.02C105.211 15.8867 105.444 16.54 105.911 16.98C106.377 17.4067 106.931 17.62 107.571 17.62C108.224 17.62 108.751 17.4733 109.151 17.18C109.551 16.8867 109.751 16.4933 109.751 16C109.751 15.4933 109.577 15.08 109.231 14.76C108.897 14.44 108.491 14.18 108.011 13.98C107.531 13.78 107.044 13.5733 106.551 13.36C106.071 13.1467 105.657 12.8333 105.311 12.42C104.977 12.0067 104.811 11.4533 104.811 10.76C104.811 10.0667 105.117 9.49333 105.731 9.04C106.357 8.57333 107.077 8.34 107.891 8.34C109.051 8.34 109.957 8.52667 110.611 8.9C110.611 9.51333 110.531 10.3667 110.371 11.46L110.131 11.4C110.131 10.52 109.931 9.88 109.531 9.48C109.131 9.08 108.644 8.88 108.071 8.88C107.511 8.88 107.057 9.02667 106.711 9.32C106.377 9.61333 106.211 10.0133 106.211 10.52C106.211 11.0133 106.377 11.4133 106.711 11.72C107.057 12.0133 107.471 12.26 107.951 12.46C108.431 12.66 108.911 12.8733 109.391 13.1C109.884 13.3133 110.297 13.6267 110.631 14.04C110.977 14.44 111.151 14.9333 111.151 15.52C111.151 16.3733 110.817 17.0333 110.151 17.5C109.484 17.9667 108.604 18.2 107.511 18.2C106.431 18.2 105.517 17.9133 104.771 17.34C104.771 16.6733 104.837 15.8867 104.971 14.98L105.211 15.02Z"/>
</mask>
<path d="M16.8133 8.52V13.48C16.8133 14.9067 16.8533 15.88 16.9333 16.4C17.0266 16.92 17.1533 17.2467 17.3133 17.38C17.6199 17.6333 18.1066 17.76 18.7733 17.76L18.8133 18H13.4533L13.4933 17.76C14.1466 17.76 14.6266 17.64 14.9333 17.4C15.1866 17.2 15.3333 16.5467 15.3733 15.44C15.3999 15 15.4133 14.3467 15.4133 13.48V5.02L9.81325 17.8L4.03325 6.98V13.44C4.03325 14.7733 4.09325 15.74 4.21325 16.34C4.34659 16.9267 4.55325 17.3133 4.83325 17.5C5.11325 17.6733 5.57992 17.76 6.23325 17.76L6.27325 18H1.35325L1.39325 17.76C1.88659 17.76 2.25325 17.7267 2.49325 17.66C2.74659 17.58 2.95992 17.38 3.13325 17.06C3.30659 16.74 3.41325 16.3133 3.45325 15.78C3.50659 15.2467 3.53325 14.4667 3.53325 13.44V8.54C3.53325 7.51333 3.50659 6.73333 3.45325 6.2C3.41325 5.66667 3.30659 5.24 3.13325 4.92C2.95992 4.6 2.74659 4.40667 2.49325 4.34C2.25325 4.26 1.88659 4.22 1.39325 4.22L1.35325 4H4.03325L10.2133 15.66L15.3133 4H18.8133L18.7733 4.22C18.1066 4.22 17.6199 4.34667 17.3133 4.6C16.9799 4.88 16.8133 6.18667 16.8133 8.52ZM20.6059 13.28C20.6059 11.88 21.0059 10.7067 21.8059 9.76C22.6059 8.81333 23.6926 8.34 25.0659 8.34C26.4392 8.34 27.5459 8.81333 28.3859 9.76C29.2259 10.7067 29.6459 11.88 29.6459 13.28C29.6459 14.68 29.2392 15.8533 28.4259 16.8C27.6259 17.7333 26.5392 18.2 25.1659 18.2C23.7926 18.2 22.6859 17.7267 21.8459 16.78C21.0192 15.8333 20.6059 14.6667 20.6059 13.28ZM22.9059 16.52C23.4392 17.3733 24.1926 17.8 25.1659 17.8C26.1392 17.8 26.8726 17.38 27.3659 16.54C27.8726 15.7 28.1259 14.62 28.1259 13.3C28.1259 11.9667 27.8592 10.8733 27.3259 10.02C26.7926 9.16667 26.0392 8.74 25.0659 8.74C24.1059 8.74 23.3726 9.16667 22.8659 10.02C22.3726 10.86 22.1259 11.94 22.1259 13.26C22.1259 14.58 22.3859 15.6667 22.9059 16.52ZM37.4104 8.24C37.7438 8.24 38.0371 8.31333 38.2904 8.46C38.5438 8.60667 38.6704 8.80667 38.6704 9.06C38.6704 9.31333 38.5904 9.51333 38.4304 9.66C38.2704 9.80667 38.0904 9.88 37.8904 9.88C37.6904 9.88 37.4371 9.79333 37.1304 9.62C36.8371 9.44667 36.5238 9.36 36.1904 9.36C35.6704 9.36 35.2438 9.84 34.9104 10.8C34.5904 11.76 34.4304 12.8733 34.4304 14.14C34.4304 15.8467 34.5171 16.88 34.6904 17.24C34.7438 17.36 34.8438 17.4733 34.9904 17.58C35.1371 17.6733 35.2904 17.7267 35.4504 17.74C35.6104 17.7533 35.8371 17.76 36.1304 17.76L36.1704 18H31.3104L31.3504 17.76C31.7771 17.76 32.0838 17.74 32.2704 17.7C32.4704 17.6467 32.6371 17.48 32.7704 17.2C32.9038 16.92 32.9771 16.5733 32.9904 16.16C33.0171 15.7333 33.0304 15.06 33.0304 14.14V12.98C33.0304 11.1267 32.9771 10.0733 32.8704 9.82C32.7771 9.56667 32.6904 9.36667 32.6104 9.22C32.5304 9.07333 32.4104 8.97333 32.2504 8.92C31.9571 8.84 31.5704 8.8 31.0904 8.8L31.0504 8.58C32.1838 8.42 33.3104 8.34 34.4304 8.34V11.28C34.5771 10.3333 34.9038 9.59333 35.4104 9.06C35.9304 8.51333 36.5971 8.24 37.4104 8.24ZM47.3578 12.94H40.7978V13.28C40.7978 14.6933 41.0978 15.7733 41.6978 16.52C42.2978 17.2533 43.0445 17.62 43.9378 17.62C45.2711 17.62 46.2311 17.0867 46.8178 16.02L47.1178 16.18C46.4245 17.5267 45.2645 18.2 43.6378 18.2C42.4378 18.2 41.4111 17.7667 40.5578 16.9C39.7044 16.0333 39.2778 14.8667 39.2778 13.4C39.2778 11.92 39.6511 10.7067 40.3978 9.76C41.1578 8.81333 42.1645 8.34 43.4178 8.34C44.6845 8.34 45.6578 8.77333 46.3378 9.64C47.0178 10.4933 47.3578 11.5933 47.3578 12.94ZM43.4778 8.74C42.7044 8.74 42.0911 9.07333 41.6378 9.74C41.1978 10.3933 40.9311 11.2667 40.8378 12.36H45.8178C45.7245 9.94667 44.9445 8.74 43.4778 8.74ZM60.9206 15.78C60.7073 16.4733 60.3406 17.0533 59.8206 17.52C59.3139 17.9733 58.6873 18.2 57.9406 18.2C57.2073 18.2 56.5939 18.0533 56.1006 17.76C55.6073 17.4667 55.2273 17.08 54.9606 16.6C54.4273 15.68 54.1606 14.56 54.1606 13.24C54.1606 11.92 54.6139 10.7733 55.5206 9.8C56.4273 8.82667 57.6406 8.34 59.1606 8.34C59.8273 8.34 60.4339 8.42 60.9806 8.58V6.68C60.9806 5.68 60.9473 5.00667 60.8806 4.66C60.8139 4.3 60.7073 4.08 60.5606 4C60.2939 3.84 59.8739 3.76 59.3006 3.76L59.2606 3.54C60.2206 3.38 61.2606 3.3 62.3806 3.3V13.56C62.3806 15.04 62.4273 16.0133 62.5206 16.48C62.6139 16.9333 62.8406 17.16 63.2006 17.16C63.4273 17.16 63.7273 17.0667 64.1006 16.88L64.2006 17.08C64.0939 17.16 63.9539 17.26 63.7806 17.38C63.6073 17.4867 63.2539 17.6333 62.7206 17.82C62.1873 18.0067 61.6739 18.1 61.1806 18.1C61.0073 17.38 60.9206 16.6067 60.9206 15.78ZM56.1606 16.12C56.3206 16.56 56.5673 16.9133 56.9006 17.18C57.2473 17.4467 57.6606 17.58 58.1406 17.58C58.6339 17.58 59.0739 17.4133 59.4606 17.08C59.8606 16.7467 60.1606 16.32 60.3606 15.8C60.7739 14.8 60.9806 13.7667 60.9806 12.7V9.64C60.4073 9.18667 59.7806 8.96 59.1006 8.96C58.4206 8.96 57.8539 9.10667 57.4006 9.4C56.9473 9.69333 56.6006 10.08 56.3606 10.56C55.9073 11.4533 55.6806 12.4067 55.6806 13.42C55.6806 14.3933 55.8406 15.2933 56.1606 16.12ZM73.4711 12.94H66.9111V13.28C66.9111 14.6933 67.2111 15.7733 67.8111 16.52C68.4111 17.2533 69.1577 17.62 70.0511 17.62C71.3844 17.62 72.3444 17.0867 72.9311 16.02L73.2311 16.18C72.5377 17.5267 71.3777 18.2 69.7511 18.2C68.5511 18.2 67.5244 17.7667 66.6711 16.9C65.8177 16.0333 65.3911 14.8667 65.3911 13.4C65.3911 11.92 65.7644 10.7067 66.5111 9.76C67.2711 8.81333 68.2777 8.34 69.5311 8.34C70.7977 8.34 71.7711 8.77333 72.4511 9.64C73.1311 10.4933 73.4711 11.5933 73.4711 12.94ZM69.5911 8.74C68.8177 8.74 68.2044 9.07333 67.7511 9.74C67.3111 10.3933 67.0444 11.2667 66.9511 12.36H71.9311C71.8377 9.94667 71.0577 8.74 69.5911 8.74ZM77.9939 8.54H80.4539V8.98H77.9939V16.6C77.9939 16.88 78.0605 17.1067 78.1939 17.28C78.3272 17.44 78.5005 17.52 78.7139 17.52C79.1939 17.52 79.7605 17.38 80.4139 17.1L80.4539 17.32C79.5205 17.9067 78.6939 18.2 77.9739 18.2C77.5072 18.2 77.1605 18.0867 76.9339 17.86C76.7072 17.6333 76.5939 17.24 76.5939 16.68V8.98H75.3939V8.54C76.1139 8.54 76.6139 8.34 76.8939 7.94C77.1872 7.52667 77.4072 6.92 77.5539 6.12L77.9939 6.08V8.54ZM89.1006 11.54V13.56C89.1006 15.04 89.1473 16.0133 89.2406 16.48C89.3339 16.9333 89.5606 17.16 89.9206 17.16C90.1473 17.16 90.4473 17.0667 90.8206 16.88L90.9206 17.08C90.8139 17.16 90.6739 17.26 90.5006 17.38C90.3273 17.4867 89.9739 17.6333 89.4406 17.82C88.9073 18.0067 88.3939 18.1 87.9006 18.1C87.7673 17.54 87.7006 16.6467 87.7006 15.42C87.4073 16.2467 87.0206 16.92 86.5406 17.44C86.0739 17.9467 85.4206 18.2 84.5806 18.2C83.7406 18.2 83.0739 17.98 82.5806 17.54C82.1006 17.0867 81.8606 16.4733 81.8606 15.7C81.8606 13.5533 83.8073 12.4733 87.7006 12.46V11.74C87.7006 10.78 87.5606 10.0467 87.2806 9.54C87.0006 9.03333 86.4806 8.78 85.7206 8.78C85.2939 8.78 84.9473 8.88667 84.6806 9.1C84.4139 9.31333 84.2339 9.54667 84.1406 9.8C83.9139 10.4933 83.5739 10.84 83.1206 10.84C82.6806 10.84 82.4606 10.5933 82.4606 10.1C82.4606 9.59333 82.7939 9.17333 83.4606 8.84C84.1273 8.50667 84.9339 8.34 85.8806 8.34C86.8273 8.34 87.6006 8.61333 88.2006 9.16C88.8006 9.69333 89.1006 10.4867 89.1006 11.54ZM83.3806 15.78C83.3806 16.3 83.5073 16.7333 83.7606 17.08C84.0139 17.4133 84.4139 17.58 84.9606 17.58C85.5206 17.58 86.0273 17.3133 86.4806 16.78C86.9339 16.2333 87.2406 15.6333 87.4006 14.98C87.5739 14.3133 87.6739 13.6267 87.7006 12.92C86.2206 12.9333 85.1273 13.2067 84.4206 13.74C83.7273 14.2733 83.3806 14.9533 83.3806 15.78ZM93.887 5.94C93.6603 5.71333 93.547 5.44667 93.547 5.14C93.547 4.83333 93.6603 4.56667 93.887 4.34C94.1137 4.11333 94.3803 4 94.687 4C94.9937 4 95.2603 4.11333 95.487 4.34C95.7137 4.56667 95.827 4.83333 95.827 5.14C95.827 5.44667 95.7137 5.71333 95.487 5.94C95.2603 6.16667 94.9937 6.28 94.687 6.28C94.3803 6.28 94.1137 6.16667 93.887 5.94ZM95.447 8.34V14.7C95.447 16.1 95.527 16.96 95.687 17.28C95.8603 17.6 96.3403 17.76 97.127 17.76L97.167 18H92.287L92.327 17.76C93.127 17.76 93.6137 17.6 93.787 17.28C93.9603 16.9467 94.047 16.0733 94.047 14.66V13.26C94.047 11.7133 94.0003 10.6933 93.907 10.2C93.827 9.69333 93.707 9.36667 93.547 9.22C93.227 8.92667 92.7337 8.78 92.067 8.78L92.027 8.56C93.187 8.41333 94.327 8.34 95.447 8.34ZM101.435 3.28V14.52C101.435 16 101.521 16.9133 101.695 17.26C101.868 17.5933 102.348 17.76 103.135 17.76L103.175 18H98.2747L98.3147 17.76C99.1147 17.76 99.6013 17.5933 99.7747 17.26C99.948 16.9267 100.035 16.0133 100.035 14.52V6.88C100.035 5.4 99.9547 4.50667 99.7947 4.2C99.7413 4.10667 99.6413 4.01333 99.4947 3.92C99.348 3.82667 99.188 3.77333 99.0147 3.76C98.8547 3.74667 98.6213 3.74 98.3147 3.74L98.2747 3.52C99.2747 3.36 100.328 3.28 101.435 3.28ZM105.211 15.02C105.211 15.8867 105.444 16.54 105.911 16.98C106.377 17.4067 106.931 17.62 107.571 17.62C108.224 17.62 108.751 17.4733 109.151 17.18C109.551 16.8867 109.751 16.4933 109.751 16C109.751 15.4933 109.577 15.08 109.231 14.76C108.897 14.44 108.491 14.18 108.011 13.98C107.531 13.78 107.044 13.5733 106.551 13.36C106.071 13.1467 105.657 12.8333 105.311 12.42C104.977 12.0067 104.811 11.4533 104.811 10.76C104.811 10.0667 105.117 9.49333 105.731 9.04C106.357 8.57333 107.077 8.34 107.891 8.34C109.051 8.34 109.957 8.52667 110.611 8.9C110.611 9.51333 110.531 10.3667 110.371 11.46L110.131 11.4C110.131 10.52 109.931 9.88 109.531 9.48C109.131 9.08 108.644 8.88 108.071 8.88C107.511 8.88 107.057 9.02667 106.711 9.32C106.377 9.61333 106.211 10.0133 106.211 10.52C106.211 11.0133 106.377 11.4133 106.711 11.72C107.057 12.0133 107.471 12.26 107.951 12.46C108.431 12.66 108.911 12.8733 109.391 13.1C109.884 13.3133 110.297 13.6267 110.631 14.04C110.977 14.44 111.151 14.9333 111.151 15.52C111.151 16.3733 110.817 17.0333 110.151 17.5C109.484 17.9667 108.604 18.2 107.511 18.2C106.431 18.2 105.517 17.9133 104.771 17.34C104.771 16.6733 104.837 15.8867 104.971 14.98L105.211 15.02Z" fill="#25A59E"/>
<path d="M16.9333 16.4L16.5378 16.4608L16.5395 16.4707L16.9333 16.4ZM17.3133 17.38L17.0572 17.6873L17.0585 17.6884L17.3133 17.38ZM18.7733 17.76L19.1678 17.6942L19.1121 17.36H18.7733V17.76ZM18.8133 18V18.4H19.2854L19.2078 17.9342L18.8133 18ZM13.4533 18L13.0587 17.9342L12.9811 18.4H13.4533V18ZM13.4933 17.76V17.36H13.1544L13.0987 17.6942L13.4933 17.76ZM14.9333 17.4L15.1798 17.715L15.1811 17.714L14.9333 17.4ZM15.3733 15.44L14.9739 15.4158L14.9735 15.4256L15.3733 15.44ZM15.4133 5.02H15.8133L15.0469 4.85946L15.4133 5.02ZM9.81325 17.8L9.46044 17.9885L9.84881 18.7155L10.1796 17.9605L9.81325 17.8ZM4.03325 6.98L4.38607 6.79153L3.63325 6.98H4.03325ZM4.21325 16.34L3.82089 16.4185L3.8232 16.4286L4.21325 16.34ZM4.83325 17.5L4.61125 17.833L4.62271 17.8401L4.83325 17.5ZM6.23325 17.76L6.62781 17.6942L6.5721 17.36H6.23325V17.76ZM6.27325 18V18.4H6.74544L6.66781 17.9342L6.27325 18ZM1.35325 18L0.958694 17.9342L0.881068 18.4H1.35325V18ZM1.39325 17.76V17.36H1.0544L0.998694 17.6942L1.39325 17.76ZM2.49325 17.66L2.60037 18.0456L2.6137 18.0414L2.49325 17.66ZM3.13325 17.06L2.78154 16.8695L3.13325 17.06ZM3.45325 15.78L3.05511 15.7402L3.05437 15.7501L3.45325 15.78ZM3.45325 6.2L3.05425 6.22992L3.05524 6.2398L3.45325 6.2ZM3.13325 4.92L2.78154 5.11051L2.78154 5.11051L3.13325 4.92ZM2.49325 4.34L2.36676 4.71947L2.37899 4.72355L2.39145 4.72683L2.49325 4.34ZM1.39325 4.22L0.999704 4.29155L1.05942 4.62H1.39325V4.22ZM1.35325 4V3.6H0.873967L0.959704 4.07155L1.35325 4ZM4.03325 4L4.38668 3.81268L4.27396 3.6H4.03325V4ZM10.2133 15.66L9.85983 15.8473L10.2478 16.5793L10.5797 15.8203L10.2133 15.66ZM15.3133 4V3.6H15.0516L14.9468 3.8397L15.3133 4ZM18.8133 4L19.2068 4.07155L19.2925 3.6H18.8133V4ZM18.7733 4.22V4.62H19.1071L19.1668 4.29155L18.7733 4.22ZM17.3133 4.6L17.0585 4.2916L17.056 4.29372L17.3133 4.6ZM16.4133 8.52V13.48H17.2133V8.52H16.4133ZM16.4133 13.48C16.4133 14.9038 16.4526 15.9064 16.5379 16.4608L17.3286 16.3392C17.2539 15.8536 17.2133 14.9095 17.2133 13.48H16.4133ZM16.5395 16.4707C16.5887 16.7446 16.6493 16.9836 16.7253 17.1796C16.7984 17.3682 16.9008 17.557 17.0572 17.6873L17.5693 17.0727C17.5702 17.0734 17.5587 17.0638 17.539 17.0322C17.5196 17.001 17.4963 16.9551 17.4712 16.8904C17.4205 16.7598 17.3711 16.5754 17.327 16.3293L16.5395 16.4707ZM17.0585 17.6884C17.4714 18.0295 18.0713 18.16 18.7733 18.16V17.36C18.1418 17.36 17.7684 17.2372 17.568 17.0716L17.0585 17.6884ZM18.3787 17.8258L18.4187 18.0658L19.2078 17.9342L19.1678 17.6942L18.3787 17.8258ZM18.8133 17.6H13.4533V18.4H18.8133V17.6ZM13.8478 18.0658L13.8878 17.8258L13.0987 17.6942L13.0587 17.9342L13.8478 18.0658ZM13.4933 18.16C14.1807 18.16 14.769 18.0365 15.1798 17.715L14.6867 17.085C14.4842 17.2435 14.1125 17.36 13.4933 17.36V18.16ZM15.1811 17.714C15.4249 17.5215 15.548 17.1841 15.6235 16.8476C15.7046 16.4865 15.7526 16.0187 15.773 15.4544L14.9735 15.4256C14.9539 15.968 14.9086 16.3802 14.843 16.6724C14.8102 16.8182 14.7748 16.9233 14.7411 16.9952C14.7062 17.0696 14.6827 17.0882 14.6854 17.086L15.1811 17.714ZM15.7725 15.4642C15.7999 15.0117 15.8133 14.3486 15.8133 13.48H15.0133C15.0133 14.3447 14.9999 14.9883 14.974 15.4158L15.7725 15.4642ZM15.8133 13.48V5.02H15.0133V13.48H15.8133ZM15.0469 4.85946L9.44688 17.6395L10.1796 17.9605L15.7796 5.18054L15.0469 4.85946ZM10.1661 17.6115L4.38607 6.79153L3.68044 7.16847L9.46044 17.9885L10.1661 17.6115ZM3.63325 6.98V13.44H4.43325V6.98H3.63325ZM3.63325 13.44C3.63325 14.7764 3.69271 15.7769 3.82102 16.4184L4.60548 16.2616C4.49379 15.7031 4.43325 14.7703 4.43325 13.44H3.63325ZM3.8232 16.4286C3.96298 17.0437 4.20011 17.5586 4.61137 17.8328L5.05513 17.1672C4.90639 17.068 4.7302 16.8097 4.60331 16.2514L3.8232 16.4286ZM4.62271 17.8401C5.00275 18.0754 5.56584 18.16 6.23325 18.16V17.36C5.594 17.36 5.22376 17.2713 5.04379 17.1599L4.62271 17.8401ZM5.83869 17.8258L5.8787 18.0658L6.66781 17.9342L6.62781 17.6942L5.83869 17.8258ZM6.27325 17.6H1.35325V18.4H6.27325V17.6ZM1.74781 18.0658L1.78781 17.8258L0.998694 17.6942L0.958694 17.9342L1.74781 18.0658ZM1.39325 18.16C1.89469 18.16 2.30603 18.1271 2.60031 18.0454L2.38619 17.2746C2.20047 17.3262 1.87848 17.36 1.39325 17.36V18.16ZM2.6137 18.0414C2.99783 17.9201 3.28083 17.6274 3.48497 17.2505L2.78154 16.8695C2.63901 17.1326 2.49535 17.2399 2.3728 17.2786L2.6137 18.0414ZM3.48497 17.2505C3.69473 16.8633 3.80973 16.3753 3.85213 15.8099L3.05437 15.7501C3.01678 16.2514 2.91844 16.6167 2.78154 16.8695L3.48497 17.2505ZM3.85127 15.8198C3.90662 15.2662 3.93325 14.4703 3.93325 13.44H3.13325C3.13325 14.463 3.10655 15.2271 3.05524 15.7402L3.85127 15.8198ZM3.93325 13.44V8.54H3.13325V13.44H3.93325ZM3.93325 8.54C3.93325 7.50972 3.90662 6.71377 3.85127 6.1602L3.05524 6.2398C3.10655 6.75289 3.13325 7.51695 3.13325 8.54H3.93325ZM3.85213 6.17008C3.80973 5.6047 3.69473 5.11674 3.48497 4.72949L2.78154 5.11051C2.91844 5.36326 3.01678 5.72863 3.05437 6.22992L3.85213 6.17008ZM3.48497 4.72949C3.28007 4.35122 2.99155 4.05751 2.59505 3.95317L2.39145 4.72683C2.50162 4.75582 2.63977 4.84878 2.78154 5.11051L3.48497 4.72949ZM2.61974 3.96053C2.31651 3.85945 1.89684 3.82 1.39325 3.82V4.62C1.87633 4.62 2.18999 4.66055 2.36676 4.71947L2.61974 3.96053ZM1.7868 4.14845L1.7468 3.92845L0.959704 4.07155L0.999704 4.29155L1.7868 4.14845ZM1.35325 4.4H4.03325V3.6H1.35325V4.4ZM3.67983 4.18732L9.85983 15.8473L10.5667 15.4727L4.38668 3.81268L3.67983 4.18732ZM10.5797 15.8203L15.6797 4.16029L14.9468 3.8397L9.84678 15.4997L10.5797 15.8203ZM15.3133 4.4H18.8133V3.6H15.3133V4.4ZM18.4197 3.92845L18.3797 4.14845L19.1668 4.29155L19.2068 4.07155L18.4197 3.92845ZM18.7733 3.82C18.0713 3.82 17.4714 3.95052 17.0585 4.29162L17.568 4.90838C17.7684 4.74281 18.1418 4.62 18.7733 4.62V3.82ZM17.056 4.29372C16.8818 4.44002 16.7808 4.66696 16.713 4.88228C16.6405 5.11246 16.5846 5.40105 16.5415 5.73939C16.455 6.41757 16.4133 7.34717 16.4133 8.52H17.2133C17.2133 7.35949 17.2549 6.46909 17.335 5.84061C17.3752 5.52561 17.4235 5.2892 17.476 5.12272C17.5332 4.94137 17.578 4.89998 17.5705 4.90628L17.056 4.29372ZM21.8059 9.76L21.5004 9.50182L21.8059 9.76ZM28.3859 9.76L28.6851 9.49452L28.3859 9.76ZM28.4259 16.8L28.1225 16.5393L28.1222 16.5397L28.4259 16.8ZM21.8459 16.78L21.5446 17.0431L21.5467 17.0455L21.8459 16.78ZM22.9059 16.52L22.5643 16.7282L22.5667 16.732L22.9059 16.52ZM27.3659 16.54L27.0234 16.3334L27.021 16.3374L27.3659 16.54ZM22.8659 10.02L22.522 9.81578L22.521 9.81743L22.8659 10.02ZM21.0059 13.28C21.0059 11.9615 21.3803 10.8833 22.1114 10.0182L21.5004 9.50182C20.6315 10.53 20.2059 11.7985 20.2059 13.28H21.0059ZM22.1114 10.0182C22.8266 9.17186 23.796 8.74 25.0659 8.74V7.94C23.5892 7.94 22.3852 8.45481 21.5004 9.50182L22.1114 10.0182ZM25.0659 8.74C26.3358 8.74 27.3296 9.17223 28.0867 10.0255L28.6851 9.49452C27.7622 8.45443 26.5427 7.94 25.0659 7.94V8.74ZM28.0867 10.0255C28.8547 10.891 29.2459 11.9667 29.2459 13.28H30.0459C30.0459 11.7933 29.5971 10.5223 28.6851 9.49452L28.0867 10.0255ZM29.2459 13.28C29.2459 14.5968 28.8659 15.6741 28.1225 16.5393L28.7293 17.0607C29.6126 16.0325 30.0459 14.7632 30.0459 13.28H29.2459ZM28.1222 16.5397C27.4077 17.3733 26.4378 17.8 25.1659 17.8V18.6C26.6407 18.6 27.8442 18.0933 28.7296 17.0603L28.1222 16.5397ZM25.1659 17.8C23.896 17.8 22.9022 17.3678 22.1451 16.5145L21.5467 17.0455C22.4696 18.0856 23.6891 18.6 25.1659 18.6V17.8ZM22.1472 16.5169C21.3909 15.6508 21.0059 14.5807 21.0059 13.28H20.2059C20.2059 14.7527 20.6476 16.0158 21.5446 17.0431L22.1472 16.5169ZM22.5667 16.732C23.1701 17.6975 24.0491 18.2 25.1659 18.2V17.4C24.3361 17.4 23.7084 17.0492 23.2451 16.308L22.5667 16.732ZM25.1659 18.2C26.2812 18.2 27.1457 17.7048 27.7108 16.7426L27.021 16.3374C26.5994 17.0552 25.9972 17.4 25.1659 17.4V18.2ZM27.7084 16.7466C28.2635 15.8263 28.5259 14.6685 28.5259 13.3H27.7259C27.7259 14.5715 27.4816 15.5737 27.0234 16.3334L27.7084 16.7466ZM28.5259 13.3C28.5259 11.9155 28.2491 10.7424 27.6651 9.808L26.9867 10.232C27.4694 11.0042 27.7259 12.0179 27.7259 13.3H28.5259ZM27.6651 9.808C27.0617 8.84252 26.1827 8.34 25.0659 8.34V9.14C25.8957 9.14 26.5235 9.49081 26.9867 10.232L27.6651 9.808ZM25.0659 8.34C23.959 8.34 23.0977 8.8461 22.522 9.81578L23.2099 10.2242C23.6474 9.48723 24.2528 9.14 25.0659 9.14V8.34ZM22.521 9.81743C21.981 10.7369 21.7259 11.8931 21.7259 13.26H22.5259C22.5259 11.9869 22.7642 10.9831 23.2108 10.2226L22.521 9.81743ZM21.7259 13.26C21.7259 14.6305 21.9957 15.795 22.5643 16.7281L23.2475 16.3119C22.7761 15.5383 22.5259 14.5295 22.5259 13.26H21.7259ZM37.1304 9.62L36.9269 9.96443L36.9336 9.96822L37.1304 9.62ZM34.9104 10.8L34.5325 10.6688L34.531 10.6735L34.9104 10.8ZM34.6904 17.24L35.0561 17.0775L35.0508 17.0665L34.6904 17.24ZM34.9904 17.58L34.7552 17.9035L34.7652 17.9108L34.7757 17.9175L34.9904 17.58ZM35.4504 17.74L35.4172 18.1386L35.4504 17.74ZM36.1304 17.76L36.525 17.6942L36.4693 17.36H36.1304V17.76ZM36.1704 18V18.4H36.6426L36.565 17.9342L36.1704 18ZM31.3104 18L30.9159 17.9342L30.8383 18.4H31.3104V18ZM31.3504 17.76V17.36H31.0116L30.9559 17.6942L31.3504 17.76ZM32.2704 17.7L32.3543 18.0911L32.3639 18.089L32.3735 18.0865L32.2704 17.7ZM32.9904 16.16L32.591 16.135L32.5906 16.1471L32.9904 16.16ZM32.8704 9.82L32.4951 9.95828L32.4983 9.96683L32.5018 9.97522L32.8704 9.82ZM32.6104 9.22L32.2593 9.41154V9.41154L32.6104 9.22ZM32.2504 8.92L32.3769 8.54053L32.3664 8.53701L32.3557 8.53409L32.2504 8.92ZM31.0904 8.8L30.6969 8.87155L30.7566 9.2H31.0904V8.8ZM31.0504 8.58L30.9945 8.18393L30.5824 8.2421L30.6569 8.65155L31.0504 8.58ZM34.4304 8.34H34.8304V7.94H34.4304V8.34ZM34.4304 11.28H34.0304L34.8257 11.3412L34.4304 11.28ZM35.4104 9.06L35.1206 8.78431L35.1204 8.7845L35.4104 9.06ZM37.4104 8.64C37.6833 8.64 37.9057 8.69943 38.09 8.80617L38.4909 8.11383C38.1686 7.92724 37.8042 7.84 37.4104 7.84V8.64ZM38.09 8.80617C38.2428 8.8946 38.2704 8.97406 38.2704 9.06H39.0704C39.0704 8.63927 38.8448 8.31873 38.4909 8.11383L38.09 8.80617ZM38.2704 9.06C38.2704 9.22173 38.2235 9.30707 38.1601 9.36514L38.7007 9.95486C38.9574 9.71959 39.0704 9.40493 39.0704 9.06H38.2704ZM38.1601 9.36514C38.0671 9.45045 37.9814 9.48 37.8904 9.48V10.28C38.1994 10.28 38.4738 10.1629 38.7007 9.95486L38.1601 9.36514ZM37.8904 9.48C37.7938 9.48 37.6134 9.4335 37.3273 9.27177L36.9336 9.96822C37.2608 10.1532 37.5871 10.28 37.8904 10.28V9.48ZM37.3339 9.27563C36.9804 9.06672 36.597 8.96 36.1904 8.96V9.76C36.4505 9.76 36.6938 9.82661 36.9269 9.96437L37.3339 9.27563ZM36.1904 8.96C35.7901 8.96 35.4514 9.15055 35.1815 9.45425C34.9189 9.74964 34.7076 10.1648 34.5326 10.6688L35.2883 10.9312C35.4466 10.4752 35.6153 10.1704 35.7794 9.98575C35.9361 9.80945 36.0708 9.76 36.1904 9.76V8.96ZM34.531 10.6735C34.1944 11.6831 34.0304 12.8407 34.0304 14.14H34.8304C34.8304 12.906 34.9864 11.8369 35.2899 10.9265L34.531 10.6735ZM34.0304 14.14C34.0304 14.9984 34.0522 15.6959 34.0968 16.2284C34.1397 16.7398 34.2072 17.1585 34.33 17.4135L35.0508 17.0665C35.0003 16.9615 34.9378 16.6835 34.894 16.1616C34.852 15.6608 34.8304 14.9883 34.8304 14.14H34.0304ZM34.3249 17.4025C34.4156 17.6065 34.5724 17.7705 34.7552 17.9035L35.2257 17.2565C35.1152 17.1761 35.0719 17.1135 35.056 17.0775L34.3249 17.4025ZM34.7757 17.9175C34.9724 18.0426 35.1874 18.1195 35.4172 18.1386L35.4837 17.3414C35.3935 17.3339 35.3018 17.304 35.2052 17.2425L34.7757 17.9175ZM35.4172 18.1386C35.5938 18.1533 35.8335 18.16 36.1304 18.16V17.36C35.8407 17.36 35.6271 17.3533 35.4837 17.3414L35.4172 18.1386ZM35.7359 17.8258L35.7759 18.0658L36.565 17.9342L36.525 17.6942L35.7359 17.8258ZM36.1704 17.6H31.3104V18.4H36.1704V17.6ZM31.705 18.0658L31.745 17.8258L30.9559 17.6942L30.9159 17.9342L31.705 18.0658ZM31.3504 18.16C31.7795 18.16 32.1229 18.1407 32.3543 18.0911L32.1866 17.3089C32.0447 17.3393 31.7747 17.36 31.3504 17.36V18.16ZM32.3735 18.0865C32.7337 17.9904 32.9733 17.7043 33.1316 17.372L32.4093 17.028C32.3009 17.2557 32.2071 17.3029 32.1674 17.3135L32.3735 18.0865ZM33.1316 17.372C33.2951 17.0285 33.3757 16.6239 33.3902 16.1729L32.5906 16.1471C32.5785 16.5227 32.5124 16.8115 32.4093 17.028L33.1316 17.372ZM33.3897 16.185C33.4172 15.745 33.4304 15.0611 33.4304 14.14H32.6304C32.6304 15.0589 32.6171 15.7217 32.5912 16.135L33.3897 16.185ZM33.4304 14.14V12.98H32.6304V14.14H33.4304ZM33.4304 12.98C33.4304 12.0508 33.4171 11.3164 33.3899 10.7798C33.3764 10.5119 33.3591 10.288 33.3375 10.1114C33.3175 9.94816 33.2896 9.78469 33.2391 9.66478L32.5018 9.97522C32.5005 9.97208 32.5067 9.98726 32.5162 10.0332C32.5249 10.0758 32.5342 10.1336 32.5434 10.2086C32.5618 10.3587 32.5779 10.5615 32.591 10.8202C32.6171 11.337 32.6304 12.0559 32.6304 12.98H33.4304ZM33.2458 9.68172C33.1493 9.41975 33.0548 9.19941 32.9616 9.02846L32.2593 9.41154C32.326 9.53392 32.405 9.71359 32.4951 9.95828L33.2458 9.68172ZM32.9616 9.02846C32.8327 8.79206 32.6319 8.62551 32.3769 8.54053L32.1239 9.29947C32.189 9.32116 32.2282 9.3546 32.2593 9.41154L32.9616 9.02846ZM32.3557 8.53409C32.0142 8.44096 31.588 8.4 31.0904 8.4V9.2C31.5529 9.2 31.9 9.23904 32.1452 9.30591L32.3557 8.53409ZM31.484 8.72845L31.444 8.50845L30.6569 8.65155L30.6969 8.87155L31.484 8.72845ZM31.1064 8.97607C32.2216 8.81863 33.3296 8.74 34.4304 8.74V7.94C33.2913 7.94 32.146 8.02137 30.9945 8.18393L31.1064 8.97607ZM34.0304 8.34V11.28H34.8304V8.34H34.0304ZM34.8257 11.3412C34.9637 10.4509 35.2646 9.79427 35.7004 9.3355L35.1204 8.7845C34.5429 9.3924 34.1906 10.2158 34.0352 11.2188L34.8257 11.3412ZM35.7003 9.33568C36.1384 8.87504 36.6971 8.64 37.4104 8.64V7.84C36.4971 7.84 35.7224 8.15163 35.1206 8.78431L35.7003 9.33568ZM47.3578 12.94V13.34H47.7578V12.94H47.3578ZM40.7978 12.94V12.54H40.3978V12.94H40.7978ZM41.6978 16.52L41.386 16.7706L41.3882 16.7733L41.6978 16.52ZM46.8178 16.02L47.006 15.6671L46.6576 15.4812L46.4673 15.8272L46.8178 16.02ZM47.1178 16.18L47.4734 16.3631L47.6539 16.0126L47.306 15.8271L47.1178 16.18ZM40.5578 16.9L40.2728 17.1806L40.5578 16.9ZM40.3978 9.76L40.0859 9.50958L40.0837 9.51229L40.3978 9.76ZM46.3378 9.64L46.0231 9.88692L46.025 9.88928L46.3378 9.64ZM41.6378 9.74L41.307 9.51507L41.306 9.51656L41.6378 9.74ZM40.8378 12.36L40.4392 12.326L40.4022 12.76H40.8378V12.36ZM45.8178 12.36V12.76H46.2336L46.2175 12.3445L45.8178 12.36ZM47.3578 12.54H40.7978V13.34H47.3578V12.54ZM40.3978 12.94V13.28H41.1978V12.94H40.3978ZM40.3978 13.28C40.3978 14.7427 40.7073 15.926 41.386 16.7706L42.0096 16.2694C41.4883 15.6207 41.1978 14.644 41.1978 13.28H40.3978ZM41.3882 16.7733C42.0589 17.593 42.9164 18.02 43.9378 18.02V17.22C43.1725 17.22 42.5367 16.9136 42.0074 16.2667L41.3882 16.7733ZM43.9378 18.02C45.4 18.02 46.5035 17.4215 47.1683 16.2128L46.4673 15.8272C45.9588 16.7518 45.1423 17.22 43.9378 17.22V18.02ZM46.6295 16.3729L46.9295 16.5329L47.306 15.8271L47.006 15.6671L46.6295 16.3729ZM46.7621 15.9969C46.4458 16.6113 46.0326 17.0556 45.527 17.3491C45.0197 17.6435 44.3956 17.8 43.6378 17.8V18.6C44.5067 18.6 45.2758 18.4198 45.9286 18.0409C46.583 17.6611 47.0964 17.0953 47.4734 16.3631L46.7621 15.9969ZM43.6378 17.8C42.5466 17.8 41.6221 17.4108 40.8428 16.6194L40.2728 17.1806C41.2001 18.1225 42.329 18.6 43.6378 18.6V17.8ZM40.8428 16.6194C40.0779 15.8425 39.6778 14.7847 39.6778 13.4H38.8778C38.8778 14.9486 39.331 16.2242 40.2728 17.1806L40.8428 16.6194ZM39.6778 13.4C39.6778 11.9889 40.0326 10.8689 40.7118 10.0077L40.0837 9.51229C39.2696 10.5444 38.8778 11.8511 38.8778 13.4H39.6778ZM40.7097 10.0104C41.391 9.16181 42.2812 8.74 43.4178 8.74V7.94C42.0477 7.94 40.9246 8.46485 40.0859 9.50959L40.7097 10.0104ZM43.4178 8.74C44.5824 8.74 45.4309 9.13215 46.0231 9.88691L46.6525 9.39308C45.8847 8.41451 44.7865 7.94 43.4178 7.94V8.74ZM46.025 9.88928C46.6363 10.6564 46.9578 11.6621 46.9578 12.94H47.7578C47.7578 11.5245 47.3993 10.3302 46.6506 9.39072L46.025 9.88928ZM43.4778 8.34C42.5654 8.34 41.831 8.74444 41.307 9.51508L41.9686 9.96492C42.3512 9.40222 42.8435 9.14 43.4778 9.14V8.34ZM41.306 9.51656C40.816 10.2442 40.5362 11.1901 40.4392 12.326L41.2363 12.394C41.326 11.3432 41.5796 10.5425 41.9696 9.96344L41.306 9.51656ZM40.8378 12.76H45.8178V11.96H40.8378V12.76ZM46.2175 12.3445C46.1697 11.1094 45.9459 10.1196 45.4987 9.42785C45.0332 8.70768 44.3434 8.34 43.4778 8.34V9.14C44.0788 9.14 44.5124 9.37566 44.8269 9.86215C45.1597 10.377 45.3725 11.1973 45.4181 12.3755L46.2175 12.3445ZM60.9206 15.78H61.3206L60.5383 15.6624L60.9206 15.78ZM59.8206 17.52L60.0873 17.8181L60.0878 17.8177L59.8206 17.52ZM56.1006 17.76L56.305 17.4162L56.1006 17.76ZM54.9606 16.6L55.3103 16.4057L55.3067 16.3994L54.9606 16.6ZM55.5206 9.8L55.2279 9.52736L55.5206 9.8ZM60.9806 8.58L60.8682 8.96389L61.3806 9.11385V8.58H60.9806ZM60.8806 4.66L60.4873 4.73284L60.4878 4.73554L60.8806 4.66ZM60.5606 4L60.3548 4.343L60.3618 4.34722L60.3691 4.35116L60.5606 4ZM59.3006 3.76L58.907 3.83155L58.9668 4.16H59.3006V3.76ZM59.2606 3.54L59.1948 3.14544L58.7944 3.21217L58.867 3.61155L59.2606 3.54ZM62.3806 3.3H62.7806V2.9H62.3806V3.3ZM62.5206 16.48L62.1284 16.5584L62.1288 16.5607L62.5206 16.48ZM64.1006 16.88L64.4584 16.7011L64.2795 16.3433L63.9217 16.5222L64.1006 16.88ZM64.2006 17.08L64.4406 17.4L64.7077 17.1997L64.5584 16.9011L64.2006 17.08ZM63.7806 17.38L63.9902 17.7207L63.9994 17.715L64.0083 17.7089L63.7806 17.38ZM62.7206 17.82L62.8527 18.1975L62.7206 17.82ZM61.1806 18.1L60.7917 18.1936L60.8655 18.5H61.1806V18.1ZM56.1606 16.12L56.5366 15.9833L56.5336 15.9756L56.1606 16.12ZM56.9006 17.18L56.6507 17.4924L56.6567 17.497L56.9006 17.18ZM59.4606 17.08L59.2045 16.7727L59.1994 16.777L59.4606 17.08ZM60.3606 15.8L59.9908 15.6472L59.9873 15.6564L60.3606 15.8ZM60.9806 9.64H61.3806V9.44635L61.2287 9.32623L60.9806 9.64ZM57.4006 9.4L57.6179 9.73583V9.73583L57.4006 9.4ZM56.3606 10.56L56.7173 10.741L56.7184 10.7389L56.3606 10.56ZM60.5383 15.6624C60.3454 16.2891 60.0173 16.806 59.5534 17.2223L60.0878 17.8177C60.6639 17.3007 61.0691 16.6575 61.3029 15.8976L60.5383 15.6624ZM59.5539 17.2219C59.128 17.603 58.5993 17.8 57.9406 17.8V18.6C58.7752 18.6 59.4999 18.3437 60.0873 17.8181L59.5539 17.2219ZM57.9406 17.8C57.2596 17.8 56.7216 17.6639 56.305 17.4162L55.8962 18.1038C56.4663 18.4428 57.155 18.6 57.9406 18.6V17.8ZM56.305 17.4162C55.8696 17.1573 55.541 16.8211 55.3103 16.4057L54.6109 16.7943C54.9135 17.3389 55.3449 17.776 55.8962 18.1038L56.305 17.4162ZM55.3067 16.3994C54.8162 15.5534 54.5606 14.5064 54.5606 13.24H53.7606C53.7606 14.6136 54.0383 15.8066 54.6145 16.8006L55.3067 16.3994ZM54.5606 13.24C54.5606 12.022 54.975 10.9726 55.8133 10.0726L55.2279 9.52736C54.2529 10.5741 53.7606 11.818 53.7606 13.24H54.5606ZM55.8133 10.0726C56.6332 9.19245 57.7342 8.74 59.1606 8.74V7.94C57.547 7.94 56.2213 8.46088 55.2279 9.52736L55.8133 10.0726ZM59.1606 8.74C59.7955 8.74 60.3637 8.81621 60.8682 8.96389L61.093 8.19611C60.5042 8.02379 59.859 7.94 59.1606 7.94V8.74ZM61.3806 8.58V6.68H60.5806V8.58H61.3806ZM61.3806 6.68C61.3806 5.68486 61.3484 4.97424 61.2734 4.58446L60.4878 4.73554C60.5462 5.03909 60.5806 5.67514 60.5806 6.68H61.3806ZM61.2739 4.58716C61.2369 4.38757 61.1852 4.20445 61.1105 4.05049C61.0369 3.89867 60.9254 3.74336 60.7521 3.64884L60.3691 4.35116C60.3424 4.33664 60.3576 4.33133 60.3907 4.39951C60.4227 4.46555 60.4576 4.57243 60.4873 4.73283L61.2739 4.58716ZM60.7664 3.657C60.4045 3.43984 59.8944 3.36 59.3006 3.36V4.16C59.8535 4.16 60.1834 4.24016 60.3548 4.343L60.7664 3.657ZM59.6941 3.68845L59.6541 3.46844L58.867 3.61155L58.907 3.83155L59.6941 3.68845ZM59.3264 3.93456C60.2617 3.77867 61.2794 3.7 62.3806 3.7V2.9C61.2418 2.9 60.1795 2.98133 59.1948 3.14544L59.3264 3.93456ZM61.9806 3.3V13.56H62.7806V3.3H61.9806ZM61.9806 13.56C61.9806 15.0322 62.0259 16.0461 62.1284 16.5584L62.9128 16.4016C62.8286 15.9806 62.7806 15.0478 62.7806 13.56H61.9806ZM62.1288 16.5607C62.1846 16.8316 62.2897 17.0848 62.4778 17.2728C62.6756 17.4707 62.9288 17.56 63.2006 17.56V16.76C63.1124 16.76 63.0722 16.736 63.0434 16.7072C63.0049 16.6686 62.9499 16.5817 62.9124 16.3993L62.1288 16.5607ZM63.2006 17.56C63.5219 17.56 63.8898 17.4326 64.2795 17.2378L63.9217 16.5222C63.5647 16.7007 63.3326 16.76 63.2006 16.76V17.56ZM63.7428 17.0589L63.8428 17.2589L64.5584 16.9011L64.4584 16.7011L63.7428 17.0589ZM63.9606 16.76C63.8596 16.8357 63.7242 16.9326 63.5529 17.0511L64.0083 17.7089C64.1837 17.5874 64.3283 17.4843 64.4406 17.4L63.9606 16.76ZM63.571 17.0393C63.4398 17.1201 63.1264 17.2542 62.5885 17.4425L62.8527 18.1975C63.3815 18.0125 63.7747 17.8533 63.9902 17.7207L63.571 17.0393ZM62.5885 17.4425C62.0915 17.6164 61.6229 17.7 61.1806 17.7V18.5C61.7249 18.5 62.283 18.3969 62.8527 18.1975L62.5885 17.4425ZM61.5695 18.0064C61.4043 17.3203 61.3206 16.5787 61.3206 15.78H60.5206C60.5206 16.6346 60.6102 17.4397 60.7917 18.1936L61.5695 18.0064ZM55.7847 16.2567C55.9673 16.7588 56.2546 17.1754 56.6507 17.4923L57.1505 16.8677C56.88 16.6512 56.6739 16.3612 56.5365 15.9833L55.7847 16.2567ZM56.6567 17.497C57.0802 17.8228 57.5815 17.98 58.1406 17.98V17.18C57.7397 17.18 57.4143 17.0705 57.1445 16.863L56.6567 17.497ZM58.1406 17.98C58.7334 17.98 59.2653 17.7765 59.7218 17.383L59.1994 16.777C58.8826 17.0502 58.5345 17.18 58.1406 17.18V17.98ZM59.7167 17.3873C60.1727 17.0072 60.5112 16.5227 60.7339 15.9436L59.9873 15.6564C59.81 16.1173 59.5485 16.4861 59.2045 16.7727L59.7167 17.3873ZM60.7303 15.9528C61.1633 14.9051 61.3806 13.8199 61.3806 12.7H60.5806C60.5806 13.7135 60.3845 14.6949 59.9909 15.6472L60.7303 15.9528ZM61.3806 12.7V9.64H60.5806V12.7H61.3806ZM61.2287 9.32623C60.5904 8.82152 59.8776 8.56 59.1006 8.56V9.36C59.6836 9.36 60.2241 9.55181 60.7325 9.95377L61.2287 9.32623ZM59.1006 8.56C58.3634 8.56 57.7163 8.7193 57.1833 9.06417L57.6179 9.73583C57.9916 9.49403 58.4778 9.36 59.1006 9.36V8.56ZM57.1833 9.06417C56.6703 9.39608 56.275 9.83678 56.0028 10.3811L56.7184 10.7389C56.9262 10.3232 57.2242 9.99059 57.6179 9.73583L57.1833 9.06417ZM56.0039 10.379C55.5218 11.3291 55.2806 12.3445 55.2806 13.42H56.0806C56.0806 12.4688 56.2928 11.5776 56.7173 10.741L56.0039 10.379ZM55.2806 13.42C55.2806 14.4379 55.4481 15.3874 55.7876 16.2644L56.5336 15.9756C56.2331 15.1993 56.0806 14.3488 56.0806 13.42H55.2806ZM73.4711 12.94V13.34H73.8711V12.94H73.4711ZM66.9111 12.94V12.54H66.5111V12.94H66.9111ZM67.8111 16.52L67.4993 16.7706L67.5015 16.7733L67.8111 16.52ZM72.9311 16.02L73.1193 15.6671L72.7709 15.4812L72.5806 15.8272L72.9311 16.02ZM73.2311 16.18L73.5867 16.3631L73.7672 16.0126L73.4193 15.8271L73.2311 16.18ZM66.6711 16.9L66.386 17.1806L66.6711 16.9ZM66.5111 9.76L66.1991 9.50958L66.197 9.51229L66.5111 9.76ZM72.4511 9.64L72.1364 9.88692L72.1382 9.88928L72.4511 9.64ZM67.7511 9.74L67.4203 9.51507L67.4193 9.51656L67.7511 9.74ZM66.9511 12.36L66.5525 12.326L66.5155 12.76H66.9511V12.36ZM71.9311 12.36V12.76H72.3468L72.3308 12.3445L71.9311 12.36ZM73.4711 12.54H66.9111V13.34H73.4711V12.54ZM66.5111 12.94V13.28H67.3111V12.94H66.5111ZM66.5111 13.28C66.5111 14.7427 66.8206 15.926 67.4993 16.7706L68.1229 16.2694C67.6015 15.6207 67.3111 14.644 67.3111 13.28H66.5111ZM67.5015 16.7733C68.1722 17.593 69.0296 18.02 70.0511 18.02V17.22C69.2858 17.22 68.65 16.9136 68.1207 16.2667L67.5015 16.7733ZM70.0511 18.02C71.5132 18.02 72.6167 17.4215 73.2815 16.2128L72.5806 15.8272C72.0721 16.7518 71.2556 17.22 70.0511 17.22V18.02ZM72.7428 16.3729L73.0428 16.5329L73.4193 15.8271L73.1193 15.6671L72.7428 16.3729ZM72.8754 15.9969C72.5591 16.6113 72.1459 17.0556 71.6403 17.3491C71.133 17.6435 70.5089 17.8 69.7511 17.8V18.6C70.6199 18.6 71.3891 18.4198 72.0419 18.0409C72.6963 17.6611 73.2097 17.0953 73.5867 16.3631L72.8754 15.9969ZM69.7511 17.8C68.6599 17.8 67.7354 17.4108 66.9561 16.6194L66.386 17.1806C67.3134 18.1225 68.4423 18.6 69.7511 18.6V17.8ZM66.9561 16.6194C66.1912 15.8425 65.7911 14.7847 65.7911 13.4H64.9911C64.9911 14.9486 65.4443 16.2242 66.386 17.1806L66.9561 16.6194ZM65.7911 13.4C65.7911 11.9889 66.1459 10.8689 66.8251 10.0077L66.197 9.51229C65.3829 10.5444 64.9911 11.8511 64.9911 13.4H65.7911ZM66.823 10.0104C67.5042 9.16181 68.3944 8.74 69.5311 8.74V7.94C68.161 7.94 67.0379 8.46485 66.1991 9.50959L66.823 10.0104ZM69.5311 8.74C70.6957 8.74 71.5442 9.13215 72.1364 9.88691L72.7658 9.39308C71.998 8.41451 70.8998 7.94 69.5311 7.94V8.74ZM72.1382 9.88928C72.7496 10.6564 73.0711 11.6621 73.0711 12.94H73.8711C73.8711 11.5245 73.5126 10.3302 72.7639 9.39072L72.1382 9.88928ZM69.5911 8.34C68.6787 8.34 67.9443 8.74444 67.4203 9.51508L68.0818 9.96492C68.4645 9.40222 68.9567 9.14 69.5911 9.14V8.34ZM67.4193 9.51656C66.9293 10.2442 66.6495 11.1901 66.5525 12.326L67.3496 12.394C67.4393 11.3432 67.6929 10.5425 68.0828 9.96344L67.4193 9.51656ZM66.9511 12.76H71.9311V11.96H66.9511V12.76ZM72.3308 12.3445C72.283 11.1094 72.0592 10.1196 71.612 9.42785C71.1465 8.70768 70.4567 8.34 69.5911 8.34V9.14C70.1921 9.14 70.6257 9.37566 70.9401 9.86215C71.273 10.377 71.4858 11.1973 71.5314 12.3755L72.3308 12.3445ZM77.9939 8.54H77.5939V8.94H77.9939V8.54ZM80.4539 8.54H80.8539V8.14H80.4539V8.54ZM80.4539 8.98V9.38H80.8539V8.98H80.4539ZM77.9939 8.98V8.58H77.5939V8.98H77.9939ZM78.1939 17.28L77.8768 17.5239L77.8816 17.5301L77.8866 17.5361L78.1939 17.28ZM80.4139 17.1L80.8074 17.0284L80.7176 16.5346L80.2563 16.7323L80.4139 17.1ZM80.4539 17.32L80.6667 17.6587L80.8958 17.5147L80.8474 17.2484L80.4539 17.32ZM76.9339 17.86L77.2167 17.5772L76.9339 17.86ZM76.5939 8.98H76.9939V8.58H76.5939V8.98ZM75.3939 8.98H74.9939V9.38H75.3939V8.98ZM75.3939 8.54V8.14H74.9939V8.54H75.3939ZM76.8939 7.94L76.5677 7.7085L76.5662 7.71061L76.8939 7.94ZM77.5539 6.12L77.5177 5.72164L77.2152 5.74914L77.1604 6.04787L77.5539 6.12ZM77.9939 6.08H78.3939V5.64199L77.9577 5.68164L77.9939 6.08ZM77.9939 8.94H80.4539V8.14H77.9939V8.94ZM80.0539 8.54V8.98H80.8539V8.54H80.0539ZM80.4539 8.58H77.9939V9.38H80.4539V8.58ZM77.5939 8.98V16.6H78.3939V8.98H77.5939ZM77.5939 16.6C77.5939 16.9432 77.6762 17.2631 77.8768 17.5239L78.5109 17.0361C78.4448 16.9502 78.3939 16.8168 78.3939 16.6H77.5939ZM77.8866 17.5361C78.098 17.7898 78.3852 17.92 78.7139 17.92V17.12C78.6159 17.12 78.5564 17.0902 78.5012 17.0239L77.8866 17.5361ZM78.7139 17.92C79.2676 17.92 79.8901 17.7596 80.5714 17.4677L80.2563 16.7323C79.6309 17.0004 79.1202 17.12 78.7139 17.12V17.92ZM80.0203 17.1716L80.0603 17.3916L80.8474 17.2484L80.8074 17.0284L80.0203 17.1716ZM80.241 16.9813C79.3401 17.5476 78.5886 17.8 77.9739 17.8V18.6C78.7992 18.6 79.701 18.2657 80.6667 17.6587L80.241 16.9813ZM77.9739 17.8C77.5649 17.8 77.34 17.7004 77.2167 17.5772L76.651 18.1428C76.9811 18.4729 77.4495 18.6 77.9739 18.6V17.8ZM77.2167 17.5772C77.1046 17.465 76.9939 17.2073 76.9939 16.68H76.1939C76.1939 17.2727 76.3099 17.8017 76.651 18.1428L77.2167 17.5772ZM76.9939 16.68V8.98H76.1939V16.68H76.9939ZM76.5939 8.58H75.3939V9.38H76.5939V8.58ZM75.7939 8.98V8.54H74.9939V8.98H75.7939ZM75.3939 8.94C76.1789 8.94 76.8357 8.72058 77.2216 8.16938L76.5662 7.71061C76.392 7.95942 76.0488 8.14 75.3939 8.14V8.94ZM77.2201 8.1715C77.5615 7.69036 77.7958 7.01873 77.9473 6.19213L77.1604 6.04787C77.0186 6.82126 76.8129 7.36297 76.5677 7.7085L77.2201 8.1715ZM77.5901 6.51836L78.0301 6.47836L77.9577 5.68164L77.5177 5.72164L77.5901 6.51836ZM77.5939 6.08V8.54H78.3939V6.08H77.5939ZM89.2406 16.48L88.8484 16.5584L88.8488 16.5607L89.2406 16.48ZM90.8206 16.88L91.1784 16.7011L90.9995 16.3433L90.6417 16.5222L90.8206 16.88ZM90.9206 17.08L91.1606 17.4L91.4277 17.1997L91.2784 16.9011L90.9206 17.08ZM90.5006 17.38L90.7102 17.7207L90.7194 17.715L90.7283 17.7089L90.5006 17.38ZM89.4406 17.82L89.5727 18.1975L89.4406 17.82ZM87.9006 18.1L87.5115 18.1926L87.5847 18.5H87.9006V18.1ZM87.7006 15.42H88.1006L87.3236 15.2862L87.7006 15.42ZM86.5406 17.44L86.2467 17.1687L86.2464 17.169L86.5406 17.44ZM82.5806 17.54L82.3058 17.8309L82.3143 17.8385L82.5806 17.54ZM87.7006 12.46L87.702 12.86L88.1006 12.8586V12.46H87.7006ZM87.2806 9.54L86.9305 9.73347V9.73347L87.2806 9.54ZM84.6806 9.1L84.9305 9.41235L84.6806 9.1ZM84.1406 9.8L83.7653 9.66172L83.7627 9.66867L83.7604 9.6757L84.1406 9.8ZM83.4606 8.84L83.2817 8.48223L83.4606 8.84ZM88.2006 9.16L87.9312 9.4557L87.9349 9.45896L88.2006 9.16ZM83.7606 17.08L83.4376 17.316L83.4421 17.322L83.7606 17.08ZM86.4806 16.78L86.7854 17.0391L86.7885 17.0353L86.4806 16.78ZM87.4006 14.98L87.0134 14.8793L87.0121 14.8849L87.4006 14.98ZM87.7006 12.92L88.1003 12.9351L88.1161 12.5162L87.697 12.52L87.7006 12.92ZM84.4206 13.74L84.1796 13.4207L84.1767 13.4229L84.4206 13.74ZM88.7006 11.54V13.56H89.5006V11.54H88.7006ZM88.7006 13.56C88.7006 15.0322 88.7459 16.0461 88.8484 16.5584L89.6328 16.4016C89.5486 15.9806 89.5006 15.0478 89.5006 13.56H88.7006ZM88.8488 16.5607C88.9046 16.8316 89.0097 17.0848 89.1978 17.2728C89.3956 17.4707 89.6488 17.56 89.9206 17.56V16.76C89.8324 16.76 89.7922 16.736 89.7634 16.7072C89.7249 16.6686 89.6699 16.5817 89.6324 16.3993L88.8488 16.5607ZM89.9206 17.56C90.2419 17.56 90.6098 17.4326 90.9995 17.2378L90.6417 16.5222C90.2847 16.7007 90.0526 16.76 89.9206 16.76V17.56ZM90.4628 17.0589L90.5628 17.2589L91.2784 16.9011L91.1784 16.7011L90.4628 17.0589ZM90.6806 16.76C90.5796 16.8358 90.4442 16.9326 90.2729 17.0511L90.7283 17.7089C90.9037 17.5874 91.0483 17.4843 91.1606 17.4L90.6806 16.76ZM90.291 17.0393C90.1598 17.1201 89.8464 17.2542 89.3085 17.4425L89.5727 18.1975C90.1014 18.0125 90.4948 17.8533 90.7102 17.7207L90.291 17.0393ZM89.3085 17.4425C88.8115 17.6164 88.3429 17.7 87.9006 17.7V18.5C88.4449 18.5 89.003 18.3969 89.5727 18.1975L89.3085 17.4425ZM88.2897 18.0074C88.1679 17.4958 88.1006 16.6423 88.1006 15.42H87.3006C87.3006 16.651 87.3666 17.5842 87.5115 18.1926L88.2897 18.0074ZM87.3236 15.2862C87.0442 16.0738 86.6823 16.6967 86.2467 17.1687L86.8345 17.7113C87.3589 17.1433 87.7703 16.4196 88.0776 15.5538L87.3236 15.2862ZM86.2464 17.169C85.8717 17.5758 85.3353 17.8 84.5806 17.8V18.6C85.5059 18.6 86.2762 18.3175 86.8348 17.711L86.2464 17.169ZM84.5806 17.8C83.8113 17.8 83.2487 17.5999 82.8468 17.2415L82.3143 17.8385C82.8992 18.3601 83.6699 18.6 84.5806 18.6V17.8ZM82.8552 17.2492C82.469 16.8844 82.2606 16.3838 82.2606 15.7H81.4606C81.4606 16.5629 81.7322 17.2889 82.3059 17.8308L82.8552 17.2492ZM82.2606 15.7C82.2606 15.2258 82.3674 14.8293 82.5681 14.4966C82.7692 14.1632 83.078 13.872 83.5146 13.6298C84.4 13.1386 85.779 12.8666 87.702 12.86L87.6992 12.06C85.7288 12.0667 84.1879 12.3414 83.1265 12.9302C82.5899 13.228 82.1686 13.6101 81.8831 14.0834C81.5971 14.5574 81.4606 15.1009 81.4606 15.7H82.2606ZM88.1006 12.46V11.74H87.3006V12.46H88.1006ZM88.1006 11.74C88.1006 10.7518 87.9583 9.93935 87.6307 9.34653L86.9305 9.73347C87.1629 10.154 87.3006 10.8082 87.3006 11.74H88.1006ZM87.6307 9.34653C87.2581 8.67224 86.5736 8.38 85.7206 8.38V9.18C86.3876 9.18 86.7431 9.39443 86.9305 9.73347L87.6307 9.34653ZM85.7206 8.38C85.2263 8.38 84.7845 8.50462 84.4307 8.78765L84.9305 9.41235C85.11 9.26871 85.3616 9.18 85.7206 9.18V8.38ZM84.4307 8.78765C84.1221 9.03458 83.8896 9.3241 83.7653 9.66172L84.5159 9.93828C84.5782 9.76923 84.7058 9.59208 84.9305 9.41235L84.4307 8.78765ZM83.7604 9.6757C83.5494 10.3212 83.3037 10.44 83.1206 10.44V11.24C83.8442 11.24 84.2785 10.6655 84.5208 9.9243L83.7604 9.6757ZM83.1206 10.44C82.9749 10.44 82.9353 10.4012 82.9241 10.3888C82.9052 10.3675 82.8606 10.2956 82.8606 10.1H82.0606C82.0606 10.3978 82.126 10.6958 82.3271 10.9212C82.5359 11.1554 82.8263 11.24 83.1206 11.24V10.44ZM82.8606 10.1C82.8606 9.81124 83.0365 9.49927 83.6395 9.19777L83.2817 8.48223C82.5514 8.84739 82.0606 9.37543 82.0606 10.1H82.8606ZM83.6395 9.19777C84.2377 8.89868 84.9797 8.74 85.8806 8.74V7.94C84.8881 7.94 84.0169 8.11465 83.2817 8.48223L83.6395 9.19777ZM85.8806 8.74C86.7452 8.74 87.4169 8.98714 87.9312 9.45568L88.47 8.86432C87.7842 8.23953 86.9093 7.94 85.8806 7.94V8.74ZM87.9349 9.45896C88.4248 9.89447 88.7006 10.5632 88.7006 11.54H89.5006C89.5006 10.4102 89.1764 9.49219 88.4663 8.86104L87.9349 9.45896ZM82.9806 15.78C82.9806 16.3665 83.1244 16.8874 83.4376 17.316L84.0835 16.844C83.8901 16.5793 83.7806 16.2335 83.7806 15.78H82.9806ZM83.4421 17.322C83.7932 17.7839 84.3306 17.98 84.9606 17.98V17.18C84.4973 17.18 84.2347 17.0427 84.0791 16.838L83.4421 17.322ZM84.9606 17.98C85.6664 17.98 86.2766 17.6376 86.7854 17.0391L86.1758 16.5209C85.7779 16.9891 85.3748 17.18 84.9606 17.18V17.98ZM86.7885 17.0353C87.2783 16.4447 87.6139 15.7906 87.7891 15.0751L87.0121 14.8849C86.8673 15.4761 86.5896 16.0219 86.1727 16.5247L86.7885 17.0353ZM87.7877 15.0807C87.9685 14.3853 88.0726 13.6699 88.1003 12.9351L87.3009 12.9049C87.2753 13.5835 87.1793 14.2414 87.0135 14.8793L87.7877 15.0807ZM87.697 12.52C86.1835 12.5337 84.9871 12.8113 84.1796 13.4207L84.6616 14.0593C85.2674 13.602 86.2577 13.333 87.7042 13.32L87.697 12.52ZM84.1767 13.4229C83.3916 14.0269 82.9806 14.821 82.9806 15.78H83.7806C83.7806 15.0857 84.0629 14.5198 84.6645 14.057L84.1767 13.4229ZM93.887 5.94L94.1698 5.65716V5.65716L93.887 5.94ZM95.487 5.94L95.2042 5.65716V5.65716L95.487 5.94ZM95.447 8.34H95.847V7.94H95.447V8.34ZM95.687 17.28L95.329 17.459L95.3353 17.4705L95.687 17.28ZM97.127 17.76L97.5216 17.6942L97.4659 17.36H97.127V17.76ZM97.167 18V18.4H97.6392L97.5616 17.9342L97.167 18ZM92.287 18L91.8924 17.9342L91.8148 18.4H92.287V18ZM92.327 17.76V17.36H91.9882L91.9324 17.6942L92.327 17.76ZM93.787 17.28L94.1388 17.4705L94.1419 17.4645L93.787 17.28ZM93.907 10.2L93.5117 10.2624L93.514 10.2744L93.907 10.2ZM93.547 9.22L93.2767 9.51486V9.51486L93.547 9.22ZM92.067 8.78L91.6735 8.85155L91.7332 9.18H92.067V8.78ZM92.027 8.56L91.9768 8.16316L91.5579 8.21612L91.6335 8.63155L92.027 8.56ZM94.1698 5.65716C94.0144 5.50172 93.947 5.33534 93.947 5.14H93.147C93.147 5.55799 93.3063 5.92495 93.6042 6.22284L94.1698 5.65716ZM93.947 5.14C93.947 4.94466 94.0144 4.77828 94.1698 4.62284L93.6042 4.05716C93.3063 4.35505 93.147 4.72201 93.147 5.14H93.947ZM94.1698 4.62284C94.3253 4.4674 94.4917 4.4 94.687 4.4V3.6C94.269 3.6 93.9021 3.75926 93.6042 4.05716L94.1698 4.62284ZM94.687 4.4C94.8823 4.4 95.0487 4.4674 95.2042 4.62284L95.7698 4.05716C95.4719 3.75926 95.105 3.6 94.687 3.6V4.4ZM95.2042 4.62284C95.3596 4.77828 95.427 4.94466 95.427 5.14H96.227C96.227 4.72201 96.0677 4.35505 95.7698 4.05716L95.2042 4.62284ZM95.427 5.14C95.427 5.33534 95.3596 5.50172 95.2042 5.65716L95.7698 6.22284C96.0677 5.92495 96.227 5.55799 96.227 5.14H95.427ZM95.2042 5.65716C95.0487 5.81259 94.8823 5.88 94.687 5.88V6.68C95.105 6.68 95.4719 6.52074 95.7698 6.22284L95.2042 5.65716ZM94.687 5.88C94.4917 5.88 94.3253 5.81259 94.1698 5.65716L93.6042 6.22284C93.9021 6.52074 94.269 6.68 94.687 6.68V5.88ZM95.047 8.34V14.7H95.847V8.34H95.047ZM95.047 14.7C95.047 15.4058 95.0671 15.9846 95.1087 16.432C95.1486 16.8609 95.2121 17.2247 95.3292 17.4589L96.0448 17.1011C96.0019 17.0153 95.9454 16.7891 95.9053 16.358C95.8669 15.9454 95.847 15.3942 95.847 14.7H95.047ZM95.3353 17.4705C95.4865 17.7496 95.7521 17.92 96.0505 18.0195C96.3474 18.1184 96.7118 18.16 97.127 18.16V17.36C96.7556 17.36 96.4866 17.3216 96.3035 17.2605C96.1219 17.2 96.0609 17.1304 96.0387 17.0895L95.3353 17.4705ZM96.7324 17.8258L96.7724 18.0658L97.5616 17.9342L97.5216 17.6942L96.7324 17.8258ZM97.167 17.6H92.287V18.4H97.167V17.6ZM92.6816 18.0658L92.7216 17.8258L91.9324 17.6942L91.8924 17.9342L92.6816 18.0658ZM92.327 18.16C92.7484 18.16 93.1172 18.1185 93.4169 18.02C93.7176 17.9212 93.9866 17.7513 94.1387 17.4705L93.4353 17.0895C93.4141 17.1287 93.3531 17.1988 93.1671 17.26C92.9801 17.3215 92.7056 17.36 92.327 17.36V18.16ZM94.1419 17.4645C94.2675 17.2231 94.3366 16.8519 94.3801 16.4145C94.4252 15.9593 94.447 15.373 94.447 14.66H93.647C93.647 15.3604 93.6255 15.9174 93.584 16.3355C93.5407 16.7714 93.4799 17.0036 93.4321 17.0955L94.1419 17.4645ZM94.447 14.66V13.26H93.647V14.66H94.447ZM94.447 13.26C94.447 11.7205 94.4015 10.6622 94.3 10.1256L93.514 10.2744C93.5991 10.7244 93.647 11.7062 93.647 13.26H94.447ZM94.3021 10.1376C94.2598 9.86941 94.2046 9.63343 94.1325 9.43707C94.0623 9.24611 93.9645 9.06008 93.8173 8.92514L93.2767 9.51486C93.2895 9.52659 93.3317 9.57723 93.3815 9.71293C93.4294 9.84324 93.4742 10.0239 93.5119 10.2624L94.3021 10.1376ZM93.8173 8.92514C93.3926 8.53585 92.7819 8.38 92.067 8.38V9.18C92.6854 9.18 93.0614 9.31748 93.2767 9.51486L93.8173 8.92514ZM92.4605 8.70845L92.4205 8.48845L91.6335 8.63155L91.6735 8.85155L92.4605 8.70845ZM92.0772 8.95684C93.2213 8.81219 94.3445 8.74 95.447 8.74V7.94C94.3095 7.94 93.1527 8.01448 91.9768 8.16316L92.0772 8.95684ZM101.435 3.28H101.835V2.88H101.435V3.28ZM101.695 17.26L101.337 17.4389L101.34 17.4445L101.695 17.26ZM103.135 17.76L103.529 17.6942L103.474 17.36H103.135V17.76ZM103.175 18V18.4H103.647L103.569 17.9342L103.175 18ZM98.2747 18L97.8801 17.9342L97.8025 18.4H98.2747V18ZM98.3147 17.76V17.36H97.9758L97.9201 17.6942L98.3147 17.76ZM99.7747 17.26L99.4198 17.0755L99.7747 17.26ZM99.7947 4.2L100.149 4.01497L100.146 4.00819L100.142 4.00154L99.7947 4.2ZM99.4947 3.92L99.7094 3.58253L99.7094 3.58253L99.4947 3.92ZM99.0147 3.76L98.9814 4.15863L98.984 4.15882L99.0147 3.76ZM98.3147 3.74L97.9211 3.81155L97.9808 4.14H98.3147V3.74ZM98.2747 3.52L98.2115 3.12502L97.808 3.18957L97.8811 3.59155L98.2747 3.52ZM101.035 3.28V14.52H101.835V3.28H101.035ZM101.035 14.52C101.035 15.266 101.056 15.8783 101.101 16.3528C101.145 16.8095 101.214 17.1922 101.337 17.4389L102.052 17.0811C102.002 16.9812 101.941 16.7338 101.898 16.2772C101.856 15.8383 101.835 15.254 101.835 14.52H101.035ZM101.34 17.4445C101.488 17.7299 101.752 17.9081 102.053 18.0129C102.352 18.1166 102.718 18.16 103.135 18.16V17.36C102.764 17.36 102.497 17.3201 102.316 17.2571C102.138 17.1953 102.075 17.1235 102.05 17.0755L101.34 17.4445ZM102.74 17.8258L102.78 18.0658L103.569 17.9342L103.529 17.6942L102.74 17.8258ZM103.175 17.6H98.2747V18.4H103.175V17.6ZM98.6692 18.0658L98.7092 17.8258L97.9201 17.6942L97.8801 17.9342L98.6692 18.0658ZM98.3147 18.16C98.7371 18.16 99.1077 18.1167 99.4093 18.0134C99.7133 17.9093 99.9803 17.7316 100.13 17.4445L99.4198 17.0755C99.3957 17.1217 99.3326 17.194 99.1501 17.2566C98.9649 17.32 98.6922 17.36 98.3147 17.36V18.16ZM100.13 17.4445C100.256 17.2012 100.325 16.8175 100.368 16.3628C100.413 15.8883 100.435 15.2725 100.435 14.52H99.6347C99.6347 15.2608 99.6131 15.8484 99.5714 16.2872C99.5279 16.7458 99.4666 16.9855 99.4198 17.0755L100.13 17.4445ZM100.435 14.52V6.88H99.6347V14.52H100.435ZM100.435 6.88C100.435 6.13466 100.415 5.52796 100.373 5.06432C100.352 4.83258 100.326 4.63053 100.292 4.46155C100.259 4.29825 100.215 4.1415 100.149 4.01497L99.44 4.38503C99.454 4.41184 99.4801 4.48175 99.5074 4.61845C99.5336 4.74946 99.557 4.92075 99.5763 5.13568C99.6147 5.56537 99.6347 6.14534 99.6347 6.88H100.435ZM100.142 4.00154C100.042 3.82729 99.8807 3.69155 99.7094 3.58253L99.2799 4.25746C99.4019 4.33511 99.4403 4.38604 99.4474 4.39846L100.142 4.00154ZM99.7094 3.58253C99.5073 3.45395 99.2841 3.37955 99.0453 3.36118L98.984 4.15882C99.0919 4.16712 99.1886 4.19938 99.2799 4.25746L99.7094 3.58253ZM99.0479 3.36138C98.871 3.34664 98.6244 3.34 98.3147 3.34V4.14C98.6183 4.14 98.8383 4.14669 98.9814 4.15862L99.0479 3.36138ZM98.7082 3.66844L98.6682 3.44844L97.8811 3.59155L97.9211 3.81155L98.7082 3.66844ZM98.3379 3.91498C99.3151 3.75861 100.347 3.68 101.435 3.68V2.88C100.309 2.88 99.2342 2.96139 98.2115 3.12502L98.3379 3.91498ZM105.211 15.02H105.611V14.6811L105.277 14.6254L105.211 15.02ZM105.911 16.98L105.636 17.2711L105.641 17.2752L105.911 16.98ZM109.151 17.18L109.387 17.5026L109.151 17.18ZM109.231 14.76L108.954 15.0486L108.959 15.0539L109.231 14.76ZM106.551 13.36L106.388 13.7255L106.392 13.7271L106.551 13.36ZM105.311 12.42L104.999 12.6711L105.004 12.677L105.311 12.42ZM105.731 9.04L105.969 9.36167L105.97 9.36082L105.731 9.04ZM110.611 8.9H111.011V8.66787L110.809 8.5527L110.611 8.9ZM110.371 11.46L110.274 11.8481L110.703 11.9553L110.767 11.5179L110.371 11.46ZM110.131 11.4H109.731V11.7123L110.034 11.7881L110.131 11.4ZM106.711 9.32L106.452 9.01459L106.447 9.01971L106.711 9.32ZM106.711 11.72L106.44 12.0144L106.446 12.02L106.452 12.0254L106.711 11.72ZM107.951 12.46L107.797 12.8292L107.951 12.46ZM109.391 13.1L109.22 13.4619L109.232 13.4671L109.391 13.1ZM110.631 14.04L110.319 14.2911L110.324 14.2966L110.328 14.302L110.631 14.04ZM110.151 17.5L109.921 17.1723L110.151 17.5ZM104.771 17.34H104.371V17.5372L104.527 17.6573L104.771 17.34ZM104.971 14.98L105.037 14.5854L104.634 14.5184L104.575 14.9218L104.971 14.98ZM104.811 15.02C104.811 15.9567 105.064 16.7317 105.636 17.271L106.185 16.689C105.824 16.3483 105.611 15.8167 105.611 15.02H104.811ZM105.641 17.2752C106.182 17.7702 106.832 18.02 107.571 18.02V17.22C107.029 17.22 106.573 17.0431 106.181 16.6848L105.641 17.2752ZM107.571 18.02C108.282 18.02 108.9 17.86 109.387 17.5026L108.914 16.8574C108.602 17.0866 108.166 17.22 107.571 17.22V18.02ZM109.387 17.5026C109.889 17.1344 110.151 16.6216 110.151 16H109.351C109.351 16.3651 109.212 16.639 108.914 16.8574L109.387 17.5026ZM110.151 16C110.151 15.3909 109.937 14.8679 109.502 14.4661L108.959 15.0539C109.218 15.2921 109.351 15.5957 109.351 16H110.151ZM109.508 14.4714C109.135 14.1131 108.685 13.8274 108.165 13.6108L107.857 14.3492C108.297 14.5326 108.66 14.7669 108.954 15.0486L109.508 14.4714ZM108.165 13.6108C107.686 13.4115 107.201 13.2055 106.71 12.9929L106.392 13.7271C106.887 13.9412 107.375 14.1485 107.857 14.3492L108.165 13.6108ZM106.713 12.9945C106.29 12.8066 105.926 12.5309 105.617 12.163L105.004 12.677C105.389 13.1357 105.851 13.4868 106.388 13.7255L106.713 12.9945ZM105.622 12.1689C105.362 11.8459 105.211 11.3902 105.211 10.76H104.411C104.411 11.5165 104.593 12.1674 104.999 12.6711L105.622 12.1689ZM105.211 10.76C105.211 10.2076 105.445 9.74831 105.969 9.36167L105.493 8.71833C104.789 9.23835 104.411 9.92577 104.411 10.76H105.211ZM105.97 9.36082C106.524 8.94777 107.16 8.74 107.891 8.74V7.94C106.995 7.94 106.191 8.19889 105.492 8.71918L105.97 9.36082ZM107.891 8.74C109.016 8.74 109.844 8.92232 110.412 9.2473L110.809 8.5527C110.071 8.13101 109.086 7.94 107.891 7.94V8.74ZM110.211 8.9C110.211 9.48441 110.134 10.3153 109.975 11.4021L110.767 11.5179C110.927 10.418 111.011 9.54226 111.011 8.9H110.211ZM110.468 11.0719L110.228 11.0119L110.034 11.7881L110.274 11.8481L110.468 11.0719ZM110.531 11.4C110.531 10.4713 110.321 9.70481 109.814 9.19716L109.248 9.76284C109.54 10.0552 109.731 10.5687 109.731 11.4H110.531ZM109.814 9.19716C109.337 8.72101 108.749 8.48 108.071 8.48V9.28C108.54 9.28 108.924 9.43899 109.248 9.76284L109.814 9.19716ZM108.071 8.48C107.439 8.48 106.887 8.64691 106.452 9.01465L106.969 9.62535C107.228 9.40642 107.583 9.28 108.071 9.28V8.48ZM106.447 9.01971C106.014 9.40012 105.811 9.91638 105.811 10.52H106.611C106.611 10.1103 106.741 9.82654 106.975 9.62029L106.447 9.01971ZM105.811 10.52C105.811 11.1141 106.016 11.6247 106.44 12.0144L106.982 11.4256C106.738 11.2019 106.611 10.9126 106.611 10.52H105.811ZM106.452 12.0254C106.835 12.3488 107.284 12.6157 107.797 12.8292L108.105 12.0908C107.657 11.9043 107.28 11.6779 106.969 11.4146L106.452 12.0254ZM107.797 12.8292C108.271 13.0268 108.745 13.2376 109.22 13.4617L109.562 12.7383C109.076 12.509 108.59 12.2932 108.105 12.0908L107.797 12.8292ZM109.232 13.4671C109.667 13.6551 110.027 13.9289 110.319 14.2911L110.942 13.7889C110.568 13.3244 110.102 12.9716 109.55 12.7329L109.232 13.4671ZM110.328 14.302C110.605 14.6212 110.751 15.0184 110.751 15.52H111.551C111.551 14.8483 111.35 14.2588 110.933 13.778L110.328 14.302ZM110.751 15.52C110.751 16.2503 110.475 16.7847 109.921 17.1723L110.38 17.8277C111.16 17.282 111.551 16.4963 111.551 15.52H110.751ZM109.921 17.1723C109.342 17.5782 108.55 17.8 107.511 17.8V18.6C108.658 18.6 109.627 18.3551 110.38 17.8277L109.921 17.1723ZM107.511 17.8C106.505 17.8 105.681 17.5347 105.014 17.0227L104.527 17.6573C105.354 18.292 106.356 18.6 107.511 18.6V17.8ZM105.171 17.34C105.171 16.6985 105.235 15.9322 105.366 15.0382L104.575 14.9218C104.44 15.8412 104.371 16.6482 104.371 17.34H105.171ZM104.905 15.3746L105.145 15.4146L105.277 14.6254L105.037 14.5854L104.905 15.3746Z" fill="#25A59E" mask="url(#path-1-outside-1_6266_40)"/>
<path fill-rule="evenodd" clip-rule="evenodd" d="M129.333 13H141.198L137.565 17.36C137.211 17.784 137.269 18.415 137.693 18.768C138.118 19.122 138.748 19.064 139.102 18.64L144.102 12.64C144.141 12.593 144.16 12.538 144.189 12.486C144.213 12.444 144.242 12.408 144.26 12.362C144.305 12.247 144.332 12.126 144.332 12.004C144.332 12.003 144.333 12.001 144.333 12C144.333 11.999 144.332 11.997 144.332 11.996C144.332 11.874 144.305 11.753 144.26 11.638C144.242 11.592 144.213 11.556 144.189 11.514C144.16 11.462 144.141 11.407 144.102 11.36L139.102 5.36C138.903 5.123 138.619 5 138.333 5C138.107 5 137.88 5.076 137.693 5.232C137.269 5.585 137.211 6.216 137.565 6.64L141.198 11H129.333C128.781 11 128.333 11.448 128.333 12C128.333 12.552 128.781 13 129.333 13Z" fill="#25A59E"/>
<mask id="mask0_6266_40" style="mask-type:luminance" maskUnits="userSpaceOnUse" x="128" y="5" width="17" height="14">
<path fill-rule="evenodd" clip-rule="evenodd" d="M129.333 13H141.198L137.565 17.36C137.211 17.784 137.269 18.415 137.693 18.768C138.118 19.122 138.748 19.064 139.102 18.64L144.102 12.64C144.141 12.593 144.16 12.538 144.189 12.486C144.213 12.444 144.242 12.408 144.26 12.362C144.305 12.247 144.332 12.126 144.332 12.004C144.332 12.003 144.333 12.001 144.333 12C144.333 11.999 144.332 11.997 144.332 11.996C144.332 11.874 144.305 11.753 144.26 11.638C144.242 11.592 144.213 11.556 144.189 11.514C144.16 11.462 144.141 11.407 144.102 11.36L139.102 5.36C138.903 5.123 138.619 5 138.333 5C138.107 5 137.88 5.076 137.693 5.232C137.269 5.585 137.211 6.216 137.565 6.64L141.198 11H129.333C128.781 11 128.333 11.448 128.333 12C128.333 12.552 128.781 13 129.333 13Z" fill="white"/>
</mask>
<g mask="url(#mask0_6266_40)">
<rect x="124.333" width="24" height="24" fill="#25A59E"/>
</g>
</svg>
