<svg width="303" height="24" viewBox="0 0 303 24" fill="none" xmlns="http://www.w3.org/2000/svg">
<g opacity="0.7">
<path fill-rule="evenodd" clip-rule="evenodd" d="M3.5 10.3178C3.5 5.71789 7.34388 2 11.9934 2C16.6561 2 20.5 5.71789 20.5 10.3178C20.5 12.6357 19.657 14.7876 18.2695 16.6116C16.7388 18.6235 14.8522 20.3765 12.7285 21.7524C12.2425 22.0704 11.8039 22.0944 11.2704 21.7524C9.13474 20.3765 7.24809 18.6235 5.7305 16.6116C4.34198 14.7876 3.5 12.6357 3.5 10.3178ZM9.19423 10.5768C9.19423 12.1177 10.4517 13.3297 11.9934 13.3297C13.5362 13.3297 14.8058 12.1177 14.8058 10.5768C14.8058 9.0478 13.5362 7.77683 11.9934 7.77683C10.4517 7.77683 9.19423 9.0478 9.19423 10.5768Z" fill="#25A59E"/>
<path d="M34.496 18.208C34.1013 18.208 33.7147 18.1413 33.336 18.008C32.9627 17.8747 32.624 17.6773 32.32 17.416L33.384 16.136C33.5173 16.248 33.6773 16.344 33.864 16.424C34.0507 16.504 34.2613 16.544 34.496 16.544C34.816 16.544 35.1067 16.4613 35.368 16.296C35.6347 16.1253 35.848 15.904 36.008 15.632C36.168 15.3547 36.248 15.0587 36.248 14.744V6.8H37.912V14.744C37.912 15.368 37.7573 15.944 37.448 16.472C37.1387 16.9947 36.7253 17.416 36.208 17.736C35.696 18.0507 35.1253 18.208 34.496 18.208ZM46.059 10H47.723V18H46.051L45.987 16.84C45.7523 17.2507 45.435 17.5813 45.035 17.832C44.635 18.0827 44.163 18.208 43.619 18.208C43.0323 18.208 42.4803 18.0987 41.963 17.88C41.4457 17.656 40.9897 17.3467 40.595 16.952C40.2057 16.5573 39.9017 16.104 39.683 15.592C39.4643 15.0747 39.355 14.52 39.355 13.928C39.355 13.3573 39.4617 12.8213 39.675 12.32C39.8883 11.8133 40.1843 11.3707 40.563 10.992C40.9417 10.6133 41.379 10.3173 41.875 10.104C42.3763 9.88533 42.9123 9.776 43.483 9.776C44.0643 9.776 44.5763 9.90933 45.019 10.176C45.467 10.4373 45.8377 10.7733 46.131 11.184L46.059 10ZM43.579 16.6C44.0483 16.6 44.459 16.4853 44.811 16.256C45.163 16.0213 45.435 15.7067 45.627 15.312C45.8243 14.9173 45.923 14.48 45.923 14C45.923 13.5147 45.8243 13.0747 45.627 12.68C45.4297 12.2853 45.155 11.9733 44.803 11.744C44.4563 11.5093 44.0483 11.392 43.579 11.392C43.115 11.392 42.691 11.5093 42.307 11.744C41.923 11.9787 41.619 12.2933 41.395 12.688C41.171 13.0827 41.059 13.52 41.059 14C41.059 14.4853 41.1737 14.9253 41.403 15.32C41.6377 15.7093 41.9443 16.0213 42.323 16.256C42.707 16.4853 43.1257 16.6 43.579 16.6ZM52.8785 18H51.2225L48.5425 10H50.1745L52.0625 15.616L53.9345 10H55.6145L57.4865 15.616L59.3665 10H60.9985L58.3265 18H56.6545L54.7665 12.344L52.8785 18ZM68.1528 10H69.8168V18H68.1448L68.0808 16.84C67.8461 17.2507 67.5288 17.5813 67.1288 17.832C66.7288 18.0827 66.2568 18.208 65.7128 18.208C65.1261 18.208 64.5741 18.0987 64.0568 17.88C63.5394 17.656 63.0834 17.3467 62.6888 16.952C62.2994 16.5573 61.9954 16.104 61.7768 15.592C61.5581 15.0747 61.4488 14.52 61.4488 13.928C61.4488 13.3573 61.5554 12.8213 61.7688 12.32C61.9821 11.8133 62.2781 11.3707 62.6568 10.992C63.0354 10.6133 63.4728 10.3173 63.9688 10.104C64.4701 9.88533 65.0061 9.776 65.5768 9.776C66.1581 9.776 66.6701 9.90933 67.1128 10.176C67.5608 10.4373 67.9314 10.7733 68.2248 11.184L68.1528 10ZM65.6727 16.6C66.1421 16.6 66.5528 16.4853 66.9048 16.256C67.2568 16.0213 67.5288 15.7067 67.7208 15.312C67.9181 14.9173 68.0168 14.48 68.0168 14C68.0168 13.5147 67.9181 13.0747 67.7208 12.68C67.5234 12.2853 67.2488 11.9733 66.8968 11.744C66.5501 11.5093 66.1421 11.392 65.6727 11.392C65.2088 11.392 64.7848 11.5093 64.4008 11.744C64.0168 11.9787 63.7128 12.2933 63.4888 12.688C63.2648 13.0827 63.1528 13.52 63.1528 14C63.1528 14.4853 63.2674 14.9253 63.4968 15.32C63.7314 15.7093 64.0381 16.0213 64.4168 16.256C64.8008 16.4853 65.2194 16.6 65.6727 16.6ZM83.7289 6.8V8.464H80.1609V18H78.4969V8.464H74.9369V6.8H83.7289ZM87.6363 18.208C86.9003 18.208 86.2283 18.0187 85.6203 17.64C85.0176 17.2613 84.5349 16.7547 84.1723 16.12C83.8149 15.48 83.6363 14.7733 83.6363 14C83.6363 13.4133 83.7403 12.8667 83.9483 12.36C84.1563 11.848 84.4416 11.4 84.8043 11.016C85.1723 10.6267 85.5989 10.3227 86.0843 10.104C86.5696 9.88533 87.0869 9.776 87.6363 9.776C88.2496 9.776 88.8123 9.904 89.3243 10.16C89.8363 10.4107 90.2736 10.76 90.6363 11.208C90.9989 11.6507 91.2656 12.1627 91.4363 12.744C91.6069 13.32 91.6576 13.9333 91.5883 14.584H85.4203C85.4896 14.952 85.6229 15.2853 85.8203 15.584C86.0229 15.8773 86.2789 16.1093 86.5883 16.28C86.9029 16.4507 87.2523 16.5387 87.6363 16.544C88.0416 16.544 88.4096 16.4427 88.7403 16.24C89.0763 16.0373 89.3509 15.7573 89.5643 15.4L91.2523 15.792C90.9323 16.5013 90.4496 17.0827 89.8043 17.536C89.1589 17.984 88.4363 18.208 87.6363 18.208ZM85.3643 13.312H89.9083C89.8549 12.928 89.7189 12.5813 89.5003 12.272C89.2869 11.9573 89.0176 11.7093 88.6923 11.528C88.3723 11.3413 88.0203 11.248 87.6363 11.248C87.2576 11.248 86.9056 11.3387 86.5803 11.52C86.2603 11.7013 85.9936 11.9493 85.7803 12.264C85.5723 12.5733 85.4336 12.9227 85.3643 13.312ZM100.113 12.984V18H98.4491V13.392C98.4491 13.0347 98.3611 12.7093 98.1851 12.416C98.0145 12.1227 97.7825 11.8907 97.4891 11.72C97.2011 11.544 96.8758 11.456 96.5131 11.456C96.1611 11.456 95.8385 11.544 95.5451 11.72C95.2518 11.8907 95.0171 12.1227 94.8411 12.416C94.6651 12.7093 94.5771 13.0347 94.5771 13.392V18H92.9131V10H94.5771V10.848C94.8545 10.5173 95.1958 10.256 95.6011 10.064C96.0065 9.872 96.4438 9.776 96.9131 9.776C97.5051 9.776 98.0438 9.92 98.5291 10.208C99.0145 10.496 99.3985 10.8827 99.6811 11.368C99.9691 11.8533 100.113 12.392 100.113 12.984ZM107.642 10H109.306V18.208C109.306 18.7573 109.188 19.264 108.954 19.728C108.724 20.192 108.412 20.592 108.018 20.928C107.623 21.2693 107.17 21.5333 106.658 21.72C106.151 21.9067 105.62 22 105.066 22C104.506 22 103.967 21.88 103.45 21.64C102.932 21.4053 102.476 21.0853 102.082 20.68C101.692 20.2747 101.402 19.816 101.21 19.304L102.738 18.616C102.844 18.9467 103.015 19.24 103.25 19.496C103.49 19.752 103.767 19.9547 104.082 20.104C104.402 20.2533 104.73 20.328 105.066 20.328C105.396 20.328 105.714 20.2747 106.018 20.168C106.327 20.0667 106.602 19.9227 106.842 19.736C107.087 19.5493 107.282 19.3253 107.426 19.064C107.57 18.8027 107.642 18.5173 107.642 18.208V16.856C107.38 17.2613 107.044 17.5893 106.634 17.84C106.223 18.0853 105.746 18.208 105.202 18.208C104.636 18.208 104.103 18.0987 103.602 17.88C103.1 17.6613 102.66 17.36 102.282 16.976C101.903 16.5867 101.607 16.1387 101.394 15.632C101.18 15.1253 101.074 14.5813 101.074 14C101.074 13.4187 101.18 12.8747 101.394 12.368C101.607 11.856 101.903 11.408 102.282 11.024C102.66 10.6347 103.1 10.3307 103.602 10.112C104.103 9.89333 104.636 9.784 105.202 9.784C105.746 9.784 106.223 9.90933 106.634 10.16C107.044 10.4053 107.38 10.7333 107.642 11.144V10ZM105.218 16.6C105.682 16.6 106.087 16.4827 106.434 16.248C106.78 16.008 107.05 15.6907 107.242 15.296C107.434 14.9013 107.53 14.4693 107.53 14C107.53 13.52 107.431 13.0853 107.234 12.696C107.042 12.3013 106.772 11.9867 106.426 11.752C106.079 11.512 105.676 11.392 105.218 11.392C104.77 11.392 104.359 11.5093 103.986 11.744C103.618 11.9787 103.324 12.2933 103.106 12.688C102.887 13.0827 102.778 13.52 102.778 14C102.778 14.48 102.887 14.9173 103.106 15.312C103.33 15.7067 103.626 16.0213 103.994 16.256C104.367 16.4853 104.775 16.6 105.218 16.6ZM117.309 10H118.973V18H117.301L117.237 16.84C117.002 17.2507 116.685 17.5813 116.285 17.832C115.885 18.0827 115.413 18.208 114.869 18.208C114.282 18.208 113.73 18.0987 113.213 17.88C112.696 17.656 112.24 17.3467 111.845 16.952C111.456 16.5573 111.152 16.104 110.933 15.592C110.714 15.0747 110.605 14.52 110.605 13.928C110.605 13.3573 110.712 12.8213 110.925 12.32C111.138 11.8133 111.434 11.3707 111.813 10.992C112.192 10.6133 112.629 10.3173 113.125 10.104C113.626 9.88533 114.162 9.776 114.733 9.776C115.314 9.776 115.826 9.90933 116.269 10.176C116.717 10.4373 117.088 10.7733 117.381 11.184L117.309 10ZM114.829 16.6C115.298 16.6 115.709 16.4853 116.061 16.256C116.413 16.0213 116.685 15.7067 116.877 15.312C117.074 14.9173 117.173 14.48 117.173 14C117.173 13.5147 117.074 13.0747 116.877 12.68C116.68 12.2853 116.405 11.9733 116.053 11.744C115.706 11.5093 115.298 11.392 114.829 11.392C114.365 11.392 113.941 11.5093 113.557 11.744C113.173 11.9787 112.869 12.2933 112.645 12.688C112.421 13.0827 112.309 13.52 112.309 14C112.309 14.4853 112.424 14.9253 112.653 15.32C112.888 15.7093 113.194 16.0213 113.573 16.256C113.957 16.4853 114.376 16.6 114.829 16.6ZM127.832 12.984V18H126.168V13.392C126.168 13.0347 126.08 12.7093 125.904 12.416C125.733 12.1227 125.501 11.8907 125.208 11.72C124.92 11.544 124.595 11.456 124.232 11.456C123.88 11.456 123.557 11.544 123.264 11.72C122.971 11.8907 122.736 12.1227 122.56 12.416C122.384 12.7093 122.296 13.0347 122.296 13.392V18H120.632V6H122.296V10.848C122.573 10.5173 122.915 10.256 123.32 10.064C123.725 9.872 124.163 9.776 124.632 9.776C125.224 9.776 125.763 9.92 126.248 10.208C126.733 10.496 127.117 10.8827 127.4 11.368C127.688 11.8533 127.832 12.392 127.832 12.984ZM129.109 18.896L129.605 16.192H131.269L130.213 18.896H129.109ZM137.278 18V6.8H138.942V18H137.278ZM148.301 12.984V18H146.637V13.392C146.637 13.0347 146.549 12.7093 146.373 12.416C146.202 12.1227 145.97 11.8907 145.677 11.72C145.389 11.544 145.063 11.456 144.701 11.456C144.349 11.456 144.026 11.544 143.733 11.72C143.439 11.8907 143.205 12.1227 143.029 12.416C142.853 12.7093 142.765 13.0347 142.765 13.392V18H141.101V10H142.765V10.848C143.042 10.5173 143.383 10.256 143.789 10.064C144.194 9.872 144.631 9.776 145.101 9.776C145.693 9.776 146.231 9.92 146.717 10.208C147.202 10.496 147.586 10.8827 147.869 11.368C148.157 11.8533 148.301 12.392 148.301 12.984ZM155.973 6H157.637V18H155.973V16.824C155.712 17.24 155.371 17.576 154.949 17.832C154.528 18.0827 154.035 18.208 153.469 18.208C152.888 18.208 152.344 18.0987 151.837 17.88C151.331 17.6613 150.883 17.36 150.493 16.976C150.109 16.5867 149.808 16.1387 149.589 15.632C149.371 15.1253 149.261 14.5813 149.261 14C149.261 13.4187 149.371 12.8747 149.589 12.368C149.808 11.856 150.109 11.408 150.493 11.024C150.883 10.6347 151.331 10.3307 151.837 10.112C152.344 9.89333 152.888 9.784 153.469 9.784C154.035 9.784 154.528 9.912 154.949 10.168C155.371 10.4187 155.712 10.7493 155.973 11.16V6ZM153.485 16.6C153.955 16.6 154.365 16.4853 154.717 16.256C155.069 16.0213 155.341 15.7067 155.533 15.312C155.731 14.9173 155.829 14.48 155.829 14C155.829 13.5147 155.731 13.0747 155.533 12.68C155.336 12.2853 155.061 11.9733 154.709 11.744C154.363 11.5093 153.955 11.392 153.485 11.392C153.021 11.392 152.597 11.5093 152.213 11.744C151.835 11.9787 151.531 12.2933 151.301 12.688C151.077 13.0827 150.965 13.52 150.965 14C150.965 14.4853 151.08 14.9253 151.309 15.32C151.544 15.7093 151.851 16.0213 152.229 16.256C152.613 16.4853 153.032 16.6 153.485 16.6ZM162.964 18.208C162.228 18.208 161.556 18.0187 160.948 17.64C160.346 17.2613 159.863 16.7547 159.5 16.12C159.143 15.48 158.964 14.7733 158.964 14C158.964 13.4133 159.068 12.8667 159.276 12.36C159.484 11.848 159.77 11.4 160.132 11.016C160.5 10.6267 160.927 10.3227 161.412 10.104C161.898 9.88533 162.415 9.776 162.964 9.776C163.7 9.776 164.37 9.96533 164.972 10.344C165.58 10.7227 166.063 11.232 166.42 11.872C166.783 12.512 166.964 13.2213 166.964 14C166.964 14.5813 166.86 15.1253 166.652 15.632C166.444 16.1387 166.156 16.5867 165.788 16.976C165.426 17.36 165.002 17.6613 164.516 17.88C164.036 18.0987 163.519 18.208 162.964 18.208ZM162.964 16.544C163.407 16.544 163.804 16.4267 164.156 16.192C164.508 15.9573 164.786 15.648 164.988 15.264C165.196 14.8747 165.3 14.4533 165.3 14C165.3 13.536 165.194 13.1093 164.98 12.72C164.772 12.3307 164.492 12.0213 164.14 11.792C163.788 11.5573 163.396 11.44 162.964 11.44C162.527 11.44 162.13 11.5573 161.772 11.792C161.42 12.0267 161.14 12.3387 160.932 12.728C160.73 13.1173 160.628 13.5413 160.628 14C160.628 14.4747 160.735 14.904 160.948 15.288C161.162 15.672 161.444 15.9787 161.796 16.208C162.154 16.432 162.543 16.544 162.964 16.544ZM175.457 12.984V18H173.793V13.392C173.793 13.0347 173.705 12.7093 173.529 12.416C173.358 12.1227 173.126 11.8907 172.833 11.72C172.545 11.544 172.22 11.456 171.857 11.456C171.505 11.456 171.182 11.544 170.889 11.72C170.596 11.8907 170.361 12.1227 170.185 12.416C170.009 12.7093 169.921 13.0347 169.921 13.392V18H168.257V10H169.921V10.848C170.198 10.5173 170.54 10.256 170.945 10.064C171.35 9.872 171.788 9.776 172.257 9.776C172.849 9.776 173.388 9.92 173.873 10.208C174.358 10.496 174.742 10.8827 175.025 11.368C175.313 11.8533 175.457 12.392 175.457 12.984ZM180.418 18.208C179.682 18.208 179.01 18.0187 178.402 17.64C177.799 17.2613 177.316 16.7547 176.954 16.12C176.596 15.48 176.418 14.7733 176.418 14C176.418 13.4133 176.522 12.8667 176.73 12.36C176.938 11.848 177.223 11.4 177.586 11.016C177.954 10.6267 178.38 10.3227 178.866 10.104C179.351 9.88533 179.868 9.776 180.418 9.776C181.031 9.776 181.594 9.904 182.106 10.16C182.618 10.4107 183.055 10.76 183.418 11.208C183.78 11.6507 184.047 12.1627 184.218 12.744C184.388 13.32 184.439 13.9333 184.37 14.584H178.202C178.271 14.952 178.404 15.2853 178.602 15.584C178.804 15.8773 179.06 16.1093 179.37 16.28C179.684 16.4507 180.034 16.5387 180.418 16.544C180.823 16.544 181.191 16.4427 181.522 16.24C181.858 16.0373 182.132 15.7573 182.346 15.4L184.034 15.792C183.714 16.5013 183.231 17.0827 182.586 17.536C181.94 17.984 181.218 18.208 180.418 18.208ZM178.146 13.312H182.69C182.636 12.928 182.5 12.5813 182.282 12.272C182.068 11.9573 181.799 11.7093 181.474 11.528C181.154 11.3413 180.802 11.248 180.418 11.248C180.039 11.248 179.687 11.3387 179.362 11.52C179.042 11.7013 178.775 11.9493 178.562 12.264C178.354 12.5733 178.215 12.9227 178.146 13.312ZM188.126 18.152C187.704 18.1253 187.294 18.04 186.894 17.896C186.494 17.752 186.142 17.5573 185.838 17.312C185.539 17.0613 185.315 16.768 185.166 16.432L186.582 15.824C186.651 15.968 186.771 16.1093 186.942 16.248C187.118 16.3867 187.323 16.5013 187.558 16.592C187.792 16.6773 188.038 16.72 188.294 16.72C188.544 16.72 188.776 16.6853 188.99 16.616C189.208 16.5413 189.387 16.4293 189.526 16.28C189.664 16.1307 189.734 15.952 189.734 15.744C189.734 15.5093 189.654 15.328 189.494 15.2C189.339 15.0667 189.144 14.9653 188.91 14.896C188.675 14.8267 188.44 14.76 188.206 14.696C187.683 14.5787 187.203 14.4187 186.766 14.216C186.334 14.008 185.99 13.744 185.734 13.424C185.478 13.0987 185.35 12.7013 185.35 12.232C185.35 11.72 185.488 11.2773 185.766 10.904C186.043 10.5253 186.406 10.2347 186.854 10.032C187.307 9.82933 187.79 9.728 188.302 9.728C188.942 9.728 189.528 9.864 190.062 10.136C190.595 10.408 191.003 10.7813 191.286 11.256L189.966 12.04C189.886 11.88 189.766 11.736 189.606 11.608C189.446 11.48 189.264 11.3787 189.062 11.304C188.859 11.224 188.648 11.1787 188.43 11.168C188.158 11.1573 187.904 11.1893 187.67 11.264C187.44 11.3333 187.256 11.4453 187.118 11.6C186.979 11.7547 186.91 11.952 186.91 12.192C186.91 12.4267 186.992 12.6027 187.158 12.72C187.323 12.832 187.531 12.9227 187.782 12.992C188.038 13.0613 188.299 13.1387 188.566 13.224C189.04 13.3733 189.486 13.5573 189.902 13.776C190.318 13.9893 190.654 14.2533 190.91 14.568C191.166 14.8827 191.288 15.2667 191.278 15.72C191.278 16.2213 191.126 16.6613 190.822 17.04C190.523 17.4187 190.134 17.7067 189.654 17.904C189.174 18.1013 188.664 18.184 188.126 18.152ZM192.507 10H194.171V18H192.507V10ZM193.355 8.84C193.099 8.84 192.886 8.75733 192.715 8.592C192.544 8.42667 192.459 8.21867 192.459 7.968C192.459 7.72267 192.544 7.51733 192.715 7.352C192.886 7.18133 193.096 7.096 193.347 7.096C193.592 7.096 193.8 7.18133 193.971 7.352C194.142 7.51733 194.227 7.72267 194.227 7.968C194.227 8.21867 194.142 8.42667 193.971 8.592C193.806 8.75733 193.6 8.84 193.355 8.84ZM202.168 10H203.832V18H202.16L202.096 16.84C201.862 17.2507 201.544 17.5813 201.144 17.832C200.744 18.0827 200.272 18.208 199.728 18.208C199.142 18.208 198.59 18.0987 198.072 17.88C197.555 17.656 197.099 17.3467 196.704 16.952C196.315 16.5573 196.011 16.104 195.792 15.592C195.574 15.0747 195.464 14.52 195.464 13.928C195.464 13.3573 195.571 12.8213 195.784 12.32C195.998 11.8133 196.294 11.3707 196.672 10.992C197.051 10.6133 197.488 10.3173 197.984 10.104C198.486 9.88533 199.022 9.776 199.592 9.776C200.174 9.776 200.686 9.90933 201.128 10.176C201.576 10.4373 201.947 10.7733 202.24 11.184L202.168 10ZM199.688 16.6C200.158 16.6 200.568 16.4853 200.92 16.256C201.272 16.0213 201.544 15.7067 201.736 15.312C201.934 14.9173 202.032 14.48 202.032 14C202.032 13.5147 201.934 13.0747 201.736 12.68C201.539 12.2853 201.264 11.9733 200.912 11.744C200.566 11.5093 200.158 11.392 199.688 11.392C199.224 11.392 198.8 11.5093 198.416 11.744C198.032 11.9787 197.728 12.2933 197.504 12.688C197.28 13.0827 197.168 13.52 197.168 14C197.168 14.4853 197.283 14.9253 197.512 15.32C197.747 15.7093 198.054 16.0213 198.432 16.256C198.816 16.4853 199.235 16.6 199.688 16.6Z" fill="#262626"/>
</g>
</svg>
