<svg width="331" height="32" viewBox="0 0 331 32" fill="none" xmlns="http://www.w3.org/2000/svg">
<g opacity="0.7">
<path fill-rule="evenodd" clip-rule="evenodd" d="M3.5 14.3178C3.5 9.71789 7.34388 6 11.9934 6C16.6561 6 20.5 9.71789 20.5 14.3178C20.5 16.6357 19.657 18.7876 18.2695 20.6116C16.7388 22.6235 14.8522 24.3765 12.7285 25.7524C12.2425 26.0704 11.8039 26.0944 11.2704 25.7524C9.13474 24.3765 7.24809 22.6235 5.7305 20.6116C4.34198 18.7876 3.5 16.6357 3.5 14.3178ZM9.19423 14.5768C9.19423 16.1177 10.4517 17.3297 11.9934 17.3297C13.5362 17.3297 14.8058 16.1177 14.8058 14.5768C14.8058 13.0478 13.5362 11.7768 11.9934 11.7768C10.4517 11.7768 9.19423 13.0478 9.19423 14.5768Z" fill="#25A59E"/>
<path d="M33.08 22V9.4H37.418C38.096 9.4 38.708 9.568 39.254 9.904C39.806 10.24 40.244 10.693 40.568 11.263C40.898 11.833 41.063 12.463 41.063 13.153C41.063 13.855 40.895 14.491 40.559 15.061C40.229 15.625 39.788 16.075 39.236 16.411C38.684 16.747 38.078 16.915 37.418 16.915H34.952V22H33.08ZM34.952 15.043H37.229C37.589 15.043 37.916 14.953 38.21 14.773C38.51 14.593 38.747 14.353 38.921 14.053C39.101 13.753 39.191 13.414 39.191 13.036C39.191 12.658 39.101 12.319 38.921 12.019C38.747 11.713 38.51 11.473 38.21 11.299C37.916 11.119 37.589 11.029 37.229 11.029H34.952V15.043ZM49.0996 13H50.9716V22H49.0906L49.0186 20.695C48.7546 21.157 48.3976 21.529 47.9476 21.811C47.4976 22.093 46.9666 22.234 46.3546 22.234C45.6946 22.234 45.0736 22.111 44.4916 21.865C43.9096 21.613 43.3966 21.265 42.9526 20.821C42.5146 20.377 42.1726 19.867 41.9266 19.291C41.6806 18.709 41.5576 18.085 41.5576 17.419C41.5576 16.777 41.6776 16.174 41.9176 15.61C42.1576 15.04 42.4906 14.542 42.9166 14.116C43.3426 13.69 43.8346 13.357 44.3926 13.117C44.9566 12.871 45.5596 12.748 46.2016 12.748C46.8556 12.748 47.4316 12.898 47.9296 13.198C48.4336 13.492 48.8506 13.87 49.1806 14.332L49.0996 13ZM46.3096 20.425C46.8376 20.425 47.2996 20.296 47.6956 20.038C48.0916 19.774 48.3976 19.42 48.6136 18.976C48.8356 18.532 48.9466 18.04 48.9466 17.5C48.9466 16.954 48.8356 16.459 48.6136 16.015C48.3916 15.571 48.0826 15.22 47.6866 14.962C47.2966 14.698 46.8376 14.566 46.3096 14.566C45.7876 14.566 45.3106 14.698 44.8786 14.962C44.4466 15.226 44.1046 15.58 43.8526 16.024C43.6006 16.468 43.4746 16.96 43.4746 17.5C43.4746 18.046 43.6036 18.541 43.8616 18.985C44.1256 19.423 44.4706 19.774 44.8966 20.038C45.3286 20.296 45.7996 20.425 46.3096 20.425ZM55.4675 22.171C54.9935 22.141 54.5315 22.045 54.0815 21.883C53.6315 21.721 53.2355 21.502 52.8935 21.226C52.5575 20.944 52.3055 20.614 52.1375 20.236L53.7305 19.552C53.8085 19.714 53.9435 19.873 54.1355 20.029C54.3335 20.185 54.5645 20.314 54.8285 20.416C55.0925 20.512 55.3685 20.56 55.6565 20.56C55.9385 20.56 56.1995 20.521 56.4395 20.443C56.6855 20.359 56.8865 20.233 57.0425 20.065C57.1985 19.897 57.2765 19.696 57.2765 19.462C57.2765 19.198 57.1865 18.994 57.0065 18.85C56.8325 18.7 56.6135 18.586 56.3495 18.508C56.0855 18.43 55.8215 18.355 55.5575 18.283C54.9695 18.151 54.4295 17.971 53.9375 17.743C53.4515 17.509 53.0645 17.212 52.7765 16.852C52.4885 16.486 52.3445 16.039 52.3445 15.511C52.3445 14.935 52.5005 14.437 52.8125 14.017C53.1245 13.591 53.5325 13.264 54.0365 13.036C54.5465 12.808 55.0895 12.694 55.6655 12.694C56.3855 12.694 57.0455 12.847 57.6455 13.153C58.2455 13.459 58.7045 13.879 59.0225 14.413L57.5375 15.295C57.4475 15.115 57.3125 14.953 57.1325 14.809C56.9525 14.665 56.7485 14.551 56.5205 14.467C56.2925 14.377 56.0555 14.326 55.8095 14.314C55.5035 14.302 55.2185 14.338 54.9545 14.422C54.6965 14.5 54.4895 14.626 54.3335 14.8C54.1775 14.974 54.0995 15.196 54.0995 15.466C54.0995 15.73 54.1925 15.928 54.3785 16.06C54.5645 16.186 54.7985 16.288 55.0805 16.366C55.3685 16.444 55.6625 16.531 55.9625 16.627C56.4965 16.795 56.9975 17.002 57.4655 17.248C57.9335 17.488 58.3115 17.785 58.5995 18.139C58.8875 18.493 59.0255 18.925 59.0135 19.435C59.0135 19.999 58.8425 20.494 58.5005 20.92C58.1645 21.346 57.7265 21.67 57.1865 21.892C56.6465 22.114 56.0735 22.207 55.4675 22.171ZM60.1946 18.625V13H62.0666V18.166C62.0666 18.568 62.1656 18.934 62.3636 19.264C62.5616 19.594 62.8256 19.858 63.1556 20.056C63.4856 20.248 63.8486 20.344 64.2446 20.344C64.6466 20.344 65.0096 20.248 65.3336 20.056C65.6636 19.858 65.9246 19.594 66.1166 19.264C66.3146 18.934 66.4136 18.568 66.4136 18.166V13H68.2856L68.2946 22H66.4226L66.4136 21.028C66.1076 21.4 65.7266 21.694 65.2706 21.91C64.8146 22.126 64.3256 22.234 63.8036 22.234C63.1376 22.234 62.5316 22.072 61.9856 21.748C61.4396 21.424 61.0046 20.989 60.6806 20.443C60.3566 19.897 60.1946 19.291 60.1946 18.625ZM70.0995 22V13H71.9715V13.954C72.2835 13.582 72.6675 13.288 73.1235 13.072C73.5795 12.856 74.0715 12.748 74.5995 12.748C74.9355 12.748 75.2685 12.793 75.5985 12.883L74.8515 14.773C74.6175 14.683 74.3835 14.638 74.1495 14.638C73.7535 14.638 73.3905 14.737 73.0605 14.935C72.7305 15.127 72.4665 15.388 72.2685 15.718C72.0705 16.048 71.9715 16.414 71.9715 16.816V22H70.0995ZM76.3313 18.625V13H78.2033V18.166C78.2033 18.568 78.3023 18.934 78.5003 19.264C78.6983 19.594 78.9623 19.858 79.2923 20.056C79.6223 20.248 79.9853 20.344 80.3813 20.344C80.7833 20.344 81.1463 20.248 81.4703 20.056C81.8003 19.858 82.0613 19.594 82.2533 19.264C82.4513 18.934 82.5503 18.568 82.5503 18.166V13H84.4223L84.4313 22H82.5593L82.5503 21.028C82.2443 21.4 81.8633 21.694 81.4073 21.91C80.9513 22.126 80.4623 22.234 79.9403 22.234C79.2743 22.234 78.6683 22.072 78.1223 21.748C77.5763 21.424 77.1413 20.989 76.8173 20.443C76.4933 19.897 76.3313 19.291 76.3313 18.625ZM93.1152 13H94.9872V22H93.1062L93.0342 20.695C92.7702 21.157 92.4132 21.529 91.9632 21.811C91.5132 22.093 90.9822 22.234 90.3702 22.234C89.7102 22.234 89.0892 22.111 88.5072 21.865C87.9252 21.613 87.4122 21.265 86.9682 20.821C86.5302 20.377 86.1882 19.867 85.9422 19.291C85.6962 18.709 85.5732 18.085 85.5732 17.419C85.5732 16.777 85.6932 16.174 85.9332 15.61C86.1732 15.04 86.5062 14.542 86.9322 14.116C87.3582 13.69 87.8502 13.357 88.4082 13.117C88.9722 12.871 89.5752 12.748 90.2172 12.748C90.8712 12.748 91.4472 12.898 91.9452 13.198C92.4492 13.492 92.8662 13.87 93.1962 14.332L93.1152 13ZM90.3252 20.425C90.8532 20.425 91.3152 20.296 91.7112 20.038C92.1072 19.774 92.4132 19.42 92.6292 18.976C92.8512 18.532 92.9622 18.04 92.9622 17.5C92.9622 16.954 92.8512 16.459 92.6292 16.015C92.4072 15.571 92.0982 15.22 91.7022 14.962C91.3122 14.698 90.8532 14.566 90.3252 14.566C89.8032 14.566 89.3262 14.698 88.8942 14.962C88.4622 15.226 88.1202 15.58 87.8682 16.024C87.6162 16.468 87.4902 16.96 87.4902 17.5C87.4902 18.046 87.6192 18.541 87.8772 18.985C88.1412 19.423 88.4862 19.774 88.9122 20.038C89.3442 20.296 89.8152 20.425 90.3252 20.425ZM104.883 16.357V22H103.011V16.816C103.011 16.414 102.912 16.048 102.714 15.718C102.522 15.388 102.261 15.127 101.931 14.935C101.607 14.737 101.241 14.638 100.833 14.638C100.437 14.638 100.074 14.737 99.7441 14.935C99.4141 15.127 99.1501 15.388 98.9521 15.718C98.7541 16.048 98.6551 16.414 98.6551 16.816V22H96.7831V13H98.6551V13.954C98.9671 13.582 99.3511 13.288 99.8071 13.072C100.263 12.856 100.755 12.748 101.283 12.748C101.949 12.748 102.555 12.91 103.101 13.234C103.647 13.558 104.079 13.993 104.397 14.539C104.721 15.085 104.883 15.691 104.883 16.357ZM106.32 23.008L106.878 19.966H108.75L107.562 23.008H106.32ZM115.51 22V9.4H117.382V22H115.51ZM127.91 16.357V22H126.038V16.816C126.038 16.414 125.939 16.048 125.741 15.718C125.549 15.388 125.288 15.127 124.958 14.935C124.634 14.737 124.268 14.638 123.86 14.638C123.464 14.638 123.101 14.737 122.771 14.935C122.441 15.127 122.177 15.388 121.979 15.718C121.781 16.048 121.682 16.414 121.682 16.816V22H119.81V13H121.682V13.954C121.994 13.582 122.378 13.288 122.834 13.072C123.29 12.856 123.782 12.748 124.31 12.748C124.976 12.748 125.582 12.91 126.128 13.234C126.674 13.558 127.106 13.993 127.424 14.539C127.748 15.085 127.91 15.691 127.91 16.357ZM136.542 8.5H138.414V22H136.542V20.677C136.248 21.145 135.864 21.523 135.39 21.811C134.916 22.093 134.361 22.234 133.725 22.234C133.071 22.234 132.459 22.111 131.889 21.865C131.319 21.619 130.815 21.28 130.377 20.848C129.945 20.41 129.606 19.906 129.36 19.336C129.114 18.766 128.991 18.154 128.991 17.5C128.991 16.846 129.114 16.234 129.36 15.664C129.606 15.088 129.945 14.584 130.377 14.152C130.815 13.714 131.319 13.372 131.889 13.126C132.459 12.88 133.071 12.757 133.725 12.757C134.361 12.757 134.916 12.901 135.39 13.189C135.864 13.471 136.248 13.843 136.542 14.305V8.5ZM133.743 20.425C134.271 20.425 134.733 20.296 135.129 20.038C135.525 19.774 135.831 19.42 136.047 18.976C136.269 18.532 136.38 18.04 136.38 17.5C136.38 16.954 136.269 16.459 136.047 16.015C135.825 15.571 135.516 15.22 135.12 14.962C134.73 14.698 134.271 14.566 133.743 14.566C133.221 14.566 132.744 14.698 132.312 14.962C131.886 15.226 131.544 15.58 131.286 16.024C131.034 16.468 130.908 16.96 130.908 17.5C130.908 18.046 131.037 18.541 131.295 18.985C131.559 19.423 131.904 19.774 132.33 20.038C132.762 20.296 133.233 20.425 133.743 20.425ZM144.407 22.234C143.579 22.234 142.823 22.021 142.139 21.595C141.461 21.169 140.918 20.599 140.51 19.885C140.108 19.165 139.907 18.37 139.907 17.5C139.907 16.84 140.024 16.225 140.258 15.655C140.492 15.079 140.813 14.575 141.221 14.143C141.635 13.705 142.115 13.363 142.661 13.117C143.207 12.871 143.789 12.748 144.407 12.748C145.235 12.748 145.988 12.961 146.666 13.387C147.35 13.813 147.893 14.386 148.295 15.106C148.703 15.826 148.907 16.624 148.907 17.5C148.907 18.154 148.79 18.766 148.556 19.336C148.322 19.906 147.998 20.41 147.584 20.848C147.176 21.28 146.699 21.619 146.153 21.865C145.613 22.111 145.031 22.234 144.407 22.234ZM144.407 20.362C144.905 20.362 145.352 20.23 145.748 19.966C146.144 19.702 146.456 19.354 146.684 18.922C146.918 18.484 147.035 18.01 147.035 17.5C147.035 16.978 146.915 16.498 146.675 16.06C146.441 15.622 146.126 15.274 145.73 15.016C145.334 14.752 144.893 14.62 144.407 14.62C143.915 14.62 143.468 14.752 143.066 15.016C142.67 15.28 142.355 15.631 142.121 16.069C141.893 16.507 141.779 16.984 141.779 17.5C141.779 18.034 141.899 18.517 142.139 18.949C142.379 19.381 142.697 19.726 143.093 19.984C143.495 20.236 143.933 20.362 144.407 20.362ZM158.461 16.357V22H156.589V16.816C156.589 16.414 156.49 16.048 156.292 15.718C156.1 15.388 155.839 15.127 155.509 14.935C155.185 14.737 154.819 14.638 154.411 14.638C154.015 14.638 153.652 14.737 153.322 14.935C152.992 15.127 152.728 15.388 152.53 15.718C152.332 16.048 152.233 16.414 152.233 16.816V22H150.361V13H152.233V13.954C152.545 13.582 152.929 13.288 153.385 13.072C153.841 12.856 154.333 12.748 154.861 12.748C155.527 12.748 156.133 12.91 156.679 13.234C157.225 13.558 157.657 13.993 157.975 14.539C158.299 15.085 158.461 15.691 158.461 16.357ZM164.042 22.234C163.214 22.234 162.458 22.021 161.774 21.595C161.096 21.169 160.553 20.599 160.145 19.885C159.743 19.165 159.542 18.37 159.542 17.5C159.542 16.84 159.659 16.225 159.893 15.655C160.127 15.079 160.448 14.575 160.856 14.143C161.27 13.705 161.75 13.363 162.296 13.117C162.842 12.871 163.424 12.748 164.042 12.748C164.732 12.748 165.365 12.892 165.941 13.18C166.517 13.462 167.009 13.855 167.417 14.359C167.825 14.857 168.125 15.433 168.317 16.087C168.509 16.735 168.566 17.425 168.488 18.157H161.549C161.627 18.571 161.777 18.946 161.999 19.282C162.227 19.612 162.515 19.873 162.863 20.065C163.217 20.257 163.61 20.356 164.042 20.362C164.498 20.362 164.912 20.248 165.284 20.02C165.662 19.792 165.971 19.477 166.211 19.075L168.11 19.516C167.75 20.314 167.207 20.968 166.481 21.478C165.755 21.982 164.942 22.234 164.042 22.234ZM161.486 16.726H166.598C166.538 16.294 166.385 15.904 166.139 15.556C165.899 15.202 165.596 14.923 165.23 14.719C164.87 14.509 164.474 14.404 164.042 14.404C163.616 14.404 163.22 14.506 162.854 14.71C162.494 14.914 162.194 15.193 161.954 15.547C161.72 15.895 161.564 16.288 161.486 16.726ZM172.714 22.171C172.24 22.141 171.778 22.045 171.328 21.883C170.878 21.721 170.482 21.502 170.14 21.226C169.804 20.944 169.552 20.614 169.384 20.236L170.977 19.552C171.055 19.714 171.19 19.873 171.382 20.029C171.58 20.185 171.811 20.314 172.075 20.416C172.339 20.512 172.615 20.56 172.903 20.56C173.185 20.56 173.446 20.521 173.686 20.443C173.932 20.359 174.133 20.233 174.289 20.065C174.445 19.897 174.523 19.696 174.523 19.462C174.523 19.198 174.433 18.994 174.253 18.85C174.079 18.7 173.86 18.586 173.596 18.508C173.332 18.43 173.068 18.355 172.804 18.283C172.216 18.151 171.676 17.971 171.184 17.743C170.698 17.509 170.311 17.212 170.023 16.852C169.735 16.486 169.591 16.039 169.591 15.511C169.591 14.935 169.747 14.437 170.059 14.017C170.371 13.591 170.779 13.264 171.283 13.036C171.793 12.808 172.336 12.694 172.912 12.694C173.632 12.694 174.292 12.847 174.892 13.153C175.492 13.459 175.951 13.879 176.269 14.413L174.784 15.295C174.694 15.115 174.559 14.953 174.379 14.809C174.199 14.665 173.995 14.551 173.767 14.467C173.539 14.377 173.302 14.326 173.056 14.314C172.75 14.302 172.465 14.338 172.201 14.422C171.943 14.5 171.736 14.626 171.58 14.8C171.424 14.974 171.346 15.196 171.346 15.466C171.346 15.73 171.439 15.928 171.625 16.06C171.811 16.186 172.045 16.288 172.327 16.366C172.615 16.444 172.909 16.531 173.209 16.627C173.743 16.795 174.244 17.002 174.712 17.248C175.18 17.488 175.558 17.785 175.846 18.139C176.134 18.493 176.272 18.925 176.26 19.435C176.26 19.999 176.089 20.494 175.747 20.92C175.411 21.346 174.973 21.67 174.433 21.892C173.893 22.114 173.32 22.207 172.714 22.171ZM177.643 13H179.515V22H177.643V13ZM178.597 11.695C178.309 11.695 178.069 11.602 177.877 11.416C177.685 11.23 177.589 10.996 177.589 10.714C177.589 10.438 177.685 10.207 177.877 10.021C178.069 9.829 178.306 9.733 178.588 9.733C178.864 9.733 179.098 9.829 179.29 10.021C179.482 10.207 179.578 10.438 179.578 10.714C179.578 10.996 179.482 11.23 179.29 11.416C179.104 11.602 178.873 11.695 178.597 11.695ZM188.512 13H190.384V22H188.503L188.431 20.695C188.167 21.157 187.81 21.529 187.36 21.811C186.91 22.093 186.379 22.234 185.767 22.234C185.107 22.234 184.486 22.111 183.904 21.865C183.322 21.613 182.809 21.265 182.365 20.821C181.927 20.377 181.585 19.867 181.339 19.291C181.093 18.709 180.97 18.085 180.97 17.419C180.97 16.777 181.09 16.174 181.33 15.61C181.57 15.04 181.903 14.542 182.329 14.116C182.755 13.69 183.247 13.357 183.805 13.117C184.369 12.871 184.972 12.748 185.614 12.748C186.268 12.748 186.844 12.898 187.342 13.198C187.846 13.492 188.263 13.87 188.593 14.332L188.512 13ZM185.722 20.425C186.25 20.425 186.712 20.296 187.108 20.038C187.504 19.774 187.81 19.42 188.026 18.976C188.248 18.532 188.359 18.04 188.359 17.5C188.359 16.954 188.248 16.459 188.026 16.015C187.804 15.571 187.495 15.22 187.099 14.962C186.709 14.698 186.25 14.566 185.722 14.566C185.2 14.566 184.723 14.698 184.291 14.962C183.859 15.226 183.517 15.58 183.265 16.024C183.013 16.468 182.887 16.96 182.887 17.5C182.887 18.046 183.016 18.541 183.274 18.985C183.538 19.423 183.883 19.774 184.309 20.038C184.741 20.296 185.212 20.425 185.722 20.425Z" fill="#262626"/>
</g>
</svg>
