<svg width="331" height="32" viewBox="0 0 331 32" fill="none" xmlns="http://www.w3.org/2000/svg">
<g opacity="0.7">
<path fill-rule="evenodd" clip-rule="evenodd" d="M3.5 14.3178C3.5 9.71789 7.34388 6 11.9934 6C16.6561 6 20.5 9.71789 20.5 14.3178C20.5 16.6357 19.657 18.7876 18.2695 20.6116C16.7388 22.6235 14.8522 24.3765 12.7285 25.7524C12.2425 26.0704 11.8039 26.0944 11.2704 25.7524C9.13474 24.3765 7.24809 22.6235 5.7305 20.6116C4.34198 18.7876 3.5 16.6357 3.5 14.3178ZM9.19423 14.5768C9.19423 16.1177 10.4517 17.3297 11.9934 17.3297C13.5362 17.3297 14.8058 16.1177 14.8058 14.5768C14.8058 13.0478 13.5362 11.7768 11.9934 11.7768C10.4517 11.7768 9.19423 13.0478 9.19423 14.5768Z" fill="#25A59E"/>
<path d="M38.912 22.234C38.06 22.234 37.259 22.066 36.509 21.73C35.759 21.388 35.099 20.92 34.529 20.326C33.965 19.726 33.521 19.03 33.197 18.238C32.879 17.446 32.72 16.6 32.72 15.7C32.72 14.8 32.879 13.954 33.197 13.162C33.521 12.37 33.965 11.677 34.529 11.083C35.099 10.483 35.759 10.015 36.509 9.679C37.259 9.337 38.06 9.166 38.912 9.166C39.932 9.166 40.871 9.403 41.729 9.877C42.587 10.351 43.298 10.981 43.862 11.767L42.197 12.658C41.807 12.166 41.324 11.773 40.748 11.479C40.172 11.185 39.56 11.038 38.912 11.038C38.312 11.038 37.751 11.161 37.229 11.407C36.707 11.653 36.248 11.989 35.852 12.415C35.456 12.841 35.147 13.336 34.925 13.9C34.703 14.464 34.592 15.064 34.592 15.7C34.592 16.342 34.703 16.945 34.925 17.509C35.147 18.067 35.456 18.562 35.852 18.994C36.254 19.42 36.716 19.756 37.238 20.002C37.76 20.242 38.318 20.362 38.912 20.362C39.572 20.362 40.187 20.215 40.757 19.921C41.333 19.621 41.813 19.225 42.197 18.733L43.862 19.642C43.298 20.428 42.587 21.058 41.729 21.532C40.871 22 39.932 22.234 38.912 22.234ZM52.1406 13H54.0126V22H52.1316L52.0596 20.695C51.7956 21.157 51.4386 21.529 50.9886 21.811C50.5386 22.093 50.0076 22.234 49.3956 22.234C48.7356 22.234 48.1146 22.111 47.5326 21.865C46.9506 21.613 46.4376 21.265 45.9936 20.821C45.5556 20.377 45.2136 19.867 44.9676 19.291C44.7216 18.709 44.5986 18.085 44.5986 17.419C44.5986 16.777 44.7186 16.174 44.9586 15.61C45.1986 15.04 45.5316 14.542 45.9576 14.116C46.3836 13.69 46.8756 13.357 47.4336 13.117C47.9976 12.871 48.6006 12.748 49.2426 12.748C49.8966 12.748 50.4726 12.898 50.9706 13.198C51.4746 13.492 51.8916 13.87 52.2216 14.332L52.1406 13ZM49.3506 20.425C49.8786 20.425 50.3406 20.296 50.7366 20.038C51.1326 19.774 51.4386 19.42 51.6546 18.976C51.8766 18.532 51.9876 18.04 51.9876 17.5C51.9876 16.954 51.8766 16.459 51.6546 16.015C51.4326 15.571 51.1236 15.22 50.7276 14.962C50.3376 14.698 49.8786 14.566 49.3506 14.566C48.8286 14.566 48.3516 14.698 47.9196 14.962C47.4876 15.226 47.1456 15.58 46.8936 16.024C46.6416 16.468 46.5156 16.96 46.5156 17.5C46.5156 18.046 46.6446 18.541 46.9026 18.985C47.1666 19.423 47.5116 19.774 47.9376 20.038C48.3696 20.296 48.8406 20.425 49.3506 20.425ZM57.6805 26.5H55.8085V13H57.6805V14.323C57.9805 13.861 58.3645 13.486 58.8325 13.198C59.3005 12.91 59.8525 12.766 60.4885 12.766C61.1425 12.766 61.7545 12.889 62.3245 13.135C62.9005 13.381 63.4045 13.723 63.8365 14.161C64.2685 14.593 64.6075 15.094 64.8535 15.664C65.0995 16.234 65.2225 16.846 65.2225 17.5C65.2225 18.154 65.0995 18.769 64.8535 19.345C64.6075 19.921 64.2685 20.428 63.8365 20.866C63.4045 21.298 62.9005 21.637 62.3245 21.883C61.7545 22.129 61.1425 22.252 60.4885 22.252C59.8525 22.252 59.3005 22.108 58.8325 21.82C58.3645 21.526 57.9805 21.151 57.6805 20.695V26.5ZM60.4705 14.575C59.9485 14.575 59.4895 14.707 59.0935 14.971C58.6975 15.235 58.3885 15.589 58.1665 16.033C57.9445 16.471 57.8335 16.96 57.8335 17.5C57.8335 18.04 57.9445 18.532 58.1665 18.976C58.3885 19.42 58.6975 19.774 59.0935 20.038C59.4895 20.302 59.9485 20.434 60.4705 20.434C60.9865 20.434 61.4605 20.305 61.8925 20.047C62.3245 19.783 62.6695 19.429 62.9275 18.985C63.1855 18.541 63.3145 18.046 63.3145 17.5C63.3145 16.966 63.1855 16.477 62.9275 16.033C62.6755 15.589 62.3335 15.235 61.9015 14.971C61.4695 14.707 60.9925 14.575 60.4705 14.575ZM68.5614 26.5H66.6894V13H68.5614V14.323C68.8614 13.861 69.2454 13.486 69.7134 13.198C70.1814 12.91 70.7334 12.766 71.3694 12.766C72.0234 12.766 72.6354 12.889 73.2054 13.135C73.7814 13.381 74.2854 13.723 74.7174 14.161C75.1494 14.593 75.4884 15.094 75.7344 15.664C75.9804 16.234 76.1034 16.846 76.1034 17.5C76.1034 18.154 75.9804 18.769 75.7344 19.345C75.4884 19.921 75.1494 20.428 74.7174 20.866C74.2854 21.298 73.7814 21.637 73.2054 21.883C72.6354 22.129 72.0234 22.252 71.3694 22.252C70.7334 22.252 70.1814 22.108 69.7134 21.82C69.2454 21.526 68.8614 21.151 68.5614 20.695V26.5ZM71.3514 14.575C70.8294 14.575 70.3704 14.707 69.9744 14.971C69.5784 15.235 69.2694 15.589 69.0474 16.033C68.8254 16.471 68.7144 16.96 68.7144 17.5C68.7144 18.04 68.8254 18.532 69.0474 18.976C69.2694 19.42 69.5784 19.774 69.9744 20.038C70.3704 20.302 70.8294 20.434 71.3514 20.434C71.8674 20.434 72.3414 20.305 72.7734 20.047C73.2054 19.783 73.5504 19.429 73.8084 18.985C74.0664 18.541 74.1954 18.046 74.1954 17.5C74.1954 16.966 74.0664 16.477 73.8084 16.033C73.5564 15.589 73.2144 15.235 72.7824 14.971C72.3504 14.707 71.8734 14.575 71.3514 14.575ZM84.5547 13H86.4267V22H84.5457L84.4737 20.695C84.2097 21.157 83.8527 21.529 83.4027 21.811C82.9527 22.093 82.4217 22.234 81.8097 22.234C81.1497 22.234 80.5287 22.111 79.9467 21.865C79.3647 21.613 78.8517 21.265 78.4077 20.821C77.9697 20.377 77.6277 19.867 77.3817 19.291C77.1357 18.709 77.0127 18.085 77.0127 17.419C77.0127 16.777 77.1327 16.174 77.3727 15.61C77.6127 15.04 77.9457 14.542 78.3717 14.116C78.7977 13.69 79.2897 13.357 79.8477 13.117C80.4117 12.871 81.0147 12.748 81.6567 12.748C82.3107 12.748 82.8867 12.898 83.3847 13.198C83.8887 13.492 84.3057 13.87 84.6357 14.332L84.5547 13ZM81.7647 20.425C82.2927 20.425 82.7547 20.296 83.1507 20.038C83.5467 19.774 83.8527 19.42 84.0687 18.976C84.2907 18.532 84.4017 18.04 84.4017 17.5C84.4017 16.954 84.2907 16.459 84.0687 16.015C83.8467 15.571 83.5377 15.22 83.1417 14.962C82.7517 14.698 82.2927 14.566 81.7647 14.566C81.2427 14.566 80.7657 14.698 80.3337 14.962C79.9017 15.226 79.5597 15.58 79.3077 16.024C79.0557 16.468 78.9297 16.96 78.9297 17.5C78.9297 18.046 79.0587 18.541 79.3167 18.985C79.5807 19.423 79.9257 19.774 80.3517 20.038C80.7837 20.296 81.2547 20.425 81.7647 20.425ZM95.0578 8.5H96.9298V22H95.0578V20.677C94.7638 21.145 94.3798 21.523 93.9058 21.811C93.4318 22.093 92.8768 22.234 92.2408 22.234C91.5868 22.234 90.9748 22.111 90.4048 21.865C89.8348 21.619 89.3308 21.28 88.8928 20.848C88.4608 20.41 88.1218 19.906 87.8758 19.336C87.6298 18.766 87.5068 18.154 87.5068 17.5C87.5068 16.846 87.6298 16.234 87.8758 15.664C88.1218 15.088 88.4608 14.584 88.8928 14.152C89.3308 13.714 89.8348 13.372 90.4048 13.126C90.9748 12.88 91.5868 12.757 92.2408 12.757C92.8768 12.757 93.4318 12.901 93.9058 13.189C94.3798 13.471 94.7638 13.843 95.0578 14.305V8.5ZM92.2588 20.425C92.7868 20.425 93.2488 20.296 93.6448 20.038C94.0408 19.774 94.3468 19.42 94.5628 18.976C94.7848 18.532 94.8958 18.04 94.8958 17.5C94.8958 16.954 94.7848 16.459 94.5628 16.015C94.3408 15.571 94.0318 15.22 93.6358 14.962C93.2458 14.698 92.7868 14.566 92.2588 14.566C91.7368 14.566 91.2598 14.698 90.8278 14.962C90.4018 15.226 90.0598 15.58 89.8018 16.024C89.5498 16.468 89.4238 16.96 89.4238 17.5C89.4238 18.046 89.5528 18.541 89.8108 18.985C90.0748 19.423 90.4198 19.774 90.8458 20.038C91.2778 20.296 91.7488 20.425 92.2588 20.425ZM102.923 22.234C102.095 22.234 101.339 22.021 100.655 21.595C99.9768 21.169 99.4338 20.599 99.0258 19.885C98.6238 19.165 98.4228 18.37 98.4228 17.5C98.4228 16.84 98.5398 16.225 98.7738 15.655C99.0078 15.079 99.3288 14.575 99.7368 14.143C100.151 13.705 100.631 13.363 101.177 13.117C101.723 12.871 102.305 12.748 102.923 12.748C103.751 12.748 104.504 12.961 105.182 13.387C105.866 13.813 106.409 14.386 106.811 15.106C107.219 15.826 107.423 16.624 107.423 17.5C107.423 18.154 107.306 18.766 107.072 19.336C106.838 19.906 106.514 20.41 106.1 20.848C105.692 21.28 105.215 21.619 104.669 21.865C104.129 22.111 103.547 22.234 102.923 22.234ZM102.923 20.362C103.421 20.362 103.868 20.23 104.264 19.966C104.66 19.702 104.972 19.354 105.2 18.922C105.434 18.484 105.551 18.01 105.551 17.5C105.551 16.978 105.431 16.498 105.191 16.06C104.957 15.622 104.642 15.274 104.246 15.016C103.85 14.752 103.409 14.62 102.923 14.62C102.431 14.62 101.984 14.752 101.582 15.016C101.186 15.28 100.871 15.631 100.637 16.069C100.409 16.507 100.295 16.984 100.295 17.5C100.295 18.034 100.415 18.517 100.655 18.949C100.895 19.381 101.213 19.726 101.609 19.984C102.011 20.236 102.449 20.362 102.923 20.362ZM114.736 19.444L116.41 20.353C116.002 20.923 115.483 21.379 114.853 21.721C114.229 22.063 113.551 22.234 112.819 22.234C111.991 22.234 111.235 22.021 110.551 21.595C109.873 21.169 109.33 20.599 108.922 19.885C108.52 19.165 108.319 18.37 108.319 17.5C108.319 16.84 108.436 16.225 108.67 15.655C108.904 15.079 109.225 14.575 109.633 14.143C110.047 13.705 110.527 13.363 111.073 13.117C111.619 12.871 112.201 12.748 112.819 12.748C113.551 12.748 114.229 12.919 114.853 13.261C115.483 13.603 116.002 14.062 116.41 14.638L114.736 15.547C114.484 15.247 114.19 15.019 113.854 14.863C113.518 14.701 113.173 14.62 112.819 14.62C112.327 14.62 111.88 14.755 111.478 15.025C111.082 15.289 110.767 15.64 110.533 16.078C110.305 16.51 110.191 16.984 110.191 17.5C110.191 18.01 110.308 18.484 110.542 18.922C110.776 19.354 111.091 19.702 111.487 19.966C111.889 20.23 112.333 20.362 112.819 20.362C113.191 20.362 113.545 20.278 113.881 20.11C114.217 19.942 114.502 19.72 114.736 19.444ZM117.754 13H119.626V22H117.754V13ZM118.708 11.695C118.42 11.695 118.18 11.602 117.988 11.416C117.796 11.23 117.7 10.996 117.7 10.714C117.7 10.438 117.796 10.207 117.988 10.021C118.18 9.829 118.417 9.733 118.699 9.733C118.975 9.733 119.209 9.829 119.401 10.021C119.593 10.207 119.689 10.438 119.689 10.714C119.689 10.996 119.593 11.23 119.401 11.416C119.215 11.602 118.984 11.695 118.708 11.695ZM128.623 13H130.495V22H128.614L128.542 20.695C128.278 21.157 127.921 21.529 127.471 21.811C127.021 22.093 126.49 22.234 125.878 22.234C125.218 22.234 124.597 22.111 124.015 21.865C123.433 21.613 122.92 21.265 122.476 20.821C122.038 20.377 121.696 19.867 121.45 19.291C121.204 18.709 121.081 18.085 121.081 17.419C121.081 16.777 121.201 16.174 121.441 15.61C121.681 15.04 122.014 14.542 122.44 14.116C122.866 13.69 123.358 13.357 123.916 13.117C124.48 12.871 125.083 12.748 125.725 12.748C126.379 12.748 126.955 12.898 127.453 13.198C127.957 13.492 128.374 13.87 128.704 14.332L128.623 13ZM125.833 20.425C126.361 20.425 126.823 20.296 127.219 20.038C127.615 19.774 127.921 19.42 128.137 18.976C128.359 18.532 128.47 18.04 128.47 17.5C128.47 16.954 128.359 16.459 128.137 16.015C127.915 15.571 127.606 15.22 127.21 14.962C126.82 14.698 126.361 14.566 125.833 14.566C125.311 14.566 124.834 14.698 124.402 14.962C123.97 15.226 123.628 15.58 123.376 16.024C123.124 16.468 122.998 16.96 122.998 17.5C122.998 18.046 123.127 18.541 123.385 18.985C123.649 19.423 123.994 19.774 124.42 20.038C124.852 20.296 125.323 20.425 125.833 20.425ZM132.912 22.234C132.636 22.234 132.402 22.138 132.21 21.946C132.024 21.754 131.931 21.52 131.931 21.244C131.931 20.974 132.024 20.743 132.21 20.551C132.402 20.359 132.636 20.263 132.912 20.263C133.188 20.263 133.422 20.359 133.614 20.551C133.806 20.743 133.902 20.974 133.902 21.244C133.902 21.52 133.806 21.754 133.614 21.946C133.422 22.138 133.188 22.234 132.912 22.234ZM149.925 9.4V11.272H145.911V22H144.039V11.272H140.034V9.4H149.925ZM150.212 18.625V13H152.084V18.166C152.084 18.568 152.183 18.934 152.381 19.264C152.579 19.594 152.843 19.858 153.173 20.056C153.503 20.248 153.866 20.344 154.262 20.344C154.664 20.344 155.027 20.248 155.351 20.056C155.681 19.858 155.942 19.594 156.134 19.264C156.332 18.934 156.431 18.568 156.431 18.166V13H158.303L158.312 22H156.44L156.431 21.028C156.125 21.4 155.744 21.694 155.288 21.91C154.832 22.126 154.343 22.234 153.821 22.234C153.155 22.234 152.549 22.072 152.003 21.748C151.457 21.424 151.022 20.989 150.698 20.443C150.374 19.897 150.212 19.291 150.212 18.625ZM160.117 22V13H161.989V13.954C162.301 13.582 162.685 13.288 163.141 13.072C163.597 12.856 164.089 12.748 164.617 12.748C164.953 12.748 165.286 12.793 165.616 12.883L164.869 14.773C164.635 14.683 164.401 14.638 164.167 14.638C163.771 14.638 163.408 14.737 163.078 14.935C162.748 15.127 162.484 15.388 162.286 15.718C162.088 16.048 161.989 16.414 161.989 16.816V22H160.117ZM174.334 22H172.174L169.96 18.184L168.511 19.912V22H166.639V8.5H168.511V17.005L171.859 13H174.307L171.238 16.663L174.334 22ZM179.212 22.234C178.384 22.234 177.628 22.021 176.944 21.595C176.266 21.169 175.723 20.599 175.315 19.885C174.913 19.165 174.712 18.37 174.712 17.5C174.712 16.84 174.829 16.225 175.063 15.655C175.297 15.079 175.618 14.575 176.026 14.143C176.44 13.705 176.92 13.363 177.466 13.117C178.012 12.871 178.594 12.748 179.212 12.748C179.902 12.748 180.535 12.892 181.111 13.18C181.687 13.462 182.179 13.855 182.587 14.359C182.995 14.857 183.295 15.433 183.487 16.087C183.679 16.735 183.736 17.425 183.658 18.157H176.719C176.797 18.571 176.947 18.946 177.169 19.282C177.397 19.612 177.685 19.873 178.033 20.065C178.387 20.257 178.78 20.356 179.212 20.362C179.668 20.362 180.082 20.248 180.454 20.02C180.832 19.792 181.141 19.477 181.381 19.075L183.28 19.516C182.92 20.314 182.377 20.968 181.651 21.478C180.925 21.982 180.112 22.234 179.212 22.234ZM176.656 16.726H181.768C181.708 16.294 181.555 15.904 181.309 15.556C181.069 15.202 180.766 14.923 180.4 14.719C180.04 14.509 179.644 14.404 179.212 14.404C178.786 14.404 178.39 14.506 178.024 14.71C177.664 14.914 177.364 15.193 177.124 15.547C176.89 15.895 176.734 16.288 176.656 16.726ZM190.768 13H192.766L187.834 26.5H185.845L187.474 22L184.243 13H186.286L188.41 19.435L190.768 13Z" fill="#262626"/>
</g>
</svg>
