<svg width="331" height="32" viewBox="0 0 331 32" fill="none" xmlns="http://www.w3.org/2000/svg">
<g opacity="0.7">
<path fill-rule="evenodd" clip-rule="evenodd" d="M3.5 14.3178C3.5 9.71789 7.34388 6 11.9934 6C16.6561 6 20.5 9.71789 20.5 14.3178C20.5 16.6357 19.657 18.7876 18.2695 20.6116C16.7388 22.6235 14.8522 24.3765 12.7285 25.7524C12.2425 26.0704 11.8039 26.0944 11.2704 25.7524C9.13474 24.3765 7.24809 22.6235 5.7305 20.6116C4.34198 18.7876 3.5 16.6357 3.5 14.3178ZM9.19423 14.5768C9.19423 16.1177 10.4517 17.3297 11.9934 17.3297C13.5362 17.3297 14.8058 16.1177 14.8058 14.5768C14.8058 13.0478 13.5362 11.7768 11.9934 11.7768C10.4517 11.7768 9.19423 13.0478 9.19423 14.5768Z" fill="#25A59E"/>
<path d="M34.808 22.234C34.364 22.234 33.929 22.159 33.503 22.009C33.083 21.859 32.702 21.637 32.36 21.343L33.557 19.903C33.707 20.029 33.887 20.137 34.097 20.227C34.307 20.317 34.544 20.362 34.808 20.362C35.168 20.362 35.495 20.269 35.789 20.083C36.089 19.891 36.329 19.642 36.509 19.336C36.689 19.024 36.779 18.691 36.779 18.337V9.4H38.651V18.337C38.651 19.039 38.477 19.687 38.129 20.281C37.781 20.869 37.316 21.343 36.734 21.703C36.158 22.057 35.516 22.234 34.808 22.234ZM47.8164 13H49.6884V22H47.8074L47.7354 20.695C47.4714 21.157 47.1144 21.529 46.6644 21.811C46.2144 22.093 45.6834 22.234 45.0714 22.234C44.4114 22.234 43.7904 22.111 43.2084 21.865C42.6264 21.613 42.1134 21.265 41.6694 20.821C41.2314 20.377 40.8894 19.867 40.6434 19.291C40.3974 18.709 40.2744 18.085 40.2744 17.419C40.2744 16.777 40.3944 16.174 40.6344 15.61C40.8744 15.04 41.2074 14.542 41.6334 14.116C42.0594 13.69 42.5514 13.357 43.1094 13.117C43.6734 12.871 44.2764 12.748 44.9184 12.748C45.5724 12.748 46.1484 12.898 46.6464 13.198C47.1504 13.492 47.5674 13.87 47.8974 14.332L47.8164 13ZM45.0264 20.425C45.5544 20.425 46.0164 20.296 46.4124 20.038C46.8084 19.774 47.1144 19.42 47.3304 18.976C47.5524 18.532 47.6634 18.04 47.6634 17.5C47.6634 16.954 47.5524 16.459 47.3304 16.015C47.1084 15.571 46.7994 15.22 46.4034 14.962C46.0134 14.698 45.5544 14.566 45.0264 14.566C44.5044 14.566 44.0274 14.698 43.5954 14.962C43.1634 15.226 42.8214 15.58 42.5694 16.024C42.3174 16.468 42.1914 16.96 42.1914 17.5C42.1914 18.046 42.3204 18.541 42.5784 18.985C42.8424 19.423 43.1874 19.774 43.6134 20.038C44.0454 20.296 44.5164 20.425 45.0264 20.425ZM55.4883 22H53.6253L50.6103 13H52.4463L54.5703 19.318L56.6763 13H58.5663L60.6723 19.318L62.7873 13H64.6233L61.6173 22H59.7363L57.6123 15.637L55.4883 22ZM72.6718 13H74.5438V22H72.6628L72.5908 20.695C72.3268 21.157 71.9698 21.529 71.5198 21.811C71.0698 22.093 70.5388 22.234 69.9268 22.234C69.2668 22.234 68.6458 22.111 68.0638 21.865C67.4818 21.613 66.9688 21.265 66.5248 20.821C66.0868 20.377 65.7448 19.867 65.4988 19.291C65.2528 18.709 65.1298 18.085 65.1298 17.419C65.1298 16.777 65.2498 16.174 65.4898 15.61C65.7298 15.04 66.0628 14.542 66.4888 14.116C66.9148 13.69 67.4068 13.357 67.9648 13.117C68.5288 12.871 69.1318 12.748 69.7738 12.748C70.4278 12.748 71.0038 12.898 71.5018 13.198C72.0058 13.492 72.4228 13.87 72.7528 14.332L72.6718 13ZM69.8818 20.425C70.4098 20.425 70.8718 20.296 71.2678 20.038C71.6638 19.774 71.9698 19.42 72.1858 18.976C72.4078 18.532 72.5188 18.04 72.5188 17.5C72.5188 16.954 72.4078 16.459 72.1858 16.015C71.9638 15.571 71.6548 15.22 71.2588 14.962C70.8688 14.698 70.4098 14.566 69.8818 14.566C69.3598 14.566 68.8828 14.698 68.4508 14.962C68.0188 15.226 67.6768 15.58 67.4248 16.024C67.1728 16.468 67.0468 16.96 67.0468 17.5C67.0468 18.046 67.1758 18.541 67.4338 18.985C67.6978 19.423 68.0428 19.774 68.4688 20.038C68.9008 20.296 69.3718 20.425 69.8818 20.425ZM90.195 9.4V11.272H86.181V22H84.309V11.272H80.304V9.4H90.195ZM94.5908 22.234C93.7628 22.234 93.0068 22.021 92.3228 21.595C91.6448 21.169 91.1018 20.599 90.6938 19.885C90.2918 19.165 90.0908 18.37 90.0908 17.5C90.0908 16.84 90.2078 16.225 90.4418 15.655C90.6758 15.079 90.9968 14.575 91.4048 14.143C91.8188 13.705 92.2988 13.363 92.8448 13.117C93.3908 12.871 93.9728 12.748 94.5908 12.748C95.2808 12.748 95.9138 12.892 96.4898 13.18C97.0658 13.462 97.5578 13.855 97.9658 14.359C98.3738 14.857 98.6738 15.433 98.8658 16.087C99.0578 16.735 99.1148 17.425 99.0368 18.157H92.0978C92.1758 18.571 92.3258 18.946 92.5478 19.282C92.7758 19.612 93.0638 19.873 93.4118 20.065C93.7658 20.257 94.1588 20.356 94.5908 20.362C95.0468 20.362 95.4608 20.248 95.8328 20.02C96.2108 19.792 96.5198 19.477 96.7598 19.075L98.6588 19.516C98.2988 20.314 97.7558 20.968 97.0298 21.478C96.3038 21.982 95.4908 22.234 94.5908 22.234ZM92.0348 16.726H97.1468C97.0868 16.294 96.9338 15.904 96.6878 15.556C96.4478 15.202 96.1448 14.923 95.7788 14.719C95.4188 14.509 95.0228 14.404 94.5908 14.404C94.1648 14.404 93.7688 14.506 93.4028 14.71C93.0428 14.914 92.7428 15.193 92.5028 15.547C92.2688 15.895 92.1128 16.288 92.0348 16.726ZM108.627 16.357V22H106.755V16.816C106.755 16.414 106.656 16.048 106.458 15.718C106.266 15.388 106.005 15.127 105.675 14.935C105.351 14.737 104.985 14.638 104.577 14.638C104.181 14.638 103.818 14.737 103.488 14.935C103.158 15.127 102.894 15.388 102.696 15.718C102.498 16.048 102.399 16.414 102.399 16.816V22H100.527V13H102.399V13.954C102.711 13.582 103.095 13.288 103.551 13.072C104.007 12.856 104.499 12.748 105.027 12.748C105.693 12.748 106.299 12.91 106.845 13.234C107.391 13.558 107.823 13.993 108.141 14.539C108.465 15.085 108.627 15.691 108.627 16.357ZM117.097 13H118.969V22.234C118.969 22.852 118.837 23.422 118.573 23.944C118.315 24.466 117.964 24.916 117.52 25.294C117.076 25.678 116.566 25.975 115.99 26.185C115.42 26.395 114.823 26.5 114.199 26.5C113.569 26.5 112.963 26.365 112.381 26.095C111.799 25.831 111.286 25.471 110.842 25.015C110.404 24.559 110.077 24.043 109.861 23.467L111.58 22.693C111.7 23.065 111.892 23.395 112.156 23.683C112.426 23.971 112.738 24.199 113.092 24.367C113.452 24.535 113.821 24.619 114.199 24.619C114.571 24.619 114.928 24.559 115.27 24.439C115.618 24.325 115.927 24.163 116.197 23.953C116.473 23.743 116.692 23.491 116.854 23.197C117.016 22.903 117.097 22.582 117.097 22.234V20.713C116.803 21.169 116.425 21.538 115.963 21.82C115.501 22.096 114.964 22.234 114.352 22.234C113.716 22.234 113.116 22.111 112.552 21.865C111.988 21.619 111.493 21.28 111.067 20.848C110.641 20.41 110.308 19.906 110.068 19.336C109.828 18.766 109.708 18.154 109.708 17.5C109.708 16.846 109.828 16.234 110.068 15.664C110.308 15.088 110.641 14.584 111.067 14.152C111.493 13.714 111.988 13.372 112.552 13.126C113.116 12.88 113.716 12.757 114.352 12.757C114.964 12.757 115.501 12.898 115.963 13.18C116.425 13.456 116.803 13.825 117.097 14.287V13ZM114.37 20.425C114.892 20.425 115.348 20.293 115.738 20.029C116.128 19.759 116.431 19.402 116.647 18.958C116.863 18.514 116.971 18.028 116.971 17.5C116.971 16.96 116.86 16.471 116.638 16.033C116.422 15.589 116.119 15.235 115.729 14.971C115.339 14.701 114.886 14.566 114.37 14.566C113.866 14.566 113.404 14.698 112.984 14.962C112.57 15.226 112.24 15.58 111.994 16.024C111.748 16.468 111.625 16.96 111.625 17.5C111.625 18.04 111.748 18.532 111.994 18.976C112.246 19.42 112.579 19.774 112.993 20.038C113.413 20.296 113.872 20.425 114.37 20.425ZM127.973 13H129.845V22H127.964L127.892 20.695C127.628 21.157 127.271 21.529 126.821 21.811C126.371 22.093 125.84 22.234 125.228 22.234C124.568 22.234 123.947 22.111 123.365 21.865C122.783 21.613 122.27 21.265 121.826 20.821C121.388 20.377 121.046 19.867 120.8 19.291C120.554 18.709 120.431 18.085 120.431 17.419C120.431 16.777 120.551 16.174 120.791 15.61C121.031 15.04 121.364 14.542 121.79 14.116C122.216 13.69 122.708 13.357 123.266 13.117C123.83 12.871 124.433 12.748 125.075 12.748C125.729 12.748 126.305 12.898 126.803 13.198C127.307 13.492 127.724 13.87 128.054 14.332L127.973 13ZM125.183 20.425C125.711 20.425 126.173 20.296 126.569 20.038C126.965 19.774 127.271 19.42 127.487 18.976C127.709 18.532 127.82 18.04 127.82 17.5C127.82 16.954 127.709 16.459 127.487 16.015C127.265 15.571 126.956 15.22 126.56 14.962C126.17 14.698 125.711 14.566 125.183 14.566C124.661 14.566 124.184 14.698 123.752 14.962C123.32 15.226 122.978 15.58 122.726 16.024C122.474 16.468 122.348 16.96 122.348 17.5C122.348 18.046 122.477 18.541 122.735 18.985C122.999 19.423 123.344 19.774 123.77 20.038C124.202 20.296 124.673 20.425 125.183 20.425ZM139.811 16.357V22H137.939V16.816C137.939 16.414 137.84 16.048 137.642 15.718C137.45 15.388 137.189 15.127 136.859 14.935C136.535 14.737 136.169 14.638 135.761 14.638C135.365 14.638 135.002 14.737 134.672 14.935C134.342 15.127 134.078 15.388 133.88 15.718C133.682 16.048 133.583 16.414 133.583 16.816V22H131.711V8.5H133.583V13.954C133.895 13.582 134.279 13.288 134.735 13.072C135.191 12.856 135.683 12.748 136.211 12.748C136.877 12.748 137.483 12.91 138.029 13.234C138.575 13.558 139.007 13.993 139.325 14.539C139.649 15.085 139.811 15.691 139.811 16.357ZM141.247 23.008L141.805 19.966H143.677L142.489 23.008H141.247ZM150.438 22V9.4H152.31V22H150.438ZM162.838 16.357V22H160.966V16.816C160.966 16.414 160.867 16.048 160.669 15.718C160.477 15.388 160.216 15.127 159.886 14.935C159.562 14.737 159.196 14.638 158.788 14.638C158.392 14.638 158.029 14.737 157.699 14.935C157.369 15.127 157.105 15.388 156.907 15.718C156.709 16.048 156.61 16.414 156.61 16.816V22H154.738V13H156.61V13.954C156.922 13.582 157.306 13.288 157.762 13.072C158.218 12.856 158.71 12.748 159.238 12.748C159.904 12.748 160.51 12.91 161.056 13.234C161.602 13.558 162.034 13.993 162.352 14.539C162.676 15.085 162.838 15.691 162.838 16.357ZM171.47 8.5H173.342V22H171.47V20.677C171.176 21.145 170.792 21.523 170.318 21.811C169.844 22.093 169.289 22.234 168.653 22.234C167.999 22.234 167.387 22.111 166.817 21.865C166.247 21.619 165.743 21.28 165.305 20.848C164.873 20.41 164.534 19.906 164.288 19.336C164.042 18.766 163.919 18.154 163.919 17.5C163.919 16.846 164.042 16.234 164.288 15.664C164.534 15.088 164.873 14.584 165.305 14.152C165.743 13.714 166.247 13.372 166.817 13.126C167.387 12.88 167.999 12.757 168.653 12.757C169.289 12.757 169.844 12.901 170.318 13.189C170.792 13.471 171.176 13.843 171.47 14.305V8.5ZM168.671 20.425C169.199 20.425 169.661 20.296 170.057 20.038C170.453 19.774 170.759 19.42 170.975 18.976C171.197 18.532 171.308 18.04 171.308 17.5C171.308 16.954 171.197 16.459 170.975 16.015C170.753 15.571 170.444 15.22 170.048 14.962C169.658 14.698 169.199 14.566 168.671 14.566C168.149 14.566 167.672 14.698 167.24 14.962C166.814 15.226 166.472 15.58 166.214 16.024C165.962 16.468 165.836 16.96 165.836 17.5C165.836 18.046 165.965 18.541 166.223 18.985C166.487 19.423 166.832 19.774 167.258 20.038C167.69 20.296 168.161 20.425 168.671 20.425ZM179.335 22.234C178.507 22.234 177.751 22.021 177.067 21.595C176.389 21.169 175.846 20.599 175.438 19.885C175.036 19.165 174.835 18.37 174.835 17.5C174.835 16.84 174.952 16.225 175.186 15.655C175.42 15.079 175.741 14.575 176.149 14.143C176.563 13.705 177.043 13.363 177.589 13.117C178.135 12.871 178.717 12.748 179.335 12.748C180.163 12.748 180.916 12.961 181.594 13.387C182.278 13.813 182.821 14.386 183.223 15.106C183.631 15.826 183.835 16.624 183.835 17.5C183.835 18.154 183.718 18.766 183.484 19.336C183.25 19.906 182.926 20.41 182.512 20.848C182.104 21.28 181.627 21.619 181.081 21.865C180.541 22.111 179.959 22.234 179.335 22.234ZM179.335 20.362C179.833 20.362 180.28 20.23 180.676 19.966C181.072 19.702 181.384 19.354 181.612 18.922C181.846 18.484 181.963 18.01 181.963 17.5C181.963 16.978 181.843 16.498 181.603 16.06C181.369 15.622 181.054 15.274 180.658 15.016C180.262 14.752 179.821 14.62 179.335 14.62C178.843 14.62 178.396 14.752 177.994 15.016C177.598 15.28 177.283 15.631 177.049 16.069C176.821 16.507 176.707 16.984 176.707 17.5C176.707 18.034 176.827 18.517 177.067 18.949C177.307 19.381 177.625 19.726 178.021 19.984C178.423 20.236 178.861 20.362 179.335 20.362ZM193.389 16.357V22H191.517V16.816C191.517 16.414 191.418 16.048 191.22 15.718C191.028 15.388 190.767 15.127 190.437 14.935C190.113 14.737 189.747 14.638 189.339 14.638C188.943 14.638 188.58 14.737 188.25 14.935C187.92 15.127 187.656 15.388 187.458 15.718C187.26 16.048 187.161 16.414 187.161 16.816V22H185.289V13H187.161V13.954C187.473 13.582 187.857 13.288 188.313 13.072C188.769 12.856 189.261 12.748 189.789 12.748C190.455 12.748 191.061 12.91 191.607 13.234C192.153 13.558 192.585 13.993 192.903 14.539C193.227 15.085 193.389 15.691 193.389 16.357ZM198.97 22.234C198.142 22.234 197.386 22.021 196.702 21.595C196.024 21.169 195.481 20.599 195.073 19.885C194.671 19.165 194.47 18.37 194.47 17.5C194.47 16.84 194.587 16.225 194.821 15.655C195.055 15.079 195.376 14.575 195.784 14.143C196.198 13.705 196.678 13.363 197.224 13.117C197.77 12.871 198.352 12.748 198.97 12.748C199.66 12.748 200.293 12.892 200.869 13.18C201.445 13.462 201.937 13.855 202.345 14.359C202.753 14.857 203.053 15.433 203.245 16.087C203.437 16.735 203.494 17.425 203.416 18.157H196.477C196.555 18.571 196.705 18.946 196.927 19.282C197.155 19.612 197.443 19.873 197.791 20.065C198.145 20.257 198.538 20.356 198.97 20.362C199.426 20.362 199.84 20.248 200.212 20.02C200.59 19.792 200.899 19.477 201.139 19.075L203.038 19.516C202.678 20.314 202.135 20.968 201.409 21.478C200.683 21.982 199.87 22.234 198.97 22.234ZM196.414 16.726H201.526C201.466 16.294 201.313 15.904 201.067 15.556C200.827 15.202 200.524 14.923 200.158 14.719C199.798 14.509 199.402 14.404 198.97 14.404C198.544 14.404 198.148 14.506 197.782 14.71C197.422 14.914 197.122 15.193 196.882 15.547C196.648 15.895 196.492 16.288 196.414 16.726ZM207.641 22.171C207.167 22.141 206.705 22.045 206.255 21.883C205.805 21.721 205.409 21.502 205.067 21.226C204.731 20.944 204.479 20.614 204.311 20.236L205.904 19.552C205.982 19.714 206.117 19.873 206.309 20.029C206.507 20.185 206.738 20.314 207.002 20.416C207.266 20.512 207.542 20.56 207.83 20.56C208.112 20.56 208.373 20.521 208.613 20.443C208.859 20.359 209.06 20.233 209.216 20.065C209.372 19.897 209.45 19.696 209.45 19.462C209.45 19.198 209.36 18.994 209.18 18.85C209.006 18.7 208.787 18.586 208.523 18.508C208.259 18.43 207.995 18.355 207.731 18.283C207.143 18.151 206.603 17.971 206.111 17.743C205.625 17.509 205.238 17.212 204.95 16.852C204.662 16.486 204.518 16.039 204.518 15.511C204.518 14.935 204.674 14.437 204.986 14.017C205.298 13.591 205.706 13.264 206.21 13.036C206.72 12.808 207.263 12.694 207.839 12.694C208.559 12.694 209.219 12.847 209.819 13.153C210.419 13.459 210.878 13.879 211.196 14.413L209.711 15.295C209.621 15.115 209.486 14.953 209.306 14.809C209.126 14.665 208.922 14.551 208.694 14.467C208.466 14.377 208.229 14.326 207.983 14.314C207.677 14.302 207.392 14.338 207.128 14.422C206.87 14.5 206.663 14.626 206.507 14.8C206.351 14.974 206.273 15.196 206.273 15.466C206.273 15.73 206.366 15.928 206.552 16.06C206.738 16.186 206.972 16.288 207.254 16.366C207.542 16.444 207.836 16.531 208.136 16.627C208.67 16.795 209.171 17.002 209.639 17.248C210.107 17.488 210.485 17.785 210.773 18.139C211.061 18.493 211.199 18.925 211.187 19.435C211.187 19.999 211.016 20.494 210.674 20.92C210.338 21.346 209.9 21.67 209.36 21.892C208.82 22.114 208.247 22.207 207.641 22.171ZM212.57 13H214.442V22H212.57V13ZM213.524 11.695C213.236 11.695 212.996 11.602 212.804 11.416C212.612 11.23 212.516 10.996 212.516 10.714C212.516 10.438 212.612 10.207 212.804 10.021C212.996 9.829 213.233 9.733 213.515 9.733C213.791 9.733 214.025 9.829 214.217 10.021C214.409 10.207 214.505 10.438 214.505 10.714C214.505 10.996 214.409 11.23 214.217 11.416C214.031 11.602 213.8 11.695 213.524 11.695ZM223.439 13H225.311V22H223.43L223.358 20.695C223.094 21.157 222.737 21.529 222.287 21.811C221.837 22.093 221.306 22.234 220.694 22.234C220.034 22.234 219.413 22.111 218.831 21.865C218.249 21.613 217.736 21.265 217.292 20.821C216.854 20.377 216.512 19.867 216.266 19.291C216.02 18.709 215.897 18.085 215.897 17.419C215.897 16.777 216.017 16.174 216.257 15.61C216.497 15.04 216.83 14.542 217.256 14.116C217.682 13.69 218.174 13.357 218.732 13.117C219.296 12.871 219.899 12.748 220.541 12.748C221.195 12.748 221.771 12.898 222.269 13.198C222.773 13.492 223.19 13.87 223.52 14.332L223.439 13ZM220.649 20.425C221.177 20.425 221.639 20.296 222.035 20.038C222.431 19.774 222.737 19.42 222.953 18.976C223.175 18.532 223.286 18.04 223.286 17.5C223.286 16.954 223.175 16.459 222.953 16.015C222.731 15.571 222.422 15.22 222.026 14.962C221.636 14.698 221.177 14.566 220.649 14.566C220.127 14.566 219.65 14.698 219.218 14.962C218.786 15.226 218.444 15.58 218.192 16.024C217.94 16.468 217.814 16.96 217.814 17.5C217.814 18.046 217.943 18.541 218.201 18.985C218.465 19.423 218.81 19.774 219.236 20.038C219.668 20.296 220.139 20.425 220.649 20.425Z" fill="#262626"/>
</g>
</svg>
