<svg width="375" height="57" viewBox="0 0 375 57" fill="none" xmlns="http://www.w3.org/2000/svg">
<mask id="path-1-outside-1_14_1878" maskUnits="userSpaceOnUse" x="19" y="18.5" width="54" height="15" fill="black">
<rect fill="white" x="19" y="18.5" width="54" height="15"/>
<path d="M20.24 20.3H29.456V22.604L29.296 22.572C29.296 21.2707 28.0053 20.62 25.424 20.62V27.884C25.424 29.4627 25.5147 30.4227 25.696 30.764C25.76 30.892 25.872 31.004 26.032 31.1C26.192 31.196 26.3627 31.2547 26.544 31.276C26.7253 31.2973 26.976 31.308 27.296 31.308L27.328 31.5H22.4L22.432 31.308C22.752 31.308 23.0027 31.3027 23.184 31.292C23.376 31.2707 23.5467 31.2067 23.696 31.1C23.856 30.9933 23.968 30.8813 24.032 30.764C24.1067 30.6467 24.1707 30.4387 24.224 30.14C24.2773 29.7773 24.304 29.0253 24.304 27.884V20.62C21.7227 20.62 20.432 21.2707 20.432 22.572L20.24 22.604V20.3ZM35.5899 23.692C35.8565 23.692 36.0912 23.7507 36.2939 23.868C36.4965 23.9853 36.5979 24.1453 36.5979 24.348C36.5979 24.5507 36.5339 24.7107 36.4059 24.828C36.2779 24.9453 36.1339 25.004 35.9739 25.004C35.8139 25.004 35.6112 24.9347 35.3659 24.796C35.1312 24.6573 34.8805 24.588 34.6139 24.588C34.1979 24.588 33.8565 24.972 33.5899 25.74C33.3339 26.508 33.2059 27.3987 33.2059 28.412C33.2059 29.7773 33.2752 30.604 33.4139 30.892C33.4565 30.988 33.5365 31.0787 33.6539 31.164C33.7712 31.2387 33.8939 31.2813 34.0219 31.292C34.1499 31.3027 34.3312 31.308 34.5659 31.308L34.5979 31.5H30.7099L30.7419 31.308C31.0832 31.308 31.3285 31.292 31.4779 31.26C31.6379 31.2173 31.7712 31.084 31.8779 30.86C31.9845 30.636 32.0432 30.3587 32.0539 30.028C32.0752 29.6867 32.0859 29.148 32.0859 28.412V27.484C32.0859 26.0013 32.0432 25.1587 31.9579 24.956C31.8832 24.7533 31.8139 24.5933 31.7499 24.476C31.6859 24.3587 31.5899 24.2787 31.4619 24.236C31.2272 24.172 30.9179 24.14 30.5339 24.14L30.5019 23.964C31.4085 23.836 32.3099 23.772 33.2059 23.772V26.124C33.3232 25.3667 33.5845 24.7747 33.9899 24.348C34.4059 23.9107 34.9392 23.692 35.5899 23.692ZM44.792 26.332V27.948C44.792 29.132 44.8293 29.9107 44.904 30.284C44.9787 30.6467 45.16 30.828 45.448 30.828C45.6293 30.828 45.8693 30.7533 46.168 30.604L46.248 30.764C46.1627 30.828 46.0507 30.908 45.912 31.004C45.7733 31.0893 45.4907 31.2067 45.064 31.356C44.6373 31.5053 44.2267 31.58 43.832 31.58C43.7253 31.132 43.672 30.4173 43.672 29.436C43.4373 30.0973 43.128 30.636 42.744 31.052C42.3707 31.4573 41.848 31.66 41.176 31.66C40.504 31.66 39.9707 31.484 39.576 31.132C39.192 30.7693 39 30.2787 39 29.66C39 27.9427 40.5573 27.0787 43.672 27.068V26.492C43.672 25.724 43.56 25.1373 43.336 24.732C43.112 24.3267 42.696 24.124 42.088 24.124C41.7467 24.124 41.4693 24.2093 41.256 24.38C41.0427 24.5507 40.8987 24.7373 40.824 24.94C40.6427 25.4947 40.3707 25.772 40.008 25.772C39.656 25.772 39.48 25.5747 39.48 25.18C39.48 24.7747 39.7467 24.4387 40.28 24.172C40.8133 23.9053 41.4587 23.772 42.216 23.772C42.9733 23.772 43.592 23.9907 44.072 24.428C44.552 24.8547 44.792 25.4893 44.792 26.332ZM40.216 29.724C40.216 30.14 40.3173 30.4867 40.52 30.764C40.7227 31.0307 41.0427 31.164 41.48 31.164C41.928 31.164 42.3333 30.9507 42.696 30.524C43.0587 30.0867 43.304 29.6067 43.432 29.084C43.5707 28.5507 43.6507 28.0013 43.672 27.436C42.488 27.4467 41.6133 27.6653 41.048 28.092C40.4933 28.5187 40.216 29.0627 40.216 29.724ZM50.7971 24.844C50.7971 25.3347 51.0478 26.2093 51.5491 27.468L52.7811 30.572L54.0291 26.732C54.2745 25.964 54.3971 25.3827 54.3971 24.988C54.3971 24.412 54.0238 24.124 53.2771 24.124L53.2451 23.932H56.2531L56.2211 24.124C55.7838 24.124 55.4745 24.268 55.2931 24.556C55.1225 24.8333 54.7971 25.7027 54.3171 27.164L52.8771 31.548H51.9331L49.8531 26.236C49.5011 25.34 49.1811 24.764 48.8931 24.508C48.6158 24.252 48.2798 24.124 47.8851 24.124L47.8531 23.932H51.8211L51.7891 24.124C51.4158 24.124 51.1545 24.1827 51.0051 24.3C50.8665 24.4173 50.7971 24.5987 50.7971 24.844ZM64.8009 27.452H59.5529V27.724C59.5529 28.8547 59.7929 29.7187 60.2729 30.316C60.7529 30.9027 61.3502 31.196 62.0649 31.196C63.1315 31.196 63.8995 30.7693 64.3689 29.916L64.6089 30.044C64.0542 31.1213 63.1262 31.66 61.8249 31.66C60.8649 31.66 60.0435 31.3133 59.3609 30.62C58.6782 29.9267 58.3369 28.9933 58.3369 27.82C58.3369 26.636 58.6355 25.6653 59.2329 24.908C59.8409 24.1507 60.6462 23.772 61.6489 23.772C62.6622 23.772 63.4409 24.1187 63.9849 24.812C64.5289 25.4947 64.8009 26.3747 64.8009 27.452ZM61.6969 24.092C61.0782 24.092 60.5875 24.3587 60.2249 24.892C59.8729 25.4147 59.6595 26.1133 59.5849 26.988H63.5689C63.4942 25.0573 62.8702 24.092 61.6969 24.092ZM70.1311 19.724V28.716C70.1311 29.9 70.2005 30.6307 70.3391 30.908C70.4778 31.1747 70.8618 31.308 71.4911 31.308L71.5231 31.5H67.6031L67.6351 31.308C68.2751 31.308 68.6645 31.1747 68.8031 30.908C68.9418 30.6413 69.0111 29.9107 69.0111 28.716V22.604C69.0111 21.42 68.9471 20.7053 68.8191 20.46C68.7765 20.3853 68.6965 20.3107 68.5791 20.236C68.4618 20.1613 68.3338 20.1187 68.1951 20.108C68.0671 20.0973 67.8805 20.092 67.6351 20.092L67.6031 19.916C68.4031 19.788 69.2458 19.724 70.1311 19.724Z"/>
</mask>
<path d="M20.24 20.3H29.456V22.604L29.296 22.572C29.296 21.2707 28.0053 20.62 25.424 20.62V27.884C25.424 29.4627 25.5147 30.4227 25.696 30.764C25.76 30.892 25.872 31.004 26.032 31.1C26.192 31.196 26.3627 31.2547 26.544 31.276C26.7253 31.2973 26.976 31.308 27.296 31.308L27.328 31.5H22.4L22.432 31.308C22.752 31.308 23.0027 31.3027 23.184 31.292C23.376 31.2707 23.5467 31.2067 23.696 31.1C23.856 30.9933 23.968 30.8813 24.032 30.764C24.1067 30.6467 24.1707 30.4387 24.224 30.14C24.2773 29.7773 24.304 29.0253 24.304 27.884V20.62C21.7227 20.62 20.432 21.2707 20.432 22.572L20.24 22.604V20.3ZM35.5899 23.692C35.8565 23.692 36.0912 23.7507 36.2939 23.868C36.4965 23.9853 36.5979 24.1453 36.5979 24.348C36.5979 24.5507 36.5339 24.7107 36.4059 24.828C36.2779 24.9453 36.1339 25.004 35.9739 25.004C35.8139 25.004 35.6112 24.9347 35.3659 24.796C35.1312 24.6573 34.8805 24.588 34.6139 24.588C34.1979 24.588 33.8565 24.972 33.5899 25.74C33.3339 26.508 33.2059 27.3987 33.2059 28.412C33.2059 29.7773 33.2752 30.604 33.4139 30.892C33.4565 30.988 33.5365 31.0787 33.6539 31.164C33.7712 31.2387 33.8939 31.2813 34.0219 31.292C34.1499 31.3027 34.3312 31.308 34.5659 31.308L34.5979 31.5H30.7099L30.7419 31.308C31.0832 31.308 31.3285 31.292 31.4779 31.26C31.6379 31.2173 31.7712 31.084 31.8779 30.86C31.9845 30.636 32.0432 30.3587 32.0539 30.028C32.0752 29.6867 32.0859 29.148 32.0859 28.412V27.484C32.0859 26.0013 32.0432 25.1587 31.9579 24.956C31.8832 24.7533 31.8139 24.5933 31.7499 24.476C31.6859 24.3587 31.5899 24.2787 31.4619 24.236C31.2272 24.172 30.9179 24.14 30.5339 24.14L30.5019 23.964C31.4085 23.836 32.3099 23.772 33.2059 23.772V26.124C33.3232 25.3667 33.5845 24.7747 33.9899 24.348C34.4059 23.9107 34.9392 23.692 35.5899 23.692ZM44.792 26.332V27.948C44.792 29.132 44.8293 29.9107 44.904 30.284C44.9787 30.6467 45.16 30.828 45.448 30.828C45.6293 30.828 45.8693 30.7533 46.168 30.604L46.248 30.764C46.1627 30.828 46.0507 30.908 45.912 31.004C45.7733 31.0893 45.4907 31.2067 45.064 31.356C44.6373 31.5053 44.2267 31.58 43.832 31.58C43.7253 31.132 43.672 30.4173 43.672 29.436C43.4373 30.0973 43.128 30.636 42.744 31.052C42.3707 31.4573 41.848 31.66 41.176 31.66C40.504 31.66 39.9707 31.484 39.576 31.132C39.192 30.7693 39 30.2787 39 29.66C39 27.9427 40.5573 27.0787 43.672 27.068V26.492C43.672 25.724 43.56 25.1373 43.336 24.732C43.112 24.3267 42.696 24.124 42.088 24.124C41.7467 24.124 41.4693 24.2093 41.256 24.38C41.0427 24.5507 40.8987 24.7373 40.824 24.94C40.6427 25.4947 40.3707 25.772 40.008 25.772C39.656 25.772 39.48 25.5747 39.48 25.18C39.48 24.7747 39.7467 24.4387 40.28 24.172C40.8133 23.9053 41.4587 23.772 42.216 23.772C42.9733 23.772 43.592 23.9907 44.072 24.428C44.552 24.8547 44.792 25.4893 44.792 26.332ZM40.216 29.724C40.216 30.14 40.3173 30.4867 40.52 30.764C40.7227 31.0307 41.0427 31.164 41.48 31.164C41.928 31.164 42.3333 30.9507 42.696 30.524C43.0587 30.0867 43.304 29.6067 43.432 29.084C43.5707 28.5507 43.6507 28.0013 43.672 27.436C42.488 27.4467 41.6133 27.6653 41.048 28.092C40.4933 28.5187 40.216 29.0627 40.216 29.724ZM50.7971 24.844C50.7971 25.3347 51.0478 26.2093 51.5491 27.468L52.7811 30.572L54.0291 26.732C54.2745 25.964 54.3971 25.3827 54.3971 24.988C54.3971 24.412 54.0238 24.124 53.2771 24.124L53.2451 23.932H56.2531L56.2211 24.124C55.7838 24.124 55.4745 24.268 55.2931 24.556C55.1225 24.8333 54.7971 25.7027 54.3171 27.164L52.8771 31.548H51.9331L49.8531 26.236C49.5011 25.34 49.1811 24.764 48.8931 24.508C48.6158 24.252 48.2798 24.124 47.8851 24.124L47.8531 23.932H51.8211L51.7891 24.124C51.4158 24.124 51.1545 24.1827 51.0051 24.3C50.8665 24.4173 50.7971 24.5987 50.7971 24.844ZM64.8009 27.452H59.5529V27.724C59.5529 28.8547 59.7929 29.7187 60.2729 30.316C60.7529 30.9027 61.3502 31.196 62.0649 31.196C63.1315 31.196 63.8995 30.7693 64.3689 29.916L64.6089 30.044C64.0542 31.1213 63.1262 31.66 61.8249 31.66C60.8649 31.66 60.0435 31.3133 59.3609 30.62C58.6782 29.9267 58.3369 28.9933 58.3369 27.82C58.3369 26.636 58.6355 25.6653 59.2329 24.908C59.8409 24.1507 60.6462 23.772 61.6489 23.772C62.6622 23.772 63.4409 24.1187 63.9849 24.812C64.5289 25.4947 64.8009 26.3747 64.8009 27.452ZM61.6969 24.092C61.0782 24.092 60.5875 24.3587 60.2249 24.892C59.8729 25.4147 59.6595 26.1133 59.5849 26.988H63.5689C63.4942 25.0573 62.8702 24.092 61.6969 24.092ZM70.1311 19.724V28.716C70.1311 29.9 70.2005 30.6307 70.3391 30.908C70.4778 31.1747 70.8618 31.308 71.4911 31.308L71.5231 31.5H67.6031L67.6351 31.308C68.2751 31.308 68.6645 31.1747 68.8031 30.908C68.9418 30.6413 69.0111 29.9107 69.0111 28.716V22.604C69.0111 21.42 68.9471 20.7053 68.8191 20.46C68.7765 20.3853 68.6965 20.3107 68.5791 20.236C68.4618 20.1613 68.3338 20.1187 68.1951 20.108C68.0671 20.0973 67.8805 20.092 67.6351 20.092L67.6031 19.916C68.4031 19.788 69.2458 19.724 70.1311 19.724Z" fill="#25A59E"/>
<path d="M20.24 20.3V19.6H19.54V20.3H20.24ZM29.456 20.3H30.156V19.6H29.456V20.3ZM29.456 22.604L29.3187 23.2904L30.156 23.4579V22.604H29.456ZM29.296 22.572H28.596V23.1459L29.1587 23.2584L29.296 22.572ZM25.424 20.62V19.92H24.724V20.62H25.424ZM25.696 30.764L26.3221 30.4509L26.3182 30.4432L26.3142 30.4356L25.696 30.764ZM26.032 31.1L25.6719 31.7002H25.6719L26.032 31.1ZM26.544 31.276L26.4622 31.9712L26.544 31.276ZM27.296 31.308L27.9865 31.1929L27.889 30.608H27.296V31.308ZM27.328 31.5V32.2H28.1543L28.0185 31.3849L27.328 31.5ZM22.4 31.5L21.7095 31.3849L21.5737 32.2H22.4V31.5ZM22.432 31.308V30.608H21.839L21.7415 31.1929L22.432 31.308ZM23.184 31.292L23.2251 31.9908L23.2432 31.9897L23.2613 31.9877L23.184 31.292ZM23.696 31.1L23.3077 30.5176L23.2983 30.5238L23.2891 30.5304L23.696 31.1ZM24.032 30.764L23.4414 30.3882L23.4288 30.4081L23.4175 30.4288L24.032 30.764ZM24.224 30.14L24.9131 30.2631L24.915 30.2525L24.9166 30.2418L24.224 30.14ZM24.304 20.62H25.004V19.92H24.304V20.62ZM20.432 22.572L20.5471 23.2625L21.132 23.165V22.572H20.432ZM20.24 22.604H19.54V23.4303L20.3551 23.2945L20.24 22.604ZM20.24 21H29.456V19.6H20.24V21ZM28.756 20.3V22.604H30.156V20.3H28.756ZM29.5933 21.9176L29.4333 21.8856L29.1587 23.2584L29.3187 23.2904L29.5933 21.9176ZM29.996 22.572C29.996 22.1254 29.8833 21.7031 29.6379 21.3319C29.3952 20.9649 29.0493 20.6877 28.6431 20.4829C27.8508 20.0835 26.7509 19.92 25.424 19.92V21.32C26.6785 21.32 27.5145 21.4818 28.0129 21.7331C28.2521 21.8536 28.3901 21.9831 28.4701 22.1041C28.5473 22.2209 28.596 22.368 28.596 22.572H29.996ZM24.724 20.62V27.884H26.124V20.62H24.724ZM24.724 27.884C24.724 28.6834 24.7468 29.3426 24.7951 29.8538C24.8399 30.3278 24.914 30.784 25.0778 31.0924L26.3142 30.4356C26.3142 30.4357 26.2909 30.3861 26.2622 30.2488C26.2353 30.1202 26.2101 29.9466 26.1889 29.7222C26.1465 29.2734 26.124 28.6633 26.124 27.884H24.724ZM25.0699 31.0771C25.209 31.3553 25.4318 31.5562 25.6719 31.7002L26.3921 30.4998C26.3122 30.4518 26.311 30.4287 26.3221 30.4509L25.0699 31.0771ZM25.6719 31.7002C25.9149 31.8461 26.1802 31.938 26.4622 31.9712L26.6258 30.5808C26.5451 30.5713 26.4691 30.5459 26.3921 30.4998L25.6719 31.7002ZM26.4622 31.9712C26.6835 31.9972 26.9657 32.008 27.296 32.008V30.608C26.9863 30.608 26.7671 30.5974 26.6258 30.5808L26.4622 31.9712ZM26.6055 31.4231L26.6375 31.6151L28.0185 31.3849L27.9865 31.1929L26.6055 31.4231ZM27.328 30.8H22.4V32.2H27.328V30.8ZM23.0905 31.6151L23.1225 31.4231L21.7415 31.1929L21.7095 31.3849L23.0905 31.6151ZM22.432 32.008C22.7571 32.008 23.0236 32.0026 23.2251 31.9908L23.1429 30.5932C22.9818 30.6027 22.7469 30.608 22.432 30.608V32.008ZM23.2613 31.9877C23.5656 31.9539 23.8511 31.8495 24.1029 31.6696L23.2891 30.5304C23.2423 30.5639 23.1864 30.5874 23.1067 30.5963L23.2613 31.9877ZM24.0843 31.6824C24.3 31.5386 24.5097 31.3501 24.6465 31.0992L23.4175 30.4288C23.4228 30.4191 23.4222 30.4238 23.405 30.441C23.3877 30.4584 23.3572 30.4846 23.3077 30.5176L24.0843 31.6824ZM24.6226 31.1398C24.7767 30.8976 24.8582 30.5704 24.9131 30.2631L23.5349 30.0169C23.5114 30.1483 23.4881 30.2455 23.467 30.3141C23.4443 30.3879 23.4318 30.4034 23.4414 30.3882L24.6226 31.1398ZM24.9166 30.2418C24.9786 29.8196 25.004 29.0153 25.004 27.884H23.604C23.604 29.0354 23.576 29.735 23.5314 30.0382L24.9166 30.2418ZM25.004 27.884V20.62H23.604V27.884H25.004ZM24.304 19.92C22.9771 19.92 21.8772 20.0835 21.0849 20.4829C20.6787 20.6877 20.3328 20.9649 20.0901 21.3319C19.8447 21.7031 19.732 22.1254 19.732 22.572H21.132C21.132 22.368 21.1807 22.2209 21.2579 22.1041C21.3379 21.9831 21.4759 21.8536 21.7151 21.7331C22.2135 21.4818 23.0495 21.32 24.304 21.32V19.92ZM20.3169 21.8815L20.1249 21.9135L20.3551 23.2945L20.5471 23.2625L20.3169 21.8815ZM20.94 22.604V20.3H19.54V22.604H20.94ZM35.3659 24.796L35.0097 25.3988L35.0214 25.4054L35.3659 24.796ZM33.5899 25.74L32.9286 25.5104L32.9258 25.5186L33.5899 25.74ZM33.4139 30.892L34.0535 30.6077L34.0492 30.5979L34.0446 30.5883L33.4139 30.892ZM33.6539 31.164L33.2422 31.7301L33.2597 31.7429L33.2781 31.7546L33.6539 31.164ZM34.0219 31.292L33.9637 31.9896L34.0219 31.292ZM34.5659 31.308L35.2564 31.1929L35.1589 30.608H34.5659V31.308ZM34.5979 31.5V32.2H35.4242L35.2884 31.3849L34.5979 31.5ZM30.7099 31.5L30.0194 31.3849L29.8836 32.2H30.7099V31.5ZM30.7419 31.308V30.608H30.1489L30.0514 31.1929L30.7419 31.308ZM31.4779 31.26L31.6245 31.9445L31.6415 31.9408L31.6582 31.9364L31.4779 31.26ZM32.0539 30.028L31.3552 29.9843L31.3546 29.9949L31.3542 30.0054L32.0539 30.028ZM31.9579 24.956L31.301 25.198L31.3065 25.2129L31.3127 25.2276L31.9579 24.956ZM31.7499 24.476L31.1353 24.8112L31.1353 24.8112L31.7499 24.476ZM31.4619 24.236L31.6832 23.5719L31.6648 23.5658L31.6461 23.5607L31.4619 24.236ZM30.5339 24.14L29.8452 24.2652L29.9497 24.84H30.5339V24.14ZM30.5019 23.964L30.404 23.2709L29.6829 23.3727L29.8132 24.0892L30.5019 23.964ZM33.2059 23.772H33.9059V23.072H33.2059V23.772ZM33.2059 26.124H32.5059L33.8976 26.2312L33.2059 26.124ZM33.9899 24.348L33.4827 23.8656L33.4824 23.8659L33.9899 24.348ZM35.5899 24.392C35.7508 24.392 35.8612 24.4263 35.9432 24.4738L36.6446 23.2622C36.3213 23.075 35.9623 22.992 35.5899 22.992V24.392ZM35.9432 24.4738C35.9695 24.4891 35.9529 24.4859 35.9305 24.4505C35.9195 24.4332 35.9105 24.4132 35.9047 24.3924C35.899 24.3719 35.8979 24.3562 35.8979 24.348H37.2979C37.2979 23.8524 37.0233 23.4814 36.6446 23.2622L35.9432 24.4738ZM35.8979 24.348C35.8979 24.3757 35.8936 24.3759 35.8999 24.36C35.903 24.3523 35.9078 24.343 35.9143 24.3336C35.9209 24.3241 35.9276 24.3169 35.9329 24.312L36.8789 25.344C37.176 25.0716 37.2979 24.711 37.2979 24.348H35.8979ZM35.9329 24.312C35.923 24.321 35.9244 24.3172 35.9378 24.3117C35.944 24.3092 35.951 24.3071 35.9582 24.3057C35.9654 24.3043 35.9709 24.304 35.9739 24.304V25.704C36.3246 25.704 36.6338 25.5687 36.8789 25.344L35.9329 24.312ZM35.9739 24.304C35.9921 24.304 35.98 24.3073 35.9285 24.2897C35.8784 24.2726 35.8064 24.2409 35.7103 24.1866L35.0214 25.4054C35.3027 25.5644 35.633 25.704 35.9739 25.704V24.304ZM35.722 24.1934C35.382 23.9924 35.0087 23.888 34.6139 23.888V25.288C34.7524 25.288 34.8804 25.3222 35.0098 25.3986L35.722 24.1934ZM34.6139 23.888C34.1602 23.888 33.7924 24.1075 33.5227 24.4109C33.2659 24.6999 33.0765 25.0844 32.9286 25.5104L34.2511 25.9696C34.3699 25.6276 34.4845 25.4361 34.5691 25.3411C34.6406 25.2605 34.6515 25.288 34.6139 25.288V23.888ZM32.9258 25.5186C32.6409 26.3734 32.5059 27.3415 32.5059 28.412H33.9059C33.9059 27.4558 34.0269 26.6426 34.254 25.9614L32.9258 25.5186ZM32.5059 28.412C32.5059 29.1035 32.5233 29.6734 32.5603 30.1145C32.5942 30.5187 32.6506 30.9204 32.7832 31.1957L34.0446 30.5883C34.0497 30.599 34.033 30.5643 34.011 30.4466C33.9908 30.3383 33.9716 30.1904 33.9554 29.9975C33.9231 29.612 33.9059 29.0858 33.9059 28.412H32.5059ZM32.7742 31.1763C32.8823 31.4194 33.0616 31.5988 33.2422 31.7301L34.0656 30.5979C34.0533 30.5889 34.0446 30.5817 34.0388 30.5766C34.0331 30.5715 34.0307 30.5688 34.0308 30.5689C34.0309 30.5691 34.042 30.5816 34.0535 30.6077L32.7742 31.1763ZM33.2781 31.7546C33.483 31.8849 33.7135 31.9687 33.9637 31.9896L34.08 30.5944C34.0742 30.5939 34.0595 30.5924 34.0297 30.5734L33.2781 31.7546ZM33.9637 31.9896C34.1207 32.0027 34.3248 32.008 34.5659 32.008V30.608C34.3376 30.608 34.179 30.6027 34.08 30.5944L33.9637 31.9896ZM33.8754 31.4231L33.9074 31.6151L35.2884 31.3849L35.2564 31.1929L33.8754 31.4231ZM34.5979 30.8H30.7099V32.2H34.5979V30.8ZM31.4004 31.6151L31.4324 31.4231L30.0514 31.1929L30.0194 31.3849L31.4004 31.6151ZM30.7419 32.008C31.0873 32.008 31.397 31.9932 31.6245 31.9445L31.3312 30.5755C31.2601 30.5908 31.0791 30.608 30.7419 30.608V32.008ZM31.6582 31.9364C32.0986 31.8189 32.3596 31.4766 32.5099 31.161L31.2459 30.559C31.2318 30.5886 31.22 30.6084 31.2118 30.6207C31.2036 30.6329 31.2001 30.6358 31.2029 30.633C31.206 30.63 31.2156 30.621 31.2327 30.6108C31.2503 30.6002 31.2723 30.5904 31.2975 30.5836L31.6582 31.9364ZM32.5099 31.161C32.6694 30.8259 32.7407 30.4472 32.7535 30.0506L31.3542 30.0054C31.3457 30.2701 31.2997 30.4461 31.2459 30.559L32.5099 31.161ZM32.7525 30.0717C32.7753 29.7071 32.7859 29.15 32.7859 28.412H31.3859C31.3859 29.146 31.3751 29.6662 31.3552 29.9843L32.7525 30.0717ZM32.7859 28.412V27.484H31.3859V28.412H32.7859ZM32.7859 27.484C32.7859 26.7382 32.7752 26.1433 32.753 25.7046C32.7419 25.4859 32.7275 25.2969 32.7087 25.1429C32.6927 25.0124 32.666 24.834 32.603 24.6844L31.3127 25.2276C31.2924 25.1793 31.303 25.1822 31.3191 25.3131C31.3322 25.4205 31.3445 25.5728 31.3548 25.7754C31.3752 26.1794 31.3859 26.7471 31.3859 27.484H32.7859ZM32.6147 24.714C32.5345 24.4962 32.4516 24.3006 32.3644 24.1408L31.1353 24.8112C31.1762 24.886 31.2319 25.0104 31.301 25.198L32.6147 24.714ZM32.3644 24.1408C32.2148 23.8664 31.9774 23.67 31.6832 23.5719L31.2405 24.9001C31.2284 24.896 31.206 24.8859 31.1817 24.8658C31.1574 24.8455 31.1426 24.8245 31.1353 24.8112L32.3644 24.1408ZM31.6461 23.5607C31.3271 23.4737 30.9486 23.44 30.5339 23.44V24.84C30.8871 24.84 31.1273 24.8703 31.2777 24.9113L31.6461 23.5607ZM31.2226 24.0148L31.1906 23.8388L29.8132 24.0892L29.8452 24.2652L31.2226 24.0148ZM30.5997 24.6571C31.4747 24.5336 32.3433 24.472 33.2059 24.472V23.072C32.2764 23.072 31.3424 23.1384 30.404 23.2709L30.5997 24.6571ZM32.5059 23.772V26.124H33.9059V23.772H32.5059ZM33.8976 26.2312C33.9997 25.5724 34.216 25.1263 34.4974 24.8301L33.4824 23.8659C32.9531 24.423 32.6467 25.1609 32.5141 26.0168L33.8976 26.2312ZM34.4971 24.8304C34.7699 24.5437 35.1143 24.392 35.5899 24.392V22.992C34.7641 22.992 34.0419 23.2777 33.4827 23.8656L34.4971 24.8304ZM44.904 30.284L44.2176 30.4213L44.2184 30.4252L44.904 30.284ZM46.168 30.604L46.7941 30.291L46.4811 29.6649L45.855 29.9779L46.168 30.604ZM46.248 30.764L46.668 31.324L47.1354 30.9735L46.8741 30.451L46.248 30.764ZM45.912 31.004L46.2789 31.6002L46.2949 31.5903L46.3104 31.5795L45.912 31.004ZM45.064 31.356L45.2952 32.0167L45.064 31.356ZM43.832 31.58L43.151 31.7421L43.2791 32.28H43.832V31.58ZM43.672 29.436H44.372L43.0123 29.2019L43.672 29.436ZM42.744 31.052L42.2296 30.5772L42.2291 30.5778L42.744 31.052ZM39.576 31.132L39.0954 31.6409L39.1026 31.6478L39.1101 31.6544L39.576 31.132ZM43.672 27.068L43.6744 27.768L44.372 27.7656V27.068H43.672ZM43.336 24.732L42.7233 25.0706L43.336 24.732ZM41.256 24.38L41.6933 24.9266V24.9266L41.256 24.38ZM40.824 24.94L40.1672 24.698L40.1627 24.7102L40.1587 24.7225L40.824 24.94ZM40.28 24.172L39.967 23.5459L40.28 24.172ZM44.072 24.428L43.6005 24.9455L43.6069 24.9512L44.072 24.428ZM40.52 30.764L39.9547 31.1771L39.9627 31.1876L40.52 30.764ZM42.696 30.524L43.2294 30.9774L43.2348 30.9708L42.696 30.524ZM43.432 29.084L42.7545 28.9078L42.7521 28.9175L43.432 29.084ZM43.672 27.436L44.3715 27.4624L44.3992 26.7294L43.6657 26.736L43.672 27.436ZM41.048 28.092L40.6263 27.5332L40.6212 27.5372L41.048 28.092ZM44.092 26.332V27.948H45.492V26.332H44.092ZM44.092 27.948C44.092 29.1183 44.1269 29.968 44.2176 30.4213L45.5904 30.1467C45.5317 29.8533 45.492 29.1457 45.492 27.948H44.092ZM44.2184 30.4252C44.2717 30.684 44.3795 30.9655 44.601 31.187C44.8396 31.4256 45.1433 31.528 45.448 31.528V30.128C45.4499 30.128 45.4717 30.1285 45.5043 30.141C45.5384 30.1542 45.5687 30.1747 45.591 30.197C45.6117 30.2177 45.6168 30.2311 45.6134 30.2239C45.6096 30.216 45.5996 30.1913 45.5896 30.1428L44.2184 30.4252ZM45.448 31.528C45.795 31.528 46.1538 31.3937 46.4811 31.2301L45.855 29.9779C45.7292 30.0408 45.6304 30.0805 45.5561 30.1036C45.4794 30.1274 45.4468 30.128 45.448 30.128V31.528ZM45.5419 30.917L45.6219 31.077L46.8741 30.451L46.7941 30.291L45.5419 30.917ZM45.828 30.204C45.7526 30.2606 45.6486 30.335 45.5136 30.4285L46.3104 31.5795C46.4527 31.481 46.5728 31.3954 46.668 31.324L45.828 30.204ZM45.5451 30.4078C45.4802 30.4478 45.2675 30.5431 44.8328 30.6953L45.2952 32.0167C45.7138 31.8702 46.0664 31.7309 46.2789 31.6002L45.5451 30.4078ZM44.8328 30.6953C44.4698 30.8223 44.1374 30.88 43.832 30.88V32.28C44.3159 32.28 44.8049 32.1883 45.2952 32.0167L44.8328 30.6953ZM44.513 31.4179C44.4265 31.0547 44.372 30.4097 44.372 29.436H42.972C42.972 30.4249 43.0242 31.2093 43.151 31.7421L44.513 31.4179ZM43.0123 29.2019C42.8019 29.7947 42.536 30.2453 42.2296 30.5772L43.2584 31.5268C43.72 31.0267 44.0727 30.3999 44.3317 29.6701L43.0123 29.2019ZM42.2291 30.5778C42.0168 30.8083 41.6987 30.96 41.176 30.96V32.36C41.9973 32.36 42.7246 32.1063 43.2589 31.5262L42.2291 30.5778ZM41.176 30.96C40.6278 30.96 40.2765 30.8188 40.0419 30.6096L39.1101 31.6544C39.6648 32.1492 40.3802 32.36 41.176 32.36V30.96ZM40.0566 30.6231C39.8368 30.4154 39.7 30.122 39.7 29.66H38.3C38.3 30.4354 38.5472 31.1232 39.0954 31.6409L40.0566 30.6231ZM39.7 29.66C39.7 29.34 39.7713 29.0926 39.8914 28.8936C40.0122 28.6933 40.2057 28.5036 40.5076 28.3361C41.1322 27.9896 42.1586 27.7732 43.6744 27.768L43.6696 26.368C42.0707 26.3735 40.7611 26.5944 39.8284 27.1119C39.3516 27.3764 38.9611 27.7254 38.6926 28.1704C38.4234 28.6167 38.3 29.1213 38.3 29.66H39.7ZM44.372 27.068V26.492H42.972V27.068H44.372ZM44.372 26.492C44.372 25.6746 44.256 24.9495 43.9487 24.3934L42.7233 25.0706C42.864 25.3251 42.972 25.7734 42.972 26.492H44.372ZM43.9487 24.3934C43.5626 23.6947 42.8588 23.424 42.088 23.424V24.824C42.5332 24.824 42.6614 24.9586 42.7233 25.0706L43.9487 24.3934ZM42.088 23.424C41.6283 23.424 41.1845 23.5407 40.8187 23.8334L41.6933 24.9266C41.7542 24.8779 41.865 24.824 42.088 24.824V23.424ZM40.8187 23.8334C40.5319 24.0629 40.2962 24.3478 40.1672 24.698L41.4808 25.182C41.5012 25.1268 41.5535 25.0385 41.6933 24.9266L40.8187 23.8334ZM40.1587 24.7225C40.0861 24.9444 40.0165 25.041 39.9842 25.0739C39.9714 25.0869 39.9705 25.0839 39.9827 25.0786C39.9882 25.0761 39.9942 25.0743 39.9999 25.0731C40.0054 25.072 40.0085 25.072 40.008 25.072V26.472C40.8436 26.472 41.2807 25.7959 41.4893 25.1575L40.1587 24.7225ZM40.008 25.072C39.9837 25.072 39.9929 25.0684 40.0221 25.0793C40.0553 25.0917 40.0978 25.117 40.1344 25.1581C40.2058 25.2381 40.18 25.2879 40.18 25.18H38.78C38.78 25.4667 38.8422 25.8126 39.0896 26.0899C39.3506 26.3826 39.7021 26.472 40.008 26.472V25.072ZM40.18 25.18C40.18 25.145 40.1871 25.1111 40.2283 25.0592C40.2784 24.9961 40.3844 24.9024 40.5931 24.7981L39.967 23.5459C39.3222 23.8683 38.78 24.3933 38.78 25.18H40.18ZM40.5931 24.7981C41.0065 24.5914 41.5388 24.472 42.216 24.472V23.072C41.3785 23.072 40.6201 23.2193 39.967 23.5459L40.5931 24.7981ZM42.216 24.472C42.8298 24.472 43.2706 24.6448 43.6006 24.9454L44.5434 23.9106C43.9134 23.3365 43.1169 23.072 42.216 23.072V24.472ZM43.6069 24.9512C43.8944 25.2067 44.092 25.6232 44.092 26.332H45.492C45.492 25.3555 45.2096 24.5027 44.5371 23.9048L43.6069 24.9512ZM39.516 29.724C39.516 30.2564 39.6474 30.7563 39.9548 31.177L41.0852 30.351C40.9873 30.2171 40.916 30.0236 40.916 29.724H39.516ZM39.9627 31.1876C40.3364 31.6792 40.8968 31.864 41.48 31.864V30.464C41.1885 30.464 41.109 30.3821 41.0773 30.3404L39.9627 31.1876ZM41.48 31.864C42.1832 31.864 42.7698 31.5181 43.2294 30.9774L42.1626 30.0706C41.8969 30.3833 41.6728 30.464 41.48 30.464V31.864ZM43.2348 30.9708C43.6613 30.4566 43.9573 29.8818 44.1119 29.2505L42.7521 28.9175C42.6507 29.3315 42.4561 29.7167 42.1572 30.0772L43.2348 30.9708ZM44.1095 29.2601C44.2612 28.6765 44.3483 28.0769 44.3715 27.4624L42.9725 27.4096C42.953 27.9257 42.8801 28.4248 42.7545 28.9079L44.1095 29.2601ZM43.6657 26.736C42.4231 26.7472 41.3681 26.9734 40.6263 27.5333L41.4697 28.6507C41.8585 28.3573 42.5529 28.1461 43.6783 28.136L43.6657 26.736ZM40.6212 27.5372C39.9059 28.0874 39.516 28.8311 39.516 29.724H40.916C40.916 29.2943 41.0808 28.9499 41.4748 28.6468L40.6212 27.5372ZM51.5491 27.468L52.1997 27.2098L52.1994 27.209L51.5491 27.468ZM52.7811 30.572L52.1305 30.8302L52.8467 32.6348L53.4468 30.7884L52.7811 30.572ZM54.0291 26.732L54.6949 26.9484L54.6959 26.945L54.0291 26.732ZM53.2771 24.124L52.5866 24.2391L52.6841 24.824H53.2771V24.124ZM53.2451 23.932V23.232H52.4188L52.5546 24.0471L53.2451 23.932ZM56.2531 23.932L56.9436 24.0471L57.0794 23.232H56.2531V23.932ZM56.2211 24.124V24.824H56.8141L56.9116 24.2391L56.2211 24.124ZM55.2931 24.556L54.7007 24.183L54.697 24.1891L55.2931 24.556ZM54.3171 27.164L53.6521 26.9456L54.3171 27.164ZM52.8771 31.548V32.248H53.384L53.5422 31.7664L52.8771 31.548ZM51.9331 31.548L51.2813 31.8032L51.4555 32.248H51.9331V31.548ZM49.8531 26.236L50.5049 25.9808L50.5047 25.98L49.8531 26.236ZM48.8931 24.508L48.4182 25.0225L48.4281 25.0312L48.8931 24.508ZM47.8851 24.124L47.1946 24.2391L47.2921 24.824H47.8851V24.124ZM47.8531 23.932V23.232H47.0268L47.1626 24.0471L47.8531 23.932ZM51.8211 23.932L52.5116 24.0471L52.6474 23.232H51.8211V23.932ZM51.7891 24.124V24.824H52.3821L52.4796 24.2391L51.7891 24.124ZM51.0051 24.3L50.5726 23.7496L50.5627 23.7574L50.553 23.7656L51.0051 24.3ZM50.0971 24.844C50.0971 25.1882 50.1814 25.6046 50.3122 26.0608C50.4463 26.5286 50.6432 27.0854 50.8988 27.727L52.1994 27.209C51.9537 26.5919 51.7747 26.0821 51.658 25.6752C51.5381 25.2568 51.4971 24.9904 51.4971 24.844H50.0971ZM50.8985 27.7262L52.1305 30.8302L53.4318 30.3138L52.1997 27.2098L50.8985 27.7262ZM53.4468 30.7884L54.6948 26.9484L53.3634 26.5156L52.1154 30.3556L53.4468 30.7884ZM54.6959 26.945C54.9453 26.1644 55.0971 25.4967 55.0971 24.988H53.6971C53.6971 25.2686 53.6036 25.7636 53.3623 26.519L54.6959 26.945ZM55.0971 24.988C55.0971 24.5365 54.9415 24.0918 54.5447 23.7858C54.1823 23.5062 53.7209 23.424 53.2771 23.424V24.824C53.58 24.824 53.6786 24.8858 53.6896 24.8942C53.6911 24.8954 53.6895 24.8944 53.6871 24.8913C53.6846 24.8881 53.6839 24.8862 53.6845 24.8877C53.6859 24.8907 53.6971 24.9187 53.6971 24.988H55.0971ZM53.9676 24.0089L53.9356 23.8169L52.5546 24.0471L52.5866 24.2391L53.9676 24.0089ZM53.2451 24.632H56.2531V23.232H53.2451V24.632ZM55.5626 23.8169L55.5306 24.0089L56.9116 24.2391L56.9436 24.0471L55.5626 23.8169ZM56.2211 23.424C55.6211 23.424 55.0468 23.6334 54.7008 24.183L55.8855 24.929C55.9021 24.9026 55.9465 24.824 56.2211 24.824V23.424ZM54.697 24.1891C54.5705 24.3946 54.425 24.7444 54.2655 25.1707C54.0981 25.6181 53.8934 26.2109 53.6521 26.9456L54.9822 27.3824C55.2209 26.6558 55.4188 26.0833 55.5767 25.6613C55.7425 25.2183 55.845 24.9948 55.8893 24.9229L54.697 24.1891ZM53.6521 26.9456L52.2121 31.3296L53.5422 31.7664L54.9822 27.3824L53.6521 26.9456ZM52.8771 30.848H51.9331V32.248H52.8771V30.848ZM52.5849 31.2928L50.5049 25.9808L49.2013 26.4912L51.2813 31.8032L52.5849 31.2928ZM50.5047 25.98C50.322 25.5151 50.1412 25.1164 49.961 24.792C49.7859 24.4768 49.5885 24.1895 49.3582 23.9848L48.4281 25.0312C48.4858 25.0825 48.5923 25.2112 48.7372 25.472C48.877 25.7236 49.0323 26.0609 49.2016 26.492L50.5047 25.98ZM49.3679 23.9936C48.9549 23.6124 48.4469 23.424 47.8851 23.424V24.824C48.1127 24.824 48.2767 24.8916 48.4183 25.0224L49.3679 23.9936ZM48.5756 24.0089L48.5436 23.8169L47.1626 24.0471L47.1946 24.2391L48.5756 24.0089ZM47.8531 24.632H51.8211V23.232H47.8531V24.632ZM51.1306 23.8169L51.0986 24.0089L52.4796 24.2391L52.5116 24.0471L51.1306 23.8169ZM51.7891 23.424C51.3874 23.424 50.9181 23.4781 50.5726 23.7496L51.4376 24.8504C51.4038 24.877 51.3985 24.8662 51.4665 24.851C51.5315 24.8364 51.6355 24.824 51.7891 24.824V23.424ZM50.553 23.7656C50.2069 24.0584 50.0971 24.4691 50.0971 24.844H51.4971C51.4971 24.7852 51.5057 24.7669 51.503 24.774C51.5014 24.7782 51.4971 24.7878 51.4885 24.8C51.4799 24.8125 51.4691 24.8244 51.4573 24.8344L50.553 23.7656ZM64.8009 27.452V28.152H65.5009V27.452H64.8009ZM59.5529 27.452V26.752H58.8529V27.452H59.5529ZM60.2729 30.316L59.7272 30.7545L59.7311 30.7593L60.2729 30.316ZM64.3689 29.916L64.6983 29.2984L64.0886 28.9732L63.7555 29.5787L64.3689 29.916ZM64.6089 30.044L65.2312 30.3644L65.547 29.751L64.9383 29.4264L64.6089 30.044ZM59.3609 30.62L58.8621 31.1111L59.3609 30.62ZM59.2329 24.908L58.687 24.4698L58.6833 24.4745L59.2329 24.908ZM63.9849 24.812L63.4341 25.2441L63.4374 25.2482L63.9849 24.812ZM60.2249 24.892L59.646 24.4984L59.6443 24.501L60.2249 24.892ZM59.5849 26.988L58.8874 26.9285L58.8226 27.688H59.5849V26.988ZM63.5689 26.988V27.688H64.2965L64.2684 26.9609L63.5689 26.988ZM64.8009 26.752H59.5529V28.152H64.8009V26.752ZM58.8529 27.452V27.724H60.2529V27.452H58.8529ZM58.8529 27.724C58.8529 28.941 59.1095 29.9858 59.7272 30.7545L60.8185 29.8775C60.4762 29.4515 60.2529 28.7683 60.2529 27.724H58.8529ZM59.7311 30.7593C60.3348 31.4971 61.1261 31.896 62.0649 31.896V30.496C61.5744 30.496 61.171 30.3082 60.8146 29.8727L59.7311 30.7593ZM62.0649 31.896C63.357 31.896 64.3761 31.3553 64.9822 30.2533L63.7555 29.5787C63.4229 30.1834 62.9061 30.496 62.0649 30.496V31.896ZM64.0395 30.5336L64.2795 30.6616L64.9383 29.4264L64.6983 29.2984L64.0395 30.5336ZM63.9865 29.7236C63.7623 30.1591 63.4793 30.4568 63.1455 30.6506C62.8088 30.846 62.3783 30.96 61.8249 30.96V32.36C62.5728 32.36 63.2569 32.2047 63.8483 31.8614C64.4425 31.5165 64.9008 31.0062 65.2312 30.3644L63.9865 29.7236ZM61.8249 30.96C61.0553 30.96 60.4128 30.6906 59.8597 30.1289L58.8621 31.1111C59.6743 31.936 60.6745 32.36 61.8249 32.36V30.96ZM59.8597 30.1289C59.3317 29.5927 59.0369 28.8499 59.0369 27.82H57.6369C57.6369 29.1368 58.0247 30.2607 58.8621 31.1111L59.8597 30.1289ZM59.0369 27.82C59.0369 26.7565 59.3031 25.9493 59.7825 25.3415L58.6833 24.4745C57.968 25.3814 57.6369 26.5155 57.6369 27.82H59.0369ZM59.7787 25.3462C60.249 24.7605 60.8505 24.472 61.6489 24.472V23.072C60.442 23.072 59.4328 23.5408 58.687 24.4698L59.7787 25.3462ZM61.6489 24.472C62.4836 24.472 63.0438 24.7466 63.4342 25.2441L64.5356 24.3799C63.8379 23.4907 62.8408 23.072 61.6489 23.072V24.472ZM63.4374 25.2482C63.8613 25.7801 64.1009 26.495 64.1009 27.452H65.5009C65.5009 26.2543 65.1965 25.2092 64.5323 24.3758L63.4374 25.2482ZM61.6969 23.392C60.8349 23.392 60.1324 23.7831 59.646 24.4984L60.8037 25.2856C61.0427 24.9342 61.3215 24.792 61.6969 24.792V23.392ZM59.6443 24.501C59.2047 25.1536 58.9684 25.9794 58.8874 26.9285L60.2823 27.0475C60.3507 26.2473 60.541 25.6757 60.8055 25.283L59.6443 24.501ZM59.5849 27.688H63.5689V26.288H59.5849V27.688ZM64.2684 26.9609C64.2291 25.9458 64.0448 25.0735 63.6328 24.436C63.1886 23.7488 62.5151 23.392 61.6969 23.392V24.792C62.052 24.792 62.2772 24.9178 62.457 25.196C62.6689 25.5239 62.834 26.0996 62.8694 27.0151L64.2684 26.9609ZM70.1311 19.724H70.8311V19.024H70.1311V19.724ZM70.3391 30.908L69.7129 31.2211L69.7181 31.2309L70.3391 30.908ZM71.4911 31.308L72.1816 31.1929L72.0841 30.608H71.4911V31.308ZM71.5231 31.5V32.2H72.3494L72.2136 31.3849L71.5231 31.5ZM67.6031 31.5L66.9127 31.3849L66.7768 32.2H67.6031V31.5ZM67.6351 31.308V30.608H67.0421L66.9446 31.1929L67.6351 31.308ZM68.8031 30.908L68.1821 30.5851L68.8031 30.908ZM68.8191 20.46L69.4397 20.1362L69.4335 20.1243L69.4269 20.1127L68.8191 20.46ZM68.5791 20.236L68.9549 19.6454L68.9549 19.6454L68.5791 20.236ZM68.1951 20.108L68.137 20.8056L68.1414 20.8059L68.1951 20.108ZM67.6351 20.092L66.9464 20.2172L67.0509 20.792H67.6351V20.092ZM67.6031 19.916L67.4925 19.2248L66.7865 19.3378L66.9144 20.0412L67.6031 19.916ZM69.4311 19.724V28.716H70.8311V19.724H69.4311ZM69.4311 28.716C69.4311 29.3185 69.4486 29.8217 69.4863 30.2181C69.5209 30.5835 69.5795 30.954 69.713 31.221L70.9652 30.595C70.9697 30.6039 70.9543 30.5736 70.9337 30.4735C70.9145 30.3804 70.8958 30.2529 70.88 30.0859C70.8483 29.7516 70.8311 29.2975 70.8311 28.716H69.4311ZM69.7181 31.2309C69.8954 31.5719 70.2013 31.765 70.5015 31.8693C70.7963 31.9716 71.1363 32.008 71.4911 32.008V30.608C71.2166 30.608 71.05 30.5777 70.9607 30.5467C70.877 30.5176 70.9215 30.5107 70.9602 30.5851L69.7181 31.2309ZM70.8006 31.4231L70.8326 31.6151L72.2136 31.3849L72.1816 31.1929L70.8006 31.4231ZM71.5231 30.8H67.6031V32.2H71.5231V30.8ZM68.2936 31.6151L68.3256 31.4231L66.9446 31.1929L66.9127 31.3849L68.2936 31.6151ZM67.6351 32.008C67.9944 32.008 68.3374 31.9718 68.6339 31.8702C68.9349 31.7672 69.2453 31.575 69.4242 31.2309L68.1821 30.5851C68.2223 30.5077 68.2687 30.5155 68.1803 30.5458C68.0875 30.5775 67.9159 30.608 67.6351 30.608V32.008ZM69.4242 31.2309C69.5633 30.9634 69.6217 30.588 69.656 30.2261C69.6936 29.8295 69.7111 29.3236 69.7111 28.716H68.3111C68.3111 29.3031 68.294 29.7598 68.2623 30.0939C68.2273 30.4626 68.1816 30.5859 68.1821 30.5851L69.4242 31.2309ZM69.7111 28.716V22.604H68.3111V28.716H69.7111ZM69.7111 22.604C69.7111 22.0027 69.695 21.5046 69.6603 21.1176C69.643 20.9242 69.6202 20.7479 69.5895 20.5947C69.5609 20.4514 69.5173 20.2848 69.4397 20.1362L68.1985 20.7838C68.185 20.7579 68.1974 20.7726 68.2167 20.8693C68.2341 20.9561 68.2512 21.0785 68.2659 21.2424C68.2953 21.5701 68.3111 22.0213 68.3111 22.604H69.7111ZM69.4269 20.1127C69.3033 19.8964 69.1154 19.7476 68.9549 19.6454L68.2033 20.8266C68.2186 20.8363 68.2298 20.8442 68.2377 20.8502C68.2456 20.8562 68.2492 20.8594 68.2495 20.8597C68.2498 20.8601 68.2458 20.8564 68.2392 20.8483C68.2326 20.8402 68.2224 20.8267 68.2114 20.8073L69.4269 20.1127ZM68.9549 19.6454C68.7407 19.5091 68.502 19.4295 68.2488 19.4101L68.1414 20.8059C68.1655 20.8078 68.1829 20.8136 68.2033 20.8266L68.9549 19.6454ZM68.2533 19.4104C68.0957 19.3973 67.8858 19.392 67.6351 19.392V20.792C67.8751 20.792 68.0385 20.7974 68.137 20.8056L68.2533 19.4104ZM68.3238 19.9668L68.2918 19.7908L66.9144 20.0412L66.9464 20.2172L68.3238 19.9668ZM67.7137 20.6072C68.474 20.4856 69.2795 20.424 70.1311 20.424V19.024C69.2121 19.024 68.3323 19.0904 67.4925 19.2248L67.7137 20.6072Z" fill="#25A59E" mask="url(#path-1-outside-1_14_1878)"/>
<path d="M334 22H352" stroke="#262626" stroke-width="1.5" stroke-linecap="round"/>
<path d="M334 27H352" stroke="#262626" stroke-width="1.5" stroke-linecap="round"/>
<path d="M334 32H352" stroke="#262626" stroke-width="1.5" stroke-linecap="round"/>
</svg>
