<svg width="64" height="64" viewBox="0 0 64 64" fill="none" xmlns="http://www.w3.org/2000/svg">
<g opacity="0.9">
<g filter="url(#filter0_b_14_1892)">
<circle cx="32" cy="32" r="30" fill="#333333" fill-opacity="0.2"/>
<circle cx="32" cy="32" r="31" stroke="url(#paint0_linear_14_1892)" stroke-opacity="0.8" stroke-width="2"/>
</g>
<path fill-rule="evenodd" clip-rule="evenodd" d="M20.3335 32.0069C20.3335 25.5675 25.57 20.3335 32.0002 20.3335C38.4303 20.3335 43.6668 25.5675 43.6668 32.0069C43.6668 38.4329 38.4303 43.6668 32.0002 43.6668C25.57 43.6668 20.3335 38.4329 20.3335 32.0069ZM36.2792 33.1871C36.4031 33.0633 36.5608 32.872 36.5945 32.8269C36.7747 32.5906 36.8648 32.2979 36.8648 32.0064C36.8648 31.6788 36.7635 31.3749 36.572 31.1273C36.5563 31.1116 36.5256 31.0782 36.4856 31.0346C36.4107 30.9531 36.3031 30.836 36.2004 30.7334C35.277 29.7428 32.8671 28.122 31.6058 27.6267C31.4144 27.5491 30.9301 27.3791 30.6711 27.3679C30.4234 27.3679 30.1869 27.4241 29.9617 27.5367C29.6801 27.6943 29.4549 27.9419 29.331 28.2346C29.2522 28.4372 29.1283 29.045 29.1283 29.0562C29.0045 29.7203 28.9369 30.8009 28.9369 31.994C28.9369 33.132 29.0045 34.1664 29.1058 34.8417C29.1086 34.8445 29.1183 34.8928 29.1333 34.9679C29.1791 35.196 29.2744 35.6712 29.3761 35.866C29.6238 36.3388 30.1081 36.6314 30.6261 36.6314H30.6711C31.009 36.6202 31.7184 36.3275 31.7184 36.3162C32.9121 35.821 35.2657 34.2789 36.2117 33.2547L36.2792 33.1871Z" fill="url(#paint1_linear_14_1892)"/>
</g>
<defs>
<filter id="filter0_b_14_1892" x="-132" y="-132" width="328" height="328" filterUnits="userSpaceOnUse" color-interpolation-filters="sRGB">
<feFlood flood-opacity="0" result="BackgroundImageFix"/>
<feGaussianBlur in="BackgroundImageFix" stdDeviation="66"/>
<feComposite in2="SourceAlpha" operator="in" result="effect1_backgroundBlur_14_1892"/>
<feBlend mode="normal" in="SourceGraphic" in2="effect1_backgroundBlur_14_1892" result="shape"/>
</filter>
<linearGradient id="paint0_linear_14_1892" x1="32.2564" y1="2" x2="32" y2="62" gradientUnits="userSpaceOnUse">
<stop stop-color="white"/>
<stop offset="1" stop-color="white" stop-opacity="0.1"/>
</linearGradient>
<linearGradient id="paint1_linear_14_1892" x1="32.0002" y1="42.7335" x2="32.0002" y2="20.3335" gradientUnits="userSpaceOnUse">
<stop stop-color="white"/>
<stop offset="1" stop-color="white" stop-opacity="0.8"/>
</linearGradient>
</defs>
</svg>
