<svg width="145" height="42" viewBox="0 0 145 42" fill="none" xmlns="http://www.w3.org/2000/svg">
<g clip-path="url(#clip0_6123_477)">
<g filter="url(#filter0_d_6123_477)">
<g filter="url(#filter1_b_6123_477)">
<path fill-rule="evenodd" clip-rule="evenodd" d="M0.5 21C0.5 9.95431 9.45431 1 20.5 1C31.5457 1 40.5 9.95431 40.5 21C40.5 32.0457 31.5457 41 20.5 41C9.45431 41 0.5 32.0457 0.5 21Z" fill="#EAFAF9"/>
</g>
<path fill-rule="evenodd" clip-rule="evenodd" d="M20.5017 10.334C17.6047 10.334 17.2412 10.3467 16.1034 10.3984C14.9678 10.4504 14.1927 10.6302 13.5145 10.894C12.8129 11.1664 12.2178 11.5309 11.6249 12.124C11.0316 12.7169 10.6671 13.312 10.3938 14.0134C10.1293 14.6918 9.94932 15.4671 9.89821 16.6023C9.84732 17.7401 9.83398 18.1038 9.83398 21.0008C9.83398 23.8977 9.84687 24.2601 9.89843 25.3979C9.95065 26.5335 10.1304 27.3086 10.394 27.9868C10.6667 28.6884 11.0311 29.2835 11.6242 29.8764C12.2169 30.4697 12.812 30.8351 13.5131 31.1075C14.1918 31.3713 14.9671 31.5511 16.1025 31.6031C17.2403 31.6549 17.6036 31.6675 20.5003 31.6675C23.3975 31.6675 23.7599 31.6549 24.8977 31.6031C26.0333 31.5511 26.8093 31.3713 27.4879 31.1075C28.1893 30.8351 28.7835 30.4697 29.3762 29.8764C29.9695 29.2835 30.334 28.6884 30.6073 27.9871C30.8695 27.3086 31.0495 26.5333 31.1029 25.3981C31.154 24.2604 31.1673 23.8977 31.1673 21.0008C31.1673 18.1038 31.154 17.7403 31.1029 16.6025C31.0495 15.4669 30.8695 14.6918 30.6073 14.0136C30.334 13.312 29.9695 12.7169 29.3762 12.124C28.7828 11.5307 28.1895 11.1662 27.4873 10.894C26.8073 10.6302 26.0317 10.4504 24.8961 10.3984C23.7584 10.3467 23.3961 10.334 20.4983 10.334H20.5017ZM19.5447 12.2562C19.8287 12.2558 20.1456 12.2562 20.5016 12.2562C23.3496 12.2562 23.6872 12.2664 24.8119 12.3175C25.8519 12.3651 26.4163 12.5389 26.7923 12.6849C27.2901 12.8782 27.645 13.1093 28.0181 13.4827C28.3915 13.856 28.6226 14.2116 28.8164 14.7093C28.9624 15.0849 29.1364 15.6493 29.1837 16.6894C29.2348 17.8138 29.2459 18.1516 29.2459 20.9983C29.2459 23.845 29.2348 24.1828 29.1837 25.3072C29.1361 26.3472 28.9624 26.9117 28.8164 27.2872C28.623 27.785 28.3915 28.1395 28.0181 28.5126C27.6448 28.8859 27.2903 29.117 26.7923 29.3104C26.4168 29.457 25.8519 29.6304 24.8119 29.6779C23.6874 29.729 23.3496 29.7402 20.5016 29.7402C17.6534 29.7402 17.3158 29.729 16.1913 29.6779C15.1513 29.6299 14.5869 29.4562 14.2107 29.3102C13.7129 29.1168 13.3573 28.8857 12.984 28.5124C12.6106 28.139 12.3795 27.7844 12.1857 27.2864C12.0397 26.9108 11.8657 26.3463 11.8184 25.3063C11.7673 24.1819 11.7571 23.8441 11.7571 20.9956C11.7571 18.1471 11.7673 17.8111 11.8184 16.6867C11.866 15.6467 12.0397 15.0822 12.1857 14.7062C12.3791 14.2084 12.6106 13.8529 12.984 13.4795C13.3573 13.1062 13.7129 12.8751 14.2107 12.6813C14.5867 12.5346 15.1513 12.3613 16.1913 12.3135C17.1753 12.2691 17.5567 12.2558 19.5447 12.2535V12.2562ZM26.1954 14.0273C25.4888 14.0273 24.9154 14.6 24.9154 15.3069C24.9154 16.0136 25.4888 16.5869 26.1954 16.5869C26.9021 16.5869 27.4755 16.0136 27.4755 15.3069C27.4755 14.6002 26.9021 14.0273 26.1954 14.0273ZM20.5017 15.5229C17.4765 15.5229 15.0238 17.9756 15.0238 21.0007C15.0238 24.0259 17.4765 26.4775 20.5017 26.4775C23.5268 26.4775 25.9786 24.0259 25.9786 21.0007C25.9786 17.9756 23.5268 15.5229 20.5017 15.5229ZM20.5016 17.4451C22.4652 17.4451 24.0572 19.0369 24.0572 21.0007C24.0572 22.9643 22.4652 24.5563 20.5016 24.5563C18.5378 24.5563 16.946 22.9643 16.946 21.0007C16.946 19.0369 18.5378 17.4451 20.5016 17.4451Z" fill="#25A59E"/>
</g>
<g filter="url(#filter2_d_6123_477)">
<g filter="url(#filter3_b_6123_477)">
<path fill-rule="evenodd" clip-rule="evenodd" d="M52.5 21C52.5 9.95431 61.4543 1 72.5 1C83.5457 1 92.5 9.95431 92.5 21C92.5 32.0457 83.5457 41 72.5 41C61.4543 41 52.5 32.0457 52.5 21Z" fill="#EAFAF9"/>
</g>
<path fill-rule="evenodd" clip-rule="evenodd" d="M71.901 17.2562L71.943 17.9483L71.2435 17.8636C68.6974 17.5387 66.473 16.4371 64.5844 14.5869L63.6611 13.6689L63.4233 14.3468C62.9197 15.858 63.2414 17.454 64.2907 18.5274C64.8503 19.1205 64.7243 19.2053 63.7591 18.8522C63.4233 18.7392 63.1295 18.6545 63.1016 18.6968C63.0036 18.7957 63.3394 20.0809 63.6052 20.5894C63.9689 21.2955 64.7104 21.9876 65.5218 22.3972L66.2072 22.722L65.3958 22.7361C64.6124 22.7361 64.5844 22.7502 64.6684 23.0468C64.9482 23.9648 66.0534 24.9394 67.2844 25.3631L68.1518 25.6597L67.3964 26.1116C66.2772 26.7613 64.9622 27.1285 63.6471 27.1567C63.0176 27.1709 62.5 27.2273 62.5 27.2697C62.5 27.4109 64.2067 28.2019 65.2 28.5126C68.1798 29.4306 71.7191 29.0351 74.3772 27.4674C76.2658 26.3517 78.1543 24.1343 79.0357 21.9876C79.5113 20.8436 79.987 18.7533 79.987 17.7506C79.987 17.1009 80.029 17.0162 80.8124 16.2394C81.274 15.7874 81.7077 15.2931 81.7916 15.1519C81.9315 14.8835 81.9175 14.8835 81.2041 15.1236C80.015 15.5473 79.8471 15.4908 80.4347 14.8553C80.8683 14.4033 81.3859 13.5842 81.3859 13.3441C81.3859 13.3017 81.1761 13.3723 80.9383 13.4994C80.6865 13.6407 80.1269 13.8525 79.7072 13.9796L78.9518 14.2197L78.2663 13.7537C77.8885 13.4994 77.3569 13.217 77.0772 13.1322C76.3637 12.9345 75.2725 12.9627 74.629 13.1887C72.8803 13.8243 71.7751 15.4626 71.901 17.2562Z" fill="#25A59E"/>
</g>
<g filter="url(#filter4_d_6123_477)">
<g filter="url(#filter5_b_6123_477)">
<path fill-rule="evenodd" clip-rule="evenodd" d="M104.5 21C104.5 9.95431 113.454 1 124.5 1C135.546 1 144.5 9.95431 144.5 21C144.5 32.0457 135.546 41 124.5 41C113.454 41 104.5 32.0457 104.5 21Z" fill="#EAFAF9"/>
</g>
<path fill-rule="evenodd" clip-rule="evenodd" d="M132.835 14.1238C133.753 14.3757 134.476 15.1179 134.722 16.0604C135.167 17.7685 135.167 21.3327 135.167 21.3327C135.167 21.3327 135.167 24.8967 134.722 26.605C134.476 27.5475 133.753 28.2897 132.835 28.5417C131.172 28.9994 124.501 28.9994 124.501 28.9994C124.501 28.9994 117.829 28.9994 116.166 28.5417C115.248 28.2897 114.525 27.5475 114.28 26.605C113.834 24.8967 113.834 21.3327 113.834 21.3327C113.834 21.3327 113.834 17.7685 114.28 16.0604C114.525 15.1179 115.248 14.3757 116.166 14.1238C117.829 13.666 124.501 13.666 124.501 13.666C124.501 13.666 131.172 13.666 132.835 14.1238ZM122.501 18.3326V24.9993L127.834 21.6661L122.501 18.3326Z" fill="#25A59E"/>
</g>
</g>
<defs>
<filter id="filter0_d_6123_477" x="-15.0923" y="-69.633" width="282.083" height="282.083" filterUnits="userSpaceOnUse" color-interpolation-filters="sRGB">
<feFlood flood-opacity="0" result="BackgroundImageFix"/>
<feColorMatrix in="SourceAlpha" type="matrix" values="0 0 0 0 0 0 0 0 0 0 0 0 0 0 0 0 0 0 127 0" result="hardAlpha"/>
<feOffset dx="105.449" dy="50.4088"/>
<feGaussianBlur stdDeviation="60.5209"/>
<feComposite in2="hardAlpha" operator="out"/>
<feColorMatrix type="matrix" values="0 0 0 0 0.172549 0 0 0 0 0.113725 0 0 0 0 0.235294 0 0 0 0.25 0"/>
<feBlend mode="normal" in2="BackgroundImageFix" result="effect1_dropShadow_6123_477"/>
<feBlend mode="normal" in="SourceGraphic" in2="effect1_dropShadow_6123_477" result="shape"/>
</filter>
<filter id="filter1_b_6123_477" x="-8.5" y="-8" width="58" height="58" filterUnits="userSpaceOnUse" color-interpolation-filters="sRGB">
<feFlood flood-opacity="0" result="BackgroundImageFix"/>
<feGaussianBlur in="BackgroundImageFix" stdDeviation="4.5"/>
<feComposite in2="SourceAlpha" operator="in" result="effect1_backgroundBlur_6123_477"/>
<feBlend mode="normal" in="SourceGraphic" in2="effect1_backgroundBlur_6123_477" result="shape"/>
</filter>
<filter id="filter2_d_6123_477" x="36.9077" y="-69.633" width="282.083" height="282.083" filterUnits="userSpaceOnUse" color-interpolation-filters="sRGB">
<feFlood flood-opacity="0" result="BackgroundImageFix"/>
<feColorMatrix in="SourceAlpha" type="matrix" values="0 0 0 0 0 0 0 0 0 0 0 0 0 0 0 0 0 0 127 0" result="hardAlpha"/>
<feOffset dx="105.449" dy="50.4088"/>
<feGaussianBlur stdDeviation="60.5209"/>
<feComposite in2="hardAlpha" operator="out"/>
<feColorMatrix type="matrix" values="0 0 0 0 0.172549 0 0 0 0 0.113725 0 0 0 0 0.235294 0 0 0 0.25 0"/>
<feBlend mode="normal" in2="BackgroundImageFix" result="effect1_dropShadow_6123_477"/>
<feBlend mode="normal" in="SourceGraphic" in2="effect1_dropShadow_6123_477" result="shape"/>
</filter>
<filter id="filter3_b_6123_477" x="43.5" y="-8" width="58" height="58" filterUnits="userSpaceOnUse" color-interpolation-filters="sRGB">
<feFlood flood-opacity="0" result="BackgroundImageFix"/>
<feGaussianBlur in="BackgroundImageFix" stdDeviation="4.5"/>
<feComposite in2="SourceAlpha" operator="in" result="effect1_backgroundBlur_6123_477"/>
<feBlend mode="normal" in="SourceGraphic" in2="effect1_backgroundBlur_6123_477" result="shape"/>
</filter>
<filter id="filter4_d_6123_477" x="88.9077" y="-69.633" width="282.083" height="282.083" filterUnits="userSpaceOnUse" color-interpolation-filters="sRGB">
<feFlood flood-opacity="0" result="BackgroundImageFix"/>
<feColorMatrix in="SourceAlpha" type="matrix" values="0 0 0 0 0 0 0 0 0 0 0 0 0 0 0 0 0 0 127 0" result="hardAlpha"/>
<feOffset dx="105.449" dy="50.4088"/>
<feGaussianBlur stdDeviation="60.5209"/>
<feComposite in2="hardAlpha" operator="out"/>
<feColorMatrix type="matrix" values="0 0 0 0 0.172549 0 0 0 0 0.113725 0 0 0 0 0.235294 0 0 0 0.25 0"/>
<feBlend mode="normal" in2="BackgroundImageFix" result="effect1_dropShadow_6123_477"/>
<feBlend mode="normal" in="SourceGraphic" in2="effect1_dropShadow_6123_477" result="shape"/>
</filter>
<filter id="filter5_b_6123_477" x="95.5" y="-8" width="58" height="58" filterUnits="userSpaceOnUse" color-interpolation-filters="sRGB">
<feFlood flood-opacity="0" result="BackgroundImageFix"/>
<feGaussianBlur in="BackgroundImageFix" stdDeviation="4.5"/>
<feComposite in2="SourceAlpha" operator="in" result="effect1_backgroundBlur_6123_477"/>
<feBlend mode="normal" in="SourceGraphic" in2="effect1_backgroundBlur_6123_477" result="shape"/>
</filter>
<clipPath id="clip0_6123_477">
<rect width="144" height="42" fill="white" transform="translate(0.5)"/>
</clipPath>
</defs>
</svg>
