<svg width="91" height="22" viewBox="0 0 91 22" fill="none" xmlns="http://www.w3.org/2000/svg">
<mask id="path-1-outside-1_6266_107" maskUnits="userSpaceOnUse" x="-1" y="-1" width="92" height="23" fill="black">
<rect fill="white" x="-1" y="-1" width="92" height="23"/>
<path d="M0.42 1.4H16.548V5.432L16.268 5.376C16.268 3.09867 14.0093 1.96 9.492 1.96V14.672C9.492 17.4347 9.65067 19.1147 9.968 19.712C10.08 19.936 10.276 20.132 10.556 20.3C10.836 20.468 11.1347 20.5707 11.452 20.608C11.7693 20.6453 12.208 20.664 12.768 20.664L12.824 21H4.2L4.256 20.664C4.816 20.664 5.25467 20.6547 5.572 20.636C5.908 20.5987 6.20667 20.4867 6.468 20.3C6.748 20.1133 6.944 19.9173 7.056 19.712C7.18667 19.5067 7.29867 19.1427 7.392 18.62C7.48533 17.9853 7.532 16.6693 7.532 14.672V1.96C3.01467 1.96 0.756 3.09867 0.756 5.376L0.42 5.432V1.4ZM27.2823 7.336C27.7489 7.336 28.1596 7.43867 28.5143 7.644C28.8689 7.84933 29.0463 8.12933 29.0463 8.484C29.0463 8.83867 28.9343 9.11867 28.7103 9.324C28.4863 9.52933 28.2343 9.632 27.9543 9.632C27.6743 9.632 27.3196 9.51067 26.8903 9.268C26.4796 9.02533 26.0409 8.904 25.5743 8.904C24.8463 8.904 24.2489 9.576 23.7823 10.92C23.3343 12.264 23.1103 13.8227 23.1103 15.596C23.1103 17.9853 23.2316 19.432 23.4743 19.936C23.5489 20.104 23.6889 20.2627 23.8943 20.412C24.0996 20.5427 24.3143 20.6173 24.5383 20.636C24.7623 20.6547 25.0796 20.664 25.4903 20.664L25.5463 21H18.7423L18.7983 20.664C19.3956 20.664 19.8249 20.636 20.0863 20.58C20.3663 20.5053 20.5996 20.272 20.7863 19.88C20.9729 19.488 21.0756 19.0027 21.0943 18.424C21.1316 17.8267 21.1503 16.884 21.1503 15.596V13.972C21.1503 11.3773 21.0756 9.90267 20.9263 9.548C20.7956 9.19333 20.6743 8.91333 20.5623 8.708C20.4503 8.50267 20.2823 8.36267 20.0583 8.288C19.6476 8.176 19.1063 8.12 18.4343 8.12L18.3783 7.812C19.9649 7.588 21.5423 7.476 23.1103 7.476V11.592C23.3156 10.2667 23.7729 9.23067 24.4823 8.484C25.2103 7.71867 26.1436 7.336 27.2823 7.336ZM43.386 11.956V14.784C43.386 16.856 43.4513 18.2187 43.582 18.872C43.7127 19.5067 44.03 19.824 44.534 19.824C44.8513 19.824 45.2713 19.6933 45.794 19.432L45.934 19.712C45.7847 19.824 45.5887 19.964 45.346 20.132C45.1033 20.2813 44.6087 20.4867 43.862 20.748C43.1153 21.0093 42.3967 21.14 41.706 21.14C41.5193 20.356 41.426 19.1053 41.426 17.388C41.0153 18.5453 40.474 19.488 39.802 20.216C39.1487 20.9253 38.234 21.28 37.058 21.28C35.882 21.28 34.9487 20.972 34.258 20.356C33.586 19.7213 33.25 18.8627 33.25 17.78C33.25 14.7747 35.9753 13.2627 41.426 13.244V12.236C41.426 10.892 41.23 9.86533 40.838 9.156C40.446 8.44667 39.718 8.092 38.654 8.092C38.0567 8.092 37.5713 8.24133 37.198 8.54C36.8247 8.83867 36.5727 9.16533 36.442 9.52C36.1247 10.4907 35.6487 10.976 35.014 10.976C34.398 10.976 34.09 10.6307 34.09 9.94C34.09 9.23067 34.5567 8.64267 35.49 8.176C36.4233 7.70933 37.5527 7.476 38.878 7.476C40.2033 7.476 41.286 7.85867 42.126 8.624C42.966 9.37067 43.386 10.4813 43.386 11.956ZM35.378 17.892C35.378 18.62 35.5553 19.2267 35.91 19.712C36.2647 20.1787 36.8247 20.412 37.59 20.412C38.374 20.412 39.0833 20.0387 39.718 19.292C40.3527 18.5267 40.782 17.6867 41.006 16.772C41.2487 15.8387 41.3887 14.8773 41.426 13.888C39.354 13.9067 37.8233 14.2893 36.834 15.036C35.8633 15.7827 35.378 16.7347 35.378 17.892ZM53.895 9.352C53.895 10.2107 54.3336 11.7413 55.211 13.944L57.367 19.376L59.551 12.656C59.9803 11.312 60.195 10.2947 60.195 9.604C60.195 8.596 59.5416 8.092 58.235 8.092L58.179 7.756H63.443L63.387 8.092C62.6216 8.092 62.0803 8.344 61.763 8.848C61.4643 9.33333 60.895 10.8547 60.055 13.412L57.535 21.084H55.883L52.243 11.788C51.627 10.22 51.067 9.212 50.563 8.764C50.0776 8.316 49.4896 8.092 48.799 8.092L48.743 7.756H55.687L55.631 8.092C54.9776 8.092 54.5203 8.19467 54.259 8.4C54.0163 8.60533 53.895 8.92267 53.895 9.352ZM78.4015 13.916H69.2175V14.392C69.2175 16.3707 69.6375 17.8827 70.4775 18.928C71.3175 19.9547 72.3629 20.468 73.6135 20.468C75.4802 20.468 76.8242 19.7213 77.6455 18.228L78.0655 18.452C77.0949 20.3373 75.4709 21.28 73.1935 21.28C71.5135 21.28 70.0762 20.6733 68.8815 19.46C67.6869 18.2467 67.0895 16.6133 67.0895 14.56C67.0895 12.488 67.6122 10.7893 68.6575 9.464C69.7215 8.13867 71.1309 7.476 72.8855 7.476C74.6589 7.476 76.0215 8.08267 76.9735 9.296C77.9255 10.4907 78.4015 12.0307 78.4015 13.916ZM72.9695 8.036C71.8869 8.036 71.0282 8.50267 70.3935 9.436C69.7775 10.3507 69.4042 11.5733 69.2735 13.104H76.2455C76.1149 9.72533 75.0229 8.036 72.9695 8.036ZM87.7295 0.391998V16.128C87.7295 18.2 87.8508 19.4787 88.0935 19.964C88.3361 20.4307 89.0081 20.664 90.1095 20.664L90.1655 21H83.3055L83.3615 20.664C84.4815 20.664 85.1628 20.4307 85.4055 19.964C85.6481 19.4973 85.7695 18.2187 85.7695 16.128V5.432C85.7695 3.36 85.6575 2.10933 85.4335 1.68C85.3588 1.54933 85.2188 1.41867 85.0135 1.288C84.8081 1.15733 84.5841 1.08267 84.3415 1.064C84.1175 1.04533 83.7908 1.036 83.3615 1.036L83.3055 0.727999C84.7055 0.503999 86.1801 0.391998 87.7295 0.391998Z"/>
</mask>
<path d="M0.42 1.4H16.548V5.432L16.268 5.376C16.268 3.09867 14.0093 1.96 9.492 1.96V14.672C9.492 17.4347 9.65067 19.1147 9.968 19.712C10.08 19.936 10.276 20.132 10.556 20.3C10.836 20.468 11.1347 20.5707 11.452 20.608C11.7693 20.6453 12.208 20.664 12.768 20.664L12.824 21H4.2L4.256 20.664C4.816 20.664 5.25467 20.6547 5.572 20.636C5.908 20.5987 6.20667 20.4867 6.468 20.3C6.748 20.1133 6.944 19.9173 7.056 19.712C7.18667 19.5067 7.29867 19.1427 7.392 18.62C7.48533 17.9853 7.532 16.6693 7.532 14.672V1.96C3.01467 1.96 0.756 3.09867 0.756 5.376L0.42 5.432V1.4ZM27.2823 7.336C27.7489 7.336 28.1596 7.43867 28.5143 7.644C28.8689 7.84933 29.0463 8.12933 29.0463 8.484C29.0463 8.83867 28.9343 9.11867 28.7103 9.324C28.4863 9.52933 28.2343 9.632 27.9543 9.632C27.6743 9.632 27.3196 9.51067 26.8903 9.268C26.4796 9.02533 26.0409 8.904 25.5743 8.904C24.8463 8.904 24.2489 9.576 23.7823 10.92C23.3343 12.264 23.1103 13.8227 23.1103 15.596C23.1103 17.9853 23.2316 19.432 23.4743 19.936C23.5489 20.104 23.6889 20.2627 23.8943 20.412C24.0996 20.5427 24.3143 20.6173 24.5383 20.636C24.7623 20.6547 25.0796 20.664 25.4903 20.664L25.5463 21H18.7423L18.7983 20.664C19.3956 20.664 19.8249 20.636 20.0863 20.58C20.3663 20.5053 20.5996 20.272 20.7863 19.88C20.9729 19.488 21.0756 19.0027 21.0943 18.424C21.1316 17.8267 21.1503 16.884 21.1503 15.596V13.972C21.1503 11.3773 21.0756 9.90267 20.9263 9.548C20.7956 9.19333 20.6743 8.91333 20.5623 8.708C20.4503 8.50267 20.2823 8.36267 20.0583 8.288C19.6476 8.176 19.1063 8.12 18.4343 8.12L18.3783 7.812C19.9649 7.588 21.5423 7.476 23.1103 7.476V11.592C23.3156 10.2667 23.7729 9.23067 24.4823 8.484C25.2103 7.71867 26.1436 7.336 27.2823 7.336ZM43.386 11.956V14.784C43.386 16.856 43.4513 18.2187 43.582 18.872C43.7127 19.5067 44.03 19.824 44.534 19.824C44.8513 19.824 45.2713 19.6933 45.794 19.432L45.934 19.712C45.7847 19.824 45.5887 19.964 45.346 20.132C45.1033 20.2813 44.6087 20.4867 43.862 20.748C43.1153 21.0093 42.3967 21.14 41.706 21.14C41.5193 20.356 41.426 19.1053 41.426 17.388C41.0153 18.5453 40.474 19.488 39.802 20.216C39.1487 20.9253 38.234 21.28 37.058 21.28C35.882 21.28 34.9487 20.972 34.258 20.356C33.586 19.7213 33.25 18.8627 33.25 17.78C33.25 14.7747 35.9753 13.2627 41.426 13.244V12.236C41.426 10.892 41.23 9.86533 40.838 9.156C40.446 8.44667 39.718 8.092 38.654 8.092C38.0567 8.092 37.5713 8.24133 37.198 8.54C36.8247 8.83867 36.5727 9.16533 36.442 9.52C36.1247 10.4907 35.6487 10.976 35.014 10.976C34.398 10.976 34.09 10.6307 34.09 9.94C34.09 9.23067 34.5567 8.64267 35.49 8.176C36.4233 7.70933 37.5527 7.476 38.878 7.476C40.2033 7.476 41.286 7.85867 42.126 8.624C42.966 9.37067 43.386 10.4813 43.386 11.956ZM35.378 17.892C35.378 18.62 35.5553 19.2267 35.91 19.712C36.2647 20.1787 36.8247 20.412 37.59 20.412C38.374 20.412 39.0833 20.0387 39.718 19.292C40.3527 18.5267 40.782 17.6867 41.006 16.772C41.2487 15.8387 41.3887 14.8773 41.426 13.888C39.354 13.9067 37.8233 14.2893 36.834 15.036C35.8633 15.7827 35.378 16.7347 35.378 17.892ZM53.895 9.352C53.895 10.2107 54.3336 11.7413 55.211 13.944L57.367 19.376L59.551 12.656C59.9803 11.312 60.195 10.2947 60.195 9.604C60.195 8.596 59.5416 8.092 58.235 8.092L58.179 7.756H63.443L63.387 8.092C62.6216 8.092 62.0803 8.344 61.763 8.848C61.4643 9.33333 60.895 10.8547 60.055 13.412L57.535 21.084H55.883L52.243 11.788C51.627 10.22 51.067 9.212 50.563 8.764C50.0776 8.316 49.4896 8.092 48.799 8.092L48.743 7.756H55.687L55.631 8.092C54.9776 8.092 54.5203 8.19467 54.259 8.4C54.0163 8.60533 53.895 8.92267 53.895 9.352ZM78.4015 13.916H69.2175V14.392C69.2175 16.3707 69.6375 17.8827 70.4775 18.928C71.3175 19.9547 72.3629 20.468 73.6135 20.468C75.4802 20.468 76.8242 19.7213 77.6455 18.228L78.0655 18.452C77.0949 20.3373 75.4709 21.28 73.1935 21.28C71.5135 21.28 70.0762 20.6733 68.8815 19.46C67.6869 18.2467 67.0895 16.6133 67.0895 14.56C67.0895 12.488 67.6122 10.7893 68.6575 9.464C69.7215 8.13867 71.1309 7.476 72.8855 7.476C74.6589 7.476 76.0215 8.08267 76.9735 9.296C77.9255 10.4907 78.4015 12.0307 78.4015 13.916ZM72.9695 8.036C71.8869 8.036 71.0282 8.50267 70.3935 9.436C69.7775 10.3507 69.4042 11.5733 69.2735 13.104H76.2455C76.1149 9.72533 75.0229 8.036 72.9695 8.036ZM87.7295 0.391998V16.128C87.7295 18.2 87.8508 19.4787 88.0935 19.964C88.3361 20.4307 89.0081 20.664 90.1095 20.664L90.1655 21H83.3055L83.3615 20.664C84.4815 20.664 85.1628 20.4307 85.4055 19.964C85.6481 19.4973 85.7695 18.2187 85.7695 16.128V5.432C85.7695 3.36 85.6575 2.10933 85.4335 1.68C85.3588 1.54933 85.2188 1.41867 85.0135 1.288C84.8081 1.15733 84.5841 1.08267 84.3415 1.064C84.1175 1.04533 83.7908 1.036 83.3615 1.036L83.3055 0.727999C84.7055 0.503999 86.1801 0.391998 87.7295 0.391998Z" fill="#25A59E"/>
<path d="M0.42 1.4V0.699999H-0.28V1.4H0.42ZM16.548 1.4H17.248V0.699999H16.548V1.4ZM16.548 5.432L16.4107 6.11841L17.248 6.28586V5.432H16.548ZM16.268 5.376H15.568V5.94986L16.1307 6.06241L16.268 5.376ZM9.492 1.96V1.26H8.792V1.96H9.492ZM9.968 19.712L10.5941 19.399L10.5902 19.3912L10.5862 19.3836L9.968 19.712ZM10.556 20.3L10.1959 20.9002L10.556 20.3ZM11.452 20.608L11.3702 21.3032L11.452 20.608ZM12.768 20.664L13.4585 20.5489L13.361 19.964H12.768V20.664ZM12.824 21V21.7H13.6503L13.5145 20.8849L12.824 21ZM4.2 21L3.50952 20.8849L3.37368 21.7H4.2V21ZM4.256 20.664V19.964H3.66301L3.56552 20.5489L4.256 20.664ZM5.572 20.636L5.61311 21.3348L5.63124 21.3337L5.6493 21.3317L5.572 20.636ZM6.468 20.3L6.07971 19.7176L6.07032 19.7238L6.06113 19.7304L6.468 20.3ZM7.056 19.712L6.46544 19.3362L6.45277 19.3561L6.44147 19.3768L7.056 19.712ZM7.392 18.62L8.0811 18.7431L8.08299 18.7325L8.08455 18.7218L7.392 18.62ZM7.532 1.96H8.232V1.26H7.532V1.96ZM0.756 5.376L0.871078 6.06647L1.456 5.96899V5.376H0.756ZM0.42 5.432H-0.28V6.25832L0.535078 6.12247L0.42 5.432ZM0.42 2.1H16.548V0.699999H0.42V2.1ZM15.848 1.4V5.432H17.248V1.4H15.848ZM16.6853 4.74559L16.4053 4.68959L16.1307 6.06241L16.4107 6.11841L16.6853 4.74559ZM16.968 5.376C16.968 4.68535 16.7948 4.04958 16.4284 3.49542C16.0647 2.94536 15.5373 2.51569 14.8891 2.18894C13.6128 1.5455 11.7869 1.26 9.492 1.26V2.66C11.7145 2.66 13.2766 2.94383 14.2589 3.43906C14.7401 3.68164 15.0596 3.96364 15.2606 4.26758C15.4589 4.56742 15.568 4.92798 15.568 5.376H16.968ZM8.792 1.96V14.672H10.192V1.96H8.792ZM8.792 14.672C8.792 16.0634 8.83182 17.1986 8.9141 18.0698C8.99287 18.9038 9.11798 19.604 9.34982 20.0404L10.5862 19.3836C10.5007 19.2227 10.3878 18.7842 10.3079 17.9382C10.2315 17.1294 10.192 16.0433 10.192 14.672H8.792ZM9.3419 20.025C9.52902 20.3993 9.83579 20.6842 10.1959 20.9002L10.9161 19.6998C10.7162 19.5798 10.631 19.4727 10.5941 19.399L9.3419 20.025ZM10.1959 20.9002C10.5589 21.1181 10.9522 21.254 11.3702 21.3032L11.5338 19.9128C11.3171 19.8873 11.1131 19.8179 10.9161 19.6998L10.1959 20.9002ZM11.3702 21.3032C11.7275 21.3452 12.1977 21.364 12.768 21.364V19.964C12.2183 19.964 11.8111 19.9454 11.5338 19.9128L11.3702 21.3032ZM12.0775 20.7791L12.1335 21.1151L13.5145 20.8849L13.4585 20.5489L12.0775 20.7791ZM12.824 20.3H4.2V21.7H12.824V20.3ZM4.89048 21.1151L4.94648 20.7791L3.56552 20.5489L3.50952 20.8849L4.89048 21.1151ZM4.256 21.364C4.8211 21.364 5.27557 21.3546 5.61311 21.3348L5.5309 19.9372C5.23376 19.9547 4.8109 19.964 4.256 19.964V21.364ZM5.6493 21.3317C6.09764 21.2819 6.51107 21.1295 6.87487 20.8696L6.06113 19.7304C5.90226 19.8439 5.71837 19.9154 5.4947 19.9403L5.6493 21.3317ZM6.85629 20.8824C7.19198 20.6586 7.48568 20.3861 7.67053 20.0472L6.44147 19.3768C6.40232 19.4486 6.30402 19.568 6.07971 19.7176L6.85629 20.8824ZM7.64656 20.0878C7.85668 19.7576 7.98622 19.2744 8.0811 18.7431L6.7029 18.4969C6.61111 19.011 6.51665 19.2557 6.46544 19.3362L7.64656 20.0878ZM8.08455 18.7218C8.18664 18.0276 8.232 16.6593 8.232 14.672H6.832C6.832 16.6794 6.78402 17.943 6.69945 18.5182L8.08455 18.7218ZM8.232 14.672V1.96H6.832V14.672H8.232ZM7.532 1.26C5.23714 1.26 3.41122 1.5455 2.13489 2.18894C1.48673 2.51569 0.959299 2.94536 0.595596 3.49542C0.229183 4.04958 0.056 4.68535 0.056 5.376H1.456C1.456 4.92798 1.56515 4.56742 1.7634 4.26758C1.96437 3.96364 2.28394 3.68164 2.76511 3.43906C3.74745 2.94383 5.30952 2.66 7.532 2.66V1.26ZM0.640922 4.68552L0.304922 4.74152L0.535078 6.12247L0.871078 6.06647L0.640922 4.68552ZM1.12 5.432V1.4H-0.28V5.432H1.12ZM26.8903 9.268L26.5341 9.87076L26.5458 9.87739L26.8903 9.268ZM23.7823 10.92L23.121 10.6904L23.1182 10.6986L23.7823 10.92ZM23.4743 19.936L24.1139 19.6517L24.1096 19.6419L24.105 19.6323L23.4743 19.936ZM23.8943 20.412L23.4826 20.9781L23.5001 20.9909L23.5185 21.0026L23.8943 20.412ZM24.5383 20.636L24.4801 21.3336L24.5383 20.636ZM25.4903 20.664L26.1808 20.5489L26.0833 19.964H25.4903V20.664ZM25.5463 21V21.7H26.3726L26.2368 20.8849L25.5463 21ZM18.7423 21L18.0518 20.8849L17.916 21.7H18.7423V21ZM18.7983 20.664V19.964H18.2053L18.1078 20.5489L18.7983 20.664ZM20.0863 20.58L20.233 21.2645L20.2499 21.2608L20.2666 21.2564L20.0863 20.58ZM20.7863 19.88L20.1543 19.579L20.7863 19.88ZM21.0943 18.424L20.3956 18.3803L20.395 18.3909L20.3946 18.4014L21.0943 18.424ZM20.9263 9.548L20.2694 9.78999L20.275 9.80495L20.2811 9.81964L20.9263 9.548ZM20.5623 8.708L19.9478 9.0432V9.0432L20.5623 8.708ZM20.0583 8.288L20.2796 7.62392L20.2612 7.61778L20.2425 7.61266L20.0583 8.288ZM18.4343 8.12L17.7456 8.24522L17.8501 8.82H18.4343V8.12ZM18.3783 7.812L18.2804 7.11887L17.5593 7.22068L17.6896 7.93722L18.3783 7.812ZM23.1103 7.476H23.8103V6.776H23.1103V7.476ZM23.1103 11.592H22.4103L23.802 11.6992L23.1103 11.592ZM24.4823 8.484L23.9751 8.00155L23.9748 8.00187L24.4823 8.484ZM27.2823 8.036C27.6432 8.036 27.9296 8.11433 28.1636 8.2498L28.865 7.0382C28.3897 6.763 27.8547 6.636 27.2823 6.636V8.036ZM28.1636 8.2498C28.3422 8.35322 28.3463 8.42228 28.3463 8.484H29.7463C29.7463 7.83639 29.3957 7.34545 28.865 7.0382L28.1636 8.2498ZM28.3463 8.484C28.3463 8.67836 28.2921 8.75771 28.2373 8.80799L29.1833 9.84001C29.5764 9.47962 29.7463 8.99897 29.7463 8.484H28.3463ZM28.2373 8.80799C28.1304 8.90596 28.0435 8.932 27.9543 8.932V10.332C28.425 10.332 28.8422 10.1527 29.1833 9.84001L28.2373 8.80799ZM27.9543 8.932C27.8552 8.932 27.6281 8.88096 27.2347 8.65861L26.5458 9.87739C27.0111 10.1404 27.4934 10.332 27.9543 10.332V8.932ZM27.2464 8.66535C26.7304 8.36043 26.1691 8.204 25.5743 8.204V9.604C25.9128 9.604 26.2288 9.69023 26.5342 9.87065L27.2464 8.66535ZM25.5743 8.204C24.9646 8.204 24.4548 8.49547 24.0571 8.94294C23.6723 9.37587 23.3689 9.9764 23.121 10.6904L24.4436 11.1496C24.6623 10.5196 24.891 10.1121 25.1035 9.87305C25.303 9.64853 25.456 9.604 25.5743 9.604V8.204ZM23.1182 10.6986C22.6413 12.1294 22.4103 13.7655 22.4103 15.596H23.8103C23.8103 13.8798 24.0273 12.3986 24.4464 11.1414L23.1182 10.6986ZM22.4103 15.596C22.4103 16.7995 22.4407 17.7804 22.5037 18.5315C22.5636 19.2457 22.659 19.8564 22.8436 20.2397L24.105 19.6323C24.0469 19.5116 23.9603 19.147 23.8988 18.4145C23.8405 17.719 23.8103 16.7818 23.8103 15.596H22.4103ZM22.8346 20.2203C22.9747 20.5354 23.214 20.7828 23.4826 20.9781L24.306 19.8459C24.1639 19.7425 24.1232 19.6726 24.1139 19.6517L22.8346 20.2203ZM23.5185 21.0026C23.8114 21.1889 24.1339 21.3047 24.4801 21.3336L24.5964 19.9384C24.4946 19.9299 24.3879 19.8964 24.2701 19.8214L23.5185 21.0026ZM24.4801 21.3336C24.7332 21.3547 25.0732 21.364 25.4903 21.364V19.964C25.086 19.964 24.7914 19.9547 24.5964 19.9384L24.4801 21.3336ZM24.7998 20.7791L24.8558 21.1151L26.2368 20.8849L26.1808 20.5489L24.7998 20.7791ZM25.5463 20.3H18.7423V21.7H25.5463V20.3ZM19.4328 21.1151L19.4888 20.7791L18.1078 20.5489L18.0518 20.8849L19.4328 21.1151ZM18.7983 21.364C19.3998 21.364 19.8934 21.3372 20.233 21.2645L19.9396 19.8955C19.7565 19.9348 19.3915 19.964 18.7983 19.964V21.364ZM20.2666 21.2564C20.827 21.1069 21.188 20.6646 21.4183 20.181L20.1543 19.579C20.085 19.7245 20.0219 19.8084 19.9763 19.854C19.9344 19.8959 19.9112 19.9022 19.9059 19.9036L20.2666 21.2564ZM21.4183 20.181C21.6578 19.6779 21.7731 19.0912 21.7939 18.4466L20.3946 18.4014C20.3781 18.9141 20.2881 19.2981 20.1543 19.579L21.4183 20.181ZM21.7929 18.4677C21.8317 17.8471 21.8503 16.886 21.8503 15.596H20.4503C20.4503 16.882 20.4315 17.8062 20.3956 18.3803L21.7929 18.4677ZM21.8503 15.596V13.972H20.4503V15.596H21.8503ZM21.8503 13.972C21.8503 12.6702 21.8316 11.6393 21.7934 10.8846C21.7743 10.5079 21.7499 10.1909 21.7191 9.93892C21.6911 9.71045 21.6504 9.46404 21.5714 9.27636L20.2811 9.81964C20.2768 9.80929 20.3014 9.88022 20.3295 10.1091C20.3546 10.3145 20.3769 10.5948 20.3952 10.9554C20.4316 11.6754 20.4503 12.6791 20.4503 13.972H21.8503ZM21.5831 9.30601C21.4469 8.93622 21.312 8.62064 21.1768 8.3728L19.9478 9.0432C20.0366 9.20603 20.1443 9.45044 20.2694 9.78999L21.5831 9.30601ZM21.1768 8.3728C20.9792 8.01044 20.6698 7.75397 20.2796 7.62392L19.8369 8.95208C19.8948 8.97136 19.9214 8.99489 19.9478 9.0432L21.1768 8.3728ZM20.2425 7.61266C19.7475 7.47769 19.137 7.42 18.4343 7.42V8.82C19.0755 8.82 19.5477 8.87431 19.8741 8.96333L20.2425 7.61266ZM19.123 7.99478L19.067 7.68678L17.6896 7.93722L17.7456 8.24522L19.123 7.99478ZM18.4761 8.50513C20.0311 8.2856 21.5757 8.176 23.1103 8.176V6.776C21.5088 6.776 19.8988 6.8904 18.2804 7.11887L18.4761 8.50513ZM22.4103 7.476V11.592H23.8103V7.476H22.4103ZM23.802 11.6992C23.9921 10.4724 24.4044 9.58231 24.9898 8.96612L23.9748 8.00187C23.1415 8.87902 22.6391 10.0609 22.4185 11.4848L23.802 11.6992ZM24.9895 8.96645C25.5743 8.35165 26.3187 8.036 27.2823 8.036V6.636C25.9685 6.636 24.8463 7.08568 23.9751 8.00155L24.9895 8.96645ZM43.582 18.872L42.8956 19.0093L42.8964 19.0132L43.582 18.872ZM45.794 19.432L46.4201 19.1189L46.1071 18.4929L45.481 18.8059L45.794 19.432ZM45.934 19.712L46.354 20.272L46.8214 19.9215L46.5601 19.399L45.934 19.712ZM45.346 20.132L45.7129 20.7282L45.7289 20.7183L45.7444 20.7075L45.346 20.132ZM43.862 20.748L44.0932 21.4087L43.862 20.748ZM41.706 21.14L41.025 21.3021L41.1531 21.84H41.706V21.14ZM41.426 17.388H42.126L40.7663 17.1539L41.426 17.388ZM39.802 20.216L39.2876 19.7412L39.2871 19.7418L39.802 20.216ZM34.258 20.356L33.7774 20.8649L33.7846 20.8718L33.7921 20.8784L34.258 20.356ZM41.426 13.244L41.4284 13.944L42.126 13.9416V13.244H41.426ZM40.838 9.156L40.2253 9.49458L40.838 9.156ZM37.198 8.54L37.6353 9.08661V9.08661L37.198 8.54ZM36.442 9.52L35.7852 9.27801L35.7807 9.29016L35.7767 9.30248L36.442 9.52ZM35.49 8.176L35.177 7.5499L35.49 8.176ZM42.126 8.624L41.6545 9.14148L41.6609 9.14719L42.126 8.624ZM35.91 19.712L35.3447 20.1251L35.3527 20.1356L35.91 19.712ZM39.718 19.292L40.2514 19.7454L40.2568 19.7388L39.718 19.292ZM41.006 16.772L40.3285 16.5958L40.3261 16.6055L41.006 16.772ZM41.426 13.888L42.1255 13.9144L42.1532 13.1814L41.4197 13.188L41.426 13.888ZM36.834 15.036L36.4123 14.4772L36.4072 14.4812L36.834 15.036ZM42.686 11.956V14.784H44.086V11.956H42.686ZM42.686 14.784C42.686 16.8423 42.7489 18.276 42.8956 19.0093L44.2684 18.7347C44.1537 18.1613 44.086 16.8697 44.086 14.784H42.686ZM42.8964 19.0132C42.9777 19.408 43.1335 19.7915 43.423 20.081C43.7296 20.3876 44.1213 20.524 44.534 20.524V19.124C44.4819 19.124 44.4547 19.116 44.4433 19.1115C44.4334 19.1077 44.4247 19.1027 44.413 19.091C44.3851 19.0632 44.317 18.9707 44.2676 18.7308L42.8964 19.0132ZM44.534 20.524C45.017 20.524 45.5559 20.3337 46.1071 20.0581L45.481 18.8059C44.9868 19.053 44.6857 19.124 44.534 19.124V20.524ZM45.1679 19.745L45.3079 20.025L46.5601 19.399L46.4201 19.1189L45.1679 19.745ZM45.514 19.152C45.3746 19.2566 45.1866 19.391 44.9476 19.5565L45.7444 20.7075C45.9907 20.537 46.1948 20.3914 46.354 20.272L45.514 19.152ZM44.9791 19.5358C44.8102 19.6398 44.3855 19.8231 43.6308 20.0873L44.0932 21.4087C44.8318 21.1502 45.3964 20.9229 45.7129 20.7282L44.9791 19.5358ZM43.6308 20.0873C42.9478 20.3263 42.3074 20.44 41.706 20.44V21.84C42.4859 21.84 43.2829 21.6923 44.0932 21.4087L43.6308 20.0873ZM42.387 20.9779C42.2205 20.2787 42.126 19.0977 42.126 17.388H40.726C40.726 19.1129 40.8182 20.4333 41.025 21.3021L42.387 20.9779ZM40.7663 17.1539C40.3799 18.2427 39.882 19.0973 39.2876 19.7412L40.3164 20.6908C41.066 19.8787 41.6507 18.8479 42.0857 17.6221L40.7663 17.1539ZM39.2871 19.7418C38.7948 20.2763 38.0847 20.58 37.058 20.58V21.98C38.3833 21.98 39.5026 21.5743 40.3169 20.6902L39.2871 19.7418ZM37.058 20.58C36.0058 20.58 35.2545 20.3068 34.7239 19.8336L33.7921 20.8784C34.6428 21.6372 35.7582 21.98 37.058 21.98V20.58ZM34.7386 19.8471C34.2308 19.3674 33.95 18.706 33.95 17.78H32.55C32.55 19.0194 32.9412 20.0752 33.7774 20.8649L34.7386 19.8471ZM33.95 17.78C33.95 17.138 34.0943 16.6086 34.3604 16.1676C34.6272 15.7253 35.0397 15.3336 35.6336 15.0041C36.8422 14.3336 38.7446 13.9532 41.4284 13.944L41.4236 12.544C38.6567 12.5535 36.4711 12.9384 34.9544 13.7799C34.1856 14.2064 33.5761 14.7574 33.1616 15.4444C32.7464 16.1327 32.55 16.9193 32.55 17.78H33.95ZM42.126 13.244V12.236H40.726V13.244H42.126ZM42.126 12.236C42.126 10.8426 41.926 9.67754 41.4507 8.81742L40.2253 9.49458C40.534 10.0531 40.726 10.9414 40.726 12.236H42.126ZM41.4507 8.81742C40.8966 7.81474 39.8808 7.392 38.654 7.392V8.792C39.5552 8.792 39.9954 9.07859 40.2253 9.49458L41.4507 8.81742ZM38.654 7.392C37.9383 7.392 37.2865 7.57275 36.7607 7.99339L37.6353 9.08661C37.8562 8.90992 38.175 8.792 38.654 8.792V7.392ZM36.7607 7.99339C36.3139 8.35086 35.9702 8.77584 35.7852 9.27801L37.0988 9.76199C37.1752 9.55482 37.3355 9.32648 37.6353 9.08661L36.7607 7.99339ZM35.7767 9.30248C35.4867 10.1894 35.1757 10.276 35.014 10.276V11.676C36.1216 11.676 36.7626 10.7919 37.1073 9.73752L35.7767 9.30248ZM35.014 10.276C34.8359 10.276 34.8244 10.2298 34.8434 10.2511C34.8488 10.2571 34.79 10.1959 34.79 9.94H33.39C33.39 10.3747 33.4852 10.8316 33.7986 11.1829C34.1256 11.5496 34.5761 11.676 35.014 11.676V10.276ZM34.79 9.94C34.79 9.612 34.9811 9.21306 35.8031 8.8021L35.177 7.5499C34.1322 8.07227 33.39 8.84933 33.39 9.94H34.79ZM35.8031 8.8021C36.6165 8.39536 37.6328 8.176 38.878 8.176V6.776C37.4725 6.776 36.2301 7.02331 35.177 7.5499L35.8031 8.8021ZM38.878 8.176C40.0598 8.176 40.9646 8.51282 41.6546 9.14144L42.5974 8.10656C41.6074 7.20451 40.3469 6.776 38.878 6.776V8.176ZM41.6609 9.14719C42.3084 9.72266 42.686 10.6152 42.686 11.956H44.086C44.086 10.3475 43.6236 9.01867 42.5911 8.10081L41.6609 9.14719ZM34.678 17.892C34.678 18.7364 34.8854 19.4963 35.3448 20.125L36.4752 19.299C36.2253 18.9571 36.078 18.5036 36.078 17.892H34.678ZM35.3527 20.1356C35.8784 20.8272 36.6788 21.112 37.59 21.112V19.712C36.9705 19.712 36.651 19.5301 36.4673 19.2884L35.3527 20.1356ZM37.59 21.112C38.6292 21.112 39.5198 20.6061 40.2514 19.7454L39.1846 18.8386C38.6469 19.4713 38.1188 19.712 37.59 19.712V21.112ZM40.2568 19.7388C40.9553 18.8966 41.4353 17.9618 41.6859 16.9385L40.3261 16.6055C40.1287 17.4115 39.7501 18.1567 39.1792 18.8452L40.2568 19.7388ZM41.6835 16.9481C41.9392 15.9645 42.0863 14.9529 42.1255 13.9144L40.7265 13.8616C40.691 14.8017 40.5581 15.7128 40.3285 16.5959L41.6835 16.9481ZM41.4197 13.188C39.2891 13.2072 37.5781 13.5974 36.4123 14.4773L37.2557 15.5947C38.0685 14.9813 39.4189 14.6061 41.4323 14.588L41.4197 13.188ZM36.4072 14.4812C35.2759 15.3514 34.678 16.5031 34.678 17.892H36.078C36.078 16.9663 36.4508 16.2139 37.2608 15.5908L36.4072 14.4812ZM55.211 13.944L55.8616 13.6858L55.8613 13.685L55.211 13.944ZM57.367 19.376L56.7163 19.6342L57.4326 21.4388L58.0327 19.5924L57.367 19.376ZM59.551 12.656L60.2167 12.8724L60.2178 12.869L59.551 12.656ZM58.235 8.092L57.5445 8.20708L57.642 8.792H58.235V8.092ZM58.179 7.756V7.056H57.3526L57.4885 7.87108L58.179 7.756ZM63.443 7.756L64.1334 7.87108L64.2693 7.056H63.443V7.756ZM63.387 8.092V8.792H63.98L64.0774 8.20708L63.387 8.092ZM61.763 8.848L61.1706 8.47501L61.1668 8.48113L61.763 8.848ZM60.055 13.412L59.3899 13.1936L60.055 13.412ZM57.535 21.084V21.784H58.0418L58.2 21.3024L57.535 21.084ZM55.883 21.084L55.2312 21.3392L55.4053 21.784H55.883V21.084ZM52.243 11.788L52.8948 11.5328L52.8945 11.532L52.243 11.788ZM50.563 8.764L50.0881 9.27845L50.0979 9.28719L50.563 8.764ZM48.799 8.092L48.1085 8.20708L48.206 8.792H48.799V8.092ZM48.743 7.756V7.056H47.9166L48.0525 7.87108L48.743 7.756ZM55.687 7.756L56.3774 7.87108L56.5133 7.056H55.687V7.756ZM55.631 8.092V8.792H56.224L56.3214 8.20708L55.631 8.092ZM54.259 8.4L53.8265 7.84958L53.8165 7.85742L53.8068 7.86563L54.259 8.4ZM53.195 9.352C53.195 9.88023 53.3263 10.5526 53.5511 11.3368C53.7791 12.1326 54.1171 13.0894 54.5607 14.203L55.8613 13.685C55.4275 12.5959 55.1075 11.6861 54.8969 10.9512C54.683 10.2048 54.595 9.68243 54.595 9.352H53.195ZM54.5603 14.2022L56.7163 19.6342L58.0176 19.1178L55.8616 13.6858L54.5603 14.2022ZM58.0327 19.5924L60.2167 12.8724L58.8852 12.4396L56.7012 19.1596L58.0327 19.5924ZM60.2178 12.869C60.6511 11.5124 60.895 10.4087 60.895 9.604H59.495C59.495 10.1806 59.3095 11.1116 58.8842 12.443L60.2178 12.869ZM60.895 9.604C60.895 8.93648 60.6693 8.32985 60.1325 7.91575C59.6302 7.52823 58.9588 7.392 58.235 7.392V8.792C58.8178 8.792 59.1264 8.90777 59.2774 9.02425C59.394 9.11415 59.495 9.26352 59.495 9.604H60.895ZM58.9254 7.97692L58.8694 7.64092L57.4885 7.87108L57.5445 8.20708L58.9254 7.97692ZM58.179 8.456H63.443V7.056H58.179V8.456ZM62.7525 7.64092L62.6965 7.97692L64.0774 8.20708L64.1334 7.87108L62.7525 7.64092ZM63.387 7.392C62.4589 7.392 61.6527 7.70937 61.1706 8.47503L62.3553 9.22097C62.5079 8.97863 62.7844 8.792 63.387 8.792V7.392ZM61.1668 8.48113C60.9764 8.79057 60.7379 9.35542 60.4564 10.1077C60.1669 10.8811 59.8112 11.9109 59.3899 13.1936L60.72 13.6304C61.1387 12.3558 61.4877 11.3463 61.7676 10.5983C62.0554 9.82925 62.2509 9.39076 62.3591 9.21487L61.1668 8.48113ZM59.3899 13.1936L56.8699 20.8656L58.2 21.3024L60.72 13.6304L59.3899 13.1936ZM57.535 20.384H55.883V21.784H57.535V20.384ZM56.5348 20.8288L52.8948 11.5328L51.5912 12.0432L55.2312 21.3392L56.5348 20.8288ZM52.8945 11.532C52.5798 10.7311 52.2731 10.0564 51.9729 9.51605C51.6778 8.98482 51.3663 8.54153 51.028 8.24081L50.0979 9.28719C50.2636 9.43447 50.4842 9.71918 50.7491 10.1959C51.0089 10.6636 51.2901 11.2769 51.5914 12.044L52.8945 11.532ZM51.0378 8.24964C50.4168 7.67641 49.6568 7.392 48.799 7.392V8.792C49.3225 8.792 49.7385 8.95559 50.0882 9.27836L51.0378 8.24964ZM49.4894 7.97692L49.4334 7.64092L48.0525 7.87108L48.1085 8.20708L49.4894 7.97692ZM48.743 8.456H55.687V7.056H48.743V8.456ZM54.9965 7.64092L54.9405 7.97692L56.3214 8.20708L56.3774 7.87108L54.9965 7.64092ZM55.631 7.392C54.9493 7.392 54.284 7.49014 53.8265 7.84958L54.6914 8.95042C54.7566 8.8992 55.006 8.792 55.631 8.792V7.392ZM53.8068 7.86563C53.3568 8.24641 53.195 8.79305 53.195 9.352H54.595C54.595 9.05228 54.6758 8.96425 54.7111 8.93437L53.8068 7.86563ZM78.4015 13.916V14.616H79.1015V13.916H78.4015ZM69.2175 13.916V13.216H68.5175V13.916H69.2175ZM70.4775 18.928L69.9319 19.3665L69.9358 19.3713L70.4775 18.928ZM77.6455 18.228L77.9749 17.6104L77.3652 17.2852L77.0322 17.8907L77.6455 18.228ZM78.0655 18.452L78.6879 18.7724L79.0037 18.159L78.3949 17.8344L78.0655 18.452ZM68.8815 19.46L68.3827 19.9511L68.8815 19.46ZM68.6575 9.464L68.1116 9.02576L68.1079 9.0305L68.6575 9.464ZM76.9735 9.296L76.4228 9.72811L76.4261 9.73224L76.9735 9.296ZM70.3935 9.436L69.8147 9.04238L69.8129 9.04498L70.3935 9.436ZM69.2735 13.104L68.5761 13.0445L68.5112 13.804H69.2735V13.104ZM76.2455 13.104V13.804H76.9731L76.945 13.0769L76.2455 13.104ZM78.4015 13.216H69.2175V14.616H78.4015V13.216ZM68.5175 13.916V14.392H69.9175V13.916H68.5175ZM68.5175 14.392C68.5175 16.457 68.9542 18.1498 69.9319 19.3665L71.0232 18.4895C70.3209 17.6155 69.9175 16.2843 69.9175 14.392H68.5175ZM69.9358 19.3713C70.8995 20.5491 72.1387 21.168 73.6135 21.168V19.768C72.587 19.768 71.7356 19.3602 71.0193 18.4847L69.9358 19.3713ZM73.6135 21.168C75.7057 21.168 77.3008 20.3073 78.2589 18.5653L77.0322 17.8907C76.3476 19.1354 75.2547 19.768 73.6135 19.768V21.168ZM77.3161 18.8456L77.7361 19.0696L78.3949 17.8344L77.9749 17.6104L77.3161 18.8456ZM77.4432 18.1316C77.0109 18.9711 76.4499 19.5718 75.7681 19.9676C75.0835 20.365 74.235 20.58 73.1935 20.58V21.98C74.4294 21.98 75.5316 21.7236 76.4709 21.1784C77.4131 20.6315 78.1495 19.8182 78.6879 18.7724L77.4432 18.1316ZM73.1935 20.58C71.7039 20.58 70.4454 20.0506 69.3803 18.9689L68.3827 19.9511C69.707 21.296 71.3232 21.98 73.1935 21.98V20.58ZM69.3803 18.9689C68.3404 17.9127 67.7895 16.4699 67.7895 14.56H66.3895C66.3895 16.7568 67.0334 18.5807 68.3827 19.9511L69.3803 18.9689ZM67.7895 14.56C67.7895 12.6085 68.2798 11.0733 69.2071 9.8975L68.1079 9.0305C66.9446 10.5054 66.3895 12.3675 66.3895 14.56H67.7895ZM69.2034 9.90222C70.1296 8.74851 71.3351 8.176 72.8855 8.176V6.776C70.9266 6.776 69.3134 7.52883 68.1117 9.02578L69.2034 9.90222ZM72.8855 8.176C74.4803 8.176 75.6245 8.7106 76.4228 9.7281L77.5242 8.8639C76.4186 7.45473 74.8374 6.776 72.8855 6.776V8.176ZM76.4261 9.73224C77.2579 10.7761 77.7015 12.151 77.7015 13.916H79.1015C79.1015 11.9103 78.5931 10.2052 77.521 8.85976L76.4261 9.73224ZM72.9695 7.336C71.6436 7.336 70.5731 7.92711 69.8147 9.04238L70.9724 9.82962C71.4833 9.07823 72.1301 8.736 72.9695 8.736V7.336ZM69.8129 9.04498C69.1094 10.0896 68.7131 11.4394 68.5761 13.0445L69.971 13.1635C70.0953 11.7073 70.4457 10.6117 70.9741 9.82702L69.8129 9.04498ZM69.2735 13.804H76.2455V12.404H69.2735V13.804ZM76.945 13.0769C76.8777 11.3378 76.5625 9.92246 75.9164 8.92299C75.2382 7.87385 74.2278 7.336 72.9695 7.336V8.736C73.7646 8.736 74.3268 9.04282 74.7407 9.68301C75.1866 10.3729 75.4826 11.4916 75.5461 13.1311L76.945 13.0769ZM87.7295 0.391998H88.4295V-0.308002H87.7295V0.391998ZM88.0935 19.964L87.4673 20.2771L87.4724 20.2869L88.0935 19.964ZM90.1095 20.664L90.7999 20.5489L90.7025 19.964H90.1095V20.664ZM90.1655 21V21.7H90.9918L90.8559 20.8849L90.1655 21ZM83.3055 21L82.615 20.8849L82.4791 21.7H83.3055V21ZM83.3615 20.664V19.964H82.7685L82.671 20.5489L83.3615 20.664ZM85.4055 19.964L84.7844 19.6411L85.4055 19.964ZM85.4335 1.68L86.0541 1.3562L86.0479 1.34433L86.0412 1.3327L85.4335 1.68ZM85.0135 1.288L85.3893 0.697436V0.697435L85.0135 1.288ZM84.3415 1.064L84.2833 1.7616L84.2878 1.76194L84.3415 1.064ZM83.3615 1.036L82.6728 1.16122L82.7773 1.736H83.3615V1.036ZM83.3055 0.727999L83.1949 0.0367904L82.4889 0.149754L82.6168 0.853219L83.3055 0.727999ZM87.0295 0.391998V16.128H88.4295V0.391998H87.0295ZM87.0295 16.128C87.0295 17.1745 87.06 18.0367 87.1236 18.7071C87.1843 19.3465 87.2818 19.906 87.4674 20.2771L88.7196 19.651C88.6624 19.5367 88.578 19.2141 88.5173 18.5749C88.4596 17.9666 88.4295 17.1535 88.4295 16.128H87.0295ZM87.4724 20.2869C87.7017 20.7279 88.1056 20.996 88.5499 21.1503C88.9886 21.3026 89.5187 21.364 90.1095 21.364V19.964C89.5989 19.964 89.2423 19.9087 89.0091 19.8277C88.7813 19.7486 88.7279 19.6667 88.7145 19.6411L87.4724 20.2869ZM89.419 20.7791L89.475 21.1151L90.8559 20.8849L90.7999 20.5489L89.419 20.7791ZM90.1655 20.3H83.3055V21.7H90.1655V20.3ZM83.9959 21.1151L84.0519 20.7791L82.671 20.5489L82.615 20.8849L83.9959 21.1151ZM83.3615 21.364C83.9607 21.364 84.4967 21.3028 84.9393 21.1512C85.3862 20.9982 85.7956 20.731 86.0265 20.2869L84.7844 19.6411C84.7727 19.6637 84.72 19.7465 84.4857 19.8268C84.2468 19.9085 83.8822 19.964 83.3615 19.964V21.364ZM86.0265 20.2869C86.2177 19.9194 86.315 19.357 86.3753 18.7211C86.439 18.0506 86.4695 17.1836 86.4695 16.128H85.0695C85.0695 17.1631 85.0393 17.9808 84.9816 18.5889C84.9206 19.2316 84.836 19.5419 84.7844 19.6411L86.0265 20.2869ZM86.4695 16.128V5.432H85.0695V16.128H86.4695ZM86.4695 5.432C86.4695 4.38665 86.4413 3.5326 86.3827 2.87756C86.3534 2.55018 86.3155 2.26193 86.2669 2.01872C86.2202 1.78543 86.1556 1.55079 86.0541 1.3562L84.8129 2.00379C84.8233 2.02388 84.8567 2.10656 84.8941 2.29328C84.9294 2.47006 84.9616 2.70448 84.9883 3.00244C85.0416 3.59806 85.0695 4.40534 85.0695 5.432H86.4695ZM86.0412 1.3327C85.8857 1.06043 85.6377 0.855552 85.3893 0.697436L84.6377 1.87856C84.7133 1.92668 84.7634 1.96638 84.7948 1.99574C84.8267 2.0255 84.8312 2.037 84.8257 2.0273L86.0412 1.3327ZM85.3893 0.697435C85.087 0.505083 84.7524 0.39354 84.3952 0.366062L84.2878 1.76194C84.4159 1.77179 84.5293 1.80958 84.6377 1.87856L85.3893 0.697435ZM84.3996 0.366418C84.146 0.345288 83.7962 0.335999 83.3615 0.335999V1.736C83.7854 1.736 84.0889 1.74538 84.2833 1.76158L84.3996 0.366418ZM84.0502 0.910778L83.9942 0.602779L82.6168 0.853219L82.6728 1.16122L84.0502 0.910778ZM83.4161 1.41921C84.7763 1.20157 86.2138 1.092 87.7295 1.092V-0.308002C86.1465 -0.308002 84.6346 -0.193571 83.1949 0.0367904L83.4161 1.41921Z" fill="#25A59E" mask="url(#path-1-outside-1_6266_107)"/>
</svg>
