<svg width="52" height="13" viewBox="0 0 52 13" fill="none" xmlns="http://www.w3.org/2000/svg">
<mask id="path-1-outside-1_14_1879" maskUnits="userSpaceOnUse" x="-1" y="-0.5" width="54" height="15" fill="black">
<rect fill="white" x="-1" y="-0.5" width="54" height="15"/>
<path d="M0.24 1.3H9.456V3.604L9.296 3.572C9.296 2.27067 8.00533 1.62 5.424 1.62V8.884C5.424 10.4627 5.51467 11.4227 5.696 11.764C5.76 11.892 5.872 12.004 6.032 12.1C6.192 12.196 6.36267 12.2547 6.544 12.276C6.72533 12.2973 6.976 12.308 7.296 12.308L7.328 12.5H2.4L2.432 12.308C2.752 12.308 3.00267 12.3027 3.184 12.292C3.376 12.2707 3.54667 12.2067 3.696 12.1C3.856 11.9933 3.968 11.8813 4.032 11.764C4.10667 11.6467 4.17067 11.4387 4.224 11.14C4.27733 10.7773 4.304 10.0253 4.304 8.884V1.62C1.72267 1.62 0.432 2.27067 0.432 3.572L0.24 3.604V1.3ZM15.5899 4.692C15.8565 4.692 16.0912 4.75067 16.2939 4.868C16.4965 4.98533 16.5979 5.14533 16.5979 5.348C16.5979 5.55067 16.5339 5.71067 16.4059 5.828C16.2779 5.94533 16.1339 6.004 15.9739 6.004C15.8139 6.004 15.6112 5.93467 15.3659 5.796C15.1312 5.65733 14.8805 5.588 14.6139 5.588C14.1979 5.588 13.8565 5.972 13.5899 6.74C13.3339 7.508 13.2059 8.39867 13.2059 9.412C13.2059 10.7773 13.2752 11.604 13.4139 11.892C13.4565 11.988 13.5365 12.0787 13.6539 12.164C13.7712 12.2387 13.8939 12.2813 14.0219 12.292C14.1499 12.3027 14.3312 12.308 14.5659 12.308L14.5979 12.5H10.7099L10.7419 12.308C11.0832 12.308 11.3285 12.292 11.4779 12.26C11.6379 12.2173 11.7712 12.084 11.8779 11.86C11.9845 11.636 12.0432 11.3587 12.0539 11.028C12.0752 10.6867 12.0859 10.148 12.0859 9.412V8.484C12.0859 7.00133 12.0432 6.15867 11.9579 5.956C11.8832 5.75333 11.8139 5.59333 11.7499 5.476C11.6859 5.35867 11.5899 5.27867 11.4619 5.236C11.2272 5.172 10.9179 5.14 10.5339 5.14L10.5019 4.964C11.4085 4.836 12.3099 4.772 13.2059 4.772V7.124C13.3232 6.36667 13.5845 5.77467 13.9899 5.348C14.4059 4.91067 14.9392 4.692 15.5899 4.692ZM24.792 7.332V8.948C24.792 10.132 24.8293 10.9107 24.904 11.284C24.9787 11.6467 25.16 11.828 25.448 11.828C25.6293 11.828 25.8693 11.7533 26.168 11.604L26.248 11.764C26.1627 11.828 26.0507 11.908 25.912 12.004C25.7733 12.0893 25.4907 12.2067 25.064 12.356C24.6373 12.5053 24.2267 12.58 23.832 12.58C23.7253 12.132 23.672 11.4173 23.672 10.436C23.4373 11.0973 23.128 11.636 22.744 12.052C22.3707 12.4573 21.848 12.66 21.176 12.66C20.504 12.66 19.9707 12.484 19.576 12.132C19.192 11.7693 19 11.2787 19 10.66C19 8.94267 20.5573 8.07867 23.672 8.068V7.492C23.672 6.724 23.56 6.13733 23.336 5.732C23.112 5.32667 22.696 5.124 22.088 5.124C21.7467 5.124 21.4693 5.20933 21.256 5.38C21.0427 5.55067 20.8987 5.73733 20.824 5.94C20.6427 6.49467 20.3707 6.772 20.008 6.772C19.656 6.772 19.48 6.57467 19.48 6.18C19.48 5.77467 19.7467 5.43867 20.28 5.172C20.8133 4.90533 21.4587 4.772 22.216 4.772C22.9733 4.772 23.592 4.99067 24.072 5.428C24.552 5.85467 24.792 6.48933 24.792 7.332ZM20.216 10.724C20.216 11.14 20.3173 11.4867 20.52 11.764C20.7227 12.0307 21.0427 12.164 21.48 12.164C21.928 12.164 22.3333 11.9507 22.696 11.524C23.0587 11.0867 23.304 10.6067 23.432 10.084C23.5707 9.55067 23.6507 9.00133 23.672 8.436C22.488 8.44667 21.6133 8.66533 21.048 9.092C20.4933 9.51867 20.216 10.0627 20.216 10.724ZM30.7971 5.844C30.7971 6.33467 31.0478 7.20933 31.5491 8.468L32.7811 11.572L34.0291 7.732C34.2745 6.964 34.3971 6.38267 34.3971 5.988C34.3971 5.412 34.0238 5.124 33.2771 5.124L33.2451 4.932H36.2531L36.2211 5.124C35.7838 5.124 35.4745 5.268 35.2931 5.556C35.1225 5.83333 34.7971 6.70267 34.3171 8.164L32.8771 12.548H31.9331L29.8531 7.236C29.5011 6.34 29.1811 5.764 28.8931 5.508C28.6158 5.252 28.2798 5.124 27.8851 5.124L27.8531 4.932H31.8211L31.7891 5.124C31.4158 5.124 31.1545 5.18267 31.0051 5.3C30.8665 5.41733 30.7971 5.59867 30.7971 5.844ZM44.8009 8.452H39.5529V8.724C39.5529 9.85467 39.7929 10.7187 40.2729 11.316C40.7529 11.9027 41.3502 12.196 42.0649 12.196C43.1315 12.196 43.8995 11.7693 44.3689 10.916L44.6089 11.044C44.0542 12.1213 43.1262 12.66 41.8249 12.66C40.8649 12.66 40.0435 12.3133 39.3609 11.62C38.6782 10.9267 38.3369 9.99333 38.3369 8.82C38.3369 7.636 38.6355 6.66533 39.2329 5.908C39.8409 5.15067 40.6462 4.772 41.6489 4.772C42.6622 4.772 43.4409 5.11867 43.9849 5.812C44.5289 6.49467 44.8009 7.37467 44.8009 8.452ZM41.6969 5.092C41.0782 5.092 40.5875 5.35867 40.2249 5.892C39.8729 6.41467 39.6595 7.11333 39.5849 7.988H43.5689C43.4942 6.05733 42.8702 5.092 41.6969 5.092ZM50.1311 0.723999V9.716C50.1311 10.9 50.2005 11.6307 50.3391 11.908C50.4778 12.1747 50.8618 12.308 51.4911 12.308L51.5231 12.5H47.6031L47.6351 12.308C48.2751 12.308 48.6645 12.1747 48.8031 11.908C48.9418 11.6413 49.0111 10.9107 49.0111 9.716V3.604C49.0111 2.42 48.9471 1.70533 48.8191 1.46C48.7765 1.38533 48.6965 1.31067 48.5791 1.236C48.4618 1.16133 48.3338 1.11867 48.1951 1.108C48.0671 1.09733 47.8805 1.092 47.6351 1.092L47.6031 0.915999C48.4031 0.787999 49.2458 0.723999 50.1311 0.723999Z"/>
</mask>
<path d="M0.24 1.3H9.456V3.604L9.296 3.572C9.296 2.27067 8.00533 1.62 5.424 1.62V8.884C5.424 10.4627 5.51467 11.4227 5.696 11.764C5.76 11.892 5.872 12.004 6.032 12.1C6.192 12.196 6.36267 12.2547 6.544 12.276C6.72533 12.2973 6.976 12.308 7.296 12.308L7.328 12.5H2.4L2.432 12.308C2.752 12.308 3.00267 12.3027 3.184 12.292C3.376 12.2707 3.54667 12.2067 3.696 12.1C3.856 11.9933 3.968 11.8813 4.032 11.764C4.10667 11.6467 4.17067 11.4387 4.224 11.14C4.27733 10.7773 4.304 10.0253 4.304 8.884V1.62C1.72267 1.62 0.432 2.27067 0.432 3.572L0.24 3.604V1.3ZM15.5899 4.692C15.8565 4.692 16.0912 4.75067 16.2939 4.868C16.4965 4.98533 16.5979 5.14533 16.5979 5.348C16.5979 5.55067 16.5339 5.71067 16.4059 5.828C16.2779 5.94533 16.1339 6.004 15.9739 6.004C15.8139 6.004 15.6112 5.93467 15.3659 5.796C15.1312 5.65733 14.8805 5.588 14.6139 5.588C14.1979 5.588 13.8565 5.972 13.5899 6.74C13.3339 7.508 13.2059 8.39867 13.2059 9.412C13.2059 10.7773 13.2752 11.604 13.4139 11.892C13.4565 11.988 13.5365 12.0787 13.6539 12.164C13.7712 12.2387 13.8939 12.2813 14.0219 12.292C14.1499 12.3027 14.3312 12.308 14.5659 12.308L14.5979 12.5H10.7099L10.7419 12.308C11.0832 12.308 11.3285 12.292 11.4779 12.26C11.6379 12.2173 11.7712 12.084 11.8779 11.86C11.9845 11.636 12.0432 11.3587 12.0539 11.028C12.0752 10.6867 12.0859 10.148 12.0859 9.412V8.484C12.0859 7.00133 12.0432 6.15867 11.9579 5.956C11.8832 5.75333 11.8139 5.59333 11.7499 5.476C11.6859 5.35867 11.5899 5.27867 11.4619 5.236C11.2272 5.172 10.9179 5.14 10.5339 5.14L10.5019 4.964C11.4085 4.836 12.3099 4.772 13.2059 4.772V7.124C13.3232 6.36667 13.5845 5.77467 13.9899 5.348C14.4059 4.91067 14.9392 4.692 15.5899 4.692ZM24.792 7.332V8.948C24.792 10.132 24.8293 10.9107 24.904 11.284C24.9787 11.6467 25.16 11.828 25.448 11.828C25.6293 11.828 25.8693 11.7533 26.168 11.604L26.248 11.764C26.1627 11.828 26.0507 11.908 25.912 12.004C25.7733 12.0893 25.4907 12.2067 25.064 12.356C24.6373 12.5053 24.2267 12.58 23.832 12.58C23.7253 12.132 23.672 11.4173 23.672 10.436C23.4373 11.0973 23.128 11.636 22.744 12.052C22.3707 12.4573 21.848 12.66 21.176 12.66C20.504 12.66 19.9707 12.484 19.576 12.132C19.192 11.7693 19 11.2787 19 10.66C19 8.94267 20.5573 8.07867 23.672 8.068V7.492C23.672 6.724 23.56 6.13733 23.336 5.732C23.112 5.32667 22.696 5.124 22.088 5.124C21.7467 5.124 21.4693 5.20933 21.256 5.38C21.0427 5.55067 20.8987 5.73733 20.824 5.94C20.6427 6.49467 20.3707 6.772 20.008 6.772C19.656 6.772 19.48 6.57467 19.48 6.18C19.48 5.77467 19.7467 5.43867 20.28 5.172C20.8133 4.90533 21.4587 4.772 22.216 4.772C22.9733 4.772 23.592 4.99067 24.072 5.428C24.552 5.85467 24.792 6.48933 24.792 7.332ZM20.216 10.724C20.216 11.14 20.3173 11.4867 20.52 11.764C20.7227 12.0307 21.0427 12.164 21.48 12.164C21.928 12.164 22.3333 11.9507 22.696 11.524C23.0587 11.0867 23.304 10.6067 23.432 10.084C23.5707 9.55067 23.6507 9.00133 23.672 8.436C22.488 8.44667 21.6133 8.66533 21.048 9.092C20.4933 9.51867 20.216 10.0627 20.216 10.724ZM30.7971 5.844C30.7971 6.33467 31.0478 7.20933 31.5491 8.468L32.7811 11.572L34.0291 7.732C34.2745 6.964 34.3971 6.38267 34.3971 5.988C34.3971 5.412 34.0238 5.124 33.2771 5.124L33.2451 4.932H36.2531L36.2211 5.124C35.7838 5.124 35.4745 5.268 35.2931 5.556C35.1225 5.83333 34.7971 6.70267 34.3171 8.164L32.8771 12.548H31.9331L29.8531 7.236C29.5011 6.34 29.1811 5.764 28.8931 5.508C28.6158 5.252 28.2798 5.124 27.8851 5.124L27.8531 4.932H31.8211L31.7891 5.124C31.4158 5.124 31.1545 5.18267 31.0051 5.3C30.8665 5.41733 30.7971 5.59867 30.7971 5.844ZM44.8009 8.452H39.5529V8.724C39.5529 9.85467 39.7929 10.7187 40.2729 11.316C40.7529 11.9027 41.3502 12.196 42.0649 12.196C43.1315 12.196 43.8995 11.7693 44.3689 10.916L44.6089 11.044C44.0542 12.1213 43.1262 12.66 41.8249 12.66C40.8649 12.66 40.0435 12.3133 39.3609 11.62C38.6782 10.9267 38.3369 9.99333 38.3369 8.82C38.3369 7.636 38.6355 6.66533 39.2329 5.908C39.8409 5.15067 40.6462 4.772 41.6489 4.772C42.6622 4.772 43.4409 5.11867 43.9849 5.812C44.5289 6.49467 44.8009 7.37467 44.8009 8.452ZM41.6969 5.092C41.0782 5.092 40.5875 5.35867 40.2249 5.892C39.8729 6.41467 39.6595 7.11333 39.5849 7.988H43.5689C43.4942 6.05733 42.8702 5.092 41.6969 5.092ZM50.1311 0.723999V9.716C50.1311 10.9 50.2005 11.6307 50.3391 11.908C50.4778 12.1747 50.8618 12.308 51.4911 12.308L51.5231 12.5H47.6031L47.6351 12.308C48.2751 12.308 48.6645 12.1747 48.8031 11.908C48.9418 11.6413 49.0111 10.9107 49.0111 9.716V3.604C49.0111 2.42 48.9471 1.70533 48.8191 1.46C48.7765 1.38533 48.6965 1.31067 48.5791 1.236C48.4618 1.16133 48.3338 1.11867 48.1951 1.108C48.0671 1.09733 47.8805 1.092 47.6351 1.092L47.6031 0.915999C48.4031 0.787999 49.2458 0.723999 50.1311 0.723999Z" fill="#25A59E"/>
<path d="M0.24 1.3V0.599999H-0.46V1.3H0.24ZM9.456 1.3H10.156V0.599999H9.456V1.3ZM9.456 3.604L9.31872 4.29041L10.156 4.45786V3.604H9.456ZM9.296 3.572H8.596V4.14586L9.15872 4.25841L9.296 3.572ZM5.424 1.62V0.92H4.724V1.62H5.424ZM5.696 11.764L6.3221 11.4509L6.31823 11.4432L6.31418 11.4356L5.696 11.764ZM6.032 12.1L5.67185 12.7002H5.67185L6.032 12.1ZM6.544 12.276L6.46221 12.9712L6.544 12.276ZM7.296 12.308L7.98648 12.1929L7.88899 11.608H7.296V12.308ZM7.328 12.5V13.2H8.15432L8.01848 12.3849L7.328 12.5ZM2.4 12.5L1.70952 12.3849L1.57368 13.2H2.4V12.5ZM2.432 12.308V11.608H1.83901L1.74152 12.1929L2.432 12.308ZM3.184 12.292L3.22511 12.9908L3.24324 12.9897L3.2613 12.9877L3.184 12.292ZM3.696 12.1L3.30771 11.5176L3.29832 11.5238L3.28913 11.5304L3.696 12.1ZM4.032 11.764L3.44144 11.3882L3.42877 11.4081L3.41747 11.4288L4.032 11.764ZM4.224 11.14L4.9131 11.2631L4.91499 11.2525L4.91655 11.2418L4.224 11.14ZM4.304 1.62H5.004V0.92H4.304V1.62ZM0.432 3.572L0.547078 4.26248L1.132 4.16499V3.572H0.432ZM0.24 3.604H-0.46V4.43032L0.355078 4.29448L0.24 3.604ZM0.24 2H9.456V0.599999H0.24V2ZM8.756 1.3V3.604H10.156V1.3H8.756ZM9.59328 2.91759L9.43328 2.88559L9.15872 4.25841L9.31872 4.29041L9.59328 2.91759ZM9.996 3.572C9.996 3.12535 9.88332 2.70308 9.6379 2.33192C9.3952 1.96486 9.04927 1.68769 8.64311 1.48294C7.85078 1.0835 6.75086 0.92 5.424 0.92V2.32C6.67848 2.32 7.51455 2.48183 8.01289 2.73306C8.25206 2.85364 8.39013 2.98314 8.4701 3.10408C8.54735 3.22092 8.596 3.36798 8.596 3.572H9.996ZM4.724 1.62V8.884H6.124V1.62H4.724ZM4.724 8.884C4.724 9.68339 4.74682 10.3426 4.7951 10.8538C4.83987 11.3278 4.91398 11.784 5.07782 12.0924L6.31418 11.4356C6.31422 11.4357 6.2909 11.3861 6.26219 11.2488C6.23532 11.1202 6.2101 10.9466 6.1889 10.7222C6.14651 10.2734 6.124 9.66328 6.124 8.884H4.724ZM5.0699 12.0771C5.20902 12.3553 5.43179 12.5562 5.67185 12.7002L6.39215 11.4998C6.31221 11.4518 6.31098 11.4287 6.3221 11.4509L5.0699 12.0771ZM5.67185 12.7002C5.91495 12.8461 6.18022 12.938 6.46221 12.9712L6.62579 11.5808C6.54512 11.5713 6.46905 11.5459 6.39215 11.4998L5.67185 12.7002ZM6.46221 12.9712C6.68354 12.9972 6.9657 13.008 7.296 13.008V11.608C6.9863 11.608 6.76713 11.5974 6.62579 11.5808L6.46221 12.9712ZM6.60553 12.4231L6.63753 12.6151L8.01848 12.3849L7.98648 12.1929L6.60553 12.4231ZM7.328 11.8H2.4V13.2H7.328V11.8ZM3.09048 12.6151L3.12248 12.4231L1.74152 12.1929L1.70952 12.3849L3.09048 12.6151ZM2.432 13.008C2.7571 13.008 3.02357 13.0026 3.22511 12.9908L3.14289 11.5932C2.98176 11.6027 2.7469 11.608 2.432 11.608V13.008ZM3.2613 12.9877C3.56564 12.9539 3.85107 12.8495 4.10287 12.6696L3.28913 11.5304C3.24226 11.5639 3.18636 11.5874 3.1067 11.5963L3.2613 12.9877ZM4.08429 12.6824C4.29998 12.5386 4.50968 12.3501 4.64653 12.0992L3.41747 11.4288C3.42276 11.4191 3.42223 11.4238 3.40503 11.441C3.38766 11.4584 3.35719 11.4846 3.30771 11.5176L4.08429 12.6824ZM4.62256 12.1398C4.77668 11.8976 4.85822 11.5704 4.9131 11.2631L3.5349 11.0169C3.51145 11.1483 3.48806 11.2455 3.46695 11.3141C3.44426 11.3879 3.43176 11.4034 3.44144 11.3882L4.62256 12.1398ZM4.91655 11.2418C4.97864 10.8196 5.004 10.0153 5.004 8.884H3.604C3.604 10.0354 3.57602 10.735 3.53145 11.0382L4.91655 11.2418ZM5.004 8.884V1.62H3.604V8.884H5.004ZM4.304 0.92C2.97714 0.92 1.87722 1.0835 1.08489 1.48294C0.678731 1.68769 0.332799 1.96486 0.0900964 2.33192C-0.155317 2.70308 -0.268 3.12535 -0.268 3.572H1.132C1.132 3.36798 1.18065 3.22092 1.2579 3.10408C1.33787 2.98314 1.47594 2.85364 1.71511 2.73306C2.21345 2.48183 3.04952 2.32 4.304 2.32V0.92ZM0.316922 2.88152L0.124922 2.91352L0.355078 4.29448L0.547078 4.26248L0.316922 2.88152ZM0.94 3.604V1.3H-0.46V3.604H0.94ZM15.3659 5.796L15.0097 6.39876L15.0214 6.40539L15.3659 5.796ZM13.5899 6.74L12.9286 6.51037L12.9258 6.51864L13.5899 6.74ZM13.4139 11.892L14.0535 11.6077L14.0492 11.5979L14.0446 11.5883L13.4139 11.892ZM13.6539 12.164L13.2422 12.7301L13.2597 12.7429L13.2781 12.7546L13.6539 12.164ZM14.0219 12.292L13.9637 12.9896L14.0219 12.292ZM14.5659 12.308L15.2564 12.1929L15.1589 11.608H14.5659V12.308ZM14.5979 12.5V13.2H15.4242L15.2884 12.3849L14.5979 12.5ZM10.7099 12.5L10.0194 12.3849L9.88355 13.2H10.7099V12.5ZM10.7419 12.308V11.608H10.1489L10.0514 12.1929L10.7419 12.308ZM11.4779 12.26L11.6245 12.9445L11.6415 12.9408L11.6582 12.9364L11.4779 12.26ZM12.0539 11.028L11.3552 10.9843L11.3546 10.9949L11.3542 11.0054L12.0539 11.028ZM11.9579 5.956L11.301 6.19799L11.3065 6.21295L11.3127 6.22764L11.9579 5.956ZM11.7499 5.476L11.1353 5.8112L11.1353 5.8112L11.7499 5.476ZM11.4619 5.236L11.6832 4.57192L11.6648 4.56578L11.6461 4.56066L11.4619 5.236ZM10.5339 5.14L9.84517 5.26522L9.94967 5.84H10.5339V5.14ZM10.5019 4.964L10.404 4.27087L9.68289 4.37268L9.81317 5.08922L10.5019 4.964ZM13.2059 4.772H13.9059V4.072H13.2059V4.772ZM13.2059 7.124H12.5059L13.8976 7.23117L13.2059 7.124ZM13.9899 5.348L13.4827 4.86555L13.4824 4.86588L13.9899 5.348ZM15.5899 5.392C15.7508 5.392 15.8612 5.42633 15.9432 5.4738L16.6446 4.2622C16.3213 4.075 15.9623 3.992 15.5899 3.992V5.392ZM15.9432 5.4738C15.9695 5.48906 15.9529 5.48585 15.9305 5.45054C15.9195 5.4332 15.9105 5.41319 15.9047 5.39237C15.899 5.37189 15.8979 5.35617 15.8979 5.348H17.2979C17.2979 4.85239 17.0233 4.48145 16.6446 4.2622L15.9432 5.4738ZM15.8979 5.348C15.8979 5.37569 15.8936 5.3759 15.8999 5.36003C15.903 5.35229 15.9078 5.34304 15.9143 5.33355C15.9209 5.32408 15.9276 5.31686 15.9329 5.31199L16.8789 6.34401C17.176 6.07162 17.2979 5.71097 17.2979 5.348H15.8979ZM15.9329 5.31199C15.923 5.32104 15.9244 5.31718 15.9378 5.31174C15.944 5.30919 15.951 5.30707 15.9582 5.30568C15.9654 5.3043 15.9709 5.304 15.9739 5.304V6.704C16.3246 6.704 16.6338 6.5687 16.8789 6.34401L15.9329 5.31199ZM15.9739 5.304C15.9921 5.304 15.98 5.30731 15.9285 5.28968C15.8784 5.27256 15.8064 5.24093 15.7103 5.18661L15.0214 6.40539C15.3027 6.56437 15.633 6.704 15.9739 6.704V5.304ZM15.722 5.19335C15.382 4.99243 15.0087 4.888 14.6139 4.888V6.288C14.7524 6.288 14.8804 6.32223 15.0098 6.39865L15.722 5.19335ZM14.6139 4.888C14.1602 4.888 13.7924 5.10747 13.5227 5.41094C13.2659 5.69987 13.0765 6.0844 12.9286 6.51039L14.2511 6.96961C14.3699 6.6276 14.4845 6.43613 14.5691 6.34105C14.6406 6.26053 14.6515 6.288 14.6139 6.288V4.888ZM12.9258 6.51864C12.6409 7.37338 12.5059 8.34154 12.5059 9.412H13.9059C13.9059 8.45579 14.0269 7.64262 14.254 6.96136L12.9258 6.51864ZM12.5059 9.412C12.5059 10.1035 12.5233 10.6734 12.5603 11.1145C12.5942 11.5187 12.6506 11.9204 12.7832 12.1957L14.0446 11.5883C14.0497 11.599 14.033 11.5643 14.011 11.4466C13.9908 11.3383 13.9716 11.1904 13.9554 10.9975C13.9231 10.612 13.9059 10.0858 13.9059 9.412H12.5059ZM12.7742 12.1763C12.8823 12.4194 13.0616 12.5988 13.2422 12.7301L14.0656 11.5979C14.0533 11.5889 14.0446 11.5817 14.0388 11.5766C14.0331 11.5715 14.0307 11.5688 14.0308 11.5689C14.0309 11.5691 14.042 11.5816 14.0535 11.6077L12.7742 12.1763ZM13.2781 12.7546C13.483 12.8849 13.7135 12.9687 13.9637 12.9896L14.08 11.5944C14.0742 11.5939 14.0595 11.5924 14.0297 11.5734L13.2781 12.7546ZM13.9637 12.9896C14.1207 13.0027 14.3248 13.008 14.5659 13.008V11.608C14.3376 11.608 14.179 11.6027 14.08 11.5944L13.9637 12.9896ZM13.8754 12.4231L13.9074 12.6151L15.2884 12.3849L15.2564 12.1929L13.8754 12.4231ZM14.5979 11.8H10.7099V13.2H14.5979V11.8ZM11.4004 12.6151L11.4324 12.4231L10.0514 12.1929L10.0194 12.3849L11.4004 12.6151ZM10.7419 13.008C11.0873 13.008 11.397 12.9932 11.6245 12.9445L11.3312 11.5755C11.2601 11.5908 11.0791 11.608 10.7419 11.608V13.008ZM11.6582 12.9364C12.0986 12.8189 12.3596 12.4766 12.5099 12.161L11.2459 11.559C11.2318 11.5886 11.22 11.6084 11.2118 11.6207C11.2036 11.6329 11.2001 11.6358 11.2029 11.633C11.206 11.63 11.2156 11.621 11.2327 11.6108C11.2503 11.6002 11.2723 11.5904 11.2975 11.5836L11.6582 12.9364ZM12.5099 12.161C12.6694 11.8259 12.7407 11.4472 12.7535 11.0506L11.3542 11.0054C11.3457 11.2701 11.2997 11.4461 11.2459 11.559L12.5099 12.161ZM12.7525 11.0717C12.7753 10.7071 12.7859 10.15 12.7859 9.412H11.3859C11.3859 10.146 11.3751 10.6662 11.3552 10.9843L12.7525 11.0717ZM12.7859 9.412V8.484H11.3859V9.412H12.7859ZM12.7859 8.484C12.7859 7.73824 12.7752 7.14331 12.753 6.7046C12.7419 6.48591 12.7275 6.29685 12.7087 6.14292C12.6927 6.01245 12.666 5.83404 12.603 5.68436L11.3127 6.22764C11.2924 6.1793 11.303 6.18222 11.3191 6.31308C11.3322 6.42048 11.3445 6.57275 11.3548 6.7754C11.3752 7.17935 11.3859 7.74709 11.3859 8.484H12.7859ZM12.6147 5.71401C12.5345 5.49622 12.4516 5.30064 12.3644 5.1408L11.1353 5.8112C11.1762 5.88603 11.2319 6.01044 11.301 6.19799L12.6147 5.71401ZM12.3644 5.1408C12.2148 4.86644 11.9774 4.66997 11.6832 4.57192L11.2405 5.90008C11.2284 5.89602 11.206 5.88594 11.1817 5.86575C11.1574 5.84549 11.1426 5.82449 11.1353 5.8112L12.3644 5.1408ZM11.6461 4.56066C11.3271 4.47369 10.9486 4.44 10.5339 4.44V5.84C10.8871 5.84 11.1273 5.87031 11.2777 5.91133L11.6461 4.56066ZM11.2226 5.01478L11.1906 4.83878L9.81317 5.08922L9.84517 5.26522L11.2226 5.01478ZM10.5997 5.65713C11.4747 5.5336 12.3433 5.472 13.2059 5.472V4.072C12.2764 4.072 11.3424 4.1384 10.404 4.27087L10.5997 5.65713ZM12.5059 4.772V7.124H13.9059V4.772H12.5059ZM13.8976 7.23117C13.9997 6.57243 14.216 6.12631 14.4974 5.83012L13.4824 4.86588C12.9531 5.42303 12.6467 6.1609 12.5141 7.01683L13.8976 7.23117ZM14.4971 5.83045C14.7699 5.54365 15.1143 5.392 15.5899 5.392V3.992C14.7641 3.992 14.0419 4.27768 13.4827 4.86555L14.4971 5.83045ZM24.904 11.284L24.2176 11.4213L24.2184 11.4252L24.904 11.284ZM26.168 11.604L26.7941 11.291L26.4811 10.6649L25.855 10.9779L26.168 11.604ZM26.248 11.764L26.668 12.324L27.1354 11.9735L26.8741 11.451L26.248 11.764ZM25.912 12.004L26.2789 12.6002L26.2949 12.5903L26.3104 12.5795L25.912 12.004ZM25.064 12.356L25.2952 13.0167L25.064 12.356ZM23.832 12.58L23.151 12.7421L23.2791 13.28H23.832V12.58ZM23.672 10.436H24.372L23.0123 10.2019L23.672 10.436ZM22.744 12.052L22.2296 11.5772L22.2291 11.5778L22.744 12.052ZM19.576 12.132L19.0954 12.6409L19.1026 12.6478L19.1101 12.6544L19.576 12.132ZM23.672 8.068L23.6744 8.768L24.372 8.76561V8.068H23.672ZM23.336 5.732L22.7233 6.07058L23.336 5.732ZM21.256 5.38L21.6933 5.92661V5.92661L21.256 5.38ZM20.824 5.94L20.1672 5.69801L20.1627 5.71017L20.1587 5.72248L20.824 5.94ZM20.28 5.172L19.967 4.5459L20.28 5.172ZM24.072 5.428L23.6005 5.94548L23.6069 5.95119L24.072 5.428ZM20.52 11.764L19.9547 12.1771L19.9627 12.1876L20.52 11.764ZM22.696 11.524L23.2294 11.9774L23.2348 11.9708L22.696 11.524ZM23.432 10.084L22.7545 9.90784L22.7521 9.91749L23.432 10.084ZM23.672 8.436L24.3715 8.4624L24.3992 7.72942L23.6657 7.73603L23.672 8.436ZM21.048 9.092L20.6263 8.53324L20.6212 8.53716L21.048 9.092ZM24.092 7.332V8.948H25.492V7.332H24.092ZM24.092 8.948C24.092 10.1183 24.1269 10.968 24.2176 11.4213L25.5904 11.1467C25.5317 10.8533 25.492 10.1457 25.492 8.948H24.092ZM24.2184 11.4252C24.2717 11.684 24.3795 11.9655 24.601 12.187C24.8396 12.4256 25.1433 12.528 25.448 12.528V11.128C25.4499 11.128 25.4717 11.1285 25.5043 11.141C25.5384 11.1542 25.5687 11.1747 25.591 11.197C25.6117 11.2177 25.6168 11.2311 25.6134 11.2239C25.6096 11.216 25.5996 11.1913 25.5896 11.1428L24.2184 11.4252ZM25.448 12.528C25.795 12.528 26.1538 12.3937 26.4811 12.2301L25.855 10.9779C25.7292 11.0408 25.6304 11.0805 25.5561 11.1036C25.4794 11.1274 25.4468 11.128 25.448 11.128V12.528ZM25.5419 11.917L25.6219 12.077L26.8741 11.451L26.7941 11.291L25.5419 11.917ZM25.828 11.204C25.7526 11.2606 25.6486 11.335 25.5136 11.4285L26.3104 12.5795C26.4527 12.481 26.5728 12.3954 26.668 12.324L25.828 11.204ZM25.5451 11.4078C25.4802 11.4478 25.2675 11.5431 24.8328 11.6953L25.2952 13.0167C25.7138 12.8702 26.0664 12.7309 26.2789 12.6002L25.5451 11.4078ZM24.8328 11.6953C24.4698 11.8223 24.1374 11.88 23.832 11.88V13.28C24.3159 13.28 24.8049 13.1883 25.2952 13.0167L24.8328 11.6953ZM24.513 12.4179C24.4265 12.0547 24.372 11.4097 24.372 10.436H22.972C22.972 11.4249 23.0242 12.2093 23.151 12.7421L24.513 12.4179ZM23.0123 10.2019C22.8019 10.7947 22.536 11.2453 22.2296 11.5772L23.2584 12.5268C23.72 12.0267 24.0727 11.3999 24.3317 10.6701L23.0123 10.2019ZM22.2291 11.5778C22.0168 11.8083 21.6987 11.96 21.176 11.96V13.36C21.9973 13.36 22.7246 13.1063 23.2589 12.5262L22.2291 11.5778ZM21.176 11.96C20.6278 11.96 20.2765 11.8188 20.0419 11.6096L19.1101 12.6544C19.6648 13.1492 20.3802 13.36 21.176 13.36V11.96ZM20.0566 11.6231C19.8368 11.4154 19.7 11.122 19.7 10.66H18.3C18.3 11.4354 18.5472 12.1232 19.0954 12.6409L20.0566 11.6231ZM19.7 10.66C19.7 10.34 19.7713 10.0926 19.8914 9.8936C20.0122 9.6933 20.2057 9.50358 20.5076 9.33611C21.1322 8.98957 22.1586 8.77319 23.6744 8.768L23.6696 7.368C22.0707 7.37348 20.7611 7.59443 19.8284 8.11189C19.3516 8.37642 18.9611 8.72537 18.6926 9.1704C18.4234 9.61673 18.3 10.1213 18.3 10.66H19.7ZM24.372 8.068V7.492H22.972V8.068H24.372ZM24.372 7.492C24.372 6.67462 24.256 5.94954 23.9487 5.39342L22.7233 6.07058C22.864 6.32513 22.972 6.77338 22.972 7.492H24.372ZM23.9487 5.39342C23.5626 4.69475 22.8588 4.424 22.088 4.424V5.824C22.5332 5.824 22.6614 5.95859 22.7233 6.07058L23.9487 5.39342ZM22.088 4.424C21.6283 4.424 21.1845 4.54075 20.8187 4.83339L21.6933 5.92661C21.7542 5.87792 21.865 5.824 22.088 5.824V4.424ZM20.8187 4.83339C20.5319 5.06286 20.2962 5.34784 20.1672 5.69801L21.4808 6.18199C21.5012 6.12682 21.5535 6.03848 21.6933 5.92661L20.8187 4.83339ZM20.1587 5.72248C20.0861 5.94444 20.0165 6.04099 19.9842 6.07385C19.9714 6.08693 19.9705 6.08392 19.9827 6.07857C19.9882 6.07615 19.9942 6.07427 19.9999 6.07312C20.0054 6.07198 20.0085 6.072 20.008 6.072V7.472C20.8436 7.472 21.2807 6.79588 21.4893 6.15752L20.1587 5.72248ZM20.008 6.072C19.9837 6.072 19.9929 6.06839 20.0221 6.0793C20.0553 6.09173 20.0978 6.117 20.1344 6.15807C20.2058 6.23812 20.18 6.28792 20.18 6.18H18.78C18.78 6.46675 18.8422 6.81255 19.0896 7.08993C19.3506 7.38256 19.7021 7.472 20.008 7.472V6.072ZM20.18 6.18C20.18 6.14497 20.1871 6.11114 20.2283 6.05916C20.2784 5.99608 20.3844 5.90244 20.5931 5.7981L19.967 4.5459C19.3222 4.86827 18.78 5.39333 18.78 6.18H20.18ZM20.5931 5.7981C21.0065 5.59136 21.5388 5.472 22.216 5.472V4.072C21.3785 4.072 20.6201 4.21931 19.967 4.5459L20.5931 5.7981ZM22.216 5.472C22.8298 5.472 23.2706 5.64482 23.6006 5.94544L24.5434 4.91056C23.9134 4.33651 23.1169 4.072 22.216 4.072V5.472ZM23.6069 5.95119C23.8944 6.20666 24.092 6.6232 24.092 7.332H25.492C25.492 6.35547 25.2096 5.50267 24.5371 4.90481L23.6069 5.95119ZM19.516 10.724C19.516 11.2564 19.6474 11.7563 19.9548 12.177L21.0852 11.351C20.9873 11.2171 20.916 11.0236 20.916 10.724H19.516ZM19.9627 12.1876C20.3364 12.6792 20.8968 12.864 21.48 12.864V11.464C21.1885 11.464 21.109 11.3821 21.0773 11.3404L19.9627 12.1876ZM21.48 12.864C22.1832 12.864 22.7698 12.5181 23.2294 11.9774L22.1626 11.0706C21.8969 11.3833 21.6728 11.464 21.48 11.464V12.864ZM23.2348 11.9708C23.6613 11.4566 23.9573 10.8818 24.1119 10.2505L22.7521 9.91749C22.6507 10.3315 22.4561 10.7167 22.1572 11.0772L23.2348 11.9708ZM24.1095 10.2601C24.2612 9.67655 24.3483 9.07695 24.3715 8.4624L22.9725 8.4096C22.953 8.92572 22.8801 9.42479 22.7545 9.90786L24.1095 10.2601ZM23.6657 7.73603C22.4231 7.74722 21.3681 7.97341 20.6263 8.53327L21.4697 9.65073C21.8585 9.35725 22.5529 9.14611 23.6783 9.13597L23.6657 7.73603ZM20.6212 8.53716C19.9059 9.08739 19.516 9.83107 19.516 10.724H20.916C20.916 10.2943 21.0808 9.94994 21.4748 9.64684L20.6212 8.53716ZM31.5491 8.468L32.1997 8.20976L32.1994 8.20898L31.5491 8.468ZM32.7811 11.572L32.1305 11.8302L32.8467 13.6348L33.4468 11.7884L32.7811 11.572ZM34.0291 7.732L34.6949 7.94836L34.6959 7.94501L34.0291 7.732ZM33.2771 5.124L32.5866 5.23908L32.6841 5.824H33.2771V5.124ZM33.2451 4.932V4.232H32.4188L32.5546 5.04708L33.2451 4.932ZM36.2531 4.932L36.9436 5.04708L37.0794 4.232H36.2531V4.932ZM36.2211 5.124V5.824H36.8141L36.9116 5.23908L36.2211 5.124ZM35.2931 5.556L34.7007 5.18301L34.697 5.18913L35.2931 5.556ZM34.3171 8.164L33.6521 7.94555L34.3171 8.164ZM32.8771 12.548V13.248H33.384L33.5422 12.7664L32.8771 12.548ZM31.9331 12.548L31.2813 12.8032L31.4555 13.248H31.9331V12.548ZM29.8531 7.236L30.5049 6.98077L30.5047 6.98004L29.8531 7.236ZM28.8931 5.508L28.4182 6.02245L28.4281 6.03119L28.8931 5.508ZM27.8851 5.124L27.1946 5.23908L27.2921 5.824H27.8851V5.124ZM27.8531 4.932V4.232H27.0268L27.1626 5.04708L27.8531 4.932ZM31.8211 4.932L32.5116 5.04708L32.6474 4.232H31.8211V4.932ZM31.7891 5.124V5.824H32.3821L32.4796 5.23908L31.7891 5.124ZM31.0051 5.3L30.5726 4.74958L30.5627 4.75742L30.553 4.76563L31.0051 5.3ZM30.0971 5.844C30.0971 6.18823 30.1814 6.60456 30.3122 7.06085C30.4463 7.52856 30.6432 8.08539 30.8988 8.72702L32.1994 8.20898C31.9537 7.59194 31.7747 7.08211 31.658 6.67515C31.5381 6.25677 31.4971 5.99043 31.4971 5.844H30.0971ZM30.8985 8.72624L32.1305 11.8302L33.4318 11.3138L32.1997 8.20976L30.8985 8.72624ZM33.4468 11.7884L34.6948 7.94836L33.3634 7.51564L32.1154 11.3556L33.4468 11.7884ZM34.6959 7.94501C34.9453 7.16435 35.0971 6.49671 35.0971 5.988H33.6971C33.6971 6.26862 33.6036 6.76365 33.3623 7.51899L34.6959 7.94501ZM35.0971 5.988C35.0971 5.53648 34.9415 5.09185 34.5447 4.78575C34.1823 4.50623 33.7209 4.424 33.2771 4.424V5.824C33.58 5.824 33.6786 5.88577 33.6896 5.89425C33.6911 5.89541 33.6895 5.89442 33.6871 5.89126C33.6846 5.88809 33.6839 5.88622 33.6845 5.88766C33.6859 5.89069 33.6971 5.91866 33.6971 5.988H35.0971ZM33.9676 5.00892L33.9356 4.81692L32.5546 5.04708L32.5866 5.23908L33.9676 5.00892ZM33.2451 5.632H36.2531V4.232H33.2451V5.632ZM35.5626 4.81692L35.5306 5.00892L36.9116 5.23908L36.9436 5.04708L35.5626 4.81692ZM36.2211 4.424C35.6211 4.424 35.0468 4.63337 34.7008 5.18303L35.8855 5.92897C35.9021 5.90263 35.9465 5.824 36.2211 5.824V4.424ZM34.697 5.18913C34.5705 5.39457 34.425 5.74442 34.2655 6.17065C34.0981 6.61808 33.8934 7.21088 33.6521 7.94555L34.9822 8.38244C35.2209 7.65579 35.4188 7.08325 35.5767 6.66135C35.7425 6.21825 35.845 5.99476 35.8893 5.92287L34.697 5.18913ZM33.6521 7.94555L32.2121 12.3296L33.5422 12.7664L34.9822 8.38244L33.6521 7.94555ZM32.8771 11.848H31.9331V13.248H32.8771V11.848ZM32.5849 12.2928L30.5049 6.98077L29.2013 7.49123L31.2813 12.8032L32.5849 12.2928ZM30.5047 6.98004C30.322 6.51505 30.1412 6.11637 29.961 5.79205C29.7859 5.47682 29.5885 5.18953 29.3582 4.98481L28.4281 6.03119C28.4858 6.08247 28.5923 6.21118 28.7372 6.47195C28.877 6.72363 29.0323 7.06094 29.2016 7.49196L30.5047 6.98004ZM29.3679 4.99364C28.9549 4.61241 28.4469 4.424 27.8851 4.424V5.824C28.1127 5.824 28.2767 5.89159 28.4183 6.02236L29.3679 4.99364ZM28.5756 5.00892L28.5436 4.81692L27.1626 5.04708L27.1946 5.23908L28.5756 5.00892ZM27.8531 5.632H31.8211V4.232H27.8531V5.632ZM31.1306 4.81692L31.0986 5.00892L32.4796 5.23908L32.5116 5.04708L31.1306 4.81692ZM31.7891 4.424C31.3874 4.424 30.9181 4.47814 30.5726 4.74958L31.4376 5.85042C31.4038 5.87702 31.3985 5.86625 31.4665 5.851C31.5315 5.83641 31.6355 5.824 31.7891 5.824V4.424ZM30.553 4.76563C30.2069 5.05841 30.0971 5.46905 30.0971 5.844H31.4971C31.4971 5.78518 31.5057 5.76689 31.503 5.774C31.5014 5.77819 31.4971 5.78777 31.4885 5.80005C31.4799 5.81251 31.4691 5.82436 31.4573 5.83437L30.553 4.76563ZM44.8009 8.452V9.152H45.5009V8.452H44.8009ZM39.5529 8.452V7.752H38.8529V8.452H39.5529ZM40.2729 11.316L39.7272 11.7545L39.7311 11.7593L40.2729 11.316ZM44.3689 10.916L44.6983 10.2984L44.0886 9.97316L43.7555 10.5787L44.3689 10.916ZM44.6089 11.044L45.2312 11.3644L45.547 10.751L44.9383 10.4264L44.6089 11.044ZM39.3609 11.62L38.8621 12.1111L39.3609 11.62ZM39.2329 5.908L38.687 5.46976L38.6833 5.4745L39.2329 5.908ZM43.9849 5.812L43.4341 6.24411L43.4374 6.24824L43.9849 5.812ZM40.2249 5.892L39.646 5.49838L39.6443 5.50098L40.2249 5.892ZM39.5849 7.988L38.8874 7.92846L38.8226 8.688H39.5849V7.988ZM43.5689 7.988V8.688H44.2965L44.2684 7.96095L43.5689 7.988ZM44.8009 7.752H39.5529V9.152H44.8009V7.752ZM38.8529 8.452V8.724H40.2529V8.452H38.8529ZM38.8529 8.724C38.8529 9.94099 39.1095 10.9858 39.7272 11.7545L40.8185 10.8775C40.4762 10.4515 40.2529 9.76835 40.2529 8.724H38.8529ZM39.7311 11.7593C40.3348 12.4971 41.1261 12.896 42.0649 12.896V11.496C41.5744 11.496 41.171 11.3082 40.8146 10.8727L39.7311 11.7593ZM42.0649 12.896C43.357 12.896 44.3761 12.3553 44.9822 11.2533L43.7555 10.5787C43.4229 11.1834 42.9061 11.496 42.0649 11.496V12.896ZM44.0395 11.5336L44.2795 11.6616L44.9383 10.4264L44.6983 10.2984L44.0395 11.5336ZM43.9865 10.7236C43.7623 11.1591 43.4793 11.4568 43.1455 11.6506C42.8088 11.846 42.3783 11.96 41.8249 11.96V13.36C42.5728 13.36 43.2569 13.2047 43.8483 12.8614C44.4425 12.5165 44.9008 12.0062 45.2312 11.3644L43.9865 10.7236ZM41.8249 11.96C41.0553 11.96 40.4128 11.6906 39.8597 11.1289L38.8621 12.1111C39.6743 12.936 40.6745 13.36 41.8249 13.36V11.96ZM39.8597 11.1289C39.3317 10.5927 39.0369 9.8499 39.0369 8.82H37.6369C37.6369 10.1368 38.0247 11.2607 38.8621 12.1111L39.8597 11.1289ZM39.0369 8.82C39.0369 7.75652 39.3031 6.94927 39.7825 6.3415L38.6833 5.4745C37.968 6.3814 37.6369 7.51548 37.6369 8.82H39.0369ZM39.7787 6.34622C40.249 5.76051 40.8505 5.472 41.6489 5.472V4.072C40.442 4.072 39.4328 4.54083 38.687 5.46978L39.7787 6.34622ZM41.6489 5.472C42.4836 5.472 43.0438 5.7466 43.4342 6.2441L44.5356 5.3799C43.8379 4.49073 42.8408 4.072 41.6489 4.072V5.472ZM43.4374 6.24824C43.8613 6.78012 44.1009 7.49504 44.1009 8.452H45.5009C45.5009 7.25429 45.1965 6.20922 44.5323 5.37576L43.4374 6.24824ZM41.6969 4.392C40.8349 4.392 40.1324 4.78311 39.646 5.49838L40.8037 6.28562C41.0427 5.93423 41.3215 5.792 41.6969 5.792V4.392ZM39.6443 5.50098C39.2047 6.15365 38.9684 6.97941 38.8874 7.92846L40.2823 8.04754C40.3507 7.24726 40.541 6.67568 40.8055 6.28302L39.6443 5.50098ZM39.5849 8.688H43.5689V7.288H39.5849V8.688ZM44.2684 7.96095C44.2291 6.94578 44.0448 6.07346 43.6328 5.43599C43.1886 4.74885 42.5151 4.392 41.6969 4.392V5.792C42.052 5.792 42.2772 5.91782 42.457 6.19601C42.6689 6.52387 42.834 7.09956 42.8694 8.01505L44.2684 7.96095ZM50.1311 0.723999H50.8311V0.023999H50.1311V0.723999ZM50.3391 11.908L49.7129 12.2211L49.7181 12.2309L50.3391 11.908ZM51.4911 12.308L52.1816 12.1929L52.0841 11.608H51.4911V12.308ZM51.5231 12.5V13.2H52.3494L52.2136 12.3849L51.5231 12.5ZM47.6031 12.5L46.9127 12.3849L46.7768 13.2H47.6031V12.5ZM47.6351 12.308V11.608H47.0421L46.9446 12.1929L47.6351 12.308ZM48.8031 11.908L48.1821 11.5851L48.8031 11.908ZM48.8191 1.46L49.4397 1.1362L49.4335 1.12433L49.4269 1.1127L48.8191 1.46ZM48.5791 1.236L48.9549 0.645437L48.9549 0.645435L48.5791 1.236ZM48.1951 1.108L48.137 1.8056L48.1414 1.80594L48.1951 1.108ZM47.6351 1.092L46.9464 1.21722L47.0509 1.792H47.6351V1.092ZM47.6031 0.915999L47.4925 0.224791L46.7865 0.337754L46.9144 1.04122L47.6031 0.915999ZM49.4311 0.723999V9.716H50.8311V0.723999H49.4311ZM49.4311 9.716C49.4311 10.3185 49.4486 10.8217 49.4863 11.2181C49.5209 11.5835 49.5795 11.954 49.713 12.221L50.9652 11.595C50.9697 11.6039 50.9543 11.5736 50.9337 11.4735C50.9145 11.3804 50.8958 11.2529 50.88 11.0859C50.8483 10.7516 50.8311 10.2975 50.8311 9.716H49.4311ZM49.7181 12.2309C49.8954 12.5719 50.2013 12.765 50.5015 12.8693C50.7963 12.9716 51.1363 13.008 51.4911 13.008V11.608C51.2166 11.608 51.05 11.5777 50.9607 11.5467C50.877 11.5176 50.9215 11.5107 50.9602 11.5851L49.7181 12.2309ZM50.8006 12.4231L50.8326 12.6151L52.2136 12.3849L52.1816 12.1929L50.8006 12.4231ZM51.5231 11.8H47.6031V13.2H51.5231V11.8ZM48.2936 12.6151L48.3256 12.4231L46.9446 12.1929L46.9127 12.3849L48.2936 12.6151ZM47.6351 13.008C47.9944 13.008 48.3374 12.9718 48.6339 12.8702C48.9349 12.7672 49.2453 12.575 49.4242 12.2309L48.1821 11.5851C48.2223 11.5077 48.2687 11.5155 48.1803 11.5458C48.0875 11.5775 47.9159 11.608 47.6351 11.608V13.008ZM49.4242 12.2309C49.5633 11.9634 49.6217 11.588 49.656 11.2261C49.6936 10.8295 49.7111 10.3236 49.7111 9.716H48.3111C48.3111 10.3031 48.294 10.7598 48.2623 11.0939C48.2273 11.4626 48.1816 11.5859 48.1821 11.5851L49.4242 12.2309ZM49.7111 9.716V3.604H48.3111V9.716H49.7111ZM49.7111 3.604C49.7111 3.00265 49.695 2.50461 49.6603 2.11756C49.643 1.92418 49.6202 1.74793 49.5895 1.59472C49.5609 1.45144 49.5173 1.28479 49.4397 1.1362L48.1985 1.7838C48.185 1.75788 48.1974 1.77256 48.2167 1.86928C48.2341 1.95606 48.2512 2.07848 48.2659 2.24244C48.2953 2.57006 48.3111 3.02135 48.3111 3.604H49.7111ZM49.4269 1.1127C49.3033 0.89643 49.1154 0.747552 48.9549 0.645437L48.2033 1.82656C48.2186 1.83629 48.2298 1.84423 48.2377 1.85018C48.2456 1.85617 48.2492 1.85945 48.2495 1.85974C48.2498 1.86006 48.2458 1.85637 48.2392 1.84832C48.2326 1.84024 48.2224 1.82667 48.2114 1.8073L49.4269 1.1127ZM48.9549 0.645435C48.7407 0.509083 48.502 0.42954 48.2488 0.410062L48.1414 1.80594C48.1655 1.80779 48.1829 1.81358 48.2033 1.82656L48.9549 0.645435ZM48.2533 0.410418C48.0957 0.397288 47.8858 0.391999 47.6351 0.391999V1.792C47.8751 1.792 48.0385 1.79738 48.137 1.80558L48.2533 0.410418ZM48.3238 0.966779L48.2918 0.790779L46.9144 1.04122L46.9464 1.21722L48.3238 0.966779ZM47.7137 1.60721C48.474 1.48557 49.2795 1.424 50.1311 1.424V0.023999C49.2121 0.023999 48.3323 0.0904292 47.4925 0.224791L47.7137 1.60721Z" fill="#25A59E" mask="url(#path-1-outside-1_14_1879)"/>
</svg>
