<svg width="325" height="101" viewBox="0 0 325 101" fill="none" xmlns="http://www.w3.org/2000/svg">
<path d="M0.196016 2.6H30.148V10.088L29.628 9.984C29.628 5.75467 25.4334 3.64 17.044 3.64V27.248C17.044 32.3787 17.3387 35.4987 17.928 36.608C18.136 37.024 18.5 37.388 19.02 37.7C19.54 38.012 20.0947 38.2027 20.684 38.272C21.2734 38.3413 22.088 38.376 23.128 38.376L23.232 39H7.21602L7.32002 38.376C8.36002 38.376 9.17468 38.3587 9.76402 38.324C10.388 38.2547 10.9427 38.0467 11.428 37.7C11.948 37.3533 12.312 36.9893 12.52 36.608C12.7627 36.2267 12.9707 35.5507 13.144 34.58C13.3173 33.4013 13.404 30.9573 13.404 27.248V3.64C5.01468 3.64 0.820016 5.75467 0.820016 9.984L0.196016 10.088V2.6ZM44.8831 13.624C45.7498 13.624 46.5124 13.8147 47.1711 14.196C47.8298 14.5773 48.1591 15.0973 48.1591 15.756C48.1591 16.4147 47.9511 16.9347 47.5351 17.316C47.1191 17.6973 46.6511 17.888 46.1311 17.888C45.6111 17.888 44.9524 17.6627 44.1551 17.212C43.3924 16.7613 42.5778 16.536 41.7111 16.536C40.3591 16.536 39.2498 17.784 38.3831 20.28C37.5511 22.776 37.1351 25.6707 37.1351 28.964C37.1351 33.4013 37.3604 36.088 37.8111 37.024C37.9498 37.336 38.2098 37.6307 38.5911 37.908C38.9724 38.1507 39.3711 38.2893 39.7871 38.324C40.2031 38.3587 40.7924 38.376 41.5551 38.376L41.6591 39H29.0231L29.1271 38.376C30.2364 38.376 31.0338 38.324 31.5191 38.22C32.0391 38.0813 32.4724 37.648 32.8191 36.92C33.1658 36.192 33.3564 35.2907 33.3911 34.216C33.4604 33.1067 33.4951 31.356 33.4951 28.964V25.948C33.4951 21.1293 33.3564 18.3907 33.0791 17.732C32.8364 17.0733 32.6111 16.5533 32.4031 16.172C32.1951 15.7907 31.8831 15.5307 31.4671 15.392C30.7044 15.184 29.6991 15.08 28.4511 15.08L28.3471 14.508C31.2938 14.092 34.2231 13.884 37.1351 13.884V21.528C37.5164 19.0667 38.3658 17.1427 39.6831 15.756C41.0351 14.3347 42.7684 13.624 44.8831 13.624ZM69.59 22.204V27.456C69.59 31.304 69.7114 33.8347 69.954 35.048C70.1967 36.2267 70.786 36.816 71.722 36.816C72.3114 36.816 73.0914 36.5733 74.062 36.088L74.322 36.608C74.0447 36.816 73.6807 37.076 73.23 37.388C72.7793 37.6653 71.8607 38.0467 70.474 38.532C69.0874 39.0173 67.7527 39.26 66.47 39.26C66.1233 37.804 65.95 35.4813 65.95 32.292C65.1873 34.4413 64.182 36.192 62.934 37.544C61.7207 38.8613 60.022 39.52 57.838 39.52C55.654 39.52 53.9207 38.948 52.638 37.804C51.39 36.6253 50.766 35.0307 50.766 33.02C50.766 27.4387 55.8273 24.6307 65.95 24.596V22.724C65.95 20.228 65.586 18.3213 64.858 17.004C64.13 15.6867 62.778 15.028 60.802 15.028C59.6927 15.028 58.7913 15.3053 58.098 15.86C57.4047 16.4147 56.9367 17.0213 56.694 17.68C56.1047 19.4827 55.2207 20.384 54.042 20.384C52.898 20.384 52.326 19.7427 52.326 18.46C52.326 17.1427 53.1927 16.0507 54.926 15.184C56.6593 14.3173 58.7567 13.884 61.218 13.884C63.6794 13.884 65.69 14.5947 67.25 16.016C68.81 17.4027 69.59 19.4653 69.59 22.204ZM54.718 33.228C54.718 34.58 55.0473 35.7067 55.706 36.608C56.3647 37.4747 57.4047 37.908 58.826 37.908C60.282 37.908 61.5993 37.2147 62.778 35.828C63.9567 34.4067 64.754 32.8467 65.17 31.148C65.6207 29.4147 65.8807 27.6293 65.95 25.792C62.102 25.8267 59.2593 26.5373 57.422 27.924C55.6193 29.3107 54.718 31.0787 54.718 33.228ZM83.9067 17.368C83.9067 18.9627 84.7213 21.8053 86.3507 25.896L90.3547 35.984L94.4107 23.504C95.208 21.008 95.6067 19.1187 95.6067 17.836C95.6067 15.964 94.3933 15.028 91.9667 15.028L91.8627 14.404H101.639L101.535 15.028C100.113 15.028 99.108 15.496 98.5187 16.432C97.964 17.3333 96.9067 20.1587 95.3467 24.908L90.6667 39.156H87.5987L80.8387 21.892C79.6947 18.98 78.6547 17.108 77.7187 16.276C76.8173 15.444 75.7253 15.028 74.4427 15.028L74.3387 14.404H87.2347L87.1307 15.028C85.9173 15.028 85.068 15.2187 84.5827 15.6C84.132 15.9813 83.9067 16.5707 83.9067 17.368ZM124.219 25.844H107.163V26.728C107.163 30.4027 107.943 33.2107 109.503 35.152C111.063 37.0587 113.004 38.012 115.327 38.012C118.794 38.012 121.29 36.6253 122.815 33.852L123.595 34.268C121.792 37.7693 118.776 39.52 114.547 39.52C111.427 39.52 108.758 38.3933 106.539 36.14C104.32 33.8867 103.211 30.8533 103.211 27.04C103.211 23.192 104.182 20.0373 106.123 17.576C108.099 15.1147 110.716 13.884 113.975 13.884C117.268 13.884 119.799 15.0107 121.567 17.264C123.335 19.4827 124.219 22.3427 124.219 25.844ZM114.131 14.924C112.12 14.924 110.526 15.7907 109.347 17.524C108.203 19.2227 107.51 21.4933 107.267 24.336H120.215C119.972 18.0613 117.944 14.924 114.131 14.924ZM136.342 0.727997V29.952C136.342 33.8 136.568 36.1747 137.018 37.076C137.469 37.9427 138.717 38.376 140.762 38.376L140.866 39H128.126L128.23 38.376C130.31 38.376 131.576 37.9427 132.026 37.076C132.477 36.2093 132.702 33.8347 132.702 29.952V10.088C132.702 6.24 132.494 3.91733 132.078 3.12C131.94 2.87733 131.68 2.63466 131.298 2.392C130.917 2.14933 130.501 2.01067 130.05 1.976C129.634 1.94133 129.028 1.924 128.23 1.924L128.126 1.352C130.726 0.935997 133.465 0.727997 136.342 0.727997Z" fill="#25A59E"/>
<path d="M176.84 22.204V27.456C176.84 31.304 176.961 33.8347 177.204 35.048C177.447 36.2267 178.036 36.816 178.972 36.816C179.561 36.816 180.341 36.5733 181.312 36.088L181.572 36.608C181.295 36.816 180.931 37.076 180.48 37.388C180.029 37.6653 179.111 38.0467 177.724 38.532C176.337 39.0173 175.003 39.26 173.72 39.26C173.373 37.804 173.2 35.4813 173.2 32.292C172.437 34.4413 171.432 36.192 170.184 37.544C168.971 38.8613 167.272 39.52 165.088 39.52C162.904 39.52 161.171 38.948 159.888 37.804C158.64 36.6253 158.016 35.0307 158.016 33.02C158.016 27.4387 163.077 24.6307 173.2 24.596V22.724C173.2 20.228 172.836 18.3213 172.108 17.004C171.38 15.6867 170.028 15.028 168.052 15.028C166.943 15.028 166.041 15.3053 165.348 15.86C164.655 16.4147 164.187 17.0213 163.944 17.68C163.355 19.4827 162.471 20.384 161.292 20.384C160.148 20.384 159.576 19.7427 159.576 18.46C159.576 17.1427 160.443 16.0507 162.176 15.184C163.909 14.3173 166.007 13.884 168.468 13.884C170.929 13.884 172.94 14.5947 174.5 16.016C176.06 17.4027 176.84 19.4653 176.84 22.204ZM161.968 33.228C161.968 34.58 162.297 35.7067 162.956 36.608C163.615 37.4747 164.655 37.908 166.076 37.908C167.532 37.908 168.849 37.2147 170.028 35.828C171.207 34.4067 172.004 32.8467 172.42 31.148C172.871 29.4147 173.131 27.6293 173.2 25.792C169.352 25.8267 166.509 26.5373 164.672 27.924C162.869 29.3107 161.968 31.0787 161.968 33.228ZM200.985 13.624C201.851 13.624 202.614 13.8147 203.273 14.196C203.931 14.5773 204.261 15.0973 204.261 15.756C204.261 16.4147 204.053 16.9347 203.637 17.316C203.221 17.6973 202.753 17.888 202.233 17.888C201.713 17.888 201.054 17.6627 200.257 17.212C199.494 16.7613 198.679 16.536 197.813 16.536C196.461 16.536 195.351 17.784 194.485 20.28C193.653 22.776 193.237 25.6707 193.237 28.964C193.237 33.4013 193.462 36.088 193.913 37.024C194.051 37.336 194.311 37.6307 194.693 37.908C195.074 38.1507 195.473 38.2893 195.889 38.324C196.305 38.3587 196.894 38.376 197.657 38.376L197.761 39H185.125L185.229 38.376C186.338 38.376 187.135 38.324 187.621 38.22C188.141 38.0813 188.574 37.648 188.921 36.92C189.267 36.192 189.458 35.2907 189.493 34.216C189.562 33.1067 189.597 31.356 189.597 28.964V25.948C189.597 21.1293 189.458 18.3907 189.181 17.732C188.938 17.0733 188.713 16.5533 188.505 16.172C188.297 15.7907 187.985 15.5307 187.569 15.392C186.806 15.184 185.801 15.08 184.553 15.08L184.449 14.508C187.395 14.092 190.325 13.884 193.237 13.884V21.528C193.618 19.0667 194.467 17.1427 195.785 15.756C197.137 14.3347 198.87 13.624 200.985 13.624ZM205.84 26.728C205.84 23.088 206.88 20.0373 208.96 17.576C211.04 15.1147 213.865 13.884 217.436 13.884C221.006 13.884 223.884 15.1147 226.068 17.576C228.252 20.0373 229.344 23.088 229.344 26.728C229.344 30.368 228.286 33.4187 226.172 35.88C224.092 38.3067 221.266 39.52 217.696 39.52C214.125 39.52 211.248 38.2893 209.064 35.828C206.914 33.3667 205.84 30.3333 205.84 26.728ZM211.82 35.152C213.206 37.3707 215.165 38.48 217.696 38.48C220.226 38.48 222.133 37.388 223.416 35.204C224.733 33.02 225.392 30.212 225.392 26.78C225.392 23.3133 224.698 20.4707 223.312 18.252C221.925 16.0333 219.966 14.924 217.436 14.924C214.94 14.924 213.033 16.0333 211.716 18.252C210.433 20.436 209.792 23.244 209.792 26.676C209.792 30.108 210.468 32.9333 211.82 35.152ZM252.34 33.332C252.894 31.98 253.293 30.6107 253.536 29.224C253.813 27.8373 253.952 26.3467 253.952 24.752C253.952 23.1573 253.917 21.8227 253.848 20.748C253.778 19.6733 253.657 18.72 253.484 17.888C253.31 17.0213 253.016 16.3973 252.6 16.016C251.837 15.3573 250.572 15.028 248.804 15.028L248.7 14.456C251.716 14.0747 254.68 13.884 257.592 13.884V27.456C257.592 31.304 257.713 33.8347 257.956 35.048C258.198 36.2267 258.788 36.816 259.724 36.816C260.313 36.816 261.093 36.5733 262.064 36.088L262.324 36.608C262.046 36.816 261.682 37.076 261.232 37.388C260.781 37.6653 259.862 38.0467 258.476 38.532C257.089 39.0173 255.754 39.26 254.472 39.26C254.125 37.2493 253.952 34.9267 253.952 32.292C252.357 37.1107 249.601 39.52 245.684 39.52C240.38 39.52 237.728 36.7467 237.728 31.2V26.156C237.728 20.956 237.468 17.8187 236.948 16.744C236.774 16.3627 236.462 16.016 236.012 15.704C235.596 15.392 235.128 15.2013 234.608 15.132C234.122 15.0627 233.446 15.028 232.58 15.028L232.476 14.456C235.492 14.0747 238.456 13.884 241.368 13.884V30.68C241.368 33.072 241.732 34.8747 242.46 36.088C243.222 37.3013 244.384 37.908 245.944 37.908C247.538 37.908 248.856 37.4747 249.896 36.608C250.97 35.7413 251.785 34.6493 252.34 33.332ZM274.083 13.884V23.192C274.395 20.696 275.262 18.5293 276.683 16.692C278.104 14.82 279.994 13.884 282.351 13.884C287.655 13.884 290.307 16.6573 290.307 22.204V30.42C290.307 34.0253 290.532 36.2613 290.983 37.128C291.468 37.96 292.716 38.376 294.727 38.376L294.831 39H282.195L282.299 38.376C284.379 38.376 285.627 37.9427 286.043 37.076C286.459 36.2093 286.667 33.8347 286.667 29.952V22.724C286.667 20.332 286.286 18.5293 285.523 17.316C284.795 16.1027 283.616 15.496 281.987 15.496C280.392 15.496 279.058 16.0507 277.983 17.16C276.908 18.2347 276.111 19.604 275.591 21.268C274.586 24.492 274.083 27.7333 274.083 30.992C274.083 34.2507 274.291 36.296 274.707 37.128C275.158 37.96 276.406 38.376 278.451 38.376L278.555 39H265.867L265.971 38.376C268.051 38.376 269.316 37.96 269.767 37.128C270.218 36.2613 270.443 33.9907 270.443 30.316V26.156C270.443 20.956 270.183 17.8187 269.663 16.744C269.49 16.3627 269.178 16.016 268.727 15.704C268.311 15.392 267.843 15.2013 267.323 15.132C266.838 15.0627 266.162 15.028 265.295 15.028L265.191 14.456C268.207 14.0747 271.171 13.884 274.083 13.884ZM316.041 33.228C315.486 35.0307 314.533 36.5387 313.181 37.752C311.863 38.9307 310.234 39.52 308.293 39.52C306.386 39.52 304.791 39.1387 303.509 38.376C302.226 37.6133 301.238 36.608 300.545 35.36C299.158 32.968 298.465 30.056 298.465 26.624C298.465 23.192 299.643 20.2107 302.001 17.68C304.358 15.1493 307.513 13.884 311.465 13.884C313.198 13.884 314.775 14.092 316.197 14.508V9.568C316.197 6.968 316.11 5.21733 315.937 4.316C315.763 3.38 315.486 2.808 315.105 2.6C314.411 2.184 313.319 1.976 311.829 1.976L311.725 1.404C314.221 0.987999 316.925 0.779999 319.837 0.779999V27.456C319.837 31.304 319.958 33.8347 320.201 35.048C320.443 36.2267 321.033 36.816 321.969 36.816C322.558 36.816 323.338 36.5733 324.309 36.088L324.569 36.608C324.291 36.816 323.927 37.076 323.477 37.388C323.026 37.6653 322.107 38.0467 320.721 38.532C319.334 39.0173 317.999 39.26 316.717 39.26C316.266 37.388 316.041 35.3773 316.041 33.228ZM303.665 34.112C304.081 35.256 304.722 36.1747 305.589 36.868C306.49 37.5613 307.565 37.908 308.813 37.908C310.095 37.908 311.239 37.4747 312.245 36.608C313.285 35.7413 314.065 34.632 314.585 33.28C315.659 30.68 316.197 27.9933 316.197 25.22V17.264C314.706 16.0853 313.077 15.496 311.309 15.496C309.541 15.496 308.067 15.8773 306.889 16.64C305.71 17.4027 304.809 18.408 304.185 19.656C303.006 21.9787 302.417 24.4573 302.417 27.092C302.417 29.6227 302.833 31.9627 303.665 34.112ZM60.2887 75.404H66.6847V76.548H60.2887V96.36C60.2887 97.088 60.4621 97.6773 60.8087 98.128C61.1554 98.544 61.6061 98.752 62.1607 98.752C63.4087 98.752 64.8821 98.388 66.5807 97.66L66.6847 98.232C64.2581 99.7573 62.1087 100.52 60.2367 100.52C59.0234 100.52 58.1221 100.225 57.5327 99.636C56.9434 99.0467 56.6487 98.024 56.6487 96.568V76.548H53.5287V75.404C55.4007 75.404 56.7007 74.884 57.4287 73.844C58.1914 72.7693 58.7634 71.192 59.1447 69.112L60.2887 69.008V75.404ZM77.9342 61.728V84.192C78.2462 81.696 79.1129 79.5293 80.5342 77.692C81.9555 75.82 83.8449 74.884 86.2022 74.884C91.5062 74.884 94.1582 77.6573 94.1582 83.204V91.42C94.1582 95.0253 94.3835 97.2613 94.8342 98.128C95.3195 98.96 96.5675 99.376 98.5782 99.376L98.6822 100H86.0462L86.1502 99.376C88.2302 99.376 89.4782 98.9427 89.8942 98.076C90.3102 97.2093 90.5182 94.8347 90.5182 90.952V83.724C90.5182 81.332 90.1369 79.5293 89.3742 78.316C88.6462 77.1027 87.4675 76.496 85.8382 76.496C84.2435 76.496 82.9089 77.0507 81.8342 78.16C80.7595 79.2347 79.9622 80.604 79.4422 82.268C78.4369 85.492 77.9342 88.7333 77.9342 91.992C77.9342 95.2507 78.1422 97.296 78.5582 98.128C79.0089 98.96 80.2569 99.376 82.3022 99.376L82.4062 100H69.7182L69.8222 99.376C71.9022 99.376 73.1675 98.96 73.6182 98.128C74.0689 97.2613 74.2942 94.9907 74.2942 91.316V74C74.2942 68.8 74.0515 65.68 73.5662 64.64C73.3582 64.224 73.0289 63.86 72.5782 63.548C72.1622 63.236 71.6942 63.0453 71.1742 62.976C70.6889 62.9067 70.0129 62.872 69.1462 62.872L69.0422 62.3C72.0582 61.9187 75.0222 61.728 77.9342 61.728ZM123.33 86.844H106.274V87.728C106.274 91.4027 107.054 94.2107 108.614 96.152C110.174 98.0587 112.116 99.012 114.438 99.012C117.905 99.012 120.401 97.6253 121.926 94.852L122.706 95.268C120.904 98.7693 117.888 100.52 113.658 100.52C110.538 100.52 107.869 99.3933 105.65 97.14C103.432 94.8867 102.322 91.8533 102.322 88.04C102.322 84.192 103.293 81.0373 105.234 78.576C107.21 76.1147 109.828 74.884 113.086 74.884C116.38 74.884 118.91 76.0107 120.678 78.264C122.446 80.4827 123.33 83.3427 123.33 86.844ZM113.242 75.924C111.232 75.924 109.637 76.7907 108.458 78.524C107.314 80.2227 106.621 82.4933 106.378 85.336H119.326C119.084 79.0613 117.056 75.924 113.242 75.924ZM147.206 78.368C147.206 79.9627 148.02 82.8053 149.65 86.896L153.654 96.984L159.01 79.46C158.178 77.172 156.756 76.028 154.746 76.028L154.642 75.404H166.654L166.55 76.028C165.336 76.028 164.487 76.2187 164.002 76.6C163.551 76.9813 163.326 77.64 163.326 78.576C163.326 79.512 164.14 82.2853 165.77 86.896L169.254 96.984L173.31 84.504C174.107 82.008 174.506 80.1187 174.506 78.836C174.506 76.964 173.292 76.028 170.866 76.028L170.762 75.404H180.538L180.434 76.028C179.012 76.028 178.007 76.496 177.418 77.432C176.863 78.3333 175.806 81.1587 174.246 85.908L169.566 100.156H166.498L159.686 81.384L153.966 100.156H150.898L144.138 82.892C142.994 79.98 141.954 78.108 141.018 77.276C140.116 76.444 139.024 76.028 137.741 76.028L137.637 75.404H150.534L150.43 76.028C149.216 76.028 148.367 76.2187 147.882 76.6C147.431 76.9813 147.206 77.5707 147.206 78.368ZM182.1 87.728C182.1 84.088 183.14 81.0373 185.22 78.576C187.3 76.1147 190.125 74.884 193.696 74.884C197.266 74.884 200.144 76.1147 202.328 78.576C204.512 81.0373 205.604 84.088 205.604 87.728C205.604 91.368 204.546 94.4187 202.432 96.88C200.352 99.3067 197.526 100.52 193.956 100.52C190.385 100.52 187.508 99.2893 185.324 96.828C183.174 94.3667 182.1 91.3333 182.1 87.728ZM188.08 96.152C189.466 98.3707 191.425 99.48 193.956 99.48C196.486 99.48 198.393 98.388 199.676 96.204C200.993 94.02 201.652 91.212 201.652 87.78C201.652 84.3133 200.958 81.4707 199.572 79.252C198.185 77.0333 196.226 75.924 193.696 75.924C191.2 75.924 189.293 77.0333 187.976 79.252C186.693 81.436 186.052 84.244 186.052 87.676C186.052 91.108 186.728 93.9333 188.08 96.152ZM225.791 74.624C226.658 74.624 227.421 74.8147 228.079 75.196C228.738 75.5773 229.067 76.0973 229.067 76.756C229.067 77.4147 228.859 77.9347 228.443 78.316C228.027 78.6973 227.559 78.888 227.039 78.888C226.519 78.888 225.861 78.6627 225.063 78.212C224.301 77.7613 223.486 77.536 222.619 77.536C221.267 77.536 220.158 78.784 219.291 81.28C218.459 83.776 218.043 86.6707 218.043 89.964C218.043 94.4013 218.269 97.088 218.719 98.024C218.858 98.336 219.118 98.6307 219.499 98.908C219.881 99.1507 220.279 99.2893 220.695 99.324C221.111 99.3587 221.701 99.376 222.463 99.376L222.567 100H209.931L210.035 99.376C211.145 99.376 211.942 99.324 212.427 99.22C212.947 99.0813 213.381 98.648 213.727 97.92C214.074 97.192 214.265 96.2907 214.299 95.216C214.369 94.1067 214.403 92.356 214.403 89.964V86.948C214.403 82.1293 214.265 79.3907 213.987 78.732C213.745 78.0733 213.519 77.5533 213.311 77.172C213.103 76.7907 212.791 76.5307 212.375 76.392C211.613 76.184 210.607 76.08 209.359 76.08L209.255 75.508C212.202 75.092 215.131 74.884 218.043 74.884V82.528C218.425 80.0667 219.274 78.1427 220.591 76.756C221.943 75.3347 223.677 74.624 225.791 74.624ZM238.59 61.728V90.952C238.59 94.8 238.816 97.1747 239.266 98.076C239.717 98.9427 240.965 99.376 243.01 99.376L243.114 100H230.374L230.478 99.376C232.558 99.376 233.824 98.9427 234.274 98.076C234.725 97.2093 234.95 94.8347 234.95 90.952V71.088C234.95 67.24 234.742 64.9173 234.326 64.12C234.188 63.8773 233.928 63.6347 233.546 63.392C233.165 63.1493 232.749 63.0107 232.298 62.976C231.882 62.9413 231.276 62.924 230.478 62.924L230.374 62.352C232.974 61.936 235.713 61.728 238.59 61.728ZM264.32 94.228C263.765 96.0307 262.812 97.5387 261.46 98.752C260.143 99.9307 258.513 100.52 256.572 100.52C254.665 100.52 253.071 100.139 251.788 99.376C250.505 98.6133 249.517 97.608 248.824 96.36C247.437 93.968 246.744 91.056 246.744 87.624C246.744 84.192 247.923 81.2107 250.28 78.68C252.637 76.1493 255.792 74.884 259.744 74.884C261.477 74.884 263.055 75.092 264.476 75.508V70.568C264.476 67.968 264.389 66.2173 264.216 65.316C264.043 64.38 263.765 63.808 263.384 63.6C262.691 63.184 261.599 62.976 260.108 62.976L260.004 62.404C262.5 61.988 265.204 61.78 268.116 61.78V88.456C268.116 92.304 268.237 94.8347 268.48 96.048C268.723 97.2267 269.312 97.816 270.248 97.816C270.837 97.816 271.617 97.5733 272.588 97.088L272.848 97.608C272.571 97.816 272.207 98.076 271.756 98.388C271.305 98.6653 270.387 99.0467 269 99.532C267.613 100.017 266.279 100.26 264.996 100.26C264.545 98.388 264.32 96.3773 264.32 94.228ZM251.944 95.112C252.36 96.256 253.001 97.1747 253.868 97.868C254.769 98.5613 255.844 98.908 257.092 98.908C258.375 98.908 259.519 98.4747 260.524 97.608C261.564 96.7413 262.344 95.632 262.864 94.28C263.939 91.68 264.476 88.9933 264.476 86.22V78.264C262.985 77.0853 261.356 76.496 259.588 76.496C257.82 76.496 256.347 76.8773 255.168 77.64C253.989 78.4027 253.088 79.408 252.464 80.656C251.285 82.9787 250.696 85.4573 250.696 88.092C250.696 90.6227 251.112 92.9627 251.944 95.112Z" fill="#262626"/>
</svg>
